<svg preserveAspectRatio="none" width="100%" height="100%" overflow="visible" style="display: block;" viewBox="0 0 90 25.3521" fill="none" xmlns="http://www.w3.org/2000/svg">
<g id="Bamboo" clip-path="url(#clip0_0_26)">
<path id="Vector" d="M70.4561 11.0799C70.4561 13.1978 70.11 15.2209 69.4654 17.1176C67.4373 14.1146 66.2419 10.4951 66.2419 6.59109C66.2419 4.47315 66.588 2.45004 67.2326 0.553374C69.2607 3.54062 70.4561 7.1759 70.4561 11.0799Z" fill="white"/>
<path id="Vector_2" d="M70.4869 17.2755C71.9339 7.71313 78.0659 1.23284 88.286 0C86.5094 10.9849 79.3868 16.3745 70.4869 17.2755Z" fill="white"/>
<path id="Vector_3" d="M90.0001 24.6882C88.3648 25.1624 86.7138 25.3521 84.9372 25.3521C80.2674 25.3521 75.9905 23.6293 72.7048 20.7685C71.9025 20.073 71.1482 19.2986 70.472 18.4609C70.4561 18.4451 70.4403 18.4135 70.4251 18.3976C70.4403 18.3976 70.4561 18.3818 70.472 18.3818C72.0913 17.9235 73.8051 17.6706 75.5665 17.6706C81.431 17.6864 86.5883 20.4523 90.0001 24.6882Z" fill="white"/>
<path id="Vector_4" d="M4.93694 16.1374C6.1319 16.1374 7.12244 16.5642 7.92433 17.4018C8.72621 18.2554 9.1193 19.346 9.1193 20.7052C9.1193 22.0645 8.7105 23.1709 7.90861 24.0402C7.15394 24.8937 6.06901 25.3679 4.93694 25.3363C4.29228 25.3521 3.64763 25.1782 3.09731 24.8463C2.57844 24.5144 2.13819 24.0718 1.83945 23.5345V25.194H-0.000172107V13.2292H1.83945V17.8761C2.13819 17.3544 2.57844 16.9277 3.09731 16.6274C3.64763 16.2955 4.29228 16.1216 4.93694 16.1374ZM6.44636 22.918C6.98098 22.3648 7.24825 21.622 7.24825 20.7052C7.24825 19.7885 6.98098 19.0615 6.44636 18.5399C5.94322 18.0183 5.2514 17.7338 4.54385 17.7496C3.82058 17.7338 3.12876 18.0341 2.64134 18.5557C2.10675 19.0931 1.83945 19.8201 1.83945 20.7368C1.83945 21.6536 2.10675 22.3806 2.64134 22.9338C3.12876 23.4554 3.82058 23.7557 4.54385 23.7557C5.26712 23.7399 5.89606 23.4712 6.44636 22.918ZM11.5407 24.0402C10.7388 23.1709 10.33 22.0645 10.33 20.7052C10.33 19.346 10.7388 18.2554 11.5407 17.4018C12.3426 16.5484 13.3489 16.1374 14.5281 16.1374C15.1728 16.1216 15.8175 16.2955 16.3835 16.6116C16.9023 16.9119 17.3269 17.3387 17.6256 17.8602V16.2797H19.481V25.194H17.6099V23.5186C17.3111 24.056 16.8866 24.5144 16.3677 24.8463C15.8175 25.1782 15.1728 25.3521 14.5281 25.3363C13.3804 25.3679 12.2954 24.8937 11.5407 24.0402ZM16.808 22.9338C17.3426 22.3964 17.6099 21.6536 17.6099 20.7368C17.6099 19.8201 17.3426 19.0931 16.808 18.5557C15.786 17.4967 14.1036 17.4651 13.0659 18.4924C13.0501 18.5083 13.0344 18.5241 13.0187 18.5399C12.4841 19.0615 12.2168 19.7885 12.2168 20.7052C12.2168 21.622 12.4841 22.349 13.0187 22.918C13.5533 23.4712 14.1822 23.7557 14.9212 23.7557C15.6288 23.7557 16.3206 23.4554 16.808 22.9338ZM23.7105 16.2955V17.7022C24.2923 16.659 25.2514 16.1532 26.5564 16.1532C27.2011 16.1374 27.8458 16.3113 28.396 16.6432C28.9464 16.9751 29.3709 17.4651 29.6224 18.0499C29.9212 17.4809 30.3615 16.9909 30.9275 16.659C31.4936 16.3271 32.1539 16.1532 32.8143 16.1532C33.8363 16.1532 34.6697 16.4852 35.33 17.149C35.9904 17.8128 36.3206 18.7453 36.3206 19.9623V25.2256H34.481V20.2469C34.481 19.4566 34.2766 18.8402 33.8835 18.4135C33.4904 17.9867 32.9401 17.7812 32.2483 17.7812C31.5564 17.7812 31.0218 17.9867 30.613 18.4135C30.2199 18.8402 30.0155 19.4566 30.0155 20.2469V25.2256H28.1916V20.2469C28.1916 19.4566 27.9872 18.8402 27.5941 18.4135C27.2011 17.9867 26.6508 17.7812 25.9589 17.7812C25.2671 17.7812 24.7168 17.9867 24.3237 18.4135C23.9149 18.8402 23.7262 19.4566 23.7262 20.2469V25.2256H21.8866V16.3113H23.7105V16.2955ZM43.5847 16.1374C44.7797 16.1374 45.7703 16.5642 46.5722 17.4018C47.374 18.2554 47.7671 19.346 47.7671 20.7052C47.7671 22.0645 47.3583 23.1709 46.5564 24.0402C45.8017 24.8937 44.7168 25.3679 43.5847 25.3363C42.9401 25.3521 42.2955 25.1782 41.7451 24.8463C41.2262 24.5144 40.786 24.0718 40.4873 23.5345V25.194H38.6476V13.2292H40.4873V17.8761C40.786 17.3544 41.2262 16.9277 41.7451 16.6274C42.2955 16.2955 42.9401 16.1374 43.5847 16.1374ZM45.0784 22.918C45.613 22.3648 45.8803 21.622 45.8803 20.7052C45.8803 19.7885 45.613 19.0615 45.0784 18.5399C44.5753 18.0183 43.8835 17.7338 43.1759 17.7496C42.4526 17.7338 41.7608 18.0341 41.2734 18.5557C40.7388 19.0931 40.4716 19.8201 40.4716 20.7368C40.4716 21.6536 40.7388 22.3806 41.2734 22.9338C41.7608 23.4554 42.4526 23.7557 43.1759 23.7557C43.8992 23.7399 44.5439 23.4712 45.0784 22.918ZM53.4432 25.3521C52.1539 25.3521 51.0847 24.9253 50.2357 24.0876C49.4023 23.2341 48.9778 22.1277 48.9778 20.7526C48.9778 19.3776 49.4181 18.2712 50.2828 17.4177C51.1477 16.5641 52.2325 16.1532 53.5218 16.1532C54.8112 16.1532 55.896 16.58 56.7609 17.4177C57.6256 18.2712 58.0659 19.3776 58.0659 20.7368C58.0659 22.1119 57.6256 23.2183 56.7294 24.0718C55.8332 24.9253 54.7483 25.3521 53.4432 25.3521ZM55.3615 22.9812C55.896 22.4439 56.1634 21.701 56.1634 20.7368C56.1634 19.7727 55.896 19.0298 55.3772 18.4924C54.8897 17.9709 54.198 17.6864 53.4747 17.6864C52.7671 17.6706 52.091 17.9709 51.6036 18.4924C51.1004 19.0298 50.8489 19.7727 50.8489 20.7368C50.8489 21.701 51.1004 22.4597 51.5879 22.9812C52.0596 23.5028 52.7357 23.8031 53.4432 23.7873C54.1665 23.8031 54.8583 23.5028 55.3615 22.9812ZM63.742 25.3521C62.4527 25.3521 61.3835 24.9253 60.5344 24.0876C59.7011 23.2341 59.2765 22.1277 59.2765 20.7526C59.2765 19.3776 59.7168 18.2712 60.5816 17.4177C61.4464 16.5641 62.5313 16.1532 63.8206 16.1532C65.1098 16.1532 66.1948 16.58 67.0593 17.4177C67.9245 18.2712 68.3643 19.3776 68.3643 20.7368C68.3643 22.1119 67.9245 23.2183 67.0283 24.0718C66.1321 24.9253 65.0312 25.3521 63.742 25.3521ZM65.6447 22.9812C66.179 22.4439 66.4464 21.701 66.4464 20.7368C66.4464 19.7727 66.179 19.0298 65.6599 18.4924C65.1725 17.9709 64.481 17.6864 63.7579 17.6864C63.0501 17.6706 62.3741 17.9709 61.8866 18.4924C61.3835 19.0298 61.1319 19.7727 61.1319 20.7368C61.1319 21.701 61.3835 22.4597 61.8709 22.9812C62.3426 23.5028 63.0187 23.8031 63.7262 23.7873C64.4652 23.8031 65.1573 23.5186 65.6447 22.9812Z" fill="white"/>
</g>
<defs>
<clipPath id="clip0_0_26">
<rect width="90" height="25.3521" fill="white"/>
</clipPath>
</defs>
</svg>
