<svg xmlns="http://www.w3.org/2000/svg" id="Layer_1" data-name="Layer 1" viewBox="0 0 168.75 36.87"><defs><style>.cls-1{fill:#0e1036;}.cls-2{fill:#f15c44;}.cls-3{fill:#ee335b;}.cls-4{fill:#ffd258;}.cls-5{fill:#28374c;}</style></defs><title>Kredi_Full Color</title><path class="cls-1" d="M202.84,192.82" transform="translate(-182.74 -173.76)"></path><polygon class="cls-2" points="17.22 35.82 0.26 35.82 0.26 18.53 17.22 35.82"></polygon><polyline class="cls-3" points="23.19 35.82 6.99 19.62 25.37 1.31 36.18 1.31 18.86 19.27 36.32 35.82 23.19 35.82"></polyline><polygon class="cls-4" points="3.96 16.59 19.25 1.31 0 1.31 0 12.63 3.96 16.59"></polygon><path class="cls-5" d="M247,209.77,240.65,199v10.74H231.9V175.19h8.75v19.13l6-9.95h9.83l-7.92,12.1,8.72,13.3Z" transform="translate(-182.74 -173.76)"></path><path class="cls-5" d="M277.2,184.24v8h-3.39c-3.1,0-4.4,1.36-4.4,4.6v12.92h-8.75v-25.4h5.86l1.37,2.81a8.48,8.48,0,0,1,7-2.94Z" transform="translate(-182.74 -173.76)"></path><path class="cls-5" d="M307.33,196.83a15.2,15.2,0,0,1-.19,2.31H288.28c.57,2.92,2.42,4.42,5.19,4.42a5.09,5.09,0,0,0,4.59-2.38h8.71c-1.79,5.8-6.93,9.42-13.3,9.42-7.93,0-13.8-5.79-13.8-13.55s5.82-13.52,13.8-13.52c8.19,0,13.86,5.85,13.86,13.3Zm-18.89-2.53h10.27a5.11,5.11,0,0,0-5.24-3.91A4.92,4.92,0,0,0,288.44,194.3Z" transform="translate(-182.74 -173.76)"></path><path class="cls-5" d="M338.19,175.19v34.58h-6.47l-.83-1.89a11.75,11.75,0,0,1-7.66,2.75c-7.8,0-13.35-5.67-13.35-13.56s5.55-13.54,13.35-13.54a11.88,11.88,0,0,1,6.31,1.77V175.19Zm-8.1,21.88a5.69,5.69,0,1,0-5.69,5.81A5.61,5.61,0,0,0,330.09,197.07Z" transform="translate(-182.74 -173.76)"></path><path class="cls-5" d="M342.74,184.37h8.75v25.4h-8.75Zm.06-10.61h8.62v7.43H342.8Z" transform="translate(-182.74 -173.76)"></path></svg>