<svg xmlns="http://www.w3.org/2000/svg" width="105" height="33" viewBox="0 0 105 33" fill="none">
  <g id="Layer_1">
    <g id="Group">
      <path id="Vector" fill-rule="evenodd" clip-rule="evenodd" d="M22.8314 11.9225H31.471C31.6626 11.9225 31.8193 12.08 31.8193 12.2725V20.9543C31.8193 21.1474 31.6626 21.3049 31.471 21.3049H22.8314C22.6398 21.3049 22.4825 21.1474 22.4825 20.9543V12.2725C22.4825 12.08 22.6398 11.9225 22.8314 11.9225ZM1.68477 11.9225H10.3244C10.5149 11.9225 10.6722 12.08 10.6722 12.2725V20.9543C10.6722 21.1474 10.5149 21.3049 10.3244 21.3049H1.68477C1.49268 21.3049 1.33594 21.1474 1.33594 20.9543V12.2725C1.33594 12.08 1.49268 11.9225 1.68477 11.9225ZM22.9543 1.43814C22.7749 1.25783 22.4646 1.22708 22.4646 1.64762V10.3294C22.4646 10.5219 22.6219 10.68 22.814 10.68L31.5048 10.6757C31.7639 10.6757 31.8568 10.3846 31.7075 10.234L22.9543 1.43814ZM10.1513 31.7712C10.3783 31.9992 10.6532 31.9515 10.6532 31.5803V22.8979C10.6532 22.7049 10.4965 22.5484 10.3044 22.5474L1.71275 22.5331C1.31694 22.5325 1.32116 22.9038 1.5312 23.1154L10.1513 31.7712ZM12.2174 1.29761H20.8566C21.0481 1.29761 21.2054 1.45511 21.2054 1.64762V10.3294C21.2054 10.5219 21.0481 10.68 20.8566 10.68H12.2174C12.0253 10.68 11.8686 10.5219 11.8686 10.3294V1.64762C11.8686 1.45511 12.0253 1.29761 12.2174 1.29761ZM12.228 22.5474H20.8666C21.0592 22.5474 21.216 22.7049 21.216 22.8979V31.5797C21.216 31.7722 21.0592 31.9297 20.8666 31.9297H12.228C12.0364 31.9297 11.8792 31.7722 11.8792 31.5797V22.8979C11.8792 22.7049 12.0364 22.5474 12.228 22.5474ZM22.7913 22.5474H31.4304C31.6225 22.5474 31.7787 22.7049 31.7787 22.8979V31.5797C31.7787 31.7722 31.6225 31.9297 31.4304 31.9297H22.7913C22.5986 31.9297 22.4419 31.7722 22.4419 31.5797V22.8979C22.4419 22.7049 22.5986 22.5474 22.7913 22.5474Z" fill="#00674E"></path>
      <path id="Vector_2" d="M44.726 22.5506L43.6515 19.4111H39.2042L38.1466 22.5506H35.8984L40.2291 10.6413H42.6424L46.9736 22.5506H44.726ZM42.0815 14.528C42.0371 14.3726 41.9712 14.1626 41.8825 13.8969C41.7949 13.6307 41.7094 13.3571 41.6271 13.0744C41.5442 12.7923 41.4809 12.5568 41.4366 12.3691C41.3817 12.5902 41.3131 12.8442 41.2302 13.1322C41.1474 13.4202 41.0671 13.6917 40.9906 13.9462C40.9141 14.2008 40.8582 14.3949 40.8254 14.528L39.7837 17.5842H43.1063L42.0815 14.528ZM52.3291 15.1262H50.1638V22.5506H48.0814V15.1262H46.6433V14.1292C47.1224 13.9298 47.6016 13.7304 48.0814 13.531V12.9169C48.0814 11.765 48.3542 10.9648 48.8999 10.5172C49.445 10.0686 50.1913 9.84424 51.1396 9.84424C51.5692 9.84424 51.9634 9.87924 52.3207 9.95189C52.6796 10.024 52.974 10.1041 53.2057 10.1927L52.6764 11.7539C52.4896 11.6982 52.2827 11.6457 52.0568 11.5959C51.8304 11.546 51.5856 11.5211 51.3206 11.5211C50.9243 11.5211 50.6319 11.6452 50.4451 11.8944C50.2578 12.1442 50.1638 12.5011 50.1638 12.9662V13.5474H52.3291V15.1262ZM57.8667 13.382C58.0098 13.382 58.1665 13.3873 58.338 13.3984C58.509 13.4096 58.6547 13.4318 58.776 13.4647L58.5934 15.4083C58.4842 15.386 58.3512 15.3664 58.1976 15.35C58.043 15.3335 57.9047 15.3251 57.7844 15.3251C57.3437 15.3251 56.93 15.4163 56.5447 15.5992C56.159 15.7827 55.8476 16.0643 55.6106 16.4467C55.3737 16.829 55.2549 17.3079 55.2549 17.8833V22.5511H53.1719V13.5474H54.7758L55.0734 15.1087H55.1726C55.4365 14.633 55.8001 14.2257 56.2629 13.8879C56.7263 13.5501 57.2604 13.382 57.8667 13.382ZM60.8263 10.076C61.1456 10.076 61.4179 10.1561 61.6438 10.3168C61.8707 10.4774 61.9831 10.7627 61.9831 11.1722C61.9831 11.5821 61.8707 11.87 61.6438 12.0355C61.4179 12.2015 61.1461 12.2853 60.8263 12.2853C60.5065 12.2853 60.2337 12.202 60.0078 12.0355C59.7809 11.87 59.6684 11.5826 59.6684 11.1722C59.6684 10.7627 59.7809 10.4769 60.0078 10.3168C60.2337 10.1566 60.5065 10.076 60.8263 10.076ZM61.867 13.5474V22.5506H59.784V13.5474H61.867ZM68.6775 13.382C69.6802 13.382 70.465 13.6418 71.0328 14.1626C71.6007 14.6834 71.8841 15.525 71.8841 16.6874V22.5511H69.8021V17.1027C69.8021 15.752 69.2507 15.0763 68.1487 15.0763C67.3107 15.0763 66.7375 15.342 66.4293 15.8739C66.1211 16.4053 65.9665 17.1642 65.9665 18.1495V22.5511H63.8835V13.5474H65.4873L65.7844 14.7269H65.9011C66.1866 14.2623 66.5813 13.9213 67.0822 13.706C67.584 13.4896 68.1155 13.382 68.6775 13.382ZM75.9176 22.5506L72.5116 13.5474H74.7101L76.4955 18.7472C76.6058 19.068 76.7076 19.4223 76.8016 19.8105C76.8955 20.1976 76.953 20.5243 76.9747 20.7905H77.0406C77.0739 20.5137 77.1404 20.1833 77.2396 19.802C77.3388 19.4207 77.4438 19.0686 77.5541 18.7477L79.3384 13.548H81.537L78.1325 22.5511L75.9176 22.5506ZM85.8349 13.382C87.0355 13.382 87.986 13.7421 88.6858 14.4617C89.3856 15.1808 89.7349 16.1836 89.7349 17.4681V18.5308H83.8174C83.8401 19.3502 84.0659 19.9844 84.4955 20.4331C84.9251 20.8817 85.5199 21.106 86.2809 21.106C86.854 21.106 87.3712 21.0482 87.834 20.9316C88.2969 20.8149 88.7708 20.6468 89.2552 20.4246V22.1025C88.8151 22.3125 88.3575 22.4674 87.8831 22.5676C87.4102 22.6673 86.8419 22.7171 86.1811 22.7171C85.3104 22.7171 84.5362 22.549 83.8591 22.2102C83.1809 21.8723 82.6521 21.3601 82.2716 20.6744C81.8911 19.9887 81.7017 19.1354 81.7017 18.1166C81.7017 16.5777 82.0811 15.4035 82.8416 14.5948C83.6021 13.7861 84.6005 13.382 85.8349 13.382ZM85.8349 14.9268C85.2734 14.9268 84.8185 15.1066 84.4712 15.4661C84.124 15.8267 83.9229 16.3613 83.868 17.0693H87.719C87.7079 16.4488 87.5512 15.937 87.2477 15.5329C86.9442 15.1288 86.474 14.9268 85.8349 14.9268ZM97.2901 19.9425C97.2901 20.851 96.9687 21.5404 96.3233 22.0108C95.6789 22.4817 94.7554 22.7166 93.5547 22.7166C92.9273 22.7166 92.389 22.6726 91.9425 22.5835C91.4971 22.4955 91.0643 22.3565 90.6458 22.1683V20.3906C91.086 20.6006 91.5736 20.7778 92.1082 20.9231C92.6423 21.0668 93.1473 21.1384 93.6202 21.1384C94.1933 21.1384 94.6065 21.0504 94.8604 20.8722C95.1137 20.6956 95.2409 20.4569 95.2409 20.1584C95.2409 19.9812 95.1902 19.8232 95.0915 19.6843C94.9923 19.5458 94.7976 19.3936 94.5052 19.2282C94.2134 19.0622 93.7806 18.8575 93.2075 18.6136C92.6344 18.3924 92.1583 18.1623 91.7778 17.9241C91.3973 17.6866 91.1108 17.406 90.9181 17.0852C90.7255 16.7643 90.6295 16.3486 90.6295 15.8389C90.6295 15.0307 90.9461 14.4187 91.5799 14.0035C92.2127 13.5888 93.0592 13.3809 94.1168 13.3809C94.6683 13.3809 95.1886 13.4361 95.6794 13.5469C96.1692 13.6583 96.6626 13.8237 97.1587 14.0454L96.4969 15.5897C96.0784 15.4126 95.6705 15.2635 95.2747 15.1416C94.8778 15.0196 94.4698 14.9586 94.0513 14.9586C93.1373 14.9586 92.6792 15.219 92.6792 15.7392C92.6792 15.9275 92.7367 16.0882 92.8523 16.2208C92.9689 16.3539 93.1716 16.4949 93.4645 16.6445C93.7563 16.794 94.1717 16.9743 94.7116 17.1849C95.2414 17.3954 95.6979 17.6139 96.0847 17.8409C96.47 18.0679 96.7682 18.3468 96.9771 18.6798C97.1856 19.0123 97.2901 19.4334 97.2901 19.9425ZM102.117 21.0387C102.37 21.0387 102.621 21.0143 102.869 20.9639C103.117 20.9141 103.345 20.8563 103.555 20.79V22.3512C103.334 22.4509 103.048 22.5363 102.695 22.6084C102.343 22.68 101.974 22.7161 101.588 22.7161C101.081 22.7161 100.618 22.6302 100.2 22.4589C99.78 22.2876 99.4501 21.9906 99.2079 21.5701C98.9646 21.149 98.8443 20.5625 98.8443 19.8099V15.1257H97.6373V14.0587C99.0876 13.4642 98.8353 12.1813 98.8353 10.9499L100.939 10.6493V11.9475C100.939 12.7886 100.34 13.4127 100.109 13.5708L103.473 13.548V15.1267H100.927V19.794C100.927 20.2146 101.037 20.5275 101.258 20.7327C101.478 20.9379 101.764 21.0387 102.117 21.0387Z" fill="#050505"></path>
    </g>
  </g>
</svg>
