<svg preserveAspectRatio="xMidYMid meet" width="102" height="28.7324" overflow="visible" style="display: block;" viewBox="0 0 102 28.7324" fill="none" xmlns="http://www.w3.org/2000/svg">
<g id="Bamboo" clip-path="url(#clip0_0_17)">
<path id="Vector" d="M79.8502 12.5572C79.8502 14.9576 79.458 17.2504 78.7275 19.3999C76.4289 15.9965 75.0742 11.8944 75.0742 7.4699C75.0742 5.06957 75.4664 2.77671 76.1969 0.627158C78.4955 4.01271 79.8502 8.13268 79.8502 12.5572Z" fill="#003930"/>
<path id="Vector_2" d="M79.8851 19.5789C81.525 8.74154 88.4747 1.39721 100.057 0C98.044 12.4495 89.9717 18.5578 79.8851 19.5789Z" fill="#003930"/>
<path id="Vector_3" d="M102 27.98C100.147 28.5174 98.2756 28.7323 96.2622 28.7323C90.9697 28.7323 86.1225 26.7798 82.3988 23.5376C81.4894 22.7494 80.6347 21.8717 79.8682 20.9223C79.8503 20.9044 79.8323 20.8686 79.8151 20.8506C79.8323 20.8506 79.8503 20.8327 79.8682 20.8327C81.7035 20.3133 83.6458 20.0266 85.642 20.0266C92.2885 20.0445 98.1334 23.1793 102 27.98Z" fill="#003930"/>
<path id="Vector_4" d="M5.59519 18.2891C6.94949 18.2891 8.0721 18.7728 8.9809 19.7221C9.88971 20.6894 10.3352 21.9254 10.3352 23.4659C10.3352 25.0065 9.8719 26.2604 8.96309 27.2456C8.1078 28.2129 6.87821 28.7502 5.59519 28.7145C4.86459 28.7323 4.13398 28.5353 3.51029 28.1591C2.92223 27.783 2.42328 27.2814 2.08471 26.6724V28.5532H-0.000195055V14.9931H2.08471V20.2595C2.42328 19.6684 2.92223 19.1847 3.51029 18.8444C4.13398 18.4682 4.86459 18.2712 5.59519 18.2891ZM7.30588 25.9737C7.91177 25.3468 8.21468 24.5049 8.21468 23.4659C8.21468 22.427 7.91177 21.603 7.30588 21.0119C6.73565 20.4207 5.95158 20.0983 5.1497 20.1162C4.32999 20.0983 3.54593 20.4387 2.99352 21.0298C2.38765 21.6388 2.08471 22.4628 2.08471 23.5018C2.08471 24.5407 2.38765 25.3647 2.99352 25.9916C3.54593 26.5828 4.32999 26.9231 5.1497 26.9231C5.9694 26.9053 6.6822 26.6007 7.30588 25.9737ZM13.0794 27.2456C12.1706 26.2604 11.7073 25.0065 11.7073 23.4659C11.7073 21.9254 12.1706 20.6894 13.0794 19.7221C13.9882 18.7548 15.1287 18.2891 16.4652 18.2891C17.1959 18.2712 17.9264 18.4682 18.568 18.8265C19.156 19.1668 19.6371 19.6505 19.9757 20.2416V18.4503H22.0784V28.5532H19.9579V26.6544C19.6193 27.2635 19.1382 27.783 18.5501 28.1591C17.9264 28.5353 17.1959 28.7323 16.4652 28.7145C15.1644 28.7502 13.9348 28.2129 13.0794 27.2456ZM19.0491 25.9916C19.6549 25.3826 19.9579 24.5407 19.9579 23.5018C19.9579 22.4628 19.6549 21.6388 19.0491 21.0298C17.8908 19.8296 15.9841 19.7938 14.808 20.9581C14.7902 20.976 14.7723 20.9939 14.7545 21.0119C14.1486 21.603 13.8457 22.427 13.8457 23.4659C13.8457 24.5049 14.1486 25.3289 14.7545 25.9737C15.3604 26.6007 16.0732 26.9231 16.9107 26.9231C17.7126 26.9231 18.4966 26.5828 19.0491 25.9916ZM26.8719 18.4682V20.0625C27.5313 18.8802 28.6183 18.307 30.0973 18.307C30.8279 18.2891 31.5585 18.4861 32.1822 18.8623C32.8059 19.2384 33.287 19.7938 33.5721 20.4566C33.9107 19.8117 34.4096 19.2564 35.0512 18.8802C35.6927 18.504 36.4411 18.307 37.1895 18.307C38.3478 18.307 39.2923 18.6832 40.0407 19.4355C40.7891 20.1878 41.1633 21.2447 41.1633 22.624V28.589H39.0784V22.9464C39.0784 22.0508 38.8468 21.3522 38.4013 20.8686C37.9558 20.3849 37.3321 20.1521 36.5481 20.1521C35.7639 20.1521 35.1581 20.3849 34.6947 20.8686C34.2492 21.3522 34.0176 22.0508 34.0176 22.9464V28.589H31.9505V22.9464C31.9505 22.0508 31.7189 21.3522 31.2734 20.8686C30.8279 20.3849 30.2042 20.1521 29.4201 20.1521C28.6361 20.1521 28.0124 20.3849 27.5669 20.8686C27.1036 21.3522 26.8897 22.0508 26.8897 22.9464V28.589H24.8048V18.4861H26.8719V18.4682ZM49.396 18.2891C50.7503 18.2891 51.873 18.7728 52.7818 19.7221C53.6906 20.6894 54.1361 21.9254 54.1361 23.4659C54.1361 25.0065 53.6728 26.2604 52.764 27.2456C51.9086 28.2129 50.6791 28.7502 49.396 28.7145C48.6654 28.7323 47.9348 28.5353 47.3111 28.1591C46.7231 27.783 46.2241 27.2814 45.8856 26.6724V28.5532H43.8006V14.9931H45.8856V20.2595C46.2241 19.6684 46.7231 19.1847 47.3111 18.8444C47.9348 18.4682 48.6654 18.2891 49.396 18.2891ZM51.0889 25.9737C51.6948 25.3468 51.9977 24.5049 51.9977 23.4659C51.9977 22.427 51.6948 21.603 51.0889 21.0119C50.5187 20.4207 49.7346 20.0983 48.9327 20.1162C48.113 20.0983 47.329 20.4387 46.7766 21.0298C46.1707 21.6388 45.8678 22.4628 45.8678 23.5018C45.8678 24.5407 46.1707 25.3647 46.7766 25.9916C47.329 26.5828 48.113 26.9231 48.9327 26.9231C49.7525 26.9053 50.4831 26.6007 51.0889 25.9737ZM60.569 28.7323C59.1078 28.7323 57.896 28.2487 56.9338 27.2993C55.9893 26.332 55.5082 25.0781 55.5082 23.5196C55.5082 21.9613 56.0071 20.7073 56.9872 19.74C57.9673 18.7727 59.1969 18.307 60.6581 18.307C62.1193 18.307 63.3488 18.7907 64.329 19.74C65.309 20.7073 65.808 21.9613 65.808 23.5018C65.808 25.0602 65.309 26.3141 64.2933 27.2814C63.2776 28.2487 62.0481 28.7323 60.569 28.7323ZM62.743 26.0454C63.3488 25.4364 63.6518 24.5945 63.6518 23.5018C63.6518 22.4091 63.3488 21.5671 62.7608 20.9581C62.2084 20.367 61.4243 20.0445 60.6046 20.0445C59.8028 20.0266 59.0365 20.367 58.4841 20.9581C57.9138 21.5671 57.6287 22.4091 57.6287 23.5018C57.6287 24.5945 57.9138 25.4543 58.4663 26.0454C59.0008 26.6365 59.7671 26.9769 60.569 26.959C61.3887 26.9769 62.1727 26.6365 62.743 26.0454ZM72.2409 28.7323C70.7797 28.7323 69.568 28.2487 68.6056 27.2993C67.6612 26.332 67.1801 25.0781 67.1801 23.5196C67.1801 21.9613 67.679 20.7073 68.6592 19.74C69.6392 18.7727 70.8688 18.307 72.33 18.307C73.7911 18.307 75.0208 18.7907 76.0006 19.74C76.9811 20.7073 77.4796 21.9613 77.4796 23.5018C77.4796 25.0602 76.9811 26.3141 75.9654 27.2814C74.9497 28.2487 73.702 28.7323 72.2409 28.7323ZM74.3973 26.0454C75.0028 25.4364 75.306 24.5945 75.306 23.5018C75.306 22.4091 75.0028 21.5671 74.4145 20.9581C73.8622 20.367 73.0785 20.0445 72.2589 20.0445C71.4568 20.0266 70.6906 20.367 70.1382 20.9581C69.568 21.5671 69.2828 22.4091 69.2828 23.5018C69.2828 24.5945 69.568 25.4543 70.1203 26.0454C70.6549 26.6365 71.4212 26.9769 72.223 26.959C73.0605 26.9769 73.8449 26.6544 74.3973 26.0454Z" fill="#003930"/>
</g>
<defs>
<clipPath id="clip0_0_17">
<rect width="102" height="28.7324" fill="white"/>
</clipPath>
</defs>
</svg>
