<svg width="100" height="37" viewBox="0 0 100 37" fill="none" xmlns="http://www.w3.org/2000/svg">
<path d="M10.1886 0H8.96269V36.4067H10.1886V0Z" fill="#19355E"/>
<path d="M19.1513 22.6894C19.1513 24.6802 17.544 26.2892 15.5553 26.2892C13.5666 26.2892 11.9593 24.6802 11.9593 22.6894C11.9593 20.6986 13.5666 19.0896 15.5553 19.0896C17.544 19.0896 19.1513 20.6986 19.1513 22.6894Z" fill="#19355E"/>
<path d="M19.1513 13.8264C19.1513 15.8171 17.544 17.4261 15.5553 17.4261C13.5666 17.4261 11.9593 15.8171 11.9593 13.8264C11.9593 11.8356 13.5666 10.2266 15.5553 10.2266C17.544 10.2266 19.1513 11.8356 19.1513 13.8264Z" fill="#19355E"/>
<path d="M7.19197 18.2716C7.19197 20.2624 5.58467 21.8714 3.59598 21.8714C1.6073 21.8714 0 20.2624 0 18.2716C0 16.2808 1.6073 14.6718 3.59598 14.6718C5.58467 14.6718 7.19197 16.2808 7.19197 18.2716Z" fill="#19355E"/>
<path d="M37.1023 14.7399C35.6857 14.7399 34.4598 15.2853 33.7788 16.0489V10.0493L31.2725 10.322V26.221H33.7788V25.0483C34.5143 25.7574 35.604 26.3573 37.1023 26.3573C40.4804 26.3573 42.7142 24.0938 42.7142 20.5486C42.7415 17.0034 40.4804 14.7399 37.1023 14.7399ZM36.9933 23.9575C35.0319 23.9575 33.7243 22.5121 33.7243 20.5486C33.7243 18.5851 35.0047 17.1398 36.9933 17.1398C38.9548 17.1398 40.2897 18.5851 40.2897 20.5486C40.2897 22.5121 38.982 23.9575 36.9933 23.9575Z" fill="#19355E"/>
<path d="M78.8648 20.5486C78.8648 18.5033 80.1724 17.0852 82.1339 17.0852C83.1418 17.0852 83.8774 17.4943 84.4495 18.0942L86.2747 16.4307C85.2395 15.3671 83.9046 14.7126 82.1339 14.7126C78.8103 14.7126 76.3313 17.1943 76.3313 20.5213C76.3313 23.8484 78.8103 26.33 82.1339 26.33C85.4302 26.33 87.9093 23.8211 87.9093 20.5213H85.403C85.403 22.5666 84.0408 23.9847 82.1066 23.9847C80.1724 24.012 78.8648 22.5939 78.8648 20.5486Z" fill="#19355E"/>
<path d="M59.55 14.8763V16.049C59.0869 15.449 57.8065 14.74 56.3081 14.74C53.0663 14.74 50.6145 17.1398 50.6145 20.5487C50.6145 23.9576 53.0663 26.3574 56.3081 26.3574C57.8337 26.3574 59.0869 25.6484 59.55 25.0484V26.221H62.0835V14.8763H59.55ZM56.3899 23.9576C54.5102 23.9576 53.0663 22.4031 53.0663 20.5487C53.0663 18.6943 54.5102 17.1398 56.3899 17.1398C58.2151 17.1398 59.6317 18.6943 59.6317 20.5487C59.6317 22.4031 58.2423 23.9576 56.3899 23.9576Z" fill="#19355E"/>
<path d="M89.2986 26.221H91.8049V19.9487C91.8049 18.2851 92.8128 17.0852 94.4474 17.0852C96.1636 17.0852 96.9264 18.1761 96.9264 19.9487V26.221H99.4327V19.4032C99.4327 16.3762 97.7709 14.7399 95.0739 14.7399C93.6029 14.7399 92.5132 15.3399 91.8321 16.158V10.0493L89.3258 10.322V26.221H89.2986Z" fill="#19355E"/>
<path d="M64.6171 26.221H67.1234V19.9487C67.1234 18.2579 67.9951 17.0853 69.6297 17.0853C71.2642 17.0853 72.1087 17.9579 72.1087 19.9487V26.221H74.615V19.4033C74.615 16.3762 73.0622 14.74 70.2562 14.74C68.7034 14.74 67.6682 15.4763 67.1506 16.1581V14.8763H64.6443V26.221H64.6171Z" fill="#19355E"/>
<path d="M44.485 26.221H46.9913V19.9487C46.9913 18.2579 48.1082 17.1398 49.6883 17.1398H49.9062V14.74C48.3261 14.74 47.5361 15.3399 46.9913 16.049V14.8763H44.485V26.221Z" fill="#19355E"/>
</svg>
