<svg width="163" height="47" viewBox="0 0 163 47" fill="none" xmlns="http://www.w3.org/2000/svg">
<path opacity="0.7" d="M0 11.5059V34.4946H12.8182L0 11.5059Z" fill="#353148"/>
<path opacity="0.7" d="M19.3711 0L0 11.5055H25.7692L19.3711 0Z" fill="#353148"/>
<path d="M38.7201 11.5055L19.3711 0L25.7691 11.5055H38.7201Z" fill="#353148"/>
<path opacity="0.7" d="M19.3713 46.0006L38.7204 34.4951H12.8184L19.3713 46.0006Z" fill="#353148"/>
<path opacity="0.7" d="M25.7695 11.5059L38.7205 34.4946V11.5059H25.7695Z" fill="#353148"/>
<path d="M0 34.4951L19.349 46.0006L12.796 34.4951H0Z" fill="#353148"/>
<path d="M91.4512 32.61H86.8242V21.1267C86.8242 16.8925 90.2335 13.2568 94.4841 13.2568H96.7865V18.0009H94.4841C92.7795 18.0009 91.4512 19.3754 91.4512 21.1267V32.61Z" fill="#353148"/>
<path d="M131.238 32.854C126.013 32.854 121.74 28.3538 121.74 22.989C121.74 17.4912 125.991 13.124 131.238 13.124C136.462 13.124 140.735 17.6242 140.735 22.989C140.713 28.4868 136.462 32.854 131.238 32.854ZM131.238 17.8903C128.559 17.8903 126.256 20.2623 126.256 23.0112C126.256 25.7601 128.448 28.1321 131.238 28.1321C133.916 28.1321 136.108 25.7601 136.108 23.0112C136.086 20.2401 133.894 17.8903 131.238 17.8903Z" fill="#353148"/>
<path d="M109.806 13.1464H106.175V17.8905H109.828C112.507 17.8905 114.809 20.2625 114.809 23.0114C114.809 25.7603 112.618 28.1324 109.828 28.1324H108.987C106.308 28.1324 104.006 25.7603 104.006 23.0114V4.03516H99.5117V23.0114C99.5117 28.5092 103.762 32.8764 109.009 32.8764H109.85C115.075 32.8764 119.348 28.3762 119.348 23.0114C119.303 17.5136 115.053 13.1464 109.806 13.1464Z" fill="#353148"/>
<path d="M161.033 32.6107H156.406V21.7481C156.406 19.5091 154.591 17.7577 152.51 17.7577H151.779C149.587 17.7577 147.883 19.6199 147.883 21.7481V32.6107H143.256V21.7481C143.256 16.871 147.019 13.0137 151.779 13.0137H152.377C157.115 13.0137 160.9 16.8932 160.9 21.7481V32.6107H161.033Z" fill="#353148"/>
<path d="M62.4956 32.6098H56.1419C51.1607 32.6098 47.043 28.3978 47.043 23.2768V22.5009C47.043 17.38 51.1607 13.168 56.1419 13.168H62.4956V18.0229H56.1419C53.7731 18.0229 51.7806 20.0624 51.7806 22.6339V23.4098C51.7806 25.9592 53.7731 28.0209 56.1419 28.0209H62.4956V32.6098Z" fill="#353148"/>
<path d="M84.0359 32.6102H79.409V23.0112C79.409 20.1515 77.1066 17.7794 74.295 17.7794C71.0185 17.7794 68.9375 20.2845 68.9375 22.5235C68.9375 22.7673 68.9375 23.1442 68.9375 23.2772C68.9375 25.7823 70.8857 27.7774 73.1881 27.7774H77.1951V32.5215H73.1881C68.3176 32.5215 64.3105 28.3982 64.3105 23.4102V22.6122C64.3105 17.3804 68.8047 13.124 74.295 13.124C79.6525 13.124 83.9031 17.6242 83.9031 22.989V32.588H84.0359V32.6102Z" fill="#353148"/>
<path d="M100.77 46.2422V37.2958H104.286C106.238 37.2958 107.252 38.0966 107.252 39.6231V39.6732C107.252 40.6116 106.801 41.2998 105.8 41.5876C106.964 41.8253 107.589 42.4885 107.589 43.6897V43.7397C107.589 45.3788 106.513 46.2422 104.449 46.2422H100.77ZM102.747 44.8408H104.136C105.137 44.8408 105.587 44.3904 105.587 43.577V43.527C105.587 42.7012 105.137 42.2758 104.036 42.2758H102.747V44.8408ZM102.747 40.9745H103.961C104.937 40.9745 105.325 40.6241 105.325 39.8233V39.7733C105.325 39.0225 104.899 38.6847 103.948 38.6847H102.747V40.9745ZM112.634 46.3798C110.282 46.3798 108.943 45.1286 108.943 42.7512V37.2958H110.983V42.6261C110.983 44.1151 111.421 44.7657 112.647 44.7657C113.848 44.7657 114.373 44.1902 114.373 42.551V37.2958H116.413V42.6762C116.413 45.1161 115.049 46.3798 112.634 46.3798ZM121.396 46.3798C118.944 46.3798 117.818 45.2287 117.705 43.4394H119.644C119.732 44.2402 120.07 44.9034 121.396 44.9034C122.284 44.9034 122.873 44.4154 122.873 43.7147C122.873 43.0015 122.497 42.7512 121.183 42.551C118.894 42.2507 117.955 41.5626 117.955 39.8358C117.955 38.3093 119.231 37.1707 121.208 37.1707C123.223 37.1707 124.399 38.0716 124.562 39.8484H122.697C122.572 39.035 122.097 38.6597 121.208 38.6597C120.32 38.6597 119.87 39.0726 119.87 39.6732C119.87 40.3113 120.157 40.6116 121.534 40.8118C123.698 41.0871 124.812 41.6752 124.812 43.527C124.812 45.1161 123.511 46.3798 121.396 46.3798ZM126.322 46.2422V37.2958H128.361V46.2422H126.322ZM130.341 46.2422V37.2958H132.693L136.096 43.1892V37.2958H137.898V46.2422H135.871L132.142 39.8734V46.2422H130.341ZM139.823 46.2422V37.2958H145.653V38.8724H141.837V40.962H144.89V42.4384H141.837V44.6656H145.854V46.2422H139.823ZM150.392 46.3798C147.94 46.3798 146.814 45.2287 146.701 43.4394H148.64C148.728 44.2402 149.066 44.9034 150.392 44.9034C151.28 44.9034 151.869 44.4154 151.869 43.7147C151.869 43.0015 151.493 42.7512 150.179 42.551C147.89 42.2507 146.951 41.5626 146.951 39.8358C146.951 38.3093 148.227 37.1707 150.204 37.1707C152.219 37.1707 153.395 38.0716 153.558 39.8484H151.693C151.568 39.035 151.093 38.6597 150.204 38.6597C149.316 38.6597 148.866 39.0726 148.866 39.6732C148.866 40.3113 149.153 40.6116 150.53 40.8118C152.694 41.0871 153.808 41.6752 153.808 43.527C153.808 45.1161 152.507 46.3798 150.392 46.3798ZM158.273 46.3798C155.821 46.3798 154.695 45.2287 154.582 43.4394H156.522C156.609 44.2402 156.947 44.9034 158.273 44.9034C159.162 44.9034 159.75 44.4154 159.75 43.7147C159.75 43.0015 159.375 42.7512 158.061 42.551C155.771 42.2507 154.833 41.5626 154.833 39.8358C154.833 38.3093 156.109 37.1707 158.086 37.1707C160.1 37.1707 161.276 38.0716 161.439 39.8484H159.575C159.45 39.035 158.974 38.6597 158.086 38.6597C157.197 38.6597 156.747 39.0726 156.747 39.6732C156.747 40.3113 157.035 40.6116 158.411 40.8118C160.576 41.0871 161.689 41.6752 161.689 43.527C161.689 45.1161 160.388 46.3798 158.273 46.3798Z" fill="#EE4D87"/>
</svg>
