<svg width="96" height="24" viewBox="0 0 97 25" fill="#875df3" aria-hidden="true" focusable="false" xmlns="http://www.w3.org/2000/svg">
<g clip-path="url(#clip0_20466_100583)">
<path d="M18.2899 12.0431C21.1928 12.0431 23.5451 9.69069 23.5451 6.78781V1.77073C23.5451 1.19679 23.0805 0.732175 22.5066 0.732175H17.4895C14.5866 0.732175 12.2323 3.08649 12.2323 5.98937V8.9762C12.2323 9.22998 12.0273 9.43496 11.7735 9.43496C11.5198 9.43496 11.3148 9.22998 11.3148 8.9762V5.98352C11.3148 3.08454 8.95656 0.726318 6.05954 0.726318H1.04246C0.468521 0.726318 0.00390434 1.19094 0.00390434 1.76487V6.78196C0.00390434 9.67898 2.36213 12.0372 5.2611 12.0372H8.80234C9.05613 12.0372 9.2611 12.2422 9.2611 12.496C9.2611 12.7497 9.05613 12.9547 8.80234 12.9547H5.25525C2.35822 12.9547 0 15.3129 0 18.2119V23.229C0 23.8029 0.464617 24.2676 1.03856 24.2676H6.05564C8.95461 24.2676 11.3128 21.9093 11.3128 19.0104V16.0216C11.3128 15.7678 11.5178 15.5628 11.7716 15.5628C12.0254 15.5628 12.2304 15.7678 12.2304 16.0216V19.0143C12.2304 21.9132 14.5886 24.2715 17.4856 24.2715H22.5027C23.0766 24.2715 23.5412 23.8068 23.5412 23.2329V18.2158C23.5412 15.3129 21.1889 12.9606 18.286 12.9606H14.7213C14.4675 12.9606 14.2626 12.7556 14.2626 12.5018C14.2626 12.248 14.4675 12.0431 14.7213 12.0431H18.2899ZM9.82919 19.0123C9.82919 21.0933 8.13665 22.7859 6.05564 22.7859H1.48365V18.2119C1.48365 16.1309 3.17618 14.4384 5.25525 14.4384H8.8121L3.80088 19.4496C3.51 19.7385 3.51 20.209 3.80088 20.4979C3.94534 20.6424 4.13665 20.7166 4.32601 20.7166C4.51537 20.7166 4.70473 20.6443 4.85115 20.4999L9.78819 15.5648H9.83114V19.0123H9.82919ZM9.83309 9.43496H9.78819L4.8492 4.49206C4.56027 4.20314 4.0898 4.20314 3.80088 4.49206C3.51196 4.78098 3.51196 5.25145 3.80088 5.54037L8.8121 10.5555H5.26306C3.18204 10.5555 1.48951 8.86297 1.48951 6.78391V2.20802H6.06345C8.14446 2.20802 9.83504 3.90055 9.83504 5.98156V9.433L9.83309 9.43496ZM19.797 19.4496L14.7955 14.4442H18.286C20.367 14.4442 22.0576 16.1368 22.0576 18.2158V22.7898H17.4837C15.4026 22.7898 13.7121 21.0972 13.7121 19.0162V15.5648H13.8175L18.7487 20.4979C18.8931 20.6424 19.0844 20.7166 19.2738 20.7166C19.4632 20.7166 19.6525 20.6443 19.797 20.4999C20.0859 20.209 20.0879 19.7405 19.797 19.4496ZM13.8214 9.43496H13.7179V5.98742C13.7179 3.90641 15.4104 2.21583 17.4915 2.21583H22.0634V6.78781C22.0634 8.86883 20.3709 10.5614 18.2919 10.5614H14.7936L19.8067 5.55014C20.0976 5.26121 20.0976 4.79074 19.8067 4.50182C19.5178 4.2129 19.0493 4.21095 18.7584 4.50182L13.8214 9.43496Z"/>
<path d="M51.4453 1.09363H54.4087V23.9087H51.4453V1.09363Z"/>
<path d="M59.882 18.0793C60.5067 19.2975 61.4301 20.2267 62.6483 20.869C63.8664 21.5112 65.149 21.8314 66.4999 21.8314C67.1246 21.8314 67.7512 21.7318 68.3759 21.5346C69.0006 21.3375 69.5609 21.0583 70.0548 20.6952C70.5487 20.3341 70.9508 19.8968 71.2651 19.3873C71.5775 18.8777 71.7337 18.294 71.7337 17.6342C71.7337 16.582 71.3959 15.7914 70.7205 15.2643C70.045 14.7372 69.2134 14.3253 68.2276 14.0305C67.2398 13.7338 66.1543 13.48 64.9694 13.2653C63.7844 13.0525 62.6971 12.7225 61.7112 12.2775C60.7234 11.8324 59.8918 11.2155 59.2183 10.4248C58.5428 9.63421 58.2051 8.51562 58.2051 7.06711C58.2051 5.94851 58.4355 4.97633 58.8962 4.15447C59.3569 3.3326 59.9582 2.64739 60.698 2.10469C61.4379 1.56198 62.2695 1.15788 63.191 0.894339C64.1124 0.630795 65.0514 0.5 66.006 0.5C67.882 0.5 69.5043 0.845534 70.8708 1.5366C72.2373 2.22767 73.2973 3.31503 74.0567 4.79478L71.3901 6.37408C70.8298 5.31991 70.1309 4.52147 69.2915 3.97877C68.4521 3.43607 67.3569 3.16471 66.0079 3.16471C65.4809 3.16471 64.9284 3.24671 64.3544 3.41069C63.7786 3.57662 63.2593 3.80503 62.7986 4.10176C62.3379 4.39849 61.9513 4.77721 61.639 5.23792C61.3266 5.69863 61.1705 6.22572 61.1705 6.81723C61.1705 7.83821 61.5082 8.59566 62.1836 9.08955C62.8571 9.58345 63.6907 9.96998 64.6766 10.2491C65.6644 10.5283 66.7498 10.7684 67.9347 10.9656C69.1197 11.1628 70.2071 11.4849 71.1929 11.928C72.1807 12.3731 73.0123 13.0154 73.6858 13.8548C74.3613 14.6942 74.699 15.887 74.699 17.4351C74.699 18.6201 74.4765 19.6489 74.0314 20.5215C73.5863 21.3941 72.9772 22.1262 72.2041 22.7196C71.4311 23.3131 70.5506 23.7562 69.5628 24.053C68.575 24.3497 67.5384 24.498 66.4511 24.498C64.4755 24.498 62.6736 24.1193 61.0436 23.3619C59.4135 22.6044 58.1544 21.4351 57.2661 19.8558L59.884 18.0774L59.882 18.0793Z"/>
<path d="M95.6388 14.3272C95.6388 15.4458 95.6466 16.4512 95.6642 17.3394C95.6798 18.2277 95.7052 19.0515 95.7383 19.8089C95.7715 20.5664 95.8125 21.275 95.8613 21.9329C95.9101 22.5927 95.9843 23.2506 96.0839 23.9085H93.3177C93.1205 22.7899 93.0209 21.5542 93.0209 20.2052H92.9214C92.0644 21.6869 91.0024 22.7723 89.7354 23.4634C88.4685 24.1545 86.8638 24.5 84.9214 24.5C83.9336 24.5 82.9614 24.377 82.0087 24.1291C81.0541 23.8831 80.1971 23.4868 79.4416 22.9441C78.6842 22.4014 78.0673 21.7025 77.589 20.8455C77.1107 19.9905 76.8726 18.9519 76.8726 17.7338C76.8726 15.9885 77.3177 14.6064 78.2059 13.5854C79.0941 12.5644 80.1893 11.7992 81.4894 11.2897C82.7896 10.7801 84.1717 10.4502 85.6378 10.3019C87.1019 10.1535 88.3943 10.0793 89.5148 10.0793H92.9721V8.69717C92.9721 6.72157 92.363 5.30625 91.1449 4.4512C89.9267 3.59614 88.3962 3.16667 86.5514 3.16667C83.9179 3.16667 81.5968 4.02367 79.588 5.73377L77.8604 3.70937C78.9458 2.6552 80.2967 1.85676 81.9092 1.31406C83.5217 0.771352 85.0697 0.5 86.5514 0.5C89.3177 0.5 91.5217 1.15007 93.1693 2.45022C94.815 3.75037 95.6388 5.84895 95.6388 8.74597V14.3253V14.3272ZM89.7139 12.4512C88.4626 12.4512 87.2523 12.5332 86.0849 12.6972C84.9155 12.8631 83.8633 13.1423 82.9243 13.5366C81.9853 13.9309 81.2376 14.458 80.6773 15.1159C80.1171 15.7757 79.8379 16.5976 79.8379 17.5854C79.8379 18.2765 79.9941 18.8934 80.3064 19.438C80.6188 19.9807 81.0229 20.4258 81.5168 20.7714C82.0107 21.1169 82.5612 21.3804 83.1703 21.562C83.7793 21.7435 84.3962 21.8333 85.0229 21.8333C86.6022 21.8333 87.9023 21.603 88.9233 21.1423C89.9443 20.6816 90.7584 20.0803 91.3674 19.3404C91.9765 18.6005 92.3962 17.7611 92.6266 16.8221C92.8569 15.8831 92.9721 14.9383 92.9721 13.9837V12.4531H89.7139V12.4512Z"/>
<path d="M29.3949 1.09363H32.1084V10.7862H44.3212V1.09363H47.0347V23.9692H44.3212V13.3064H32.1084V23.9692H29.3949V1.09363Z"/>
</g>
<defs>
<clipPath id="clip0_20466_100583">
<rect width="96.0781" height="24" transform="translate(0 0.5)"/>
</clipPath>
</defs>
</svg>
