<svg width="218" height="54" viewBox="0 0 218 54" fill="none" xmlns="http://www.w3.org/2000/svg">
<path d="M37.8275 41.4468C34.5954 37.7561 31.4071 34.0146 27.8984 30.6006C26.6682 29.4068 24.6082 28.6934 22.8539 28.5187C19.5782 28.1911 16.2515 28.4241 12.9467 28.4241C12.9467 28.4168 12.9467 28.4168 12.9467 28.4095C9.24154 28.4095 5.52907 28.3585 1.83117 28.4532C1.13963 28.4677 0.309792 28.9409 0.0841326 29.4504C-0.134247 29.9527 0.0914154 30.9209 0.542734 31.4523C3.61461 35.0119 6.59913 38.6806 9.97674 41.9345C11.4326 43.3394 13.7183 44.5405 15.6837 44.6351C22.5845 44.9627 29.4999 44.7953 36.4153 44.7152C37.1942 44.7079 38.3953 44.293 38.6282 43.747C38.8539 43.1792 38.3443 42.0437 37.8275 41.4468Z" fill="#C4E9FD"/>
<path d="M2.07083 24.9441C5.57947 25.0242 9.09538 24.9805 12.6113 24.9805C15.8215 24.9805 19.039 24.9296 22.2491 24.9951C24.9571 25.0533 27.0681 24.0196 28.8369 21.996C31.6176 18.8295 34.5294 15.7794 37.281 12.5838C37.9215 11.8413 38.9552 10.7567 38.5621 9.81039C38.169 8.8568 36.6404 8.76218 35.6722 8.74762C29.3465 8.65299 23.0062 8.48557 16.7023 8.82042C14.4894 8.93688 11.8907 9.91958 10.2674 11.3973C6.80241 14.5565 3.82514 18.269 0.738705 21.8286C0.24371 22.4036 -0.200311 23.6484 0.280125 24.1871C0.9935 25.0024 1.35746 24.9296 2.07083 24.9441Z" fill="#C4E9FD"/>
<path d="M48.5155 39.6211V14.8648H65.2436V19.2148H53.0954V24.6612H60.2924V29.0113H53.0954V35.2357H65.9863V39.6211H48.5155ZM70.2007 39.6211V21.549H74.6215V23.4941C74.9516 22.7986 75.4703 22.2327 76.1776 21.7966C76.8849 21.3486 77.6276 21.1246 78.4056 21.1246C79.6906 21.1246 80.7752 21.5667 81.6593 22.4508L81.0404 26.5003C80.5571 26.0994 80.0855 25.8165 79.6258 25.6515C79.166 25.4864 78.6591 25.4039 78.105 25.4039C77.3741 25.4039 76.7493 25.5748 76.2306 25.9167C75.7119 26.2586 75.3111 26.7537 75.0282 27.4021C74.757 28.0505 74.6215 28.8285 74.6215 29.7363V39.6211H70.2007ZM84.4646 39.6211V21.549H88.8853V23.4941C89.2154 22.7986 89.7341 22.2327 90.4415 21.7966C91.1488 21.3486 91.8915 21.1246 92.6695 21.1246C93.9545 21.1246 95.0391 21.5667 95.9232 22.4508L95.3043 26.5003C94.821 26.0994 94.3494 25.8165 93.8897 25.6515C93.4299 25.4864 92.923 25.4039 92.3689 25.4039C91.638 25.4039 91.0132 25.5748 90.4945 25.9167C89.9758 26.2586 89.575 26.7537 89.2921 27.4021C89.0209 28.0505 88.8853 28.8285 88.8853 29.7363V39.6211H84.4646ZM104.138 40.0455C102.169 40.0455 100.607 39.515 99.4518 38.454C98.3083 37.3812 97.7365 35.9312 97.7365 34.104C97.7365 32.9251 98.0313 31.8936 98.6207 31.0094C99.2219 30.1135 100.053 29.4239 101.114 28.9405C102.187 28.4454 103.436 28.1978 104.863 28.1978C105.653 28.1978 106.413 28.2745 107.144 28.4277C107.887 28.5692 108.535 28.7755 109.089 29.0466V27.9149C109.089 26.9011 108.8 26.1407 108.223 25.6338C107.657 25.1151 106.82 24.8557 105.712 24.8557C104.827 24.8557 103.92 25.0149 102.988 25.3332C102.057 25.6515 101.114 26.123 100.159 26.7478L98.8329 23.2643C99.8703 22.5805 101.026 22.0559 102.299 21.6905C103.572 21.3132 104.857 21.1246 106.154 21.1246C108.582 21.1246 110.398 21.7023 111.6 22.8575C112.803 24.0011 113.404 25.7104 113.404 27.9856V39.6211H109.089V38.1711C108.476 38.7841 107.745 39.2497 106.896 39.568C106.059 39.8863 105.14 40.0455 104.138 40.0455ZM105.163 36.3144C105.894 36.3144 106.596 36.1729 107.268 35.89C107.951 35.5952 108.559 35.1826 109.089 34.6522V32.5125C108.582 32.2649 108.016 32.0763 107.392 31.9466C106.778 31.8052 106.165 31.7344 105.552 31.7344C104.456 31.7344 103.59 31.9466 102.953 32.371C102.328 32.7836 102.016 33.3613 102.016 34.104C102.016 34.7995 102.293 35.3418 102.847 35.7308C103.401 36.1198 104.173 36.3144 105.163 36.3144ZM118.691 39.6211V21.549H123.112V23.2819C123.689 22.5628 124.379 22.0264 125.181 21.6728C125.994 21.3073 126.919 21.1246 127.957 21.1246C129.973 21.1246 131.529 21.7494 132.625 22.999C133.722 24.2368 134.27 26.0228 134.27 28.357V39.6211H129.867V29.7186C129.867 28.1978 129.601 27.0897 129.071 26.3942C128.552 25.6868 127.739 25.3332 126.631 25.3332C125.428 25.3332 124.538 25.6868 123.961 26.3942C123.395 27.0897 123.112 28.1743 123.112 29.6478V39.6211H118.691ZM146.283 40.0455C143.961 40.0455 142.139 39.2085 140.819 37.5345C139.499 35.8605 138.838 33.5381 138.838 30.5674C138.838 28.6812 139.151 27.0308 139.776 25.6161C140.4 24.2015 141.273 23.0992 142.393 22.3094C143.524 21.5195 144.839 21.1246 146.336 21.1246C147.939 21.1246 149.254 21.714 150.279 22.8929V16.0849L154.682 14.0867V39.6211H150.279V38.1357C149.407 39.4089 148.075 40.0455 146.283 40.0455ZM147.008 35.8192C147.762 35.8192 148.405 35.6896 148.935 35.4302C149.466 35.1591 149.914 34.7583 150.279 34.2278V26.9247C149.914 26.4295 149.436 26.0405 148.847 25.7576C148.269 25.4746 147.656 25.3332 147.008 25.3332C145.817 25.3332 144.898 25.787 144.249 26.6948C143.601 27.5907 143.277 28.8816 143.277 30.5674C143.277 31.6755 143.424 32.6245 143.719 33.4143C144.014 34.1924 144.438 34.7877 144.992 35.2003C145.546 35.6129 146.218 35.8192 147.008 35.8192ZM160.205 46.8004V21.549H164.625V22.8752C165.616 21.7082 166.942 21.1246 168.604 21.1246C170.149 21.1246 171.481 21.5077 172.601 22.274C173.72 23.0285 174.581 24.113 175.182 25.5277C175.784 26.9423 176.084 28.6281 176.084 30.585C176.084 32.483 175.772 34.1452 175.147 35.5717C174.522 36.9863 173.644 38.0886 172.512 38.8784C171.38 39.6565 170.06 40.0455 168.551 40.0455C167.726 40.0455 166.983 39.8981 166.323 39.6034C165.663 39.2969 165.097 38.8489 164.625 38.2595V44.8022L160.205 46.8004ZM167.897 35.8192C169.099 35.8192 170.025 35.3654 170.673 34.4576C171.321 33.5381 171.646 32.2473 171.646 30.585C171.646 28.9228 171.316 27.632 170.655 26.7125C169.995 25.7929 169.076 25.3332 167.897 25.3332C167.178 25.3332 166.547 25.4629 166.005 25.7222C165.474 25.9816 165.015 26.3765 164.625 26.907V34.2101C164.944 34.717 165.392 35.1119 165.969 35.3948C166.559 35.6778 167.201 35.8192 167.897 35.8192ZM186.129 40.0455C184.16 40.0455 182.598 39.515 181.443 38.454C180.3 37.3812 179.728 35.9312 179.728 34.104C179.728 32.9251 180.023 31.8936 180.612 31.0094C181.213 30.1135 182.044 29.4239 183.105 28.9405C184.178 28.4454 185.428 28.1978 186.854 28.1978C187.644 28.1978 188.404 28.2745 189.135 28.4277C189.878 28.5692 190.526 28.7755 191.08 29.0466V27.9149C191.08 26.9011 190.792 26.1407 190.214 25.6338C189.648 25.1151 188.811 24.8557 187.703 24.8557C186.819 24.8557 185.911 25.0149 184.98 25.3332C184.049 25.6515 183.105 26.123 182.151 26.7478L180.824 23.2643C181.862 22.5805 183.017 22.0559 184.29 21.6905C185.563 21.3132 186.848 21.1246 188.145 21.1246C190.574 21.1246 192.389 21.7023 193.591 22.8575C194.794 24.0011 195.395 25.7104 195.395 27.9856V39.6211H191.08V38.1711C190.467 38.7841 189.737 39.2497 188.888 39.568C188.051 39.8863 187.131 40.0455 186.129 40.0455ZM187.155 36.3144C187.886 36.3144 188.587 36.1729 189.259 35.89C189.943 35.5952 190.55 35.1826 191.08 34.6522V32.5125C190.574 32.2649 190.008 32.0763 189.383 31.9466C188.77 31.8052 188.157 31.7344 187.544 31.7344C186.448 31.7344 185.581 31.9466 184.944 32.371C184.32 32.7836 184.007 33.3613 184.007 34.104C184.007 34.7995 184.284 35.3418 184.838 35.7308C185.392 36.1198 186.165 36.3144 187.155 36.3144ZM202.462 46.4821L205.203 39.3028L198.431 21.549H202.975L206.918 32.1235C207.025 32.371 207.125 32.6422 207.219 32.9369C207.313 33.2316 207.402 33.5263 207.484 33.821C207.555 33.5263 207.638 33.2375 207.732 32.9546C207.838 32.6599 207.944 32.3828 208.05 32.1235L211.993 21.549H216.538L207.025 46.4821H202.462Z" fill="#C4E9FD"/>
</svg>
