<svg width="311px" height="186px" viewBox="0 0 311 186" version="1.1" xmlns="http://www.w3.org/2000/svg" xmlns:xlink="http://www.w3.org/1999/xlink"><title>gtco-logo</title><g id="Page-1" stroke="none" stroke-width="1" fill="none" fill-rule="evenodd"><g id="gtco-logo" fill-rule="nonzero"><path d="M4.85,181.79 C2.43,181.79 0,181.01 0,174.79 C0,168.57 3.24,167.629987 5.71,167.629987 C6.79028223,167.627929 7.85699075,167.870674 8.83,168.34 L8.83,170.18 C7.83746641,169.773592 6.78163456,169.543474 5.71,169.5 C4.12,169.5 2.24,170.28 2.24,174.7 C2.24,179.12 3.67,180 5,180 C5.70727479,179.973231 6.41041974,179.879478 7.1,179.72 L7.1,175.11 L5.1,175.11 L5,173.25 L9.3,173.25 L9.3,181 C7.85801206,181.458489 6.36168866,181.724129 4.85,181.79 L4.85,181.79 Z" id="Path" fill="#3A474F"></path><path d="M18.74,181.59 L18.45,180.36 C17.6199527,181.190654 16.5206637,181.697745 15.35,181.79 C13.68,181.79 12.44,181.04 12.44,178.79 L12.44,171.23 L14.68,171.23 L14.68,178.43 C14.68,179.55 15.07,179.93 15.95,179.93 C16.8086082,179.837293 17.6285667,179.52378 18.33,179.02 L18.33,171.23 L20.57,171.23 L20.57,181.63 L18.74,181.59 Z" id="Path" fill="#3A474F"></path><path d="M29.22,181.59 L29,180.51 C28.3183149,181.323114 27.3110587,181.791946 26.25,181.790006 C24.97,181.790006 23.25,181.3 23.25,178.49 C23.25,175.68 25.54,175.16 27.19,175.16 L28.94,175.16 L28.94,174.16 C28.94,172.92 28.29,172.8 27.21,172.8 C26.1914301,172.861277 25.1840634,173.045961 24.21,173.35 L24.21,171.53 C25.3120971,171.171892 26.461351,170.979788 27.62,170.96 C29.62,170.96 31.21,171.47 31.21,174.33 L31.21,181.55 L29.22,181.59 Z M28.91,176.43 L27.91,176.43 C26.32,176.43 25.49,176.82 25.49,178.36 C25.49,179.9 26.14,180.04 26.95,180.04 C27.6838851,179.98888 28.3833111,179.70911 28.95,179.24 L28.91,176.43 Z" id="Shape" fill="#3A474F"></path><path d="M38.05,173.18 C37.4952668,173.184066 36.9627475,173.398503 36.56,173.78 L36.56,181.59 L34.32,181.59 L34.32,171.19 L36.09,171.19 L36.38,172.41 C36.748494,171.582454 37.5548285,171.035852 38.46,171 C38.7961051,171.00426 39.1310054,171.041099 39.46,171.11 L39.46,173.37 C38.9978025,173.258251 38.5252913,173.194579 38.05,173.18 L38.05,173.18 Z" id="Path" fill="#3A474F"></path><path d="M46.35,181.59 L46.1,180.51 C45.4209372,181.326526 44.4119805,181.796149 43.35,181.79006 C42.07,181.79006 40.35,181.3 40.35,178.49 C40.35,175.68 42.64,175.16 44.29,175.16 L46,175.16 L46,174.16 C46,172.92 45.35,172.8 44.27,172.8 C43.2515601,172.862346 42.2443212,173.047006 41.27,173.35 L41.27,171.53 C42.3720971,171.171892 43.521351,170.979788 44.68,170.96 C46.68,170.96 48.28,171.47 48.28,174.33 L48.28,181.55 L46.35,181.59 Z M46,176.43 L45,176.43 C43.41,176.43 42.58,176.82 42.58,178.36 C42.58,179.9 43.23,180.04 44.04,180.04 C44.7744971,179.991565 45.4747195,179.711476 46.04,179.24 L46,176.43 Z" id="Shape" fill="#3A474F"></path><path d="M57.79,181.59 L57.79,174.14 C57.79,173.06 57.19,172.92 56.36,172.92 C55.4265258,172.987867 54.5269047,173.298081 53.75,173.82 L53.75,181.59 L51.51,181.59 L51.51,171.19 L53.3,171.19 L53.69,172.39 C54.6489514,171.567807 55.8493646,171.07992 57.11,171 C58.83,171 60.03,171.72 60.03,174.1 L60.03,181.59 L57.79,181.59 Z" id="Path" fill="#3A474F"></path><path d="M66,181.79 C64.55,181.79 63.41,181.32 63.41,179.08 L63.41,172.78 L61.6,172.78 L61.6,171.19 L63.37,171.19 L63.51,168.86 L65.6,168.05 L65.6,171.19 L68,171.19 L67.76,172.78 L65.6,172.78 L65.6,179.1 C65.6,179.87 65.94,179.96 66.45,179.96 C67.0593072,179.89772 67.6617506,179.780578 68.25,179.61 L68.25,181.4 C67.5233361,181.640244 66.7651286,181.771667 66,181.79 L66,181.79 Z" id="Path" fill="#3A474F"></path><path d="M73.91,183 C73.26,185.16 72.02,185.55 70.79,185.55 C70.1122508,185.523141 69.4404525,185.412294 68.79,185.22 L68.79,183.47 C69.3986128,183.612457 70.0169894,183.709391 70.64,183.76 C71.37,183.76 71.8,183.23 72.09,182.02 L72.23,181.45 L68.23,171.22 L70.81,171.22 L73.14,179 L75,171.19 L77.45,171.19 L73.91,183 Z" id="Path" fill="#3A474F"></path><polygon id="Path" fill="#3A474F" points="91.22 169.86 88.13 169.86 88.13 181.59 85.9 181.59 85.9 169.86 82.56 169.86 82.56 167.86 91.47 167.86"></polygon><path d="M95.69,173.18 C95.1352668,173.184066 94.6027475,173.398503 94.2,173.78 L94.2,181.59 L92,181.59 L92,171.19 L93.77,171.19 L94.06,172.41 C94.4220769,171.594877 95.2095157,171.050618 96.1,171 C96.4361051,171.00426 96.7710054,171.041099 97.1,171.11 L97.1,173.37 C96.6378025,173.258251 96.1652913,173.194579 95.69,173.18 L95.69,173.18 Z" id="Path" fill="#3A474F"></path><path d="M105.07,181.59 L104.78,180.36 C103.949953,181.190654 102.850664,181.697745 101.68,181.79 C100.01,181.79 98.77,181.04 98.77,178.79 L98.77,171.23 L101,171.23 L101,178.43 C101,179.55 101.39,179.93 102.27,179.93 C103.128608,179.837293 103.948567,179.52378 104.65,179.02 L104.65,171.23 L106.89,171.23 L106.89,181.63 L105.07,181.59 Z" id="Path" fill="#3A474F"></path><path d="M112,181.79 C111.114176,181.753729 110.236825,181.602462 109.39,181.34 L109.39,179.46 C110.207746,179.710561 111.048661,179.878074 111.9,179.96 C112.9,179.96 113.68,179.79 113.68,178.71 C113.68,177.83 113.1,177.61 112.31,177.3 L111.39,176.92 C110.109159,176.556097 109.221447,175.391484 109.21,174.06 C109.21,171.84 110.88,171 112.88,171 C113.749291,171.005171 114.611447,171.157316 115.43,171.45 L115.43,173.23 C114.645382,172.996541 113.836942,172.852297 113.02,172.8 C112.02,172.8 111.35,173.08 111.35,173.92 C111.35,174.76 112.06,175 112.72,175.26 L113.72,175.63 C115.048309,176.001249 115.933561,177.253963 115.84,178.63 C115.88,181.36 113.86,181.79 112,181.79 Z" id="Path" fill="#3A474F"></path><path d="M121,181.79 C119.54,181.79 118.41,181.32 118.41,179.08 L118.41,172.78 L116.64,172.78 L116.64,171.19 L118.41,171.19 L118.54,168.86 L120.64,168.05 L120.64,171.19 L123,171.19 L122.76,172.78 L120.64,172.78 L120.64,179.1 C120.64,179.87 120.98,179.96 121.49,179.96 C122.099307,179.89772 122.701751,179.780578 123.29,179.61 L123.29,181.4 C122.550559,181.644164 121.778578,181.775636 121,181.79 L121,181.79 Z" id="Path" fill="#3A474F"></path><polygon id="Path" fill="#3A474F" points="137.26 181.59 137.26 175.08 132.82 175.08 132.82 181.59 130.58 181.59 130.58 167.86 132.82 167.86 132.82 173.25 137.26 173.25 137.26 167.86 139.49 167.86 139.49 181.59"></polygon><path d="M146.54,181.79 C144.54,181.79 142.04,181.1 142.04,176.39 C142.04,171.68 144.54,171 146.54,171 C148.54,171 151.03,171.66 151.03,176.39 C151.03,181.12 148.5,181.79 146.54,181.79 Z M146.54,172.63 C145.46,172.63 144.28,172.94 144.28,176.39 C144.28,179.84 145.65,180.14 146.54,180.14 C147.43,180.14 148.79,179.79 148.79,176.39 C148.79,172.99 147.62,172.63 146.54,172.63 Z" id="Shape" fill="#3A474F"></path><polygon id="Path" fill="#3A474F" points="153.49 181.59 153.49 167.46 155.72 167.46 155.72 181.59"></polygon><path d="M165.34,181.59 L165.06,180.59 C164.332084,181.356625 163.317057,181.784386 162.26,181.77 C160.71,181.77 158.37,181.08 158.37,176.37 C158.37,171.66 161.37,170.98 162.65,170.98 C163.477552,170.955708 164.276754,171.282654 164.85,171.88 L164.85,167.44 L167.08,167.44 L167.08,181.57 L165.34,181.59 Z M164.85,173.41 C164.319897,173.013018 163.681748,172.786353 163.02,172.76 C161.84,172.76 160.61,173.12 160.61,176.39 C160.61,179.81 161.73,180.06 162.83,180.06 C163.564468,179.996106 164.262071,179.710088 164.83,179.24 L164.85,173.41 Z" id="Shape" fill="#3A474F"></path><path d="M171.54,169.72 C170.967958,169.728115 170.447715,169.389772 170.223158,168.863586 C169.998601,168.3374 170.114248,167.727683 170.515883,167.320268 C170.917519,166.912854 171.525522,166.788509 172.054862,167.005526 C172.584203,167.222543 172.929942,167.737901 172.93,168.31 C172.935355,168.682104 172.791276,169.040816 172.530018,169.305833 C172.268759,169.57085 171.912142,169.720039 171.54,169.72 L171.54,169.72 Z M170.42,181.59 L170.42,171.19 L172.66,171.19 L172.66,181.59 L170.42,181.59 Z" id="Shape" fill="#3A474F"></path><path d="M182.2,181.59 L182.2,174.14 C182.2,173.06 181.59,172.92 180.76,172.92 C179.826526,172.987867 178.926905,173.298081 178.15,173.82 L178.15,181.59 L175.92,181.59 L175.92,171.19 L177.7,171.19 L178.09,172.39 C179.048951,171.567807 180.249365,171.07992 181.51,171 C183.24,171 184.43,171.72 184.43,174.1 L184.43,181.59 L182.2,181.59 Z" id="Path" fill="#3A474F"></path><path d="M194.42,172.8 C194.883786,173.254974 195.140461,173.880393 195.13,174.53 C195.13,177.06 193.5,178.1 191.22,178.1 C190.673631,178.100469 190.130499,178.016132 189.61,177.85 C189.30978,178.042499 189.108822,178.356724 189.06,178.71 C189.06,179.24 189.38,179.3 190.14,179.34 L192.85,179.49 C194.79,179.61 195.97,180.1 195.97,182.18 C195.97,184.79 194.09,185.52 190.97,185.52 C188.48,185.52 186.97,184.73 186.97,182.79 C187.008124,181.955304 187.433377,181.186151 188.12,180.71 C187.614958,180.397653 187.322854,179.832661 187.36,179.24 C187.440443,178.440502 187.89734,177.727297 188.59,177.32 C187.727454,176.669254 187.250161,175.62823 187.32,174.55 C187.32,172 188.97,171 191.24,171 C192.13,171 192.38,171.19 193.05,171.19 L196.21,171.19 L196.21,172.8 L194.42,172.8 Z M192.26,181.28 L189.79,181.14 C189.653428,181.147189 189.516572,181.147189 189.38,181.14 C189.11228,181.506714 188.962322,181.946127 188.95,182.4 C188.95,183.4 189.59,184.05 190.95,184.05 C193.03,184.05 193.89,183.54 193.89,182.38 C193.93,181.48 193.54,181.36 192.26,181.28 Z M191.26,172.45 C190.03,172.45 189.46,173.12 189.46,174.53 C189.46,175.94 190.07,176.65 191.26,176.65 C192.45,176.65 193.07,175.9 193.07,174.53 C193.07,173.16 192.38,172.45 191.22,172.45 L191.26,172.45 Z" id="Shape" fill="#3A474F"></path><path d="M207.79,181.79 C205.69,181.79 203.12,181.1 203.12,174.73 C203.12,168.36 206.18,167.66 207.98,167.66 C208.800896,167.660809 209.61457,167.813373 210.38,168.11 L210.38,170 C209.636598,169.752188 208.86272,169.607506 208.08,169.57 C206.71,169.57 205.35,170.29 205.35,174.77 C205.35,178.83 206.43,179.95 207.88,179.95 C208.729404,179.909775 209.569883,179.758489 210.38,179.5 L210.38,181.38 C209.54599,181.661848 208.670285,181.800473 207.79,181.79 L207.79,181.79 Z" id="Path" fill="#3A474F"></path><path d="M216,181.79 C214,181.79 211.51,181.1 211.51,176.39 C211.51,171.68 214,171 216,171 C218,171 220.49,171.66 220.49,176.39 C220.49,181.12 218,181.79 216,181.79 Z M216,172.63 C214.92,172.63 213.74,172.94 213.74,176.39 C213.74,179.84 215.12,180.14 216,180.14 C216.88,180.14 218.26,179.79 218.26,176.39 C218.26,172.99 217.07,172.63 216,172.63 Z" id="Shape" fill="#3A474F"></path><path d="M234.36,181.59 L234.36,174.1 C234.36,173.1 233.89,172.92 233.14,172.92 C232.339099,173.012792 231.571521,173.29378 230.9,173.74 L230.9,181.59 L228.67,181.59 L228.67,174.1 C228.67,173.1 228.2,172.92 227.45,172.92 C226.642949,172.985877 225.868841,173.269256 225.21,173.74 L225.21,181.59 L223,181.59 L223,171.19 L224.78,171.19 L225.17,172.33 C225.98602,171.552951 227.046248,171.082917 228.17,171 C229.246515,170.852268 230.281347,171.471505 230.66,172.49 C231.510045,171.620808 232.647659,171.091106 233.86,171 C235.51,171 236.59,171.74 236.59,174.1 L236.59,181.59 L234.36,181.59 Z" id="Path" fill="#3A474F"></path><path d="M244,181.79 C243.331613,181.782008 242.672997,181.628444 242.07,181.34 L242.07,185.34 L239.83,185.34 L239.83,171.19 L241.56,171.19 L241.91,172.19 C242.550731,171.433149 243.488424,170.991667 244.48,170.98 C246.07,170.98 248.35,171.47 248.35,176.31 C248.35,181.34 245.39,181.79 244,181.79 Z M244.11,172.72 C243.379647,172.763204 242.680762,173.032275 242.11,173.49 L242.11,179.77 C242.693526,179.96955 243.303597,180.080778 243.92,180.1 C244.98,180.1 246.15,179.67 246.15,176.33 C246.15,172.99 245.27,172.72 244.11,172.72 Z" id="Shape" fill="#3A474F"></path><path d="M256.26,181.59 L256,180.51 C255.324049,181.32496 254.318796,181.794567 253.26,181.790033 C251.98,181.790033 250.26,181.3 250.26,178.49 C250.26,175.68 252.56,175.16 254.21,175.16 L256,175.16 L256,174.16 C256,172.92 255.35,172.8 254.27,172.8 C253.25143,172.861277 252.244063,173.045961 251.27,173.35 L251.27,171.53 C252.372097,171.171892 253.521351,170.979788 254.68,170.96 C256.68,170.96 258.27,171.47 258.27,174.33 L258.27,181.55 L256.26,181.59 Z M255.95,176.43 L254.95,176.43 C253.36,176.43 252.53,176.82 252.53,178.36 C252.53,179.9 253.18,180.04 253.98,180.04 C254.713734,179.98822 255.412965,179.708527 255.98,179.24 L255.95,176.43 Z" id="Shape" fill="#3A474F"></path><path d="M267.7,181.59 L267.7,174.14 C267.7,173.06 267.09,172.92 266.27,172.92 C265.336055,172.985563 264.435855,173.295976 263.66,173.82 L263.66,181.59 L261.42,181.59 L261.42,171.19 L263.21,171.19 L263.6,172.39 C264.553196,171.571177 265.746171,171.083461 267,171 C268.73,171 269.93,171.72 269.93,174.1 L269.93,181.59 L267.7,181.59 Z" id="Path" fill="#3A474F"></path><path d="M276.63,183 C275.98,185.16 274.75,185.55 273.51,185.55 C272.83224,185.523243 272.160429,185.412395 271.51,185.22 L271.51,183.47 C272.11518,183.612736 272.730254,183.709677 273.35,183.76 C274.08,183.76 274.51,183.23 274.81,182.02 L274.94,181.45 L271,171.19 L273.57,171.19 L275.89,179.04 L277.75,171.19 L280.2,171.19 L276.63,183 Z" id="Path" fill="#3A474F"></path><path d="M291.41,181.79 C290.741613,181.782008 290.082997,181.628444 289.48,181.34 L289.48,185.34 L287.25,185.34 L287.25,171.19 L289,171.19 L289.36,172.19 C289.995972,171.4463 290.921537,171.012669 291.9,171 C293.49,171 295.76,171.49 295.76,176.33 C295.76,181.34 292.8,181.79 291.41,181.79 Z M291.53,172.72 C290.799647,172.763204 290.100762,173.032275 289.53,173.49 L289.53,179.77 C290.113526,179.96955 290.723597,180.080778 291.34,180.1 C292.4,180.1 293.58,179.67 293.58,176.33 C293.58,172.99 292.68,172.72 291.53,172.72 L291.53,172.72 Z" id="Shape" fill="#3A474F"></path><polygon id="Path" fill="#3A474F" points="298.41 181.59 298.41 167.46 300.65 167.46 300.65 181.59"></polygon><path d="M307.78,181.79 C305.97,181.79 303.3,181.36 303.3,176.45 C303.3,171.54 306.3,170.999928 307.97,170.999928 C308.69024,170.9963 309.404044,171.135662 310.07,171.41 L310.07,173.19 C309.421192,172.981017 308.749792,172.850094 308.07,172.8 C306.87,172.8 305.58,173.12 305.58,176.45 C305.58,179.51 306.72,179.93 307.91,179.93 C308.659385,179.879915 309.398996,179.731993 310.11,179.49 L310.11,181.38 C309.358814,181.634798 308.573042,181.773067 307.78,181.79 L307.78,181.79 Z" id="Path" fill="#3A474F"></path><rect id="Rectangle" fill="#E04403" x="159.14" y="0" width="151.86" height="151.86"></rect><rect id="Rectangle" fill="#FFFFFF" x="246.07" y="21.59" width="37.97" height="37.97"></rect><path d="M198.46,122.94 C192.28,122.94 185.68,121.22 185.68,106.19 C185.68,91.16 193.68,88.48 200.32,88.48 C203.03658,88.4285436 205.726706,89.0213993 208.17,90.21 L208.17,95.57 C205.649841,94.6281966 203.004876,94.0621404 200.32,93.89 C196.93,93.89 192.38,95.71 192.38,105.71 C192.38,116.29 195.92,117.58 198.38,117.58 C199.906782,117.53767 201.427995,117.377191 202.93,117.1 L202.93,107 L198.38,107 L197.9,101.88 L209.63,101.88 L209.63,121.22 C205.98986,122.242642 202.239162,122.820189 198.46,122.94 L198.46,122.94 Z" id="Path" fill="#FFFFFF"></path><polygon id="Path" fill="#FFFFFF" points="235.64 94.7 228.27 94.7 228.27 122.46 221.57 122.46 221.57 94.7 213.43 94.7 213.43 89 236.43 89"></polygon><path d="M249.94,122.94 C244.35,122.94 238.08,121.17 238.08,105.71 C238.08,90.25 246,88.48 250.57,88.48 C252.688678,88.4357838 254.792335,88.844923 256.74,89.68 L256.74,95.09 C254.856752,94.4352236 252.890896,94.0481115 250.9,93.94 C247.65,93.94 244.78,95.94 244.78,105.71 C244.78,114.47 246.83,117.44 250.42,117.44 C252.575356,117.363036 254.706436,116.958401 256.74,116.24 L256.74,121.65 C254.592729,122.564838 252.273129,123.004879 249.94,122.94 L249.94,122.94 Z" id="Path" fill="#FFFFFF"></path><path d="M272.29,122.94 C267.12,122.94 260.29,121.94 260.29,105.71 C260.29,89.48 267.51,88.48 272.29,88.48 C277.07,88.48 284.29,89.63 284.29,105.71 C284.25,122 277.31,122.94 272.29,122.94 Z M272.29,93.27 C268.94,93.27 267.02,95.47 267.02,105.71 C267.02,116.1 269.47,118.15 272.29,118.15 C275.11,118.15 277.55,116.24 277.55,105.71 C277.55,95.66 275.54,93.27 272.29,93.27 Z" id="Shape" fill="#FFFFFF"></path></g></g></svg>