<svg width="56" height="56" viewBox="0 0 56 56" fill="none" xmlns="http://www.w3.org/2000/svg">
<path d="M28 56C43.464 56 56 43.464 56 28C56 12.536 43.464 0 28 0C12.536 0 0 12.536 0 28C0 43.464 12.536 56 28 56Z" fill="#FECB32"/>
<path fillRule="evenodd" clipRule="evenodd" d="M7.57543 18.5883L7.04688 20.6314L17.5703 16.0645L7.57543 18.5883Z" fill="#FF7200"/>
<path d="M7.54688 24.3267V25.6499H10.9855V21.1992L7.54688 24.3267Z" fill="#D43264"/>
<path d="M7.54688 24.3307V25.6492H10.3595V22.0088L7.54688 24.3307Z" fill="#FF7200"/>
<path d="M33.8852 15.3874C34.0874 15.3323 34.4735 15.2771 35.0433 15.2771C36.4404 15.2771 37.2309 15.9575 37.2309 17.0978C37.2309 18.3668 36.3117 19.1208 34.8227 19.1208C34.4183 19.1208 34.1241 19.1024 33.8852 19.0472V15.3874ZM31.1094 25.6496H33.8852V21.2174C34.1425 21.2542 34.4735 21.2726 34.8411 21.2726C36.4956 21.2726 37.911 20.868 38.867 19.9668C39.6023 19.2679 40.0067 18.238 40.0067 17.0242C40.0067 15.8104 39.4736 14.7805 38.6831 14.1553C37.8559 13.4932 36.6242 13.1621 34.8962 13.1621C33.1866 13.1621 31.9733 13.2725 31.1094 13.4196V25.6496Z" fill="#005EC2"/>
<path d="M48.02 18.1275H43.461V15.5528H48.2957V13.2539H40.6484V25.6495H48.5531V23.3506H43.461V20.408H48.02V18.1275Z" fill="#005EC2"/>
<path d="M7.54688 13.2539V20.1153L9.264 19.4194L17.5784 16.0495C16.7101 16.7663 15.8418 17.4831 14.9735 18.1999V25.6495H17.7678V13.2539H14.9735C14.9735 14.08 14.9735 14.906 14.9735 15.7321C14.9735 16.1754 14.7547 16.7663 13.7569 16.9553L10.3595 17.5991V13.2539H7.54688Z" fill="#005EC2"/>
<path fillRule="evenodd" clipRule="evenodd" d="M24.3834 13.3828C27.9176 13.3828 30.7825 16.249 30.7825 19.7847C30.7825 23.3204 27.9176 26.1866 24.3834 26.1866C20.8493 26.1866 17.9844 23.3204 17.9844 19.7847C17.9844 16.249 20.8493 13.3828 24.3834 13.3828ZM24.3834 16.4998C26.1968 16.4998 27.6669 17.9705 27.6669 19.7847C27.6669 21.5989 26.1968 23.0696 24.3834 23.0696C22.5701 23.0696 21.1 21.5989 21.1 19.7847C21.1 17.9705 22.5701 16.4998 24.3834 16.4998Z" fill="#005EC2"/>
<path d="M7.91406 29.2104V27.6636H8.50496C8.60879 27.6636 8.68819 27.6687 8.74324 27.6783C8.82011 27.691 8.88459 27.7151 8.93671 27.7504C8.98879 27.786 9.0307 27.8357 9.0624 27.8995C9.0941 27.9632 9.10977 28.0334 9.10977 28.1101C9.10977 28.2412 9.06749 28.3524 8.98263 28.4431C8.8981 28.5342 8.74472 28.5796 8.52325 28.5796H8.12179V29.2104H7.91413H7.91406ZM8.12172 28.3981H8.52611C8.6602 28.3981 8.75489 28.3737 8.81136 28.3243C8.86745 28.275 8.89551 28.2058 8.89551 28.1162C8.89551 28.0518 8.8791 27.9963 8.84595 27.9502C8.81284 27.9041 8.76908 27.8735 8.71517 27.8588C8.68017 27.8498 8.61573 27.8451 8.52207 27.8451H8.12168L8.12172 28.3981ZM10.5103 29.2104L11.1107 27.6636H11.3384L11.9756 29.2104H11.7399L11.5589 28.7416H10.8998L10.73 29.2104H10.5103ZM10.9606 28.5753H11.494L11.3308 28.1464C11.2816 28.0161 11.2444 27.9085 11.2186 27.8235C11.1971 27.9243 11.1683 28.0233 11.1322 28.1212L10.9606 28.5753ZM13.891 29.2104V28.5551L13.2877 27.6636H13.5369L13.8462 28.1317C13.9037 28.2184 13.9573 28.3052 14.0061 28.392C14.0539 28.311 14.1118 28.2203 14.1792 28.1194L14.4823 27.6636H14.7238L14.0987 28.5551V29.2104H13.891ZM16.3755 29.2104V27.6636H16.6859L17.056 28.7585C17.0903 28.8604 17.115 28.9367 17.1307 28.9875C17.1485 28.9314 17.1766 28.8486 17.2145 28.7395L17.5912 27.6636H17.8684V29.2105H17.6695V27.9164L17.2127 29.2105H17.0261L16.5744 27.8926V29.2105L16.3755 29.2104ZM19.6771 29.2104V27.6636H20.8072V27.8451H19.8847V28.3203H20.7481V28.5018H19.8847V29.0289H20.8443V29.2104H19.6771ZM22.6006 29.2104V27.6636H22.8133L23.6345 28.8777V27.6636H23.8334V29.2104H23.6206L22.7995 27.9963V29.2104H22.6006ZM26.0512 29.2104V27.8451H25.5353V27.6636H26.7747V27.8451H26.2588V29.2104H26.0512ZM29.5681 28.7135L29.7627 28.6962C29.7718 28.774 29.7933 28.8378 29.8271 28.8878C29.861 28.9375 29.9135 28.9779 29.9845 29.0088C30.0555 29.0394 30.1357 29.0549 30.2246 29.0549C30.3036 29.0549 30.3732 29.0434 30.4337 29.02C30.4942 28.9966 30.539 28.9645 30.5685 28.9239C30.598 28.8832 30.613 28.8389 30.613 28.7913C30.613 28.7431 30.5987 28.701 30.5703 28.6646C30.5419 28.6286 30.4949 28.5984 30.4294 28.5735C30.3875 28.5576 30.2945 28.5324 30.1507 28.4982C30.0067 28.464 29.9062 28.432 29.8486 28.4018C29.7739 28.3629 29.7186 28.3146 29.6821 28.2574C29.6453 28.2001 29.6271 28.1357 29.6271 28.0647C29.6271 27.9863 29.6497 27.9132 29.6945 27.8455C29.7393 27.7774 29.8045 27.7259 29.8909 27.6907C29.9769 27.6554 30.0727 27.6377 30.1779 27.6377C30.2938 27.6377 30.3962 27.6561 30.4847 27.6932C30.5732 27.7299 30.6414 27.7843 30.6891 27.8563C30.7368 27.9279 30.7623 28.0093 30.7659 28.1L30.567 28.1151C30.5564 28.0176 30.5204 27.9438 30.4588 27.8941C30.3973 27.844 30.3062 27.8192 30.186 27.8192C30.0606 27.8192 29.9692 27.8419 29.912 27.8873C29.8548 27.9326 29.826 27.9874 29.826 28.0515C29.826 28.1069 29.8464 28.1526 29.8869 28.1886C29.927 28.2243 30.0308 28.2613 30.1991 28.2988C30.3674 28.3366 30.4829 28.3694 30.5456 28.3975C30.6363 28.4389 30.7037 28.4911 30.747 28.5548C30.7904 28.6182 30.8119 28.6913 30.8119 28.7741C30.8119 28.8565 30.7882 28.9336 30.7405 29.0063C30.6928 29.079 30.6246 29.1356 30.5354 29.1759C30.4461 29.2162 30.3459 29.2364 30.2341 29.2364C30.0927 29.2364 29.9743 29.2159 29.8789 29.1752C29.783 29.1345 29.7084 29.0733 29.6541 28.9912C29.5994 28.9095 29.571 28.8169 29.5681 28.7136V28.7135ZM32.5703 29.2104V27.6636H33.7004V27.8451H32.7779V28.3203H33.6413V28.5018H32.7779V29.0289H33.7375V29.2104H32.5703ZM35.5003 29.2104V27.6636H36.194C36.3335 27.6636 36.4395 27.6776 36.512 27.7054C36.5845 27.7331 36.6425 27.7821 36.6858 27.8522C36.7291 27.9225 36.7506 28.0002 36.7506 28.0852C36.7506 28.195 36.7146 28.2876 36.6428 28.3628C36.571 28.438 36.4603 28.4856 36.3102 28.5061C36.3652 28.532 36.4067 28.558 36.4351 28.5832C36.4956 28.6379 36.5528 28.7067 36.6064 28.7891L36.8771 29.2104H36.6184L36.4115 28.8885C36.3514 28.7953 36.3015 28.7243 36.2625 28.675C36.2231 28.6257 36.1882 28.5915 36.1572 28.5717C36.1266 28.5522 36.0949 28.5386 36.0628 28.5306C36.0395 28.5259 36.0013 28.5234 35.9477 28.5234H35.708V29.2104L35.5003 29.2104ZM35.708 28.3463H36.1524C36.2472 28.3463 36.3207 28.3366 36.374 28.3171C36.4272 28.298 36.4676 28.267 36.4949 28.2242C36.5226 28.1817 36.5364 28.1356 36.5364 28.0856C36.5364 28.0125 36.5099 27.952 36.4563 27.9048C36.4027 27.8577 36.3182 27.8343 36.2027 27.8343H35.708L35.708 28.3463ZM38.9531 29.2104L38.3484 27.6636H38.5728L38.9793 28.7877C39.0118 28.8777 39.0395 28.962 39.0613 29.0408C39.0853 28.9562 39.1134 28.8719 39.1454 28.7877L39.5673 27.6636H39.7786L39.1684 29.2104H38.9531ZM41.4722 29.2104V27.6636H41.8091V29.2104H41.4722ZM44.6313 28.6678L44.839 28.7197C44.7956 28.8878 44.7177 29.0156 44.6051 29.1038C44.4925 29.1921 44.3548 29.2364 44.192 29.2364C44.0237 29.2364 43.8867 29.2025 43.781 29.1345C43.6754 29.0668 43.5952 28.9685 43.5402 28.8399C43.4852 28.7111 43.4575 28.5732 43.4575 28.4255C43.4575 28.2646 43.4885 28.1242 43.5508 28.0042C43.6131 27.8843 43.7016 27.7933 43.8164 27.731C43.9311 27.6687 44.0576 27.6377 44.1952 27.6377C44.3519 27.6377 44.4834 27.6769 44.5898 27.7558C44.6965 27.8347 44.7708 27.9452 44.8128 28.0878L44.6094 28.1353C44.5734 28.023 44.5205 27.9409 44.4517 27.8897C44.3828 27.8383 44.2961 27.8127 44.1916 27.8127C44.0717 27.8127 43.9712 27.8411 43.8906 27.898C43.8102 27.9549 43.7533 28.0316 43.7209 28.1274C43.6881 28.2235 43.6717 28.3225 43.6717 28.4244C43.6717 28.5558 43.691 28.6707 43.7296 28.7686C43.7682 28.8669 43.8283 28.94 43.9099 28.9886C43.9916 29.0372 44.0797 29.0613 44.1748 29.0613C44.2907 29.0613 44.3883 29.0282 44.4684 28.9623C44.5486 28.8961 44.6029 28.7981 44.6313 28.6678L44.6313 28.6678ZM46.5715 29.2104V27.6636H47.7016V27.8451H46.7792V28.3203H47.6426V28.5018H46.7792V29.0289H47.7387V29.2104H46.5715Z" fill="#4B4B4D"/>
<path d="M7.19531 42.8382H11.82C14.3691 42.8382 16.4811 41.779 16.4811 39.3319C16.4811 37.7613 15.6436 36.8847 13.9685 36.556V36.483C15.3523 36.1177 15.9349 34.949 15.9349 33.9263C15.9349 31.5887 13.9321 30.9678 11.4559 30.9678H7.19531V42.8382ZM10.327 35.6429V33.3784H11.383C12.4027 33.3784 12.8761 33.6706 12.8761 34.4011C12.8761 35.1316 12.4027 35.6429 11.383 35.6429H10.327ZM10.327 40.4276V37.8344H11.6016C12.8396 37.8344 13.4222 38.1996 13.4222 39.0762C13.4222 39.9528 12.8396 40.4276 11.6016 40.4276H10.327ZM20.5304 37.8891L20.7307 37.0674C21.0075 35.9315 21.3133 34.5107 21.5682 33.3054H21.641C21.9324 34.4924 22.2382 35.9317 22.515 37.0674L22.7153 37.8891H20.5304ZM23.8623 42.8382H27.176L23.571 30.9678H19.7838L16.1787 42.8382H19.3832L19.9659 40.318H23.2796L23.8623 42.8382H23.8623ZM27.97 42.8382H30.9561V39.4049C30.9561 37.9439 30.7012 36.2273 30.5555 34.8759H30.6283L31.7572 37.5239L34.3791 42.8382H37.5836V30.9678H34.5975V34.4011C34.5975 35.8612 34.8524 37.6517 34.9981 38.9301H34.9253L33.7964 36.2638L31.1745 30.9678H27.97V42.8382ZM38.5972 42.8382H41.7289V39.8797L42.8577 38.2727L45.4796 42.8382H48.9026L44.6785 35.789L48.2107 30.9678H44.7877L41.8017 35.3872H41.7289V30.9678H38.5972V42.8382Z" fill="#005EC2"/>
</svg>
