<svg width="48" height="48" viewBox="0 0 48 48" fill="none" xmlns="http://www.w3.org/2000/svg">
<path fill-rule="evenodd" clip-rule="evenodd" d="M33.1433 1.8353C36.3626 3.17081 39.2527 5.18268 41.6151 7.73271C43.9775 10.2827 45.7561 13.3105 46.8289 16.6079C47.9016 19.9054 48.243 23.3944 47.8296 26.8353C47.4162 30.2763 46.2578 33.5875 44.4339 36.5417C42.6101 39.4958 40.1641 42.0228 37.2639 43.949C34.3637 45.8752 31.0781 47.1551 27.6328 47.7006C24.1875 48.2462 20.6641 48.0444 17.3047 47.1094C13.9453 46.1743 10.8295 44.5279 8.17129 42.2835C6.8415 41.0203 5.13058 37.2758 5.58627 34.3461C6.04196 31.4164 10.7439 31.5686 13.5485 32.4945C10.5036 34.1033 12.3057 37.8807 18.8138 39.8517C27.5962 42.5139 38.4873 39.0616 42.427 29.6717C46.6774 19.5206 41.3333 7.65359 30.492 3.1726C20.1353 -1.10264 5.26314 4.61689 0.789062 16.8789C1.01 16.1766 1.26547 15.4771 1.55546 14.7804C4.01903 8.90564 8.72962 4.24246 14.6524 1.81522C20.5752 -0.612013 27.2258 -0.60479 33.1433 1.8353" fill="#181C4B"/>
<path fill-rule="evenodd" clip-rule="evenodd" d="M33.1433 1.8353C36.3626 3.17081 39.2527 5.18268 41.6151 7.73271C43.9775 10.2827 45.7561 13.3105 46.8289 16.6079C47.9016 19.9054 48.243 23.3944 47.8296 26.8353C47.4162 30.2763 46.2578 33.5875 44.4339 36.5417C42.6101 39.4958 40.1641 42.0228 37.2639 43.949C34.3637 45.8752 31.0781 47.1551 27.6328 47.7006C24.1875 48.2462 20.6641 48.0444 17.3047 47.1094C13.9453 46.1743 10.8295 44.5279 8.17129 42.2835C6.8415 41.0203 5.13058 37.2758 5.58627 34.3461C6.04196 31.4164 10.7439 31.5686 13.5485 32.4945C10.5036 34.1033 12.3057 37.8807 18.8138 39.8517C27.5962 42.5139 38.4873 39.0616 42.427 29.6717C46.6774 19.5206 41.3333 7.65359 30.492 3.1726C20.1353 -1.10264 5.26314 4.61689 0.789062 16.8789C1.01 16.1766 1.26547 15.4771 1.55546 14.7804C4.01903 8.90564 8.72962 4.24246 14.6524 1.81522C20.5752 -0.612013 27.2258 -0.60479 33.1433 1.8353" fill="#243E90"/>
<path d="M7.96814 36.1061C7.93085 36.1637 7.89357 36.2295 7.86043 36.2913C7.58809 36.7724 7.38056 37.2871 7.24317 37.822C7.39952 37.218 7.64375 36.64 7.96814 36.1061M10.0188 34.1516H9.98976H10.0188ZM10.0975 34.1145L10.0478 34.1475L10.0975 34.1145ZM10.1223 34.1145H10.1016H10.1223ZM10.2756 33.7278L10.2383 33.7483L10.2756 33.7278ZM10.2963 33.7278H10.2756H10.2963ZM10.3543 33.6907L10.3005 33.7236L10.3543 33.6907ZM10.4372 33.6578L10.3792 33.6907L10.4372 33.6578ZM10.5159 33.6084L10.4372 33.6537L10.5159 33.6084ZM10.723 33.4973L10.52 33.6084L10.723 33.4973ZM10.8059 33.4521L10.723 33.4973L10.8059 33.4521ZM10.868 33.4233L10.8059 33.4521L10.868 33.4233ZM10.8887 33.4233H10.868H10.8887ZM10.9509 33.3945L10.8887 33.4233L10.9509 33.3945ZM11.0089 33.3945H10.9757H11.0089ZM11.071 33.3945H11.042H11.071ZM32.9235 21.0625C30.2805 23.2598 26.8338 23.5725 23.1096 23.5725C22.368 23.5725 21.6182 23.5725 20.8601 23.5478C20.102 23.5231 19.3356 23.5231 18.5651 23.5231C15.8185 23.5231 13.0346 23.6836 10.4082 24.5724C2.61996 27.21 0.46577 35.5918 8.19184 42.2865C7.88752 41.8877 7.64072 41.4487 7.45859 40.9821C6.51223 39.7543 5.86303 38.3267 5.56125 36.8097C5.27942 35.3019 5.54822 33.7437 6.31936 32.4151C6.89468 31.4536 7.69288 30.6424 8.64753 30.0492C8.84224 29.9257 9.0618 29.8105 9.24822 29.7035C10.8528 28.9238 12.5861 28.4387 14.3644 28.2716C16.299 28.0288 18.2585 27.963 20.2014 27.8066C22.3993 27.6972 24.572 27.2917 26.6598 26.601C29.1987 25.7159 31.3621 24.0049 32.7993 21.7456C32.849 21.5234 32.8987 21.2929 32.9401 21.0625" fill="#56BA5F"/>
<path d="M7.96814 36.1061C7.93085 36.1637 7.89357 36.2295 7.86043 36.2913C7.58809 36.7724 7.38056 37.2871 7.24317 37.822C7.39952 37.218 7.64375 36.64 7.96814 36.1061M10.0188 34.1516H9.98976H10.0188ZM10.0975 34.1145L10.0478 34.1475L10.0975 34.1145ZM10.1223 34.1145H10.1016H10.1223ZM10.2756 33.7278L10.2383 33.7483L10.2756 33.7278ZM10.2963 33.7278H10.2756H10.2963ZM10.3543 33.6907L10.3005 33.7236L10.3543 33.6907ZM10.4372 33.6578L10.3792 33.6907L10.4372 33.6578ZM10.5159 33.6084L10.4372 33.6537L10.5159 33.6084ZM10.723 33.4973L10.52 33.6084L10.723 33.4973ZM10.8059 33.4521L10.723 33.4973L10.8059 33.4521ZM10.868 33.4233L10.8059 33.4521L10.868 33.4233ZM10.8887 33.4233H10.868H10.8887ZM10.9509 33.3945L10.8887 33.4233L10.9509 33.3945ZM11.0089 33.3945H10.9757H11.0089ZM11.071 33.3945H11.042H11.071ZM32.9235 21.0625C30.2805 23.2598 26.8338 23.5725 23.1096 23.5725C22.368 23.5725 21.6182 23.5725 20.8601 23.5478C20.102 23.5231 19.3356 23.5231 18.5651 23.5231C15.8185 23.5231 13.0346 23.6836 10.4082 24.5724C2.61996 27.21 0.46577 35.5918 8.19184 42.2865C7.88752 41.8877 7.64072 41.4487 7.45859 40.9821C6.51223 39.7543 5.86303 38.3267 5.56125 36.8097C5.27942 35.3019 5.54822 33.7437 6.31936 32.4151C6.89468 31.4536 7.69288 30.6424 8.64753 30.0492C8.84224 29.9257 9.0618 29.8105 9.24822 29.7035C10.8528 28.9238 12.5861 28.4387 14.3644 28.2716C16.299 28.0288 18.2585 27.963 20.2014 27.8066C22.3993 27.6972 24.572 27.2917 26.6598 26.601C29.1987 25.7159 31.3621 24.0049 32.7993 21.7456C32.849 21.5234 32.8987 21.2929 32.9401 21.0625" fill="url(#paint0_linear_8326_15284)"/>
<path d="M32.7827 21.7469C30.1107 33.7003 20.3423 31.0875 13.5234 32.4947C20.3423 31.071 30.0941 33.6839 32.7827 21.7305" fill="#B9B6CA"/>
<path d="M7.24316 37.8453C6.98794 38.8889 7.06317 39.9853 7.45857 40.9849V40.9849C7.29168 40.5596 7.183 40.1139 7.13545 39.6599V39.6599C7.06686 39.0534 7.10329 38.4396 7.24316 37.8453M9.53405 34.3231C8.91129 34.8312 8.38153 35.4423 7.96812 36.1294V36.1294C8.37446 35.417 8.90301 34.7807 9.52991 34.249V34.249M9.60447 34.249H9.58376H9.60447ZM9.68319 34.249H9.65833H9.68319ZM9.73704 34.249H9.71218H9.73704ZM9.79089 34.249H9.77018H9.79089ZM11.1787 33.3972H11.158H11.1787ZM11.2118 33.3972H11.187H11.2118ZM11.2408 33.3972H11.2201H11.2408ZM11.303 33.3684L11.245 33.3931L11.303 33.3684ZM13.5234 32.4961C12.7701 32.6487 12.0335 32.8733 11.3237 33.1668C12.032 32.8733 12.7673 32.6487 13.5193 32.4961V32.4961" fill="#253885"/>
<path d="M32.7826 21.7469C31.3454 24.0063 29.182 25.7173 26.6432 26.6024C24.5553 27.293 22.3826 27.6986 20.1847 27.808C18.2418 27.9643 16.2823 28.0302 14.3477 28.273C12.5694 28.4401 10.8361 28.9252 9.23153 29.7049C9.02854 29.8119 8.81726 29.9271 8.63084 30.0505C7.67619 30.6438 6.87799 31.455 6.30266 32.4165C5.53153 33.7451 5.26273 35.3033 5.54456 36.8111C5.85127 38.3295 6.50619 39.7572 7.45847 40.9835C7.06307 39.9839 6.98784 38.8875 7.24305 37.8439V37.8439V37.8028C7.38054 37.2517 7.59235 36.7216 7.87274 36.2268C7.90588 36.1651 7.94316 36.0992 7.98044 36.0416C8.39385 35.3545 8.92361 34.7434 9.54637 34.2353V34.2353H9.56709H9.59194H9.6168H9.63751H9.66651L9.71622 34.2023H9.73693L10.2755 33.7291H10.2962L10.35 33.6962L10.408 33.6633L10.4868 33.618L10.6897 33.5069L10.7726 33.4617L10.8347 33.4329H10.8555L10.9176 33.4041H10.9507H10.9797H11.0004H11.0253H11.046L11.104 33.3794C11.8759 32.9985 12.6871 32.7019 13.5233 32.4947C20.3422 31.071 30.094 33.6839 32.7826 21.7305" fill="url(#paint1_linear_8326_15284)"/>
<path d="M32.7826 21.7469C31.3454 24.0063 29.182 25.7173 26.6432 26.6024C24.5553 27.293 22.3826 27.6986 20.1847 27.808C18.2418 27.9643 16.2823 28.0302 14.3477 28.273C12.5694 28.4401 10.8361 28.9252 9.23153 29.7049C9.02854 29.8119 8.81726 29.9271 8.63084 30.0505C7.67619 30.6438 6.87799 31.455 6.30266 32.4165C5.53153 33.7451 5.26273 35.3033 5.54456 36.8111C5.85127 38.3295 6.50619 39.7572 7.45847 40.9835C7.06307 39.9839 6.98784 38.8875 7.24305 37.8439V37.8439V37.8028C7.38054 37.2517 7.59235 36.7216 7.87274 36.2268C7.90588 36.1651 7.94316 36.0992 7.98044 36.0416C8.39385 35.3545 8.92361 34.7434 9.54637 34.2353V34.2353H9.56709H9.59194H9.6168H9.63751H9.66651L9.71622 34.2023H9.73693L10.2755 33.7291H10.2962L10.35 33.6962L10.408 33.6633L10.4868 33.618L10.6897 33.5069L10.7726 33.4617L10.8347 33.4329H10.8555L10.9176 33.4041H10.9507H10.9797H11.0004H11.0253H11.046L11.104 33.3794C11.8759 32.9985 12.6871 32.7019 13.5233 32.4947C20.3422 31.071 30.094 33.6839 32.7826 21.7305" fill="url(#paint2_linear_8326_15284)"/>
<path d="M32.7826 21.7469C31.3454 24.0063 29.182 25.7173 26.6432 26.6024C24.5553 27.293 22.3826 27.6986 20.1847 27.808C18.2418 27.9643 16.2823 28.0302 14.3477 28.273C12.5694 28.4401 10.8361 28.9252 9.23153 29.7049C9.02854 29.8119 8.81726 29.9271 8.63084 30.0505C7.67619 30.6438 6.87799 31.455 6.30266 32.4165C5.53153 33.7451 5.26273 35.3033 5.54456 36.8111C5.85127 38.3295 6.50619 39.7572 7.45847 40.9835C7.06307 39.9839 6.98784 38.8875 7.24305 37.8439V37.8439V37.8028C7.38054 37.2517 7.59235 36.7216 7.87274 36.2268C7.90588 36.1651 7.94316 36.0992 7.98044 36.0416C8.39385 35.3545 8.92361 34.7434 9.54637 34.2353V34.2353H9.56709H9.59194H9.6168H9.63751H9.66651L9.71622 34.2023H9.73693L10.2755 33.7291H10.2962L10.35 33.6962L10.408 33.6633L10.4868 33.618L10.6897 33.5069L10.7726 33.4617L10.8347 33.4329H10.8555L10.9176 33.4041H10.9507H10.9797H11.0004H11.0253H11.046L11.104 33.3794C11.8759 32.9985 12.6871 32.7019 13.5233 32.4947C20.3422 31.071 30.094 33.6839 32.7826 21.7305" fill="#4B8E52"/>
<path d="M32.7826 21.7469C31.3454 24.0063 29.182 25.7173 26.6432 26.6024C24.5553 27.293 22.3826 27.6986 20.1847 27.808C18.2418 27.9643 16.2823 28.0302 14.3477 28.273C12.5694 28.4401 10.8361 28.9252 9.23153 29.7049C9.02854 29.8119 8.81726 29.9271 8.63084 30.0505C7.67619 30.6438 6.87799 31.455 6.30266 32.4165C5.53153 33.7451 5.26273 35.3033 5.54456 36.8111C5.85127 38.3295 6.50619 39.7572 7.45847 40.9835C7.06307 39.9839 6.98784 38.8875 7.24305 37.8439V37.8439V37.8028C7.38054 37.2517 7.59235 36.7216 7.87274 36.2268C7.90588 36.1651 7.94316 36.0992 7.98044 36.0416C8.39385 35.3545 8.92361 34.7434 9.54637 34.2353V34.2353H9.56709H9.59194H9.6168H9.63751H9.66651L9.71622 34.2023H9.73693L10.2755 33.7291H10.2962L10.35 33.6962L10.408 33.6633L10.4868 33.618L10.6897 33.5069L10.7726 33.4617L10.8347 33.4329H10.8555L10.9176 33.4041H10.9507H10.9797H11.0004H11.0253H11.046L11.104 33.3794C11.8759 32.9985 12.6871 32.7019 13.5233 32.4947C20.3422 31.071 30.094 33.6839 32.7826 21.7305" fill="url(#paint3_linear_8326_15284)"/>
<path d="M12.1116 34.4671C12.119 35.1937 12.3896 35.8933 12.8738 36.438V36.438C12.3874 35.8943 12.1153 35.1944 12.1074 34.4671M13.5242 32.4961C13.0045 32.7485 12.5782 33.1575 12.3063 33.6647C12.5782 33.1575 13.0045 32.7485 13.5242 32.4961" fill="#C7C4D4"/>
<path d="M12.3019 33.6914C12.1854 33.932 12.1205 34.194 12.1113 34.4609V34.4609C12.1205 34.194 12.1854 33.932 12.3019 33.6914" fill="#C7C4D4"/>
<path d="M13.5237 32.4961C12.6124 32.9858 12.1442 33.6688 12.1152 34.4424C12.1244 34.1755 12.1893 33.9135 12.3058 33.6729V33.6729C12.5763 33.1626 13.0027 32.7506 13.5237 32.4961Z" fill="#A6A3BC"/>
<path d="M12.1119 34.4614C7.02646 35.4501 7.30747 41.0328 8.19292 42.2794C8.19292 42.2053 7.40167 36.6134 12.8783 36.4241C12.3916 35.8806 12.1194 35.1805 12.1119 34.4531" fill="#253988"/>
<path d="M12.1119 34.4614C7.02646 35.4501 7.30747 41.0328 8.19292 42.2794C8.19292 42.2053 7.40167 36.6134 12.8783 36.4241C12.3916 35.8806 12.1194 35.1805 12.1119 34.4531" fill="#1A1D4E"/>
<path d="M12.1119 34.4614C7.02646 35.4501 7.30747 41.0328 8.19292 42.2794C8.19292 42.2053 7.40167 36.6134 12.8783 36.4241C12.3916 35.8806 12.1194 35.1805 12.1119 34.4531" fill="#E8F4E8"/>
<path d="M12.1119 34.4614C7.02646 35.4501 7.30747 41.0328 8.19292 42.2794C8.19292 42.2053 7.40167 36.6134 12.8783 36.4241C12.3916 35.8806 12.1194 35.1805 12.1119 34.4531" fill="#253988"/>
<path d="M12.5902 32.7552C12.32 32.8209 11.8727 32.9771 11.3947 33.1771C10.6513 33.4883 9.83364 33.9054 9.49324 34.2531C8.89341 34.7478 8.37974 35.3372 7.97288 35.9978L7.95217 36.0307C7.37301 36.9614 7.05941 38.0309 7.04492 39.125C7.04492 39.2978 7.04492 39.4665 7.06978 39.6393C7.16806 40.6304 7.51475 41.4797 8.12616 42.2604C7.41776 41.026 6.83572 35.9475 12.0845 34.6143C12.1238 33.6698 12.5902 33.0511 13.4661 32.4961" fill="#D7ECD8"/>
<path d="M12.5902 32.7552C12.32 32.8209 11.8727 32.9771 11.3947 33.1771C10.6513 33.4883 9.83364 33.9054 9.49324 34.2531C8.89341 34.7478 8.37974 35.3372 7.97288 35.9978L7.95217 36.0307C7.37301 36.9614 7.05941 38.0309 7.04492 39.125C7.04492 39.2978 7.04492 39.4665 7.06978 39.6393C7.16806 40.6304 7.51475 41.4797 8.12616 42.2604C7.41776 41.026 6.83572 35.9475 12.0845 34.6143C12.1238 33.6698 12.5902 33.0511 13.4661 32.4961" fill="#263581"/>
<path d="M27.5715 20.6387H27.5467H27.5715ZM27.6834 20.6387H27.6585H27.6834ZM27.7207 20.6387H27.6917H27.7207ZM28.0148 20.5605L27.7289 20.6387L28.0148 20.5605ZM28.0479 20.5605H28.0148H28.0479ZM28.0852 20.5605H28.0521H28.0852ZM28.1225 20.5605H28.0894H28.1225ZM28.1722 20.149H28.1349H28.1722ZM28.2053 20.149H28.1722H28.2053ZM28.2426 20.149H28.2053H28.2426ZM28.2758 20.149H28.2426H28.2758ZM28.3131 20.149H28.2799H28.3131ZM36.0433 9.5C33.4458 11.8207 29.386 12.1664 24.8581 12.1664C23.8928 12.1664 22.9027 12.1664 21.9043 12.1376C20.906 12.1088 19.891 12.1046 18.8761 12.1046C13.7143 12.1046 8.48212 12.5161 4.41816 15.3718C0.416349 18.1616 -1.04601 23.087 0.772618 30.8845C0.830615 30.617 0.90104 30.3454 0.983893 30.0615C0.905183 25.634 1.92428 21.4205 6.15394 19.1615C9.69592 17.2687 14.2611 17.0918 18.2049 16.9518C20.6657 16.8654 23.1761 16.8202 25.6037 16.491C27.8408 16.1906 30.111 15.6351 32.058 14.4336C33.7088 13.4298 35.0457 11.9893 35.919 10.2736V10.2736C35.1857 14.7998 33.1061 18.6512 28.3006 20.1161C33.3837 18.569 35.4177 14.3307 36.0433 9.5Z" fill="#56BA5F"/>
<path d="M27.5715 20.6387H27.5467H27.5715ZM27.6834 20.6387H27.6585H27.6834ZM27.7207 20.6387H27.6917H27.7207ZM28.0148 20.5605L27.7289 20.6387L28.0148 20.5605ZM28.0479 20.5605H28.0148H28.0479ZM28.0852 20.5605H28.0521H28.0852ZM28.1225 20.5605H28.0894H28.1225ZM28.1722 20.149H28.1349H28.1722ZM28.2053 20.149H28.1722H28.2053ZM28.2426 20.149H28.2053H28.2426ZM28.2758 20.149H28.2426H28.2758ZM28.3131 20.149H28.2799H28.3131ZM36.0433 9.5C33.4458 11.8207 29.386 12.1664 24.8581 12.1664C23.8928 12.1664 22.9027 12.1664 21.9043 12.1376C20.906 12.1088 19.891 12.1046 18.8761 12.1046C13.7143 12.1046 8.48212 12.5161 4.41816 15.3718C0.416349 18.1616 -1.04601 23.087 0.772618 30.8845C0.830615 30.617 0.90104 30.3454 0.983893 30.0615C0.905183 25.634 1.92428 21.4205 6.15394 19.1615C9.69592 17.2687 14.2611 17.0918 18.2049 16.9518C20.6657 16.8654 23.1761 16.8202 25.6037 16.491C27.8408 16.1906 30.111 15.6351 32.058 14.4336C33.7088 13.4298 35.0457 11.9893 35.919 10.2736V10.2736C35.1857 14.7998 33.1061 18.6512 28.3006 20.1161C33.3837 18.569 35.4177 14.3307 36.0433 9.5Z" fill="url(#paint4_linear_8326_15284)"/>
<path d="M1.10866 29.6931L0.984375 30.0799L1.10866 29.6931ZM25.2894 20.7106L24.9248 20.7353L25.2894 20.7106ZM25.8652 20.7106H25.8238H25.8652ZM26.2546 20.6653L25.9108 20.7106L26.2546 20.6653ZM26.4618 20.6653H26.4328H26.4618ZM26.7103 20.6653H26.6813H26.7103ZM26.876 20.6653H26.8429H26.876ZM26.9175 20.6653H26.8843H26.9175ZM27.0459 20.6406L26.9257 20.6653L27.0459 20.6406ZM27.0832 20.6406H27.05H27.0832ZM27.1246 20.6406H27.0956H27.1246ZM27.1619 20.6406H27.137H27.1619ZM27.2033 20.6406H27.1784H27.2033Z" fill="#C7C4D4"/>
<path d="M35.9187 10.2734C35.0467 11.9922 33.7097 13.4356 32.0578 14.4417C30.1107 15.6268 27.8405 16.1822 25.6035 16.4991C23.1593 16.8283 20.6654 16.8735 18.2047 16.9599C14.2609 17.0998 9.69566 17.2891 6.15368 19.186C1.92402 21.4368 0.904921 25.6503 0.983632 30.0778L1.10791 29.691C4.97303 17.2685 19.4724 22.2287 28.3087 20.1489C33.1059 18.6511 35.1855 14.7997 35.9187 10.2734Z" fill="url(#paint5_linear_8326_15284)"/>
<defs>
<linearGradient id="paint0_linear_8326_15284" x1="22.7367" y1="15.1866" x2="9.91621" y2="47.2965" gradientUnits="userSpaceOnUse">
<stop stop-color="#243E90"/>
<stop offset="1" stop-color="#75C485"/>
</linearGradient>
<linearGradient id="paint1_linear_8326_15284" x1="24.2197" y1="15.7805" x2="11.3992" y2="47.8904" gradientUnits="userSpaceOnUse">
<stop stop-color="#253885"/>
<stop offset="0.03" stop-color="#273B85"/>
<stop offset="0.47" stop-color="#446E82"/>
<stop offset="0.81" stop-color="#568E81"/>
<stop offset="1" stop-color="#5D9A80"/>
</linearGradient>
<linearGradient id="paint2_linear_8326_15284" x1="24.2265" y1="15.7506" x2="11.3825" y2="47.8819" gradientUnits="userSpaceOnUse">
<stop stop-color="#22205F"/>
<stop offset="0.43" stop-color="#3F5B6F"/>
<stop offset="0.81" stop-color="#55897B"/>
<stop offset="1" stop-color="#5D9A80"/>
</linearGradient>
<linearGradient id="paint3_linear_8326_15284" x1="24.2197" y1="15.7805" x2="11.3992" y2="47.8904" gradientUnits="userSpaceOnUse">
<stop stop-color="#253885"/>
<stop offset="0.03" stop-color="#273B85"/>
<stop offset="0.47" stop-color="#446E82"/>
<stop offset="0.81" stop-color="#568E81"/>
<stop offset="1" stop-color="#5D9A80"/>
</linearGradient>
<linearGradient id="paint4_linear_8326_15284" x1="10.2386" y1="4.66103" x2="23.3754" y2="30.0026" gradientUnits="userSpaceOnUse">
<stop stop-color="#243E90"/>
<stop offset="1" stop-color="#75C485"/>
</linearGradient>
<linearGradient id="paint5_linear_8326_15284" x1="10.2839" y1="4.6362" x2="23.4207" y2="29.9778" gradientUnits="userSpaceOnUse">
<stop stop-color="#253988"/>
<stop offset="0.08" stop-color="#2B4487"/>
<stop offset="0.5" stop-color="#497784"/>
<stop offset="0.82" stop-color="#5B9782"/>
<stop offset="1" stop-color="#62A381"/>
</linearGradient>
</defs>
</svg>
