<svg width="33" height="34" viewBox="0 0 33 34" fill="none" xmlns="http://www.w3.org/2000/svg">
<path fill-rule="evenodd" clip-rule="evenodd" d="M25.8235 2.97941C29.432 3.13222 32.2338 6.1502 32.0831 9.72385C31.9217 13.294 28.8779 16.0619 25.273 15.923C21.675 15.7841 18.8697 12.78 19.0099 9.21333V9.17512C19.1537 5.6119 22.187 2.83355 25.7885 2.97594H25.827" fill="#FF6813"/>
<path fill-rule="evenodd" clip-rule="evenodd" d="M32.9879 33.9998C32.1393 28.4709 32.9809 21.4556 27.1071 19.087C22.636 17.2846 18.0597 21.341 18.3683 25.5154C18.3999 26.085 18.5366 26.9671 18.7681 27.5436C20.9072 32.3884 27.9803 32.7704 32.9879 33.9998Z" fill="#0074C7"/>
<path fill-rule="evenodd" clip-rule="evenodd" d="M1.39258 0C2.32888 5.5046 1.59948 12.5512 7.50834 14.8398C12.0075 16.5867 16.5312 12.4435 16.163 8.29336C16.1034 7.7238 15.9982 6.84168 15.7352 6.26517C13.5119 1.44127 6.40371 1.17385 1.39258 0Z" fill="#0074C7"/>
<path fill-rule="evenodd" clip-rule="evenodd" d="M0 32.5617C5.58273 31.7178 12.6979 32.4992 15.0615 26.6786C16.8815 22.2506 12.7575 17.7462 8.53892 18.0518C7.96381 18.0831 7.04504 18.2151 6.49098 18.4477C1.56751 20.6218 1.21333 27.6302 0 32.5617Z" fill="#0074C7"/>
</svg>
