<svg width="48" height="65" viewBox="0 0 48 65" fill="none" xmlns="http://www.w3.org/2000/svg">
<path d="M0.0546875 52.71L4.60685 46.7637C4.60685 46.9562 4.60685 47.0332 4.60685 47.1295C4.64037 47.8974 5.10887 48.5224 5.66118 48.5935L1.12578 54.5292C0.556765 54.4688 0.0881558 53.8437 0.0714217 53.0651C0.0546876 52.9988 0.0546875 52.9025 0.0546875 52.71Z" fill="#1279A6"/>
<path d="M6.6065 48.1372L2.05439 54.0835C1.83682 54.3762 1.50211 54.5321 1.11719 54.5274L5.66936 48.5812C6.05432 48.6051 6.38901 48.43 6.6065 48.1372Z" fill="#1279A6"/>
<path d="M6.8925 47.3936C6.84222 47.7144 6.74179 47.9709 6.59121 48.1633L2.03906 54.1097C2.18968 53.9173 2.30685 53.65 2.34024 53.3399C3.8632 51.3479 5.38616 49.375 6.8925 47.3936Z" fill="#B9DCEB"/>
<path d="M7.23079 61.102L11.7829 55.1558C11.5653 55.4486 11.4315 55.842 11.4482 56.2935C11.4482 57.0443 11.8666 57.6243 12.4357 57.7425C12.5862 57.7811 12.7368 57.7813 12.8708 57.7921C16.8205 57.9094 20.7701 58.0074 24.7364 58.0947L20.1843 64.041C16.2346 63.943 12.2849 63.8258 8.31864 63.7384C8.18469 63.7276 8.03411 63.7274 7.88353 63.6887C7.2977 63.5813 6.89611 62.9713 6.89611 62.2397C6.87935 61.8076 6.99641 61.4055 7.23079 61.102Z" fill="#1279A6"/>
<path d="M20.1641 64.072L24.7162 58.1257L26.5069 58.1574L21.9548 64.1037L20.1641 64.072Z" fill="#1279A6"/>
<path d="M21.9609 64.0991L26.5132 58.1528L29.559 58.2306L25.0069 64.1769L21.9609 64.0991Z" fill="#1279A6"/>
<path d="M0.121624 29.1811L4.67376 23.2349L4.60685 46.7639L0.0546875 52.7103L0.121624 29.1811Z" fill="#1279A6"/>
<path d="M14.9978 39.8852L19.55 33.939C19.5166 33.9795 19.4998 34.0673 19.4998 34.2213C19.4998 35.4918 19.4998 36.7816 19.4998 38.033C19.4998 39.3806 19.4998 40.7859 19.4998 42.172C19.4998 43.5581 19.9182 44.8505 20.6546 45.8629C21.391 46.8754 22.3784 47.4389 23.416 47.47C25.4745 47.5233 27.5498 47.5852 29.6418 47.6558C31.7337 47.7069 33.8425 47.7668 35.9679 47.7967C37.0222 47.8169 38.0264 47.2917 38.7628 46.3214L34.2107 52.2677C33.4743 53.2381 32.4701 53.7633 31.4158 53.743C29.307 53.7024 27.1983 53.6426 25.0897 53.602C22.9809 53.5615 20.9056 53.4995 18.8639 53.4162C17.8263 53.3853 16.8556 52.8111 16.1025 51.8093C15.366 50.7968 14.9477 49.5043 14.9477 48.1183C14.9477 46.7322 14.9477 45.346 14.9477 43.9792C14.9477 42.728 14.9477 41.4381 14.9477 40.1675C14.9309 40.0242 14.9477 39.9365 14.9978 39.8852Z" fill="#1279A6"/>
<path d="M19.5365 33.9435C19.57 33.9028 19.6369 33.8795 19.754 33.8817L15.2019 39.828C15.0848 39.8257 15.0345 39.8385 14.9844 39.8898C16.3566 38.1094 18.1809 35.7133 19.5365 33.9435Z" fill="#B9DCEB"/>
<path d="M14.9609 39.8695L19.5132 33.9233C19.5634 33.8527 19.6303 33.8485 19.7475 33.8508L15.1953 39.797C15.0781 39.7756 15.0112 39.7989 14.9609 39.8695Z" fill="#1279A6"/>
<path d="M20.1313 33.8813C18.6083 35.8733 17.102 37.8356 15.579 39.8276C15.4452 39.836 15.328 39.8145 15.2109 39.8122C16.4661 38.1835 18.5079 35.514 19.7631 33.866C19.8801 33.8682 19.9973 33.8705 20.1313 33.8813Z" fill="#B9DCEB"/>
<path d="M39.8789 42.6585C39.8789 44.0639 39.4604 45.3704 38.7241 46.3408L34.1719 52.2871C34.9083 51.3167 35.3268 50.0101 35.3268 48.6049C35.3268 48.1043 35.3268 47.6231 35.3268 47.1225C35.3268 46.6027 35.3268 46.1022 35.3268 45.5824C35.3268 45.2551 35.31 44.9193 35.2597 44.6049C35.2096 44.2904 35.1427 44.0058 35.059 43.7126C36.582 41.7205 38.0882 39.7584 39.6111 37.7664C39.6948 38.0595 39.7617 38.344 39.812 38.6585C39.8621 38.973 39.8789 39.3089 39.8789 39.6361C39.8789 40.1366 39.8789 40.6565 39.8789 41.1763C39.8789 41.6767 39.8789 42.1581 39.8789 42.6585Z" fill="#B9DCEB"/>
<path d="M38.4607 35.5474C38.9963 36.1297 39.3979 36.8938 39.6321 37.7454C38.1093 39.7374 36.603 41.6996 35.08 43.6916C34.829 42.8314 34.4274 42.0867 33.9085 41.4937C33.2056 40.6908 32.3186 40.275 31.3647 40.2484C30.2769 40.211 29.1722 40.1842 28.0678 40.1574C27.3146 40.1375 26.5614 40.1175 25.8084 40.0976C25.0051 40.071 24.2018 40.0638 23.3984 40.0373L27.9506 34.0911C28.7539 34.1176 29.5572 34.1248 30.3605 34.1512C31.0969 34.1819 31.85 34.2018 32.6199 34.2112C33.7244 34.238 34.829 34.2647 35.9168 34.3021C36.8707 34.3288 37.7411 34.7552 38.4607 35.5474Z" fill="#B9DCEB"/>
<path d="M15.2121 39.8152C16.7015 39.8658 18.2245 39.8951 19.7139 39.9266C20.3834 39.9421 21.0528 39.9578 21.7055 39.9649L23.4294 40.0007C24.2327 40.0273 25.036 40.0345 25.8393 40.0609C26.5757 40.0916 27.3288 40.1115 28.0987 40.1209C29.2032 40.1476 30.3078 40.1744 31.3956 40.2118C32.3495 40.2385 33.2199 40.6842 33.9395 41.4571C34.6424 42.26 35.1277 43.3171 35.3118 44.5664C35.3621 44.8809 35.3787 45.2168 35.3787 45.5441C35.3787 46.0446 35.3787 46.5644 35.3787 47.0842C35.3787 47.5847 35.3787 48.066 35.3787 48.5664C35.3787 49.9718 34.9603 51.2784 34.2239 52.2488C33.4876 53.2191 32.4835 53.7443 31.4291 53.7241C29.3204 53.6834 27.2117 53.6237 25.1029 53.583C22.9942 53.5425 20.919 53.4806 18.8772 53.3974C17.8395 53.3663 16.8689 52.7921 16.1158 51.7903C15.3794 50.7778 14.9609 49.4855 14.9609 48.0993C14.9609 46.7133 14.9609 45.3272 14.9609 43.9604C14.9609 42.709 14.9609 41.4192 14.9609 40.1487C14.9609 39.9946 14.9777 39.9069 15.0112 39.8664C15.0447 39.8257 15.0949 39.8129 15.2121 39.8152Z" fill="#B9DCEB"/>
<path d="M35.382 45.5673C35.382 46.0679 35.382 46.5876 35.382 47.0882C35.382 47.5887 35.382 48.0892 35.382 48.5705C35.382 49.9758 34.9636 51.3016 34.2104 52.2826C33.4574 53.2637 32.4532 53.789 31.3989 53.7687C29.2901 53.7282 27.1982 53.6769 25.1062 53.6256C23.0143 53.5743 20.9055 53.5146 18.847 53.4419C17.8094 53.411 16.822 52.8282 16.0688 51.8263C15.3157 50.8245 14.9141 49.483 14.9141 48.0969C14.9141 46.7108 14.9141 45.3248 14.9141 43.9578C14.9141 42.7066 14.9141 41.4167 14.9141 40.1461C14.9141 39.9922 14.9308 39.8852 14.981 39.8339C15.0313 39.7826 15.0982 39.7591 15.2154 39.7614C16.7048 39.812 18.2278 39.8413 19.7172 39.8728C20.3867 39.8884 21.0561 39.9041 21.7088 39.9111L23.4326 39.9471C24.2693 39.9714 25.056 39.9892 25.8426 40.0072C26.579 40.0379 27.332 40.0578 28.102 40.0672C29.2064 40.094 30.311 40.1206 31.3989 40.1581C32.3528 40.1847 33.2398 40.6198 33.9594 41.4119C34.6791 42.2041 35.1477 43.2912 35.3486 44.5299C35.3652 44.9042 35.382 45.24 35.382 45.5673ZM35.3486 47.1096C35.3486 46.5898 35.3486 46.0892 35.3486 45.5694C35.3486 45.2422 35.3318 44.9063 35.2817 44.5918C35.0976 43.3424 34.6122 42.2853 33.9093 41.4825C33.2064 40.6797 32.3194 40.2638 31.3654 40.2372C30.2775 40.1998 29.173 40.173 28.0684 40.1463C27.3153 40.1263 26.5622 40.1063 25.8091 40.0863C25.0057 40.0599 24.2024 40.0527 23.3991 40.0261L21.6753 39.9903C21.0227 39.964 20.3532 39.9675 19.6838 39.9519C18.1942 39.9205 16.688 39.8613 15.1986 39.8298C15.0814 39.8276 15.0145 39.8511 14.981 39.8917C14.9476 39.9323 14.9308 40.0199 14.9308 40.1739C14.9308 41.4446 14.9308 42.7344 14.9308 43.9857C14.9308 45.3332 14.9308 46.7386 14.9308 48.1247C14.9308 49.5107 15.3492 50.8032 16.0856 51.8157C16.822 52.8282 17.8094 53.3917 18.847 53.4226C20.9055 53.476 22.9808 53.5379 25.0728 53.6084C27.1647 53.6597 29.2735 53.7196 31.3989 53.7494C32.4532 53.7697 33.4574 53.2445 34.1938 52.2742C34.9301 51.3037 35.3486 49.9972 35.3486 48.5918C35.3486 48.0914 35.3486 47.5908 35.3486 47.1096Z" fill="#1279A6"/>
<path d="M21.6875 39.9951L26.2396 34.0488L27.9467 34.0953L23.3946 40.0417L21.6875 39.9951Z" fill="#B9DCEB"/>
<path d="M21.6875 39.9555L26.2396 34.0093L27.9467 34.0559L23.3946 40.0021L21.6875 39.9555Z" fill="#1279A6"/>
<path d="M19.7046 39.9083C20.3741 39.9239 21.0435 39.9396 21.6962 39.9465L21.7296 39.9445L26.2483 34.0388C25.5956 34.0125 24.9262 34.0161 24.2567 34.0005C22.8845 33.9714 21.5121 33.9229 20.1397 33.8938C18.6335 35.8559 17.1273 37.8372 15.6211 39.7994C16.9767 39.8393 18.349 39.8685 19.7046 39.9083ZM18.0644 39.8959C17.8971 39.8872 17.7465 39.887 17.5792 39.8783C17.7465 39.887 17.9139 39.8957 18.0644 39.8959ZM17.0604 39.8629C16.8763 39.8456 16.6922 39.8475 16.4913 39.8601C16.6754 39.8582 16.8595 39.8755 17.0604 39.8629Z" fill="#B9DCEB"/>
<path d="M15.2109 39.7728L19.7631 33.8264C21.2525 33.8772 22.7755 33.9065 24.2649 33.9378C24.9344 33.9535 25.5872 33.9798 26.2565 33.9762L21.7044 39.9225C21.0516 39.8962 20.3823 39.8997 19.7128 39.8841C18.2066 39.8634 16.7004 39.8041 15.2109 39.7728Z" fill="#1279A6"/>
<path d="M12.2461 30.6765L16.7982 24.7302C17.7187 24.759 18.6559 24.777 19.5764 24.8058C20.4968 24.8344 21.4173 24.8631 22.321 24.8833L17.7689 30.8296C16.8651 30.8095 15.9446 30.7807 15.0242 30.752C14.1037 30.7233 13.1665 30.7053 12.2461 30.6765Z" fill="#1279A6"/>
<path d="M45.5416 55.4685L40.9895 61.4148C39.8682 62.881 38.4122 63.9064 36.7386 64.3003C36.2533 64.4176 35.7177 64.4705 35.0985 64.4421C31.7345 64.3554 28.3707 64.2686 25.0234 64.1712L29.5757 58.225C32.9396 58.3117 36.3035 58.3984 39.6506 58.4958C40.2698 58.505 40.8054 58.4713 41.2908 58.3541C42.9476 57.9707 44.4204 56.9347 45.5416 55.4685Z" fill="#1279A6"/>
<path d="M42.7926 53.9884C43.1105 53.7085 43.395 53.3922 43.6628 53.0481L39.1107 58.9943C38.8429 59.3385 38.5583 59.6548 38.2404 59.9347C37.1526 60.9176 35.8639 61.3933 34.4915 61.3641C30.1234 61.2635 25.7722 61.1331 21.4041 61.0325C17.0361 60.932 12.6847 60.8015 8.31668 60.7009C8.14934 60.6922 7.982 60.6835 7.81453 60.7325C7.58028 60.7858 7.36279 60.9246 7.19531 61.1469L11.7476 55.2006C11.9149 54.9783 12.1156 54.8502 12.3668 54.7863C12.5341 54.7373 12.7015 54.7652 12.8688 54.7547C17.2368 54.8552 21.5882 54.9857 25.9563 55.0863C30.3243 55.1868 34.6757 55.3173 39.0437 55.4178C40.416 55.447 41.7047 54.9713 42.7926 53.9884Z" fill="#B9DCEB"/>
<path d="M7.19531 61.0808L11.7476 55.1345C11.9149 54.9122 12.1324 54.7734 12.3834 54.7095C12.5509 54.6797 12.7182 54.6884 12.8856 54.6779C21.6049 54.9089 30.3243 55.14 39.0605 55.3603C40.416 55.4002 41.7047 54.9052 42.7926 53.9223C43.1105 53.6424 43.395 53.3261 43.6628 52.9819L39.1107 58.9283C38.8429 59.2724 38.5583 59.5887 38.2404 59.8686C37.1526 60.8514 35.8639 61.3272 34.5082 61.3066C25.7889 61.0756 17.0695 60.8446 8.33344 60.6242C8.1661 60.6154 7.99863 60.6067 7.83129 60.6557C7.58028 60.7197 7.36279 60.8778 7.19531 61.0808Z" fill="#1279A6"/>
<path d="M9.2873 18.6721L13.8394 12.7258C13.1699 13.5957 12.7683 14.7184 12.7014 15.8969C12.6344 17.0754 12.6511 18.2583 12.6679 19.4989C12.7014 21.191 13.2536 22.5904 14.2913 23.661C14.9942 24.3675 15.8143 24.7299 16.8017 24.7544L12.2496 30.6814C11.2454 30.6675 10.4253 30.3052 9.73917 29.5879C8.70147 28.5174 8.14917 27.1372 8.11578 25.426C8.08226 24.1961 8.08226 23.0024 8.14917 21.8239C8.21621 20.6453 8.6178 19.542 9.2873 18.6721Z" fill="#1279A6"/>
<path d="M2.49367 9.50825L7.0458 3.56201C6.89522 3.75438 6.74464 3.96595 6.61069 4.18612C5.38902 6.0823 4.70276 8.52227 4.70276 11.0826C4.686 15.1361 4.68613 19.198 4.66937 23.2515L0.117188 29.1785C0.133922 25.125 0.133922 21.0631 0.150656 17.0096C0.150656 14.4685 0.836821 12.0093 2.05853 10.1132C2.19243 9.9122 2.34309 9.70062 2.49367 9.50825Z" fill="#1279A6"/>
<path d="M6.89198 47.3974C5.36901 49.3895 3.86268 51.3516 2.33984 53.3437C2.37323 53.1298 2.37323 52.8988 2.37323 52.7063C2.40675 41.4422 2.42351 29.7845 2.4569 18.0008C2.4569 17.6157 2.47366 17.0853 2.54057 16.5612C2.77496 14.7946 3.41093 13.1953 4.34807 11.9813L8.9002 6.03491C7.97983 7.23828 7.34385 8.83764 7.09271 10.615C7.0258 11.1389 7.00904 11.6694 7.00904 12.0544C6.97565 23.8191 6.95889 35.496 6.92537 46.76C6.94213 46.9418 6.92537 47.1642 6.89198 47.3974Z" fill="#B9DCEB"/>
<path d="M4.38774 11.998L8.93987 6.05176C8.01936 7.25513 7.38339 8.85448 7.14913 10.6019C7.08209 11.1258 7.06546 11.637 7.06546 12.0413C7.03194 23.8059 7.01518 35.4827 6.98179 46.7468C6.98179 46.9393 6.98179 47.1703 6.94827 47.3842C6.89799 47.705 6.79769 47.9809 6.63022 48.2032L2.07812 54.1494C2.24543 53.9271 2.34586 53.6706 2.39614 53.3306C2.42953 53.1167 2.42953 52.8857 2.42953 52.6932C2.46305 41.4291 2.47981 29.7714 2.5132 17.9876C2.5132 17.6026 2.52996 17.0721 2.59687 16.5481C2.83125 14.7815 3.45047 13.2121 4.38774 11.998Z" fill="#1279A6"/>
<path d="M17.7695 30.8371L22.3217 24.8909L24.5308 24.9444L19.9786 30.8907L17.7695 30.8371Z" fill="#1279A6"/>
<path d="M19.9805 30.8872L24.5326 24.9409L25.8716 24.9914L21.3361 30.927L19.9805 30.8872Z" fill="#1279A6"/>
<path d="M35.3825 45.5617L39.9346 39.6155C39.9346 40.1159 39.9346 40.6357 39.9346 41.1363C39.9346 41.6368 39.9346 42.1373 39.9346 42.6187C39.9346 44.0239 39.5162 45.3498 38.7631 46.3308L34.2109 52.2771C34.964 51.296 35.3825 49.9895 35.3825 48.5649C35.3825 48.0643 35.3825 47.5831 35.3825 47.0825C35.3657 46.5927 35.3825 46.0815 35.3825 45.5617Z" fill="#1279A6"/>
<path d="M4.35156 11.9643L8.90369 6.01792C9.03765 5.83628 9.17147 5.67384 9.32205 5.52C10.4768 4.26332 11.9664 3.6017 13.5227 3.62898L8.9706 9.57523C7.43088 9.53733 5.92468 10.2097 4.76992 11.4662C4.6361 11.6287 4.48538 11.8018 4.35156 11.9643Z" fill="#1279A6"/>
<path d="M23.3984 40.0108L27.9506 34.0645C28.7874 34.0888 29.574 34.1068 30.3605 34.1246C31.0969 34.1553 31.85 34.1752 32.6199 34.1846C33.7244 34.2114 34.829 34.2381 35.9168 34.2755C36.8707 34.3022 37.7577 34.7372 38.4774 35.5294C39.197 36.3215 39.6656 37.4086 39.8665 38.6473C39.9167 38.9618 39.9334 39.2977 39.9334 39.6249L35.3813 45.5712C35.3813 45.2439 35.3645 44.9081 35.3144 44.5935C35.1303 43.3442 34.6449 42.2678 33.9252 41.4757C33.2056 40.6836 32.3186 40.2484 31.3647 40.2218C30.2769 40.1844 29.1555 40.1683 28.0678 40.1308C27.3146 40.1109 26.5614 40.0909 25.8084 40.071C25.0218 40.053 24.2351 40.0159 23.3984 40.0108Z" fill="#1279A6"/>
<path d="M8.97266 9.58589L13.5248 3.63965L24.7211 3.9265L20.1857 9.86213L8.97266 9.58589Z" fill="#1279A6"/>
<path d="M16.5328 11.2383C18.7085 11.2747 20.8507 11.3516 22.9761 11.4007L18.4239 17.3471C16.2985 17.298 14.1396 17.2317 11.9806 17.1845C11.0435 17.1666 10.1062 17.649 9.38659 18.5318C9.3532 18.5723 9.30292 18.6236 9.26953 18.6835L13.8217 12.7372C13.8551 12.6966 13.9053 12.6453 13.9387 12.5855C14.6751 11.6921 15.5956 11.2202 16.5328 11.2383Z" fill="#B9DCEB"/>
<path d="M40.8161 3.89893L36.2639 9.8453C36.0631 10.1082 35.8121 10.2491 35.5108 10.2487C35.3602 10.2679 35.2262 10.2571 35.1092 10.2548C30.1218 10.1258 25.1513 9.98614 20.1641 9.8765L24.7162 3.93012C29.7034 4.05909 34.6741 4.19879 39.6613 4.30855C39.7617 4.32144 39.9123 4.32156 40.0629 4.30249C40.3642 4.30274 40.6152 4.16191 40.8161 3.89893Z" fill="#1279A6"/>
<path d="M2.49219 9.5095L7.04432 3.56313C8.2326 2.01569 9.77233 0.99471 11.4626 0.647732C11.881 0.573334 12.2995 0.518136 12.6843 0.542009C21.7719 0.788443 30.8594 1.01555 39.9471 1.26186L35.3949 7.2081C26.3073 6.98099 17.2198 6.73469 8.13217 6.48825C7.74734 6.46438 7.32885 6.51958 6.9105 6.5941C5.22019 6.94108 3.68047 7.96193 2.49219 9.5095Z" fill="#B9DCEB"/>
<path d="M2.47266 9.48093L7.02479 3.53456C8.21307 1.98712 9.75279 0.96614 11.4599 0.608552C11.8782 0.534028 12.2966 0.478828 12.6815 0.502701L8.1294 6.44907C7.74443 6.42507 7.32608 6.48027 6.90773 6.5548C5.20066 6.89318 3.66094 7.91416 2.47266 9.48093Z" fill="#1279A6"/>
<path d="M21.3359 30.9169L25.8881 24.9707C26.4738 24.9819 27.0596 25.0124 27.662 25.013C29.3691 25.0596 31.1097 25.1041 32.8168 25.1507C32.9171 25.1444 33.0009 25.1488 33.0343 25.1081L28.4821 31.0545C28.4318 31.125 28.3483 31.1206 28.2645 31.0969C26.5576 31.0505 24.817 31.0059 23.1099 30.9593L21.3359 30.9169Z" fill="#1279A6"/>
<path d="M33.0882 24.8654C33.0882 24.981 33.0714 25.0493 33.0379 25.09L28.4858 31.0363C28.5193 30.9957 28.5361 30.908 28.5361 30.8117C28.5361 29.7144 28.5361 28.6171 28.5361 27.5391C28.5361 25.9412 28.5527 24.2749 28.5361 22.6492C28.5361 21.5519 28.2348 20.4736 27.6992 19.5832C29.2222 17.5911 30.7284 15.629 32.2514 13.637C32.7869 14.5272 33.0714 15.6356 33.0882 16.7029C33.1048 18.3287 33.0882 19.9949 33.0882 21.5927C33.0882 22.6708 33.0882 23.7874 33.0882 24.8654Z" fill="#B9DCEB"/>
<path d="M28.5815 27.5557L33.1337 21.6094C33.1337 22.6874 33.1169 23.7954 33.1337 24.8821C33.1337 25.0169 33.1169 25.0853 33.0834 25.1452L28.5312 31.0915C28.5648 31.0509 28.5815 30.9631 28.5815 30.8285C28.5648 29.7418 28.5648 28.6252 28.5815 27.5557Z" fill="#1279A6"/>
<path d="M32.269 13.6304C30.7461 15.6224 29.2399 17.5845 27.7169 19.5766C27.6165 19.4096 27.5161 19.2428 27.399 19.0865C26.6793 18.1018 25.6919 17.5383 24.7213 17.5031C22.6628 17.4498 20.5707 17.3793 18.4453 17.33L22.9974 11.3838C25.1229 11.4329 27.2149 11.5034 29.2734 11.5568C30.2441 11.592 31.2147 12.1662 31.9511 13.1402C32.0683 13.2965 32.1687 13.4634 32.269 13.6304Z" fill="#B9DCEB"/>
<path d="M18.4418 17.3332C20.5673 17.3824 22.6592 17.4528 24.7177 17.5063C25.6883 17.5414 26.6591 18.1156 27.3954 19.0896C28.115 20.0743 28.5335 21.3666 28.5503 22.6458C28.5669 24.2715 28.5503 25.9377 28.5503 27.5357C28.5503 28.6137 28.5503 29.711 28.5503 30.8083C28.5503 30.9238 28.5335 30.9923 28.5 31.0329C28.4499 31.1033 28.3662 31.099 28.2825 31.0754C26.5754 31.0288 24.8349 30.9843 23.1278 30.9377L21.3538 30.8953L19.9982 30.8555L17.7891 30.802C16.8854 30.7819 15.9649 30.7532 15.0443 30.7244C14.124 30.6957 13.1867 30.6777 12.2662 30.6682C11.2621 30.6351 10.4421 30.292 9.73917 29.5856C8.70147 28.515 8.14917 27.1348 8.11578 25.4235C8.08226 24.1936 8.08226 22.9999 8.14917 21.8215C8.23297 20.5745 8.66808 19.392 9.40436 18.5179C10.1408 17.6245 11.0613 17.1527 11.9984 17.1707C14.1574 17.237 16.3163 17.2841 18.4418 17.3332Z" fill="#B9DCEB"/>
<path d="M28.5899 27.5529C28.5899 28.631 28.5731 29.739 28.5899 30.8256C28.5899 30.9604 28.5731 31.0289 28.5396 31.0887C28.4894 31.1592 28.4058 31.1549 28.3053 31.1612C27.1338 31.1386 25.9791 31.1054 24.8075 31.0636C23.636 31.0218 22.498 30.9972 21.3599 30.9725L20.0043 30.9328L17.7952 30.8792C15.9877 30.8389 14.1133 30.7836 12.2724 30.7454C11.2682 30.7123 10.4314 30.3607 9.72849 29.6542C8.67416 28.5943 8.13861 27.1649 8.08833 25.4643C8.05494 24.2344 8.05494 23.0408 8.12185 21.8623C8.20552 20.596 8.6574 19.4222 9.3938 18.5288C10.1302 17.6354 11.0673 17.1529 12.0214 17.1602C14.1468 17.2094 16.2555 17.25 18.3307 17.3119C20.5064 17.3675 22.6486 17.4252 24.7573 17.4851C25.7281 17.5202 26.7153 18.103 27.4517 19.077C28.1882 20.051 28.6065 21.3626 28.6065 22.6717C28.5899 24.2803 28.5899 25.9359 28.5899 27.5529ZM28.4894 31.063C28.5228 31.0224 28.5396 30.9346 28.5396 30.8384C28.5396 29.7411 28.5396 28.6439 28.5396 27.5658C28.5396 25.9679 28.5564 24.3016 28.5396 22.6759C28.5396 21.3861 28.1045 20.1044 27.3848 19.1197C26.6652 18.1351 25.6778 17.5715 24.7071 17.5364C22.6486 17.483 20.5566 17.4125 18.4312 17.3633C16.3057 17.3142 14.1468 17.2479 11.9879 17.2009C11.0506 17.1828 10.1134 17.6654 9.3938 18.548C8.6574 19.4414 8.22228 20.6046 8.13861 21.8516C8.0717 23.0302 8.08846 24.213 8.10509 25.4537C8.13861 27.1457 8.69092 28.5451 9.72849 29.6157C10.4314 30.3223 11.2514 30.6845 12.2389 30.7091C13.1594 30.7377 14.0965 30.7558 15.017 30.7845C15.9375 30.8133 16.858 30.8419 17.7617 30.862L19.9709 30.9156L21.3265 30.9554L23.1005 30.9978C24.8075 31.0444 26.548 31.0889 28.2551 31.1355C28.3555 31.11 28.4392 31.1143 28.4894 31.063Z" fill="#1279A6"/>
<path d="M9.25391 18.629L13.806 12.6827C13.8396 12.6421 13.8898 12.5908 13.9232 12.5309C14.6596 11.6375 15.5969 11.1551 16.5508 11.1624C18.6762 11.2116 20.785 11.2521 22.8602 11.3141C25.0359 11.3697 27.178 11.4274 29.2868 11.4872C30.2575 11.5224 31.2449 12.1052 31.9812 13.0792C32.7176 14.0532 33.1361 15.3648 33.1361 16.6739C33.1527 18.2995 33.1361 19.9658 33.1361 21.5637L28.5839 27.5099C28.5839 25.9121 28.6006 24.2458 28.5839 22.6202C28.5672 21.3218 28.1487 20.0102 27.429 19.0255C26.6928 18.0515 25.722 17.4581 24.7346 17.4336C22.6259 17.3737 20.4837 17.316 18.308 17.2604C16.2328 17.1984 14.1241 17.1578 11.9987 17.1087C11.0446 17.082 10.1243 17.5731 9.3711 18.4773C9.33758 18.5371 9.28743 18.5884 9.25391 18.629Z" fill="#1279A6"/>
<path d="M41.4217 16.8137L45.9738 10.8674C45.6893 11.2414 45.6391 11.7356 45.6391 12.2168C45.6224 16.6361 45.6224 21.0638 45.6056 25.4829C45.5888 32.6744 45.5721 39.885 45.5554 47.0764C45.5554 48.0774 45.4215 49.0484 45.1872 49.9102C44.8526 51.1056 44.3336 52.1682 43.681 53.0275L39.1289 58.9737C39.7815 58.1144 40.3003 57.0519 40.6351 55.8565C40.8861 54.984 41.0033 54.0237 41.0033 53.0227C41.0199 45.8312 41.0367 38.6206 41.0535 31.4293C41.0702 27.01 41.0702 22.5823 41.087 18.1631C41.087 17.701 41.1204 17.1984 41.4217 16.8137Z" fill="#1279A6"/>
<path d="M45.5404 55.4667L40.9883 61.413C42.4611 59.4914 43.3313 56.8378 43.3313 53.873C43.3648 43.9566 43.3815 34.0508 43.3982 24.145L47.9504 18.1987C47.917 28.1152 47.9002 38.0211 47.8835 47.9268C47.8835 50.8914 46.9965 53.5559 45.5404 55.4667Z" fill="#B9DCEB"/>
<path d="M45.556 55.5012L41.0039 61.4474C42.4767 59.526 43.3637 56.8423 43.3637 53.8777C43.3971 43.9612 43.4139 34.0553 43.4306 24.1496L47.9828 18.2034C47.9494 28.1198 47.9326 38.0256 47.9158 47.9313C47.8991 50.926 47.0121 53.5903 45.556 55.5012Z" fill="#1279A6"/>
<path d="M43.4152 18.0946L47.9673 12.1482L47.9506 18.2038L43.3984 24.1501L43.4152 18.0946Z" fill="#B9DCEB"/>
<path d="M43.4424 18.0878L47.9947 12.1416L47.9779 18.1971L43.4258 24.1434L43.4424 18.0878Z" fill="#1279A6"/>
<path d="M45.9919 10.8382C46.2262 10.554 46.4939 10.4024 46.7785 10.4134L42.2263 16.3596C41.9418 16.3487 41.674 16.5002 41.4398 16.7846C41.423 16.7952 41.423 16.8145 41.4062 16.8251L45.9584 10.8789C45.9751 10.8682 45.9919 10.8575 45.9919 10.8382Z" fill="#B9DCEB"/>
<path d="M47.9643 11.912C47.9643 11.989 47.9643 12.0659 47.9643 12.143L43.4122 18.0892C43.4122 18.0123 43.4122 17.9353 43.4122 17.8582C43.362 17.1972 43.111 16.7414 42.6758 16.4992C44.1987 14.5072 45.7051 12.545 47.228 10.553C47.6632 10.7951 47.9142 11.251 47.9643 11.912Z" fill="#B9DCEB"/>
<path d="M43.4492 17.8638L48.0014 11.9175C48.0014 11.9945 48.0014 12.0908 48.0014 12.1678L43.4492 18.1141C43.4492 18.0178 43.4492 17.9408 43.4492 17.8638Z" fill="#1279A6"/>
<path d="M46.7943 10.4092C46.945 10.4094 47.0789 10.4587 47.2462 10.5251C45.7232 12.5172 44.217 14.4793 42.6941 16.4715C44.2003 14.5093 45.7232 12.5172 47.2294 10.5359C45.7232 12.498 44.2003 14.4901 42.6941 16.4715C42.5435 16.3943 42.3929 16.3557 42.2422 16.3555C43.5978 14.5857 45.4221 12.209 46.7943 10.4092Z" fill="#B9DCEB"/>
<path d="M40.9391 3.71406C40.9056 3.77394 40.8555 3.84455 40.8053 3.91503L36.253 9.86127C36.3033 9.79079 36.3367 9.73092 36.387 9.66031C36.6548 9.16226 36.6882 8.62114 36.4874 8.07548C36.2866 7.49129 35.9016 7.19787 35.3828 7.18246L39.9349 1.23608C40.4537 1.25162 40.8219 1.55565 41.0396 2.12923C41.2404 2.67477 41.2069 3.23522 40.9391 3.71406Z" fill="#B9DCEB"/>
<path d="M40.8334 3.9265L36.2812 9.87274C36.3314 9.80213 36.3649 9.74226 36.4151 9.67178C36.6828 9.1736 36.7164 8.61329 36.5155 8.04842L41.0678 2.10205C41.2685 2.66704 41.2351 3.22736 40.9673 3.72554C40.9171 3.81534 40.8669 3.88582 40.8334 3.9265Z" fill="#1279A6"/>
<path d="M43.444 17.8536C43.444 17.9305 43.444 18.0268 43.444 18.1038L43.4273 24.1595C43.3937 34.0759 43.377 43.9817 43.3604 53.8875C43.3436 59.1345 40.6156 63.4356 36.733 64.3344C36.2476 64.4515 35.6953 64.4959 35.0928 64.4761C32.7498 64.4117 30.4067 64.3474 28.0637 64.283C27.0429 64.2606 26.0387 64.2275 25.0178 64.2052L20.1978 64.0657C16.2482 63.9677 12.2986 63.8504 8.33219 63.7631C8.19824 63.7522 8.04766 63.7521 7.88032 63.7242C7.29449 63.5974 6.87614 62.9788 6.85938 62.2386C6.85938 61.4301 7.24434 60.7802 7.83003 60.6567C7.99751 60.6269 8.16485 60.6356 8.33219 60.6251C17.0515 60.8561 25.7709 61.0872 34.507 61.3076C35.8626 61.3474 37.1513 60.8525 38.2392 59.8695C39.327 58.8867 40.1303 57.5078 40.6156 55.812C40.8666 54.9396 40.9838 53.9984 40.9838 52.9974C41.0006 45.8061 41.0173 38.5955 41.0341 31.4041C41.0507 26.9848 41.0507 22.5571 41.0675 18.1379C41.0675 17.6374 41.1178 17.1048 41.4357 16.7287C41.6867 16.4337 41.9545 16.282 42.239 16.293C42.3896 16.2932 42.5403 16.3318 42.6909 16.4283C43.1427 16.6982 43.3937 17.1733 43.444 17.8536ZM43.4105 18.2022C43.4105 18.0289 43.4105 17.952 43.4105 17.8556C43.3604 17.1946 43.1092 16.7388 42.6741 16.4967C42.5235 16.4196 42.3729 16.3808 42.2222 16.3807C41.9378 16.3697 41.6699 16.5214 41.4357 16.8056C41.1178 17.1818 41.0675 17.6951 41.0675 18.1957C41.0507 22.6148 41.0507 27.0427 41.0341 31.4618C41.0173 38.6532 41.0006 45.8638 40.9838 53.0551C40.9838 54.0563 40.85 55.0272 40.6156 55.8891C40.147 57.5741 39.327 58.9636 38.2392 59.9466C37.1513 60.9294 35.8626 61.4052 34.4904 61.376C30.1222 61.2755 25.7709 61.145 21.4029 61.0444C17.0349 60.9438 12.6835 60.8133 8.31543 60.7128C8.14809 60.7041 7.98075 60.6954 7.81341 60.7444C7.24434 60.8765 6.85938 61.5072 6.85938 62.2963C6.85938 63.0471 7.27786 63.6273 7.84679 63.7455C7.99751 63.7842 8.14809 63.7843 8.28191 63.7952C12.2316 63.9124 16.1813 64.0104 20.1477 64.0977L21.9217 64.1401L24.9676 64.2179C28.3315 64.3047 31.6954 64.3915 35.0427 64.4889C35.6619 64.498 36.1974 64.4644 36.6827 64.3471C40.5654 63.429 43.2766 59.1579 43.2933 53.9302C43.3268 44.0138 43.3436 34.1079 43.3604 24.2022L43.4105 18.2022Z" fill="#1279A6"/>
<path d="M42.2434 16.3546C42.3941 16.3547 42.5279 16.4041 42.6953 16.4705C43.1471 16.7019 43.3815 17.1685 43.4317 17.8295C43.4317 17.9066 43.4317 17.9835 43.4317 18.0605L43.4149 24.1162C43.3815 34.0326 43.3648 43.9384 43.348 53.8442C43.3312 59.0719 40.62 63.343 36.7374 64.2611C36.252 64.3782 35.7164 64.4313 35.0972 64.4029C31.7334 64.3161 28.3694 64.2293 25.0223 64.1319L21.9764 64.0541L20.2024 64.0117C16.2527 63.9137 12.303 63.7964 8.3366 63.7092C8.20278 63.6983 8.05206 63.6982 7.90148 63.6595C7.31565 63.5519 6.91406 62.9419 6.91406 62.2103C6.91406 61.421 7.29903 60.7905 7.86796 60.6583C8.0353 60.6093 8.20277 60.6374 8.37012 60.6268C12.7381 60.7273 17.0894 60.8578 21.4576 60.9583C25.8256 61.0589 30.1769 61.1895 34.5449 61.29C35.9173 61.3191 37.206 60.8242 38.2939 59.8606C39.3816 58.8969 40.2016 57.4881 40.6703 55.8031C40.9213 54.9305 41.0385 53.9703 41.0385 52.9691C41.0552 45.7778 41.0719 38.5672 41.0886 31.3758C41.1054 26.9565 41.1054 22.5288 41.1222 18.1097C41.1222 17.6283 41.1723 17.115 41.4904 16.7196C41.6912 16.4951 41.959 16.3436 42.2434 16.3546Z" fill="#B9DCEB"/>
<path d="M35.4008 7.17411C35.9196 7.18952 36.2878 7.49368 36.5054 8.06713C36.7062 8.6128 36.6728 9.15392 36.405 9.65209C36.2041 10.0304 35.9028 10.242 35.518 10.2565C35.3673 10.2756 35.2335 10.2648 35.1163 10.2626C30.129 10.1336 25.1584 9.99389 20.1712 9.88425L8.95812 9.58868C7.41852 9.55079 5.91219 10.2231 4.75743 11.4797C3.60267 12.7364 2.81611 14.5281 2.54834 16.5471C2.48143 17.071 2.46467 17.6015 2.46467 17.9865C2.43115 29.751 2.41438 41.428 2.381 52.692C2.381 52.8845 2.381 53.1155 2.34747 53.3295C2.24704 54.0673 1.77847 54.5588 1.19271 54.5475C0.556751 54.4721 0.0881558 53.847 0.0546875 53.079C0.0546875 52.9828 0.0546875 52.8865 0.0546875 52.8096L0.10489 29.1948C0.121624 25.1414 0.121624 21.0794 0.138359 17.0259C0.138359 14.4848 0.824537 12.0256 2.04625 10.1294C3.26798 8.23336 4.99181 6.97946 6.89961 6.58992C7.31809 6.5154 7.73644 6.4602 8.12141 6.4842C17.2257 6.71977 26.2965 6.95761 35.4008 7.17411Z" fill="#B9DCEB"/>
<path d="M41.3828 16.8097L45.9349 10.8635C45.9517 10.8527 45.9517 10.8335 45.9685 10.8229C46.2195 10.528 46.4873 10.3763 46.7718 10.3873C46.9224 10.3874 47.0729 10.4261 47.2237 10.5226C47.6754 10.7732 47.9265 11.229 47.9767 11.9285L43.4246 17.8749C43.3744 17.1946 43.1233 16.7195 42.6714 16.4688C42.5208 16.3724 42.3702 16.3338 42.2197 16.3335C41.9351 16.3225 41.6673 16.4742 41.4162 16.7692C41.4162 16.7692 41.3996 16.7991 41.3828 16.8097Z" fill="#1279A6"/>
<path d="M36.5176 8.0554C36.7185 8.62039 36.6849 9.18071 36.4172 9.67889C36.1997 10.0679 35.8984 10.2794 35.5134 10.294C35.3628 10.3131 35.229 10.3022 35.1118 10.3C30.1246 10.171 25.154 10.0314 20.1667 9.92166L8.95367 9.62622C7.41395 9.58832 5.9245 10.2499 4.76974 11.5065C3.61498 12.7632 2.82842 14.5549 2.56065 16.5545C2.49361 17.0786 2.47685 17.5898 2.47685 17.9941C2.44346 29.7586 2.4267 41.4355 2.39318 52.6996C2.39318 52.8921 2.39318 53.1231 2.35979 53.337C2.25936 54.0941 1.774 54.5963 1.17151 54.5765C0.518812 54.5117 0.0334815 53.8588 0 53.0716C0 52.9753 0 52.8791 0 52.7828L0.0502026 29.168C0.0669499 25.1147 0.0669507 21.0526 0.0836848 16.9991C0.0836848 14.4388 0.769849 11.9797 2.00831 10.0729C3.24678 8.16605 4.9706 6.91216 6.8784 6.52249C7.29689 6.44809 7.71524 6.39289 8.1002 6.41676C17.1877 6.6632 26.2753 6.89031 35.3628 7.11741C35.9319 7.15859 36.3001 7.46275 36.5176 8.0554ZM36.3838 9.66171C36.6516 9.16354 36.6849 8.62242 36.4842 8.07675C36.2834 7.49269 35.8984 7.19926 35.3796 7.18373C26.292 6.95662 17.2045 6.71019 8.11683 6.48308C7.732 6.4592 7.31351 6.5144 6.89516 6.58893C5.00399 6.96773 3.2803 8.22163 2.04177 10.1284C0.820065 12.0245 0.133886 14.4645 0.133886 17.0249C0.117152 21.0784 0.117153 25.1403 0.100419 29.1938L0.0502026 52.7122C0.0502026 52.9047 0.0502026 52.9818 0.0502026 53.078C0.083684 53.846 0.552279 54.471 1.10457 54.5422C1.774 54.5578 2.2426 54.0663 2.34303 53.3284C2.37655 53.1145 2.37655 52.8835 2.37655 52.691C2.40994 41.4269 2.4267 29.7694 2.46022 17.9855C2.46022 17.6005 2.47685 17.07 2.54389 16.5459C2.81166 14.5463 3.59822 12.7352 4.75298 11.4787C5.90774 10.222 7.39732 9.56041 8.95367 9.58769L20.1667 9.88313C25.154 10.0121 30.1246 10.1518 35.1118 10.2616C35.2123 10.2744 35.3628 10.2746 35.5134 10.2555C35.8816 10.2516 36.1829 10.0401 36.3838 9.66171Z" fill="#1279A6"/>
<path d="M8.13281 6.4366L12.6849 0.490234C21.7724 0.736668 30.8601 0.963775 39.9476 1.19088C40.4831 1.19568 40.8513 1.51904 41.069 2.11182L36.5168 8.05807C36.2992 7.46541 35.9142 7.17187 35.3955 7.13713C26.308 6.91002 17.2203 6.68291 8.13281 6.4366Z" fill="#1279A6"/>
</svg>
