<svg width="150" height="30" viewBox="0 0 150 30" fill="none" xmlns="http://www.w3.org/2000/svg">
<path d="M138 13.29C138.676 13.2559 139.352 13.3635 139.984 13.6058C140.617 13.8481 141.191 14.2198 141.671 14.6972C142.152 15.1745 142.527 15.7469 142.773 16.3777C143.019 17.0084 143.13 17.6836 143.1 18.36C143.148 19.0449 143.05 19.7321 142.811 20.3759C142.573 21.0197 142.2 21.6052 141.717 22.0935C141.235 22.5818 140.654 22.9616 140.013 23.2076C139.372 23.4536 138.686 23.5601 138 23.52C137.319 23.5498 136.638 23.4375 136.002 23.1902C135.366 22.9429 134.789 22.5661 134.307 22.0837C133.824 21.6012 133.447 21.0237 133.2 20.3878C132.953 19.752 132.84 19.0716 132.87 18.39C132.84 17.7097 132.952 17.0306 133.2 16.3962C133.448 15.7618 133.825 15.1861 134.308 14.706C134.791 14.2259 135.369 13.8519 136.004 13.6081C136.64 13.3643 137.32 13.2559 138 13.29ZM147 26.25V3.27H143.1V12C141.554 10.827 139.671 10.1851 137.73 10.17C135.488 10.1211 133.316 10.9555 131.683 12.4931C130.05 14.0308 129.086 16.1486 129 18.39C129.063 20.6499 130.015 22.7937 131.65 24.3553C133.285 25.917 135.47 26.7704 137.73 26.73C139.674 26.7326 141.563 26.0888 143.1 24.9V26.25H147ZM114.24 17.04C114.421 15.9491 114.993 14.9612 115.848 14.2603C116.704 13.5594 117.785 13.1932 118.89 13.23C119.981 13.2261 121.038 13.6056 121.877 14.302C122.716 14.9984 123.283 15.9676 123.48 17.04H114.24ZM127.32 19.77V18.78C127.378 17.6425 127.201 16.5053 126.8 15.4394C126.398 14.3735 125.781 13.402 124.987 12.5854C124.193 11.7689 123.239 11.1249 122.185 10.6938C121.131 10.2627 119.999 10.0538 118.86 10.08C117.725 10.0302 116.592 10.2129 115.53 10.6168C114.468 11.0206 113.5 11.6372 112.685 12.4287C111.87 13.2201 111.225 14.1697 110.79 15.2193C110.355 16.2689 110.139 17.3962 110.156 18.5322C110.172 19.6682 110.42 20.7888 110.885 21.8254C111.35 22.862 112.022 23.7927 112.86 24.5603C113.697 25.3279 114.683 25.9163 115.756 26.2894C116.829 26.6625 117.967 26.8125 119.1 26.73C120.721 26.7854 122.326 26.4021 123.746 25.6206C125.167 24.8391 126.35 23.6883 127.17 22.29L123.81 21C123.755 21.0871 123.705 21.1772 123.66 21.27C123.578 21.3427 123.516 21.4358 123.48 21.54C122.956 22.1913 122.287 22.7119 121.527 23.0607C120.767 23.4095 119.936 23.577 119.1 23.55C117.966 23.6342 116.84 23.2941 115.942 22.5957C115.044 21.8973 114.438 20.8903 114.24 19.77H127.32ZM92.7302 3.27V26.25H96.6602V18.39C96.5432 17.2197 96.7727 16.0409 97.3202 15C97.7051 14.4798 98.2144 14.0644 98.8014 13.7919C99.3884 13.5193 100.034 13.3983 100.68 13.44C101.257 13.3923 101.836 13.4943 102.361 13.736C102.887 13.9778 103.341 14.3512 103.68 14.82C104.188 15.7992 104.417 16.8995 104.34 18V26.25H108.24V17.79C108.37 16.1789 108.003 14.5668 107.19 13.17C106.505 12.2242 105.602 11.4577 104.557 10.9355C103.513 10.4132 102.358 10.1506 101.19 10.17C99.574 10.1131 98.0004 10.6951 96.8102 11.79V3.27H92.7302ZM81.0002 13.26C81.6816 13.2262 82.3627 13.3346 83 13.5781C83.6373 13.8217 84.217 14.1951 84.7023 14.6747C85.1875 15.1543 85.5677 15.7296 85.8187 16.3641C86.0697 16.9985 86.186 17.6782 86.1602 18.36C86.1602 19.0337 86.0275 19.7008 85.7697 20.3232C85.5119 20.9456 85.134 21.5111 84.6577 21.9875C84.1813 22.4638 83.6158 22.8417 82.9934 23.0995C82.371 23.3573 81.7039 23.49 81.0302 23.49C80.3565 23.49 79.6894 23.3573 79.067 23.0995C78.4446 22.8417 77.8791 22.4638 77.4027 21.9875C76.9264 21.5111 76.5485 20.9456 76.2907 20.3232C76.0329 19.7008 75.9002 19.0337 75.9002 18.36C75.875 17.6835 75.9896 17.009 76.237 16.3788C76.4843 15.7487 76.8591 15.1763 77.3378 14.6976C77.8165 14.2189 78.3889 13.8441 79.019 13.5968C79.6492 13.3494 80.3237 13.2348 81.0002 13.26ZM89.7002 26.25V10.56H85.9202V12C84.3766 10.8443 82.5082 10.204 80.5802 10.17C79.4449 10.1018 78.3077 10.2666 77.2384 10.6541C76.1691 11.0416 75.1904 11.6438 74.3624 12.4235C73.5345 13.2033 72.8747 14.1441 72.4238 15.1882C71.9728 16.2324 71.7402 17.3577 71.7402 18.495C71.7402 19.6323 71.9728 20.7577 72.4238 21.8018C72.8747 22.8459 73.5345 23.7867 74.3624 24.5665C75.1904 25.3462 76.1691 25.9484 77.2384 26.3359C78.3077 26.7234 79.4449 26.8882 80.5802 26.82C82.5031 26.8093 84.369 26.1663 85.8902 24.99V26.34L89.7002 26.25ZM44.4002 3.27H40.2002L48.0002 26.25H51.8402L57.3302 10.02L63.0002 26.25H66.8402L74.6402 3.27H70.2602L64.7702 19.83L59.0702 3.27H55.6202L49.9202 19.83L44.4002 3.27Z" fill="#BDC1C2"/>
<path d="M13.5302 6.24C13.0332 6.25891 12.5534 6.42618 12.1523 6.72025C11.7513 7.01433 11.4476 7.42174 11.2802 7.89L6.69016 22.11C6.59795 22.2912 6.54989 22.4917 6.54989 22.695C6.54989 22.8983 6.59795 23.0988 6.69016 23.28C6.8189 23.4403 6.98409 23.5675 7.17196 23.651C7.35982 23.7345 7.56492 23.7718 7.77016 23.76H36.3002C36.5048 23.7671 36.7084 23.7276 36.8955 23.6445C37.0826 23.5613 37.2483 23.4367 37.3802 23.28C37.4724 23.0988 37.5204 22.8983 37.5204 22.695C37.5204 22.4917 37.4724 22.2912 37.3802 22.11L33.0002 7.89C32.8207 7.42375 32.5097 7.01963 32.105 6.72673C31.7002 6.43383 31.2191 6.26474 30.7202 6.24H13.5302ZM36.4502 27.39H7.92016C7.14078 27.4043 6.36929 27.232 5.67001 26.8876C4.97072 26.5432 4.36391 26.0366 3.90016 25.41C3.45499 24.7768 3.16356 24.0485 3.04899 23.283C2.93443 22.5175 2.99988 21.7358 3.24016 21L7.83016 6.78C8.2172 5.57147 8.97745 4.51677 10.0016 3.76751C11.0258 3.01824 12.2612 2.61299 13.5302 2.61H30.8102C32.0776 2.63346 33.3073 3.04614 34.3323 3.79208C35.3573 4.53803 36.1281 5.58115 36.5402 6.78L41.1002 21C41.3506 21.7334 41.4208 22.5163 41.305 23.2826C41.1892 24.0488 40.8906 24.776 40.4346 25.4026C39.9787 26.0292 39.3786 26.5369 38.6851 26.8828C37.9916 27.2287 37.225 27.4027 36.4502 27.39Z" fill="#F8D234"/>
</svg>
