<svg xmlns="http://www.w3.org/2000/svg" viewBox="0 0 200.25 87.39"><defs><style>.cls-1{fill:#94969a;}.cls-2{fill:#002c4d;}.cls-3{fill:#a7674c;}</style></defs><title>CMB_logo</title><g id="CMB_wording" data-name="CMB wording"><polygon class="cls-1" points="45.42 79.7 46.38 79.7 48.64 86 51.06 79.7 52.07 79.7 53.25 87.17 52.35 87.32 51.4 80.93 51.38 80.93 49.06 87.17 48.17 87.17 46.01 80.93 45.98 80.93 44.96 87.32 44.06 87.17 45.42 79.7 45.42 79.7"/><polygon class="cls-1" points="56.77 79.7 60.61 79.7 60.61 80.48 57.69 80.48 57.66 83.02 60.51 83.02 60.51 83.79 57.68 83.79 57.65 86.39 60.65 86.39 60.65 87.17 56.7 87.17 56.77 79.7 56.77 79.7"/><path class="cls-1" d="M65.81,83.48h.93c.92,0,1.87-.32,1.87-1.41,0-.8-.45-1.5-1.66-1.5H65.83l0,2.91Zm-.91-3.56h2.25c1.41,0,2.37.72,2.37,2A2,2,0,0,1,67.65,84v0c.5.1.92.77,1.23,1.15l1.5,2-.82.5-1.76-2.4c-.46-.59-.68-1-1.39-1h-.59l0,3.19h-.94l.06-7.47Z" transform="translate(-0.38 -0.22)"/><path class="cls-1" d="M78.47,81.11a3.2,3.2,0,0,0-1.93-.56,3.11,3.11,0,0,0,0,6.21,4,4,0,0,0,1.92-.58l.37.66a4.77,4.77,0,0,1-2.29.7,3.73,3.73,0,0,1-4-3.88,3.82,3.82,0,0,1,4-3.88,4.67,4.67,0,0,1,2.32.6l-.39.73Z" transform="translate(-0.38 -0.22)"/><polygon class="cls-1" points="81.83 79.7 82.77 79.7 82.74 83.02 86.76 83.02 86.81 79.7 87.75 79.7 87.68 87.17 86.74 87.17 86.77 83.79 82.75 83.79 82.71 87.17 81.77 87.17 81.83 79.7 81.83 79.7"/><path class="cls-1" d="M94.56,80.76h0l-1.25,3.37h2.45l-1.18-3.37Zm-.42-.84H95l3,7.31-.93.3-1-2.63H93l-1.09,2.63L91,87.27l3.13-7.35Z" transform="translate(-0.38 -0.22)"/><polygon class="cls-1" points="100.86 79.89 101.63 79.55 105.77 85.6 105.79 85.6 105.83 79.7 106.77 79.7 106.7 87.02 105.89 87.32 101.8 81.21 101.77 81.21 101.73 87.17 100.79 87.17 100.86 79.89 100.86 79.89"/><polygon class="cls-1" points="109.97 79.7 115.63 79.7 115.63 80.48 113.26 80.48 113.2 87.17 112.27 87.17 112.33 80.48 109.97 80.48 109.97 79.7 109.97 79.7"/><path class="cls-1" d="M125.37,83.14h.7c1.23,0,1.73-.53,1.73-1.28s-.48-1.28-1.66-1.28h-.74l0,2.57Zm0,3.54h1.09c.95,0,1.55-.42,1.55-1.45s-.65-1.38-1.73-1.38h-.87l0,2.83Zm-.87-6.75h2.07c1.64,0,2.2,1,2.2,1.81a1.66,1.66,0,0,1-1.32,1.74v0a1.74,1.74,0,0,1,1.49,1.82c0,1.33-.95,2.07-2.42,2.07h-2.09l.06-7.47Z" transform="translate(-0.38 -0.22)"/><path class="cls-1" d="M134.93,80.76h0l-1.25,3.37h2.45l-1.18-3.37Zm-.42-.84h.88l3,7.31-.93.3-1-2.63h-3.09l-1.09,2.63-.86-.27,3.13-7.35Z" transform="translate(-0.38 -0.22)"/><polygon class="cls-1" points="140.97 79.89 141.75 79.55 145.88 85.6 145.91 85.6 145.95 79.7 146.89 79.7 146.82 87.02 146.01 87.32 141.91 81.21 141.89 81.21 141.85 87.17 140.91 87.17 140.97 79.89 140.97 79.89"/><path class="cls-1" d="M152.18,83.59l3.71-3.82.65.57-3.2,3.23,3.23,3.36-.7.61-3.68-3.95Zm-.9-3.67h.93l-.06,7.47h-.93l.06-7.47Z" transform="translate(-0.38 -0.22)"/></g><g id="CORONATION_OUTLINED" data-name="CORONATION OUTLINED"><g id="coronation"><path class="cls-2" d="M8.77,68a8,8,0,0,1-8.39-8.3c0-5.1,3.69-8.95,8.58-8.95a9.66,9.66,0,0,1,5.6,1.47,1.84,1.84,0,0,0,.65.32.42.42,0,0,0,.12-.07.75.75,0,0,1,.43-.17c.44,0,.45.35.52,1.81v.27c0,.33,0,.62.06.88.05.63.08,1-.1,1.21a.39.39,0,0,1-.3.12c-.35,0-.52-.42-.65-.72a1.53,1.53,0,0,0-.07-.15c-1.6-2.77-3.32-3.89-5.91-3.89-4.14,0-6.51,2.6-6.51,7.14,0,3.92,2.26,7.88,6.58,7.88,3.58,0,5.77-2.29,6.08-3.25a.58.58,0,0,1,.52-.44.44.44,0,0,1,.41.5L15.87,66S14.44,68,8.77,68Z" transform="translate(-0.38 -0.22)"/><path class="cls-2" d="M30.13,68c-5,0-8.34-3.49-8.34-8.69a8.46,8.46,0,0,1,8.74-8.55,8.72,8.72,0,0,1,6.12,2.37,8.33,8.33,0,0,1,2.48,6.07C39.12,64.46,35.51,68,30.13,68Zm-.3-16.07c-2.86,0-5.93,2.1-5.93,6.7,0,5.36,3.71,8.26,7.21,8.26S37,64.09,37,60.08,34.33,51.94,29.83,51.94Z" transform="translate(-0.38 -0.22)"/><path class="cls-2" d="M68.27,72.87A17.11,17.11,0,0,1,57.9,68.4a22.11,22.11,0,0,1-3.46-4.18c-.88-1.34-1.78-2.78-1.95-3.05l-.23-.38c-.42-.69-.47-.76-1.58-.77h-1.9c-.27,0-.35.06-.37.08s0,.14,0,.25v5c0,1.06.77,1.23,1.45,1.38.48.1,1,.21,1,.68a.38.38,0,0,1-.11.29.54.54,0,0,1-.42.11l-.32,0c-.32,0-1-.08-2.43-.08-.43,0-.88,0-1.31,0s-.88,0-1.35,0a.44.44,0,0,1-.44-.46c0-.35.32-.48.64-.61a1.34,1.34,0,0,0,1.06-1.41V53.52c0-1.23-.61-1.34-1.2-1.45-.36-.07-.8-.15-.8-.62,0-.24.25-.49.67-.49a2.13,2.13,0,0,1,.36,0,6.24,6.24,0,0,0,1.13.06c.66,0,1.32,0,2,0h.09c.64,0,1.9,0,2.51,0h.23c2.48-.11,3.82.64,4.5,1.29a3.9,3.9,0,0,1,1.12,2.94,4.68,4.68,0,0,1-2.83,4.12c.8,1.25,3.07,4.77,3.76,5.66a18.61,18.61,0,0,0,2.22,2.49,16.45,16.45,0,0,0,7.8,4.4l.14,0c.74.2,1,.28,1.07.54a.36.36,0,0,1-.08.29A.62.62,0,0,1,68.27,72.87ZM48.39,58.71a6.84,6.84,0,0,0,2.13.12h1a2.83,2.83,0,0,0,3-3.09c0-3.23-3-3.58-4.23-3.58h-1c-.35,0-.63,0-.76.14a.73.73,0,0,0-.13.52Z" transform="translate(-0.38 -0.22)"/><path class="cls-2" d="M73.24,68c-5,0-8.34-3.49-8.34-8.69a8.46,8.46,0,0,1,8.74-8.55,8.72,8.72,0,0,1,6.12,2.37,8.33,8.33,0,0,1,2.48,6.07C82.24,64.46,78.62,68,73.24,68Zm-.3-16.07c-2.86,0-5.93,2.1-5.93,6.7,0,5.36,3.72,8.26,7.21,8.26s5.91-2.8,5.91-6.82S77.44,51.94,72.94,51.94Z" transform="translate(-0.38 -0.22)"/><path class="cls-2" d="M102.46,67.93c-.27,0-.56-.2-1-.72L91.37,55.89a2.5,2.5,0,0,0-.22-.25,2.3,2.3,0,0,0,0,.27v9.51c0,1.18.65,1.28,1.29,1.39.34.05.76.12.76.52a.45.45,0,0,1-.46.51c-.24,0-.5,0-.78,0s-.9-.06-1.57-.06-1.29,0-1.73.07h0l-.42,0a.44.44,0,0,1-.51-.46c0-.42.37-.54.68-.62.58-.17,1.37-.41,1.37-2.42V55.75c0-3.24-1.29-3.56-2.06-3.75-.37-.09-.75-.19-.75-.6s.36-.44.56-.44A4.35,4.35,0,0,1,88,51a3,3,0,0,0,1,0,4.32,4.32,0,0,1,.57,0c.3,0,.52.28.67.49l.09.12L101.47,63.9V54.33c0-1.87-1-2.11-1.75-2.3-.41-.1-.83-.21-.83-.62a.43.43,0,0,1,.46-.44c.34,0,.67,0,1,0s.73,0,1.09,0,.89,0,1.32-.05h0c.39,0,.74,0,1,0a.41.41,0,0,1,.44.42c0,.36-.29.49-.56.6a1.15,1.15,0,0,0-.82,1.28V66.73C102.88,67.4,102.88,67.93,102.46,67.93Z" transform="translate(-0.38 -0.22)"/><path class="cls-2" d="M112.75,67.84h-.23c-.34,0-.7,0-1,0s-.65,0-1,0-.64,0-.93,0-.62,0-.93,0a.42.42,0,0,1-.42-.46c0-.34.3-.44.56-.52a1.63,1.63,0,0,0,1.16-1L115.57,54l.81-1.75c.68-1.48.76-1.67,1.12-1.67s.5.43.64.87l0,.13,4.83,12c.09.23.18.46.27.7a9.48,9.48,0,0,0,.88,1.91,1.69,1.69,0,0,0,1.29.69c.37.06.79.13.79.56s-.39.42-.53.42c-.5,0-1,0-1.44,0a19.52,19.52,0,0,0-2.34,0c-.3,0-.63,0-1,0s-.72-.15-.72-.44.4-.53.72-.64.68-.25.68-.57a6.48,6.48,0,0,0-.51-1.64l0,0c-.07-.17-.13-.33-.18-.46l-.75-1.93c-.22-.51-.32-.73-.82-.73h-5.12c-.47,0-.74,0-.91.37L111.85,65a2.2,2.2,0,0,0-.14.73c0,.84.46.92.95,1,.31.06.7.13.7.53a.55.55,0,0,1-.15.42A.63.63,0,0,1,112.75,67.84Zm1.5-7.9.16,0H119a.88.88,0,0,0,.23,0,1,1,0,0,0-.05-.16l-2.27-5.59h0l-2.63,5.65A.52.52,0,0,0,114.25,59.95Z" transform="translate(-0.38 -0.22)"/><path class="cls-2" d="M138.73,67.84c-.26,0-.53,0-.81,0h-.06c-.34,0-.67,0-1,0-2.12,0-2.79.06-3,.08h-.14c-.33,0-.49-.17-.49-.51s.36-.49.75-.63,1.09-.39,1.09-1.09V53.17c0-.66-.06-.76-.06-.76H131.2c-1.16,0-1.27.35-1.61,1.4l-.13.43c-.05.2-.15.58-.56.58a.48.48,0,0,1-.44-.49l.26-2.38c0-.32.06-1,.62-1,.8,0,1.58,0,2.47,0,1.08,0,2.42.06,4.13.06,3.13,0,5.14-.05,6.11-.08h.7c.64,0,.85.21.88.87l.12,1.86a.75.75,0,0,1-.11.59.45.45,0,0,1-.35.14c-.51,0-.55-.48-.58-.83,0-.58-.1-1.18-1.39-1.18h-3.53a1.62,1.62,0,0,0-.49,0,2,2,0,0,0,0,.57c0,.1,0,.21,0,.33v12.1c0,1,.57,1.18,1.12,1.3.34.08.77.17.77.61a.49.49,0,0,1-.11.37A.41.41,0,0,1,138.73,67.84Z" transform="translate(-0.38 -0.22)"/><path class="cls-2" d="M155.43,67.76l-.79,0h-.11c-.47,0-1-.06-1.63-.06-1,0-1.48,0-1.82.07l-.41,0c-.32,0-.69-.06-.69-.56s.37-.49.67-.57c.51-.13,1.15-.3,1.15-1.64V53.09c0-.93-.67-1.1-1.19-1.23-.34-.08-.69-.17-.69-.52s.13-.46.44-.46.92,0,1.29,0a20.56,20.56,0,0,0,2.33,0c.34,0,.72,0,1.1,0s.65,0,.65.44-.34.45-.65.53c-.5.14-1,.28-1,1.23V65.58c0,.79.58.93,1.19,1.08.41.1.88.22.88.66S155.67,67.76,155.43,67.76Z" transform="translate(-0.38 -0.22)"/><path class="cls-2" d="M169.86,68c-5,0-8.34-3.49-8.34-8.69a8.46,8.46,0,0,1,8.74-8.55,8.72,8.72,0,0,1,6.12,2.37,8.33,8.33,0,0,1,2.48,6.07C178.86,64.46,175.24,68,169.86,68Zm-.3-16.07c-2.86,0-5.93,2.1-5.93,6.7,0,5.36,3.71,8.26,7.21,8.26s5.91-2.8,5.91-6.82S174.06,51.94,169.56,51.94Z" transform="translate(-0.38 -0.22)"/><path class="cls-2" d="M198.84,67.93c-.27,0-.56-.2-1-.72L187.75,55.89a2.6,2.6,0,0,0-.22-.25,2.29,2.29,0,0,0,0,.27v9.51c0,1.18.65,1.28,1.29,1.39.34.05.76.12.76.52a.45.45,0,0,1-.46.51c-.24,0-.5,0-.78,0s-.9-.06-1.57-.06-1.29,0-1.74.07l-.45,0a.45.45,0,0,1-.51-.46c0-.42.38-.54.68-.62.58-.17,1.37-.41,1.37-2.42V55.75c0-3.24-1.29-3.56-2.06-3.75-.37-.09-.75-.19-.75-.6s.35-.44.55-.44a4.4,4.4,0,0,1,.57,0,2.94,2.94,0,0,0,1,0,4.44,4.44,0,0,1,.57,0c.3,0,.52.28.67.49l.09.12L197.84,63.9V54.33c0-1.87-1-2.11-1.75-2.3-.41-.1-.83-.21-.83-.62a.43.43,0,0,1,.46-.44c.35,0,.68,0,1,0s.72,0,1.09,0,.89,0,1.32-.05h0c.41,0,.74,0,1,0a.41.41,0,0,1,.44.42c0,.36-.29.49-.55.6a1.15,1.15,0,0,0-.82,1.28V66.73C199.25,67.4,199.25,67.93,198.84,67.93Z" transform="translate(-0.38 -0.22)"/></g></g><g id="LION"><path class="cls-3" d="M108.33,14.68c0,.84.57,1.63,2.12,1.07.94-.34,2.2.75,2.85.29.33-.23-1.14-1-1.81-1.69s.4-.32-.33-.92-2.82,1.25-2.82,1.25Zm-3.07,2.87A3.85,3.85,0,0,0,102.54,16c-.2,0-.45.08-.26.37a16.07,16.07,0,0,0,1,1.43,3,3,0,0,1-.09,4.18c-2.93,3.27,4.84,6.8,6.11,7.35,3.76,1.63,5.64,2.28,7.21,3.67,2.29,2,2.72,4.67,1.93,5.82-.13.19-.37.39-1.1.13a48.79,48.79,0,0,0-15.81-2.81,64.49,64.49,0,0,0-20.41,2.77c-1.07.33-1.16-.84-.45-1.29,1.67-1,2.56-1.21,3.54-2.43a1.43,1.43,0,0,0-.2-2.36c-1.59-.85-2.84.65-3.93,1.5A9.58,9.58,0,0,1,82,30.2c-.79-.61-2,.07-4.07,1.43.43-3,3.77-5.07,5.64-4.72a4.78,4.78,0,0,0-4.27-1.44A6.4,6.4,0,0,0,76,29.38s-1.44-3.88,3.35-4a6.27,6.27,0,0,1,4.72-2.72c-.24-.45-2-2.1-5.53.33,0,0,1.43-2.65,2.81-3.13-.31-.1-1.56-.39-2.08-.53-2.15.56-3.17,2-4.25,3.72-.65-3,1.38-4.52,4.24-3.92,1.55-1.52,3.52-1.65,5.58-1.44a4.7,4.7,0,0,0-3.45-2,6.66,6.66,0,0,0-6.09,2c0-.31,1.32-5.94,6.6-2.59.6-.14,2.93-.43,3.4-.84-.73-1-4.39-1.5-4.74-1.51a13.22,13.22,0,0,1,3.64-1.06A5.91,5.91,0,0,1,88.42,13s-.84-2.81-3.17-3.23a8.3,8.3,0,0,0-6.85,2.36s.46-6.21,6.76-2.46a6.27,6.27,0,0,1,4.78.22C89.8,8.55,88.09,7.37,87.59,7,85,6.76,82.52,7.12,81.76,8c2.72-3.33,4.24-2.46,6.11-1.3a7.85,7.85,0,0,1,5.76.84c-.47-1.53-1.79-3.27-6.36-3.1,0,0,0,0,0,0,4-1.72,7.09-.87,9,1.63.89,1.15.18-4.44-5.05-3.35-.13,0,0,0,0,0a7.22,7.22,0,0,1,7.94,1.88c.07.09.11.07.11-.05,0-.66.11-2.85-4.34-3.58-.06,0-.06-.07.12-.1,5.1-.66,6.35,3.43,6.47,3.14C102.55.72,98,.22,98.88.22c4.66,0,4.29,3.85,4.66,3.46,1.23-2.07-1.9-3.42-1-3.29a2.93,2.93,0,0,1,2.62,3.8c1.69-1.11.09-2.75.61-2.47,2.19,1.36.34,3.26,1.09,2.92,1.46-1.61,2.84-.48,2.56-.36A2.49,2.49,0,0,0,108,5.93c1.71-1.43,3.35.24,2.92.29a1.58,1.58,0,0,0-1.41,1.06c1.51-1.29,2.92.89,2.44.79-1-.21-1.21.91-1.21.91.52-.26,1.61.74,1,.7-1-.06-.81,1.11-.83,1.11a4.23,4.23,0,0,1,1.8,1.37,6.71,6.71,0,0,0,1,1.61c.37.31,2.3,2.57,2.8,3s2,2,2.27,2.23a1.68,1.68,0,0,1-.12,1.78c-.57.54-1.39.73-1.37,1.07a2.39,2.39,0,0,1-.4,1.62c-.31.27-.71.44-.78.82a2.85,2.85,0,0,1-.58,1.49,2.53,2.53,0,0,1-3.25.2c-.85-.58-1.77-1.28-2.61-.92s-.77,1.23-.56,2.41c-4.5-2.51-5-5.28-4.28-6.92.5-1.18,1.15-1.82.5-3Z" transform="translate(-0.38 -0.22)"/></g></svg>