<svg width="366" height="91" viewBox="0 0 366 91" fill="none" xmlns="http://www.w3.org/2000/svg">
<path d="M92.79 58.35V23.39H108.57V57.64C108.57 65.83 112.07 70.5 118.16 70.5C125.99 70.5 131.13 63.02 131.13 51.79V23.38H146.91V81.83H131.13V74.28C127.51 81.65 120.72 83.71 112.19 83.71C99.79 83.71 92.79 74.47 92.79 58.34V58.35Z" fill="#6100A5"/>
<path d="M170.28 2.29001H154.5V15.11H170.28V2.29001Z" fill="#6100A5"/>
<path d="M170.22 23.39H154.44V81.84H170.22V23.39Z" fill="#6100A5"/>
<path d="M223.06 0V34.27C219.31 26.33 212.19 21.53 203.07 21.53C188.11 21.53 177.82 34.16 177.82 52.51C177.82 70.86 188.34 83.72 203.31 83.72C212.42 83.72 219.44 79.05 223.07 71.09V81.84H238.85V0H223.06ZM208.48 70.45C200.48 70.45 194 62.6 194 52.92C194 43.24 200.49 35.39 208.48 35.39C216.47 35.39 222.96 43.24 222.96 52.92C222.96 62.6 216.47 70.45 208.48 70.45Z" fill="#6100A5"/>
<path d="M334.49 65.6L322.68 81.85H303.74L325.02 52.63L303.74 23.41H322.68L334.49 39.66L346.3 23.41H365.24L343.96 52.63L365.24 81.85H346.3L334.49 65.6Z" fill="#6100A5"/>
<path d="M246.37 66.49C246.37 56.18 254.53 50.17 270.74 48.23C282.53 46.76 284.46 45.85 284.23 41.77C284 38.15 280.95 36.21 275.5 36.21C268.02 36.21 263.14 39.49 263.14 44.26L247.95 43.13C247.95 31.45 258.6 23.4 274.03 23.4C289.46 23.4 299.77 31.79 299.77 44.94V81.9H284.47V72.49C281.19 79.52 274.61 83.72 265.87 83.72C254.43 83.72 246.37 76.58 246.37 66.48V66.49ZM284.46 52.66C282.08 55.49 277.43 57.43 271.76 58.11C264.96 59.02 262 61.28 262 65.03C262 68.78 265.28 70.93 269.94 70.93C278.44 70.93 283.89 63.79 284.45 52.67L284.46 52.66Z" fill="#6100A5"/>
<path d="M85.48 76.79C81.46 82.06 76.5 86.57 70.83 90.06C70.09 86.1 68.9 82.29 67.29 78.72C65.08 73.83 62.11 69.35 58.53 65.44C52.67 59.05 45.15 54.2 36.68 51.54C38.83 51.23 41.04 51.08 43.27 51.08C51.47 51.08 59.2 53.16 65.94 56.84C67.98 53.07 69.16 48.73 69.16 44.13C69.16 29.4 57.21 17.45 42.48 17.45C27.75 17.45 15.8 29.4 15.8 44.13C15.8 45.98 15.99 47.8 16.34 49.54C16.9 52.25 17.88 54.83 19.2 57.17C19.27 57.31 19.32 57.4 19.4 57.51C24.01 65.47 32.62 70.81 42.47 70.81C45.58 70.81 48.56 70.28 51.34 69.28C55.2 73.09 58.32 77.65 60.47 82.7C55.02 85.25 48.94 86.66 42.54 86.66C27.78 86.66 14.77 79.14 7.16 67.72C5.77 65.66 4.57 63.48 3.56 61.18C2.51 58.8 1.68 56.29 1.08 53.69C0.369998 50.61 0 47.41 0 44.13C0 20.64 19.05 1.59 42.54 1.59C66.03 1.59 85.08 20.64 85.08 44.13C85.08 52.45 82.7 60.23 78.54 66.79C81.26 69.8 83.59 73.15 85.47 76.79H85.48Z" fill="#6100A5"/>
</svg>
