<svg xmlns="http://www.w3.org/2000/svg" xml:space="preserve" width="1.14667in" height="0.23in" version="1.1" style="shape-rendering:geometricPrecision; text-rendering:geometricPrecision; image-rendering:optimizeQuality; fill-rule:evenodd; clip-rule:evenodd"
viewBox="0 0 41.89 8.4"
 xmlns:xlink="http://www.w3.org/1999/xlink"
 xmlns:xodm="http://www.corel.com/coreldraw/odm/2003">
 <defs>
  <style type="text/css">
   <![CDATA[
    .str0 {stroke:#013B78;stroke-width:0.11;stroke-miterlimit:2.61313}
    .fil2 {fill:none}
    .fil3 {fill:#013B78}
    .fil4 {fill:#FDB811}
    .fil0 {fill:#013B78;fill-rule:nonzero}
    .fil1 {fill:#013B78;fill-rule:nonzero}
   ]]>
  </style>
   <clipPath id="id0">
    <path d="M-0 0l41.89 0 0 8.4 -41.89 0 0 -8.4z"/>
   </clipPath>
 </defs>
 <g id="Layer_x0020_1">
  <metadata id="CorelCorpID_0Corel-Layer"/>
  <g>
  </g>
  <g style="clip-path:url(#id0)">
   <g id="_1780767097168">
    <path class="fil0" d="M9.84 5.83l0.74 0c0.47,0 0.71,-0.25 0.71,-0.73l0 -0.26c0,-0.33 -0.1,-0.55 -0.35,-0.64l0 -0.01c0.21,-0.09 0.3,-0.28 0.3,-0.6l0 -0.12c0,-0.47 -0.21,-0.7 -0.7,-0.7l-0.71 0 0 3.07 0 -0.01zm0.47 -1.82l0 -0.81 0.22 0c0.17,0 0.24,0.09 0.24,0.32l0 0.17c0,0.24 -0.11,0.33 -0.28,0.33l-0.19 0 0.01 -0.01zm0 1.38l0 -0.94 0.21 0c0.21,0 0.3,0.09 0.3,0.37l0 0.27c0,0.23 -0.08,0.3 -0.24,0.3l-0.27 0 -0 0zm1.25 0.44l0.42 0 0 -2.24 0.01 0 0.56 2.24 0.48 0 0 -3.07 -0.42 0 0 1.84 -0.01 0 -0.45 -1.84 -0.59 0 0 3.07zm1.82 0l0.47 0 0 -3.07 -0.47 0 0 3.07zm1.5 0l0.47 0 0 -3.07 -0.47 0 0 3.07zm0.82 0l0.42 0 0 -2.24 0.01 0 0.56 2.24 0.48 0 0 -3.07 -0.42 0 0 1.84 -0.01 0 -0.45 -1.84 -0.59 0 0 3.07zm2.43 0.04c0.46,0 0.71,-0.28 0.71,-0.78 0,-0.38 -0.12,-0.63 -0.52,-0.98 -0.31,-0.28 -0.4,-0.44 -0.4,-0.66 0,-0.21 0.08,-0.29 0.24,-0.29 0.15,0 0.24,0.08 0.24,0.3l0 0.16 0.44 0 0 -0.13c0,-0.49 -0.22,-0.77 -0.68,-0.77 -0.45,0 -0.7,0.28 -0.7,0.76 0,0.35 0.13,0.6 0.52,0.96 0.31,0.28 0.4,0.44 0.4,0.69 0,0.23 -0.1,0.3 -0.24,0.3 -0.15,0 -0.24,-0.08 -0.24,-0.3l0 -0.21 -0.44 0 0 0.18c0,0.49 0.23,0.77 0.69,0.77l-0.01 0zm1.66 0c0.46,0 0.7,-0.28 0.7,-0.77l0 -2.34 -0.45 0 0 2.38c0,0.22 -0.09,0.3 -0.24,0.3 -0.15,0 -0.24,-0.08 -0.24,-0.3l0 -2.38 -0.47 0 0 2.34c0,0.49 0.24,0.77 0.7,0.77zm1.03 -0.04l0.47 0 0 -1.31 0.16 0c0.21,0 0.29,0.09 0.29,0.38l0 0.56c0,0.25 0.02,0.3 0.04,0.38l0.48 0c-0.04,-0.12 -0.05,-0.22 -0.05,-0.37l0 -0.54c0,-0.35 -0.08,-0.58 -0.31,-0.65l0 -0.01c0.21,-0.09 0.31,-0.29 0.31,-0.6l0 -0.19c0,-0.47 -0.21,-0.7 -0.7,-0.7l-0.7 0 0 3.07 0 -0.01zm0.47 -1.76l0 -0.88 0.21 0c0.17,0 0.24,0.09 0.24,0.32l0 0.24c0,0.24 -0.11,0.33 -0.28,0.33l-0.17 0 -0 -0.01zm1.12 1.76l0.43 0 0.08 -0.6 0.53 0 0 -0.01 0.08 0.61 0.47 0 -0.49 -3.07 -0.63 0 -0.49 3.07 0.01 0zm0.57 -1.02l0.2 -1.52 0.01 0 0.21 1.52 -0.42 0 -0 0zm1.26 1.02l0.42 0 0 -2.24 0.01 0 0.56 2.24 0.48 0 0 -3.07 -0.42 0 0 1.84 -0.01 0 -0.45 -1.84 -0.59 0 0 3.07zm2.48 0.04c0.45,0 0.69,-0.28 0.69,-0.75l0 -0.43 -0.44 0 0 0.47c0,0.2 -0.1,0.28 -0.24,0.28 -0.14,0 -0.24,-0.08 -0.24,-0.28l0 -1.71c0,-0.2 0.1,-0.28 0.24,-0.28 0.14,0 0.24,0.08 0.24,0.28l0 0.35 0.44 0 0 -0.33c0,-0.47 -0.24,-0.75 -0.69,-0.75 -0.45,0 -0.69,0.28 -0.69,0.75l0 1.65c0,0.47 0.24,0.75 0.69,0.75l0 -0.01zm0.97 -0.04l1.28 0 0 -0.44 -0.81 0 0 -0.94 0.65 0 0 -0.44 -0.65 0 0 -0.81 0.81 0 0 -0.44 -1.28 0 0 3.07 0 -0.01zm2.23 0l0.74 0c0.47,0 0.71,-0.25 0.71,-0.73l0 -0.26c0,-0.33 -0.1,-0.55 -0.35,-0.64l0 -0.01c0.21,-0.09 0.3,-0.28 0.3,-0.6l0 -0.12c0,-0.47 -0.21,-0.7 -0.7,-0.7l-0.71 0 0 3.07 0 -0.01zm0.47 -1.82l0 -0.81 0.22 0c0.17,0 0.24,0.09 0.24,0.32l0 0.17c0,0.24 -0.11,0.33 -0.28,0.33l-0.19 0 0.01 -0.01zm0 1.38l0 -0.94 0.21 0c0.21,0 0.3,0.09 0.3,0.37l0 0.27c0,0.23 -0.08,0.3 -0.24,0.3l-0.27 0 -0 0zm1.25 0.44l0.47 0 0 -1.31 0.16 0c0.21,0 0.29,0.09 0.29,0.38l0 0.56c0,0.25 0.02,0.3 0.05,0.38l0.48 0c-0.05,-0.12 -0.05,-0.22 -0.05,-0.37l0 -0.54c0,-0.35 -0.08,-0.58 -0.31,-0.65l0 -0.01c0.21,-0.09 0.31,-0.29 0.31,-0.6l0 -0.19c0,-0.47 -0.21,-0.7 -0.7,-0.7l-0.7 0 0 3.07 0 -0.01zm0.47 -1.76l0 -0.88 0.21 0c0.17,0 0.24,0.09 0.24,0.32l0 0.24c0,0.24 -0.11,0.33 -0.28,0.33l-0.17 0 -0.01 -0.01zm1.92 1.8c0.46,0 0.71,-0.28 0.71,-0.77l0 -1.61c0,-0.49 -0.25,-0.77 -0.71,-0.77 -0.46,0 -0.71,0.28 -0.71,0.77l0 1.61c0,0.49 0.25,0.77 0.71,0.77zm0 -0.44c-0.15,0 -0.24,-0.08 -0.24,-0.3l0 -1.67c0,-0.22 0.1,-0.3 0.24,-0.3 0.15,0 0.24,0.08 0.24,0.3l0 1.67c0,0.22 -0.1,0.3 -0.24,0.3zm1.03 0.39l0.47 0 0 -0.98 0.19 -0.39 0.4 1.37 0.49 0 -0.57 -1.95 0.56 -1.12 -0.47 0 -0.59 1.29 0 -1.29 -0.47 0 0 3.07 0.01 -0.01zm1.76 0l1.28 0 0 -0.44 -0.81 0 0 -0.94 0.65 0 0 -0.44 -0.65 0 0 -0.81 0.81 0 0 -0.44 -1.28 0 0 3.07 0 -0.01zm1.55 0l0.47 0 0 -1.31 0.16 0c0.21,0 0.29,0.09 0.29,0.38l0 0.56c0,0.25 0.02,0.3 0.04,0.38l0.48 0c-0.04,-0.12 -0.05,-0.22 -0.05,-0.37l0 -0.54c0,-0.35 -0.08,-0.58 -0.31,-0.65l0 -0.01c0.21,-0.09 0.31,-0.29 0.31,-0.6l0 -0.19c0,-0.47 -0.21,-0.7 -0.7,-0.7l-0.7 0 0 3.07 0 -0.01zm0.47 -1.76l0 -0.88 0.21 0c0.17,0 0.24,0.09 0.24,0.32l0 0.24c0,0.24 -0.11,0.33 -0.28,0.33l-0.17 0 -0 -0.01zm1.86 1.8c0.46,0 0.71,-0.28 0.71,-0.78 0,-0.38 -0.12,-0.63 -0.52,-0.98 -0.31,-0.28 -0.4,-0.44 -0.4,-0.66 0,-0.21 0.08,-0.29 0.24,-0.29 0.15,0 0.24,0.08 0.24,0.3l0 0.16 0.44 0 0 -0.13c0,-0.49 -0.22,-0.77 -0.68,-0.77 -0.45,0 -0.7,0.28 -0.7,0.76 0,0.35 0.13,0.6 0.52,0.96 0.31,0.28 0.4,0.44 0.4,0.69 0,0.23 -0.1,0.3 -0.24,0.3 -0.15,0 -0.24,-0.08 -0.24,-0.3l0 -0.21 -0.44 0 0 0.18c0,0.49 0.23,0.77 0.69,0.77l-0.01 0z"/>
    <path class="fil1" d="M29.85 2.17l0 -1.11 0.47 0c0.12,0 0.21,0.03 0.27,0.08 0.06,0.05 0.09,0.13 0.09,0.23 0,0.06 -0.01,0.11 -0.03,0.15 -0.02,0.04 -0.05,0.07 -0.08,0.09 -0.03,0.02 -0.07,0.03 -0.1,0.04 0.03,0 0.06,0.01 0.09,0.02 0.03,0.01 0.05,0.03 0.07,0.06 0.02,0.03 0.03,0.07 0.03,0.12 0,0.04 0,0.07 0,0.11 0,0.03 0,0.07 0,0.11 0,0.02 0,0.05 0.01,0.07 0,0.02 0.01,0.04 0.02,0.04l-0.25 0c-0.01,-0.01 -0.01,-0.03 -0.02,-0.05 -0,-0.02 -0.01,-0.04 -0.01,-0.07 0,-0.03 0,-0.06 0,-0.09 0,-0.03 0,-0.06 0,-0.09 0,-0.04 -0.01,-0.08 -0.04,-0.1 -0.02,-0.02 -0.06,-0.04 -0.11,-0.04l-0.24 0 0.07 -0.07 0 0.51 -0.24 0zm0.24 -0.53l-0.07 -0.09 0.24 0c0.03,0 0.06,-0.01 0.08,-0.02 0.02,-0.01 0.04,-0.03 0.06,-0.06 0.01,-0.03 0.02,-0.05 0.02,-0.09 0,-0.05 -0.01,-0.08 -0.04,-0.11 -0.03,-0.03 -0.07,-0.04 -0.13,-0.04l-0.25 0 0.07 -0.08 0 0.48zm1.67 0.12c0,0.05 -0.01,0.1 -0.03,0.15 -0.02,0.05 -0.05,0.1 -0.09,0.14 -0.04,0.04 -0.09,0.08 -0.15,0.1 -0.06,0.03 -0.13,0.04 -0.21,0.04 -0.11,0 -0.2,-0.02 -0.28,-0.07 -0.08,-0.05 -0.13,-0.12 -0.17,-0.2 -0.04,-0.09 -0.06,-0.19 -0.06,-0.3 0,-0.11 0.02,-0.21 0.06,-0.3 0.04,-0.09 0.1,-0.15 0.17,-0.2 0.08,-0.05 0.17,-0.07 0.28,-0.07 0.09,0 0.17,0.02 0.23,0.05 0.06,0.03 0.11,0.07 0.15,0.12 0.04,0.05 0.06,0.1 0.08,0.16 0.01,0.03 0.01,0.07 0.01,0.1l-0.25 0c0,-0.02 -0,-0.03 -0,-0.04 -0.01,-0.04 -0.02,-0.07 -0.04,-0.1 -0.02,-0.03 -0.04,-0.05 -0.08,-0.07 -0.03,-0.02 -0.07,-0.03 -0.11,-0.03 -0.05,0 -0.1,0.01 -0.13,0.04 -0.04,0.03 -0.07,0.07 -0.09,0.13 -0.02,0.06 -0.03,0.13 -0.03,0.22 0,0.09 0.01,0.16 0.03,0.22 0.02,0.06 0.05,0.1 0.09,0.13 0.04,0.03 0.08,0.04 0.13,0.04 0.04,0 0.07,-0.01 0.1,-0.02 0.03,-0.01 0.05,-0.03 0.07,-0.05 0.02,-0.02 0.03,-0.05 0.04,-0.08 0.01,-0.03 0.02,-0.06 0.02,-0.09l0.25 0zm0.75 0.41l-0.24 0 0 -1.11 0.38 0 0.39 1.02 -0.04 0.01 0 -1.03 0.24 0 0 1.11 -0.38 0 -0.39 -1.02 0.04 -0.01 0 1.03zm1.37 0.02c-0.07,0 -0.14,-0.01 -0.2,-0.04 -0.06,-0.03 -0.12,-0.06 -0.17,-0.11 -0.05,-0.05 -0.09,-0.11 -0.11,-0.18 -0.03,-0.07 -0.04,-0.15 -0.04,-0.25 0,-0.09 0.01,-0.17 0.04,-0.25 0.03,-0.07 0.06,-0.13 0.11,-0.18 0.05,-0.05 0.1,-0.08 0.17,-0.11 0.06,-0.02 0.13,-0.04 0.2,-0.04 0.07,0 0.14,0.01 0.2,0.04 0.06,0.02 0.12,0.06 0.17,0.11 0.05,0.05 0.09,0.11 0.11,0.18 0.03,0.07 0.04,0.15 0.04,0.25 0,0.09 -0.01,0.17 -0.04,0.25 -0.03,0.07 -0.07,0.13 -0.11,0.18 -0.05,0.05 -0.1,0.09 -0.17,0.11 -0.06,0.03 -0.13,0.04 -0.2,0.04zm0 -0.19c0.05,0 0.09,-0.01 0.14,-0.04 0.04,-0.03 0.08,-0.07 0.1,-0.12 0.03,-0.06 0.04,-0.13 0.04,-0.22 0,-0.09 -0.01,-0.17 -0.04,-0.22 -0.03,-0.06 -0.06,-0.1 -0.1,-0.12 -0.04,-0.02 -0.09,-0.04 -0.14,-0.04 -0.05,0 -0.09,0.01 -0.14,0.04 -0.04,0.03 -0.08,0.07 -0.1,0.12 -0.03,0.06 -0.04,0.13 -0.04,0.22 0,0.09 0.01,0.17 0.04,0.22 0.03,0.06 0.06,0.1 0.1,0.12 0.04,0.03 0.09,0.04 0.14,0.04zm0.7 0.19c-0.04,0 -0.07,-0.01 -0.09,-0.04 -0.03,-0.02 -0.04,-0.05 -0.04,-0.09 -0,-0.03 0.01,-0.06 0.04,-0.09 0.03,-0.02 0.06,-0.04 0.09,-0.04 0.04,0 0.07,0.01 0.09,0.04 0.03,0.02 0.04,0.05 0.04,0.09 0,0.03 -0.01,0.06 -0.04,0.09 -0.03,0.02 -0.06,0.04 -0.09,0.04zm0.42 0c-0.04,0 -0.07,-0.01 -0.09,-0.04 -0.03,-0.02 -0.04,-0.05 -0.04,-0.09 -0,-0.03 0.01,-0.06 0.04,-0.09 0.03,-0.02 0.06,-0.04 0.09,-0.04 0.04,0 0.07,0.01 0.09,0.04 0.03,0.02 0.04,0.05 0.04,0.09 0,0.03 -0.01,0.06 -0.04,0.09 -0.03,0.02 -0.06,0.04 -0.09,0.04zm0 -0.57c-0.04,0 -0.07,-0.01 -0.09,-0.04 -0.03,-0.02 -0.04,-0.05 -0.04,-0.09 -0,-0.03 0.01,-0.06 0.04,-0.09 0.03,-0.02 0.06,-0.04 0.09,-0.04 0.04,0 0.07,0.01 0.09,0.04 0.02,0.02 0.04,0.05 0.04,0.09 0,0.03 -0.01,0.06 -0.04,0.09 -0.03,0.02 -0.06,0.04 -0.09,0.04zm1.13 -0.57l0 1.11 -0.24 0 0 -0.89c-0.01,0.01 -0.02,0.01 -0.04,0.02 -0.02,0.01 -0.05,0.02 -0.08,0.02 -0.03,0.01 -0.06,0.01 -0.1,0.01l0 -0.18c0.03,-0 0.07,-0.01 0.1,-0.02 0.03,-0.01 0.06,-0.02 0.08,-0.03 0.02,-0.01 0.04,-0.02 0.05,-0.04l0.24 0zm0.59 1.13c-0.07,0 -0.13,-0.01 -0.17,-0.03 -0.05,-0.02 -0.08,-0.05 -0.11,-0.09 -0.03,-0.03 -0.04,-0.07 -0.05,-0.1 -0.01,-0.04 -0.02,-0.07 -0.02,-0.09 0,-0 0,-0 0,-0 0,-0 0,-0 0,-0l0.23 0c0,0 0,0 0,0 0,0 0,0 0,0 0,0.01 0,0.03 0.01,0.04 0,0.02 0.01,0.03 0.02,0.04 0.01,0.01 0.02,0.03 0.04,0.03 0.02,0.01 0.04,0.01 0.06,0.01 0.04,0 0.07,-0.02 0.09,-0.05 0.03,-0.03 0.04,-0.08 0.06,-0.14 0.01,-0.06 0.02,-0.15 0.02,-0.24l0.05 -0c-0,0.03 -0.01,0.06 -0.03,0.09 -0.02,0.03 -0.05,0.05 -0.09,0.07 -0.04,0.02 -0.09,0.03 -0.15,0.03 -0.07,0 -0.13,-0.02 -0.18,-0.05 -0.05,-0.03 -0.08,-0.07 -0.11,-0.12 -0.02,-0.05 -0.04,-0.11 -0.04,-0.17 0,-0.07 0.01,-0.14 0.05,-0.2 0.03,-0.06 0.07,-0.1 0.13,-0.14 0.06,-0.03 0.13,-0.05 0.22,-0.05 0.09,0 0.17,0.02 0.23,0.06 0.06,0.04 0.1,0.1 0.13,0.18 0.03,0.08 0.04,0.17 0.04,0.28 0,0.1 -0.01,0.19 -0.03,0.26 -0.02,0.08 -0.04,0.14 -0.08,0.19 -0.03,0.05 -0.08,0.09 -0.13,0.12 -0.05,0.03 -0.11,0.04 -0.18,0.04zm0 -0.59c0.03,0 0.06,-0.01 0.08,-0.02 0.02,-0.01 0.04,-0.03 0.06,-0.06 0.01,-0.03 0.02,-0.06 0.02,-0.1 0,-0.04 -0.01,-0.07 -0.02,-0.1 -0.01,-0.03 -0.03,-0.05 -0.05,-0.07 -0.02,-0.02 -0.05,-0.02 -0.08,-0.02 -0.03,0 -0.06,0.01 -0.08,0.02 -0.02,0.01 -0.04,0.03 -0.05,0.06 -0.01,0.03 -0.02,0.06 -0.02,0.1 0,0.04 0.01,0.07 0.02,0.1 0.01,0.03 0.03,0.05 0.05,0.06 0.02,0.01 0.05,0.02 0.08,0.02zm0.97 0.57l0 -0.21 -0.49 -0 0 -0.16 0.42 -0.74 0.32 0 0 0.72 0.14 0 0 0.18 -0.14 -0 0 0.21 -0.24 0zm-0.31 -0.29l-0.07 -0.1 0.37 0 0 -0.57 0.05 0.01 -0.36 0.66zm1.16 0.31c-0.07,0 -0.14,-0.02 -0.19,-0.05 -0.05,-0.03 -0.09,-0.07 -0.13,-0.13 -0.03,-0.05 -0.06,-0.11 -0.07,-0.18 -0.01,-0.07 -0.02,-0.14 -0.02,-0.22 0,-0.08 0.01,-0.15 0.02,-0.22 0.01,-0.07 0.04,-0.13 0.07,-0.18 0.03,-0.05 0.07,-0.1 0.13,-0.13 0.05,-0.03 0.11,-0.05 0.19,-0.05 0.07,0 0.14,0.02 0.19,0.05 0.05,0.03 0.09,0.07 0.13,0.13 0.03,0.05 0.06,0.12 0.07,0.18 0.01,0.07 0.02,0.14 0.02,0.22 0,0.08 -0.01,0.15 -0.02,0.22 -0.01,0.07 -0.04,0.13 -0.07,0.18 -0.03,0.05 -0.07,0.09 -0.13,0.13 -0.05,0.03 -0.11,0.05 -0.19,0.05zm0 -0.18c0.04,0 0.06,-0.01 0.09,-0.04 0.02,-0.03 0.04,-0.07 0.05,-0.12 0.01,-0.06 0.02,-0.13 0.02,-0.23 0,-0.09 -0.01,-0.17 -0.02,-0.23 -0.01,-0.06 -0.03,-0.1 -0.05,-0.12 -0.02,-0.03 -0.05,-0.04 -0.09,-0.04 -0.03,0 -0.06,0.01 -0.09,0.04 -0.02,0.03 -0.04,0.07 -0.05,0.12 -0.01,0.06 -0.02,0.13 -0.02,0.23 0,0.09 0.01,0.17 0.02,0.23 0.01,0.06 0.03,0.1 0.05,0.12 0.02,0.03 0.05,0.04 0.09,0.04zm0.9 0.18c-0.07,0 -0.13,-0.01 -0.17,-0.03 -0.05,-0.02 -0.08,-0.05 -0.11,-0.09 -0.03,-0.03 -0.04,-0.07 -0.05,-0.1 -0.01,-0.04 -0.02,-0.07 -0.02,-0.09 0,-0 0,-0 0,-0 0,-0 0,-0 0,-0l0.23 0c0,0 0,0 0,0 0,0 0,0 0,0 0,0.01 0,0.03 0.01,0.04 0,0.02 0.01,0.03 0.02,0.04 0.01,0.01 0.02,0.03 0.04,0.03 0.02,0.01 0.04,0.01 0.06,0.01 0.04,0 0.07,-0.02 0.09,-0.05 0.03,-0.03 0.04,-0.08 0.06,-0.14 0.01,-0.06 0.02,-0.15 0.02,-0.24l0.05 -0c-0,0.03 -0.01,0.06 -0.03,0.09 -0.02,0.03 -0.05,0.05 -0.09,0.07 -0.04,0.02 -0.09,0.03 -0.15,0.03 -0.07,0 -0.13,-0.02 -0.18,-0.05 -0.05,-0.03 -0.08,-0.07 -0.11,-0.12 -0.02,-0.05 -0.04,-0.11 -0.04,-0.17 0,-0.07 0.01,-0.14 0.04,-0.2 0.03,-0.06 0.07,-0.1 0.13,-0.14 0.06,-0.03 0.13,-0.05 0.22,-0.05 0.09,0 0.17,0.02 0.23,0.06 0.06,0.04 0.1,0.1 0.13,0.18 0.03,0.08 0.04,0.17 0.04,0.28 0,0.1 -0.01,0.19 -0.03,0.26 -0.02,0.08 -0.04,0.14 -0.08,0.19 -0.04,0.05 -0.08,0.09 -0.13,0.12 -0.05,0.03 -0.11,0.04 -0.18,0.04zm0 -0.59c0.03,0 0.06,-0.01 0.08,-0.02 0.02,-0.01 0.04,-0.03 0.06,-0.06 0.01,-0.03 0.02,-0.06 0.02,-0.1 0,-0.04 -0.01,-0.07 -0.02,-0.1 -0.01,-0.03 -0.03,-0.05 -0.05,-0.07 -0.02,-0.02 -0.05,-0.02 -0.08,-0.02 -0.03,0 -0.06,0.01 -0.08,0.02 -0.02,0.01 -0.04,0.03 -0.05,0.06 -0.01,0.03 -0.02,0.06 -0.02,0.1 0,0.04 0.01,0.07 0.02,0.1 0.01,0.03 0.03,0.05 0.05,0.06 0.02,0.01 0.05,0.02 0.08,0.02zm1.11 -0.01c0.05,0 0.08,0.01 0.12,0.04 0.03,0.02 0.06,0.05 0.08,0.09 0.02,0.04 0.03,0.08 0.03,0.13 0,0.06 -0.01,0.12 -0.04,0.17 -0.03,0.05 -0.07,0.09 -0.13,0.13 -0.06,0.03 -0.13,0.05 -0.23,0.05 -0.08,0 -0.14,-0.01 -0.2,-0.03 -0.05,-0.02 -0.09,-0.05 -0.12,-0.08 -0.03,-0.03 -0.05,-0.07 -0.07,-0.12 -0.01,-0.04 -0.02,-0.09 -0.02,-0.14 0,-0 0,-0 0,-0 0,-0 0,-0 0,-0l0.24 0c0,0 0,0 0,0 0,0 0,0 0,0 0,0.05 0.01,0.09 0.02,0.12 0.01,0.03 0.03,0.05 0.06,0.06 0.02,0.01 0.05,0.02 0.09,0.02 0.04,0 0.08,-0.01 0.11,-0.04 0.03,-0.03 0.04,-0.07 0.04,-0.13 0,-0.03 -0,-0.05 -0.01,-0.07 -0.01,-0.02 -0.02,-0.04 -0.03,-0.05 -0.01,-0.01 -0.03,-0.02 -0.05,-0.03 -0.02,-0.01 -0.05,-0.01 -0.08,-0.01l-0.04 0 0 -0.16 0.04 0c0.03,0 0.06,-0 0.08,-0.01 0.02,-0.01 0.04,-0.02 0.05,-0.03 0.01,-0.01 0.02,-0.03 0.03,-0.05 0.01,-0.02 0.01,-0.04 0.01,-0.06 0,-0.05 -0.01,-0.08 -0.04,-0.1 -0.03,-0.02 -0.06,-0.03 -0.11,-0.03 -0.05,0 -0.09,0.01 -0.12,0.04 -0.03,0.03 -0.05,0.07 -0.05,0.14l-0.24 0c0,-0.05 0.01,-0.09 0.02,-0.14 0.02,-0.04 0.04,-0.08 0.07,-0.12 0.03,-0.03 0.08,-0.06 0.13,-0.08 0.05,-0.02 0.11,-0.03 0.19,-0.03 0.09,0 0.17,0.01 0.23,0.04 0.06,0.03 0.1,0.07 0.13,0.11 0.03,0.05 0.04,0.1 0.04,0.15 0,0.04 -0.01,0.08 -0.03,0.12 -0.02,0.04 -0.04,0.06 -0.08,0.09 -0.03,0.02 -0.07,0.03 -0.12,0.04zm0.83 -0.53l0 1.11 -0.24 0 0 -0.89c-0.01,0.01 -0.02,0.01 -0.04,0.02 -0.02,0.01 -0.05,0.02 -0.08,0.02 -0.03,0.01 -0.06,0.01 -0.1,0.01l0 -0.18c0.03,-0 0.07,-0.01 0.1,-0.02 0.03,-0.01 0.06,-0.02 0.08,-0.03 0.02,-0.01 0.04,-0.02 0.05,-0.04l0.24 0z"/>
    <g>
     <path id="_1" class="fil2 str0" d="M0.51 4.18l1.96 -1.91 0.28 0.28 -1.68 1.64 1.36 1.33 0.45 -0.45 0.3 0.32 -0.43 0.45 -0.27 0.28 -1.97 -1.93 0 -0zm5.36 1.14l0.32 -0.31 0.53 0.53 1.35 -1.32 -1.62 -1.59 0.27 -0.28 1.91 1.87 -1.94 1.9 -0.82 -0.8 0 0z"/>
     <path id="_2" class="fil3" d="M0.51 4.18l1.96 -1.91 0.28 0.28 -1.68 1.64 1.36 1.33 0.45 -0.45 0.3 0.32 -0.43 0.45 -0.27 0.28 -1.97 -1.93 0 -0zm5.36 1.14l0.32 -0.31 0.53 0.53 1.35 -1.32 -1.62 -1.59 0.27 -0.28 1.91 1.87 -1.94 1.9 -0.82 -0.8 0 0z"/>
     <path class="fil4" d="M2.99 1.74l1.55 -1.51 1.58 1.56 -0.45 0.46 -0.26 -0.27 0.18 -0.19 -1.05 -1.02 -1.03 1 0.19 0.18 -0.26 0.25 -0.46 -0.47 0 0zm-1.33 2.44l2.88 -2.82 2.91 2.85 -2.88 2.82 -2.91 -2.85 0 0zm0.94 0l1.97 1.92 1.94 -1.9 -1.97 -1.92 -1.94 1.9zm1.11 2.25l-0.17 0.18 1.04 1.01 1.05 -1.02 -0.19 -0.19 0.25 -0.24 0.46 0.46 -1.57 1.53 -1.56 -1.52 0.45 -0.46 0.24 0.24 -0 0z"/>
     <path class="fil3" d="M3.93 3.63c0.09,0 0.16,0.02 0.2,0.07 0.04,0.05 0.06,0.11 0.06,0.21l0 0.04c0,0.06 -0.01,0.11 -0.03,0.15 -0.02,0.04 -0.05,0.07 -0.09,0.09 0.09,0.04 0.13,0.12 0.13,0.26l0 0.1c0,0.09 -0.02,0.16 -0.07,0.21 -0.05,0.05 -0.11,0.07 -0.2,0.07l-0.28 0 0 -1.2 0.27 0 0 -0zm1.5 0l0 1.2 -0.18 0 0 -1.2 0.18 0zm-1 1.2l0 -1.2 0.17 0 0.27 0.75 -0.01 -0.75 0.16 0 0.01 1.2 -0.15 0 -0.28 -0.74 -0 0.74 -0.17 0 -0 0zm-0.62 -0.7l0 -0.38c0.15,-0.01 0.26,-0.01 0.26,0.19 -0,0.19 -0.09,0.2 -0.26,0.19zm0 0.55l0 -0.38c0.15,-0.01 0.26,-0.01 0.26,0.19 -0,0.19 -0.09,0.2 -0.26,0.19z"/>
    </g>
   </g>
  </g>
  <polygon class="fil2" points="-0,0 41.89,0 41.89,8.4 -0,8.4 "/>
 </g>
</svg>
