<svg xmlns="http://www.w3.org/2000/svg" xml:space="preserve" width="0.503335in" height="0.103335in" version="1.1" style="shape-rendering:geometricPrecision; text-rendering:geometricPrecision; image-rendering:optimizeQuality; fill-rule:evenodd; clip-rule:evenodd"
viewBox="0 0 8.06 1.66"
 xmlns:xlink="http://www.w3.org/1999/xlink"
 xmlns:xodm="http://www.corel.com/coreldraw/odm/2003">
 <defs>
  <style type="text/css">
   <![CDATA[
    .str0 {stroke:#013B78;stroke-width:0.05;stroke-miterlimit:2.61313}
    .str1 {stroke:#013B78;stroke-width:0.05;stroke-miterlimit:2.61313}
    .fil0 {fill:none}
    .fil1 {fill:#013B78}
    .fil2 {fill:#FDB811}
    .fil3 {fill:#013B78;fill-rule:nonzero}
    .fil4 {fill:#013B78;fill-rule:nonzero}
   ]]>
  </style>
   <clipPath id="id0">
    <path d="M-0 0l8.06 0 0 1.66 -8.06 0 0 -1.66z"/>
   </clipPath>
 </defs>
 <g id="Layer_x0020_1">
  <metadata id="CorelCorpID_0Corel-Layer"/>
  <g>
  </g>
  <g style="clip-path:url(#id0)">
   <g id="_1780686047872">
    <g>
     <path id="_1" class="fil0 str0" d="M-2.84 0.75l0.38 -0.38 0.05 0.05 -0.32 0.32 0.26 0.26 0.09 -0.09 0.06 0.06 -0.08 0.09 -0.05 0.05 -0.38 -0.38 0 0 0 0zm1.03 0.22l0.06 -0.06 0.1 0.1 0.26 -0.26 -0.31 -0.31 0.05 -0.05 0.37 0.37 -0.37 0.37 -0.16 -0.16 0 0 0 0z"/>
     <path id="_2" class="fil1" d="M-2.84 0.75l0.38 -0.38 0.05 0.05 -0.32 0.32 0.26 0.26 0.09 -0.09 0.06 0.06 -0.08 0.09 -0.05 0.05 -0.38 -0.38 0 0 0 0zm1.03 0.22l0.06 -0.06 0.1 0.1 0.26 -0.26 -0.31 -0.31 0.05 -0.05 0.37 0.37 -0.37 0.37 -0.16 -0.16 0 0 0 0z"/>
     <path class="fil2" d="M-2.36 0.27l0.3 -0.3 0.3 0.31 -0.09 0.09 -0.05 -0.05 0.04 -0.04 -0.2 -0.2 -0.2 0.2 0.04 0.04 -0.05 0.05 -0.09 -0.09 0 0 0 -0zm-0.25 0.48l0.56 -0.55 0.56 0.56 -0.56 0.55 -0.56 -0.56 0 0zm0.18 0l0.38 0.38 0.37 -0.37 -0.38 -0.38 -0.37 0.37zm0.21 0.44l-0.03 0.03 0.2 0.2 0.2 -0.2 -0.04 -0.04 0.05 -0.05 0.09 0.09 -0.3 0.3 -0.3 -0.3 0.09 -0.09 0.05 0.05 0 0 0 -0z"/>
     <path class="fil1" d="M-2.18 0.64c0.02,0 0.03,0 0.04,0.01 0.01,0.01 0.01,0.02 0.01,0.04l0 0.01c0,0.01 -0,0.02 -0.01,0.03 -0,0.01 -0.01,0.01 -0.02,0.02 0.02,0.01 0.03,0.02 0.03,0.05l0 0.02c0,0.02 -0,0.03 -0.01,0.04 -0.01,0.01 -0.02,0.01 -0.04,0.01l-0.05 0 0 -0.24 0.05 0 0 0 -0 0zm0.29 0l0 0.24 -0.03 0 0 -0.24 0.03 0zm-0.19 0.24l0 -0.24 0.03 0 0.05 0.15 -0 -0.15 0.03 0 0 0.24 -0.03 0 -0.05 -0.15 0 0.15 -0.03 0 0 0 -0 0zm-0.12 -0.14l0 -0.08c0.03,-0 0.05,-0 0.05,0.04 0,0.04 -0.02,0.04 -0.05,0.04l0 0zm0 0.11l0 -0.08c0.03,-0 0.05,-0 0.05,0.04 0,0.04 -0.02,0.04 -0.05,0.04l0 0z"/>
    </g>
    <path class="fil3" d="M1.89 1.15l0.14 0c0.09,0 0.14,-0.05 0.14,-0.14l0 -0.05c0,-0.06 -0.02,-0.11 -0.07,-0.13l0 -0c0.04,-0.02 0.06,-0.06 0.06,-0.12l0 -0.02c0,-0.09 -0.04,-0.14 -0.13,-0.14l-0.14 0 0 0.6 0 -0zm0.09 -0.36l0 -0.16 0.04 0c0.03,0 0.05,0.02 0.05,0.06l0 0.03c0,0.05 -0.02,0.06 -0.05,0.06l-0.04 0 0 -0zm0 0.27l0 -0.19 0.04 0c0.04,0 0.06,0.02 0.06,0.07l0 0.05c0,0.04 -0.02,0.06 -0.05,0.06l-0.05 0 0 0zm0.24 0.09l0.08 0 0 -0.44 0 0 0.11 0.44 0.09 0 0 -0.6 -0.08 0 0 0.36 -0 0 -0.09 -0.36 -0.11 0 0 0.6zm0.35 0l0.09 0 0 -0.6 -0.09 0 0 0.6zm0.29 0l0.09 0 0 -0.6 -0.09 0 0 0.6zm0.16 0l0.08 0 0 -0.44 0 0 0.11 0.44 0.09 0 0 -0.6 -0.08 0 0 0.36 -0 0 -0.09 -0.36 -0.11 0 0 0.6zm0.47 0.01c0.09,0 0.14,-0.06 0.14,-0.15 0,-0.08 -0.02,-0.12 -0.1,-0.19 -0.06,-0.05 -0.08,-0.09 -0.08,-0.13 0,-0.04 0.02,-0.06 0.05,-0.06 0.03,0 0.05,0.02 0.05,0.06l0 0.03 0.09 0 0 -0.03c0,-0.1 -0.04,-0.15 -0.13,-0.15 -0.09,0 -0.13,0.06 -0.13,0.15 0,0.07 0.02,0.12 0.1,0.19 0.06,0.05 0.08,0.09 0.08,0.14 0,0.04 -0.02,0.06 -0.05,0.06 -0.03,0 -0.05,-0.02 -0.05,-0.06l0 -0.04 -0.09 0 0 0.03c0,0.1 0.04,0.15 0.13,0.15l-0 0zm0.32 0c0.09,0 0.13,-0.06 0.13,-0.15l0 -0.46 -0.09 0 0 0.47c0,0.04 -0.02,0.06 -0.05,0.06 -0.03,0 -0.05,-0.02 -0.05,-0.06l0 -0.47 -0.09 0 0 0.46c0,0.1 0.05,0.15 0.13,0.15zm0.2 -0.01l0.09 0 0 -0.26 0.03 0c0.04,0 0.06,0.02 0.06,0.07l0 0.11c0,0.05 0,0.06 0.01,0.07l0.09 0c-0.01,-0.02 -0.01,-0.04 -0.01,-0.07l0 -0.11c0,-0.07 -0.02,-0.11 -0.06,-0.13l0 -0c0.04,-0.02 0.06,-0.06 0.06,-0.12l0 -0.04c0,-0.09 -0.04,-0.14 -0.13,-0.14l-0.13 0 0 0.6 0 -0zm0.09 -0.35l0 -0.17 0.04 0c0.03,0 0.05,0.02 0.05,0.06l0 0.05c0,0.05 -0.02,0.06 -0.05,0.06l-0.03 0 -0 -0zm0.22 0.35l0.08 0 0.02 -0.12 0.1 0 0 -0 0.02 0.12 0.09 0 -0.09 -0.6 -0.12 0 -0.09 0.6 0 0zm0.11 -0.2l0.04 -0.3 0 0 0.04 0.3 -0.08 0 0 0zm0.24 0.2l0.08 0 0 -0.44 0 0 0.11 0.44 0.09 0 0 -0.6 -0.08 0 0 0.36 -0 0 -0.09 -0.36 -0.11 0 0 0.6zm0.48 0.01c0.09,0 0.13,-0.06 0.13,-0.15l0 -0.09 -0.09 0 0 0.09c0,0.04 -0.02,0.06 -0.05,0.06 -0.03,0 -0.05,-0.02 -0.05,-0.06l0 -0.34c0,-0.04 0.02,-0.06 0.05,-0.06 0.03,0 0.05,0.02 0.05,0.06l0 0.07 0.09 0 0 -0.06c0,-0.09 -0.05,-0.15 -0.13,-0.15 -0.09,0 -0.13,0.06 -0.13,0.15l0 0.33c0,0.09 0.05,0.15 0.13,0.15l0 -0zm0.19 -0.01l0.25 0 0 -0.09 -0.16 0 0 -0.19 0.12 0 0 -0.09 -0.12 0 0 -0.16 0.16 0 0 -0.09 -0.25 0 0 0.6 0 -0zm0.43 0l0.14 0c0.09,0 0.14,-0.05 0.14,-0.14l0 -0.05c0,-0.06 -0.02,-0.11 -0.07,-0.13l0 -0c0.04,-0.02 0.06,-0.06 0.06,-0.12l0 -0.02c0,-0.09 -0.04,-0.14 -0.13,-0.14l-0.14 0 0 0.6 0 -0zm0.09 -0.36l0 -0.16 0.04 0c0.03,0 0.05,0.02 0.05,0.06l0 0.03c0,0.05 -0.02,0.06 -0.05,0.06l-0.04 0 0 -0zm0 0.27l0 -0.19 0.04 0c0.04,0 0.06,0.02 0.06,0.07l0 0.05c0,0.04 -0.02,0.06 -0.05,0.06l-0.05 0 -0 0zm0.24 0.09l0.09 0 0 -0.26 0.03 0c0.04,0 0.06,0.02 0.06,0.07l0 0.11c0,0.05 0,0.06 0.01,0.07l0.09 0c-0.01,-0.02 -0.01,-0.04 -0.01,-0.07l0 -0.11c0,-0.07 -0.02,-0.11 -0.06,-0.13l0 -0c0.04,-0.02 0.06,-0.06 0.06,-0.12l0 -0.04c0,-0.09 -0.04,-0.14 -0.13,-0.14l-0.13 0 0 0.6 0 -0zm0.09 -0.35l0 -0.17 0.04 0c0.03,0 0.05,0.02 0.05,0.06l0 0.05c0,0.05 -0.02,0.06 -0.05,0.06l-0.03 0 -0 -0zm0.37 0.35c0.09,0 0.14,-0.06 0.14,-0.15l0 -0.32c0,-0.1 -0.05,-0.15 -0.14,-0.15 -0.09,0 -0.14,0.06 -0.14,0.15l0 0.32c0,0.1 0.05,0.15 0.14,0.15zm0 -0.09c-0.03,0 -0.05,-0.02 -0.05,-0.06l0 -0.33c0,-0.04 0.02,-0.06 0.05,-0.06 0.03,0 0.05,0.02 0.05,0.06l0 0.33c0,0.04 -0.02,0.06 -0.05,0.06zm0.2 0.08l0.09 0 0 -0.19 0.04 -0.08 0.08 0.27 0.09 0 -0.11 -0.38 0.11 -0.22 -0.09 0 -0.11 0.25 0 -0.25 -0.09 0 0 0.6 0 -0zm0.34 0l0.25 0 0 -0.09 -0.16 0 0 -0.19 0.12 0 0 -0.09 -0.12 0 0 -0.16 0.16 0 0 -0.09 -0.25 0 0 0.6 0 -0zm0.3 0l0.09 0 0 -0.26 0.03 0c0.04,0 0.06,0.02 0.06,0.07l0 0.11c0,0.05 0,0.06 0.01,0.07l0.09 0c-0.01,-0.02 -0.01,-0.04 -0.01,-0.07l0 -0.11c0,-0.07 -0.02,-0.11 -0.06,-0.13l0 -0c0.04,-0.02 0.06,-0.06 0.06,-0.12l0 -0.04c0,-0.09 -0.04,-0.14 -0.13,-0.14l-0.13 0 0 0.6 0 -0zm0.09 -0.35l0 -0.17 0.04 0c0.03,0 0.05,0.02 0.05,0.06l0 0.05c0,0.05 -0.02,0.06 -0.05,0.06l-0.03 0 0 -0zm0.36 0.35c0.09,0 0.14,-0.06 0.14,-0.15 0,-0.08 -0.02,-0.12 -0.1,-0.19 -0.06,-0.05 -0.08,-0.09 -0.08,-0.13 0,-0.04 0.02,-0.06 0.05,-0.06 0.03,0 0.05,0.02 0.05,0.06l0 0.03 0.09 0 0 -0.03c0,-0.1 -0.04,-0.15 -0.13,-0.15 -0.09,0 -0.13,0.06 -0.13,0.15 0,0.07 0.02,0.12 0.1,0.19 0.06,0.05 0.08,0.09 0.08,0.14 0,0.04 -0.02,0.06 -0.05,0.06 -0.03,0 -0.05,-0.02 -0.05,-0.06l0 -0.04 -0.09 0 0 0.03c0,0.1 0.04,0.15 0.13,0.15l-0 0z"/>
    <path class="fil4" d="M5.74 0.43l0 -0.22 0.09 0c0.02,0 0.04,0.01 0.05,0.02 0.01,0.01 0.02,0.03 0.02,0.04 0,0.01 -0,0.02 -0.01,0.03 -0,0.01 -0.01,0.01 -0.02,0.02 -0.01,0 -0.01,0.01 -0.02,0.01 0.01,0 0.01,0 0.02,0 0.01,0 0.01,0.01 0.01,0.01 0,0.01 0.01,0.01 0.01,0.02 0,0.01 0,0.01 0,0.02 0,0.01 0,0.01 0,0.02 0,0 0,0.01 0,0.01 0,0 0,0.01 0,0.01l-0.05 0c-0,-0 -0,-0 -0,-0.01 -0,-0 -0,-0.01 -0,-0.01 0,-0.01 0,-0.01 0,-0.02 0,-0.01 0,-0.01 0,-0.02 0,-0.01 -0,-0.02 -0.01,-0.02 -0,-0 -0.01,-0.01 -0.02,-0.01l-0.05 0 0.01 -0.01 0 0.1 -0.05 0zm0.05 -0.1l-0.01 -0.02 0.05 0c0.01,0 0.01,-0 0.02,-0 0,-0 0.01,-0.01 0.01,-0.01 0,-0 0,-0.01 0,-0.02 0,-0.01 -0,-0.02 -0.01,-0.02 -0.01,-0.01 -0.01,-0.01 -0.02,-0.01l-0.05 0 0.01 -0.01 0 0.09zm0.32 0.02c0,0.01 -0,0.02 -0.01,0.03 -0,0.01 -0.01,0.02 -0.02,0.03 -0.01,0.01 -0.02,0.01 -0.03,0.02 -0.01,0.01 -0.02,0.01 -0.04,0.01 -0.02,0 -0.04,-0 -0.05,-0.01 -0.01,-0.01 -0.03,-0.02 -0.03,-0.04 -0.01,-0.02 -0.01,-0.04 -0.01,-0.06 0,-0.02 0,-0.04 0.01,-0.06 0.01,-0.02 0.02,-0.03 0.03,-0.04 0.01,-0.01 0.03,-0.01 0.05,-0.01 0.02,0 0.03,0 0.04,0.01 0.01,0.01 0.02,0.01 0.03,0.02 0.01,0.01 0.01,0.02 0.01,0.03 0,0.01 0,0.01 0,0.02l-0.05 0c0,-0 -0,-0.01 -0,-0.01 -0,-0.01 -0,-0.01 -0.01,-0.02 -0,-0.01 -0.01,-0.01 -0.01,-0.01 -0.01,-0 -0.01,-0 -0.02,-0 -0.01,0 -0.02,0 -0.03,0.01 -0.01,0.01 -0.01,0.01 -0.02,0.02 -0,0.01 -0.01,0.03 -0.01,0.04 0,0.02 0,0.03 0.01,0.04 0,0.01 0.01,0.02 0.02,0.03 0.01,0.01 0.02,0.01 0.03,0.01 0.01,0 0.01,-0 0.02,-0 0.01,-0 0.01,-0.01 0.01,-0.01 0,-0 0.01,-0.01 0.01,-0.01 0,-0.01 0,-0.01 0,-0.02l0.05 0zm0.14 0.08l-0.05 0 0 -0.22 0.07 0 0.08 0.2 -0.01 0 0 -0.2 0.05 0 0 0.22 -0.07 0 -0.08 -0.2 0.01 -0 0 0.2zm0.26 0c-0.01,0 -0.03,-0 -0.04,-0.01 -0.01,-0 -0.02,-0.01 -0.03,-0.02 -0.01,-0.01 -0.02,-0.02 -0.02,-0.04 -0.01,-0.01 -0.01,-0.03 -0.01,-0.05 0,-0.02 0,-0.03 0.01,-0.05 0.01,-0.01 0.01,-0.03 0.02,-0.04 0.01,-0.01 0.02,-0.02 0.03,-0.02 0.01,-0 0.03,-0.01 0.04,-0.01 0.01,0 0.03,0 0.04,0.01 0.01,0 0.02,0.01 0.03,0.02 0.01,0.01 0.02,0.02 0.02,0.04 0.01,0.01 0.01,0.03 0.01,0.05 0,0.02 -0,0.03 -0.01,0.05 -0.01,0.01 -0.01,0.03 -0.02,0.04 -0.01,0.01 -0.02,0.02 -0.03,0.02 -0.01,0 -0.03,0.01 -0.04,0.01zm0 -0.04c0.01,0 0.02,-0 0.03,-0.01 0.01,-0.01 0.01,-0.01 0.02,-0.02 0,-0.01 0.01,-0.03 0.01,-0.04 0,-0.02 -0,-0.03 -0.01,-0.04 -0,-0.01 -0.01,-0.02 -0.02,-0.02 -0.01,-0 -0.02,-0.01 -0.03,-0.01 -0.01,0 -0.02,0 -0.03,0.01 -0.01,0 -0.01,0.01 -0.02,0.02 -0,0.01 -0.01,0.03 -0.01,0.04 0,0.02 0,0.03 0.01,0.04 0,0.01 0.01,0.02 0.02,0.02 0.01,0.01 0.02,0.01 0.03,0.01zm0.13 0.04c-0.01,0 -0.01,-0 -0.02,-0.01 -0,-0 -0.01,-0.01 -0.01,-0.02 -0,-0.01 0,-0.01 0.01,-0.02 0,-0 0.01,-0.01 0.02,-0.01 0.01,0 0.01,0 0.02,0.01 0,0 0.01,0.01 0.01,0.02 0,0.01 -0,0.01 -0.01,0.02 -0,0 -0.01,0.01 -0.02,0.01zm0.08 0c-0.01,0 -0.01,-0 -0.02,-0.01 -0,-0 -0.01,-0.01 -0.01,-0.02 -0,-0.01 0,-0.01 0.01,-0.02 0,-0 0.01,-0.01 0.02,-0.01 0.01,0 0.01,0 0.02,0.01 0,0 0.01,0.01 0.01,0.02 0,0.01 -0,0.01 -0.01,0.02 -0,0 -0.01,0.01 -0.02,0.01zm0 -0.11c-0.01,0 -0.01,-0 -0.02,-0.01 -0,-0 -0.01,-0.01 -0.01,-0.02 -0,-0.01 0,-0.01 0.01,-0.02 0,-0 0.01,-0.01 0.02,-0.01 0.01,0 0.01,0 0.02,0.01 0,0 0.01,0.01 0.01,0.02 0,0.01 -0,0.01 -0.01,0.02 -0,0 -0.01,0.01 -0.02,0.01zm0.22 -0.11l0 0.22 -0.05 0 0 -0.18c-0,0 -0,0 -0.01,0 -0,0 -0.01,0 -0.02,0 -0.01,0 -0.01,0 -0.02,0l0 -0.04c0.01,-0 0.01,-0 0.02,-0 0.01,-0 0.01,-0 0.02,-0.01 0,-0 0.01,-0 0.01,-0.01l0.05 0zm0.11 0.22c-0.01,0 -0.02,-0 -0.03,-0.01 -0.01,-0 -0.02,-0.01 -0.02,-0.02 -0,-0.01 -0.01,-0.01 -0.01,-0.02 -0,-0.01 -0,-0.01 -0,-0.02 0,-0 0,-0 0,-0 0,-0 0,-0 0,-0l0.04 0c0,0 0,0 0,0 0,0 0,0 0,0 0,0 0,0.01 0,0.01 0,0 0,0.01 0,0.01 0,0 0,0 0.01,0.01 0,0 0.01,0 0.01,0 0.01,0 0.01,-0 0.02,-0.01 0,-0.01 0.01,-0.02 0.01,-0.03 0,-0.01 0,-0.03 0,-0.05l0.01 -0c-0,0.01 -0,0.01 -0.01,0.02 -0,0.01 -0.01,0.01 -0.02,0.01 -0.01,0 -0.02,0.01 -0.03,0.01 -0.01,0 -0.03,-0 -0.04,-0.01 -0.01,-0.01 -0.02,-0.01 -0.02,-0.02 -0,-0.01 -0.01,-0.02 -0.01,-0.03 0,-0.01 0,-0.03 0.01,-0.04 0.01,-0.01 0.01,-0.02 0.03,-0.03 0.01,-0.01 0.03,-0.01 0.04,-0.01 0.02,0 0.03,0 0.04,0.01 0.01,0.01 0.02,0.02 0.02,0.04 0.01,0.02 0.01,0.03 0.01,0.06 0,0.02 -0,0.04 -0.01,0.05 -0,0.02 -0.01,0.03 -0.02,0.04 -0.01,0.01 -0.02,0.02 -0.02,0.02 -0.01,0.01 -0.02,0.01 -0.03,0.01zm0 -0.12c0.01,0 0.01,-0 0.02,-0 0,-0 0.01,-0.01 0.01,-0.01 0,-0.01 0,-0.01 0,-0.02 0,-0.01 -0,-0.01 -0,-0.02 -0,-0.01 -0.01,-0.01 -0.01,-0.01 -0,-0 -0.01,-0 -0.02,-0 -0.01,0 -0.01,0 -0.02,0 -0,0 -0.01,0.01 -0.01,0.01 -0,0.01 -0,0.01 -0,0.02 0,0.01 0,0.01 0,0.02 0,0.01 0.01,0.01 0.01,0.01 0,0 0.01,0 0.01,0zm0.19 0.11l0 -0.04 -0.09 -0 0 -0.03 0.08 -0.15 0.06 0 0 0.14 0.03 0 0 0.03 -0.03 -0 0 0.04 -0.05 0zm-0.06 -0.06l-0.01 -0.02 0.07 0 0 -0.11 0.01 0 -0.07 0.13zm0.22 0.06c-0.01,0 -0.03,-0 -0.04,-0.01 -0.01,-0.01 -0.02,-0.01 -0.02,-0.02 -0.01,-0.01 -0.01,-0.02 -0.01,-0.04 -0,-0.01 -0,-0.03 -0,-0.04 0,-0.01 0,-0.03 0,-0.04 0,-0.01 0.01,-0.03 0.01,-0.04 0.01,-0.01 0.01,-0.02 0.02,-0.02 0.01,-0.01 0.02,-0.01 0.04,-0.01 0.01,0 0.03,0 0.04,0.01 0.01,0.01 0.02,0.01 0.02,0.02 0.01,0.01 0.01,0.02 0.01,0.04 0,0.01 0,0.03 0,0.04 0,0.01 -0,0.03 -0,0.04 -0,0.01 -0.01,0.03 -0.01,0.04 -0.01,0.01 -0.01,0.02 -0.02,0.02 -0.01,0.01 -0.02,0.01 -0.04,0.01zm0 -0.04c0.01,0 0.01,-0 0.02,-0.01 0,-0.01 0.01,-0.01 0.01,-0.02 0,-0.01 0,-0.03 0,-0.04 0,-0.02 -0,-0.03 -0,-0.04 -0,-0.01 -0.01,-0.02 -0.01,-0.02 -0,-0.01 -0.01,-0.01 -0.02,-0.01 -0.01,0 -0.01,0 -0.02,0.01 -0,0.01 -0.01,0.01 -0.01,0.02 -0,0.01 -0,0.03 -0,0.04 0,0.02 0,0.03 0,0.04 0,0.01 0.01,0.02 0.01,0.02 0,0.01 0.01,0.01 0.02,0.01zm0.17 0.04c-0.01,0 -0.02,-0 -0.03,-0.01 -0.01,-0 -0.02,-0.01 -0.02,-0.02 -0,-0.01 -0.01,-0.01 -0.01,-0.02 -0,-0.01 -0,-0.01 -0,-0.02 0,-0 0,-0 0,-0 0,-0 0,-0 0,-0l0.04 0c0,0 0,0 0,0 0,0 0,0 0,0 0,0 0,0.01 0,0.01 0,0 0,0.01 0,0.01 0,0 0,0 0.01,0.01 0,0 0.01,0 0.01,0 0.01,0 0.01,-0 0.02,-0.01 0,-0.01 0.01,-0.02 0.01,-0.03 0,-0.01 0,-0.03 0,-0.05l0.01 -0c-0,0.01 -0,0.01 -0.01,0.02 -0,0.01 -0.01,0.01 -0.02,0.01 -0.01,0 -0.02,0.01 -0.03,0.01 -0.01,0 -0.03,-0 -0.03,-0.01 -0.01,-0.01 -0.02,-0.01 -0.02,-0.02 -0,-0.01 -0.01,-0.02 -0.01,-0.03 0,-0.01 0,-0.03 0.01,-0.04 0.01,-0.01 0.01,-0.02 0.03,-0.03 0.01,-0.01 0.03,-0.01 0.04,-0.01 0.02,0 0.03,0 0.04,0.01 0.01,0.01 0.02,0.02 0.02,0.04 0.01,0.02 0.01,0.03 0.01,0.06 0,0.02 -0,0.04 -0.01,0.05 -0,0.02 -0.01,0.03 -0.02,0.04 -0.01,0.01 -0.02,0.02 -0.02,0.02 -0.01,0.01 -0.02,0.01 -0.03,0.01zm0 -0.12c0.01,0 0.01,-0 0.02,-0 0,-0 0.01,-0.01 0.01,-0.01 0,-0.01 0,-0.01 0,-0.02 0,-0.01 -0,-0.01 -0,-0.02 -0,-0.01 -0.01,-0.01 -0.01,-0.01 -0,-0 -0.01,-0 -0.02,-0 -0.01,0 -0.01,0 -0.02,0 -0,0 -0.01,0.01 -0.01,0.01 -0,0.01 -0,0.01 -0,0.02 0,0.01 0,0.01 0,0.02 0,0.01 0.01,0.01 0.01,0.01 0,0 0.01,0 0.01,0zm0.21 -0c0.01,0 0.02,0 0.02,0.01 0.01,0 0.01,0.01 0.01,0.02 0,0.01 0.01,0.02 0.01,0.03 0,0.01 -0,0.02 -0.01,0.03 -0.01,0.01 -0.01,0.02 -0.02,0.02 -0.01,0.01 -0.03,0.01 -0.04,0.01 -0.02,0 -0.03,-0 -0.04,-0.01 -0.01,-0 -0.02,-0.01 -0.02,-0.02 -0.01,-0.01 -0.01,-0.01 -0.01,-0.02 -0,-0.01 -0,-0.02 -0,-0.03 0,-0 0,-0 0,-0 0,-0 0,-0 0,-0l0.05 0c0,0 0,0 0,0 0,0 0,0 0,0 0,0.01 0,0.02 0,0.02 0,0.01 0.01,0.01 0.01,0.01 0,0 0.01,0 0.02,0 0.01,0 0.02,-0 0.02,-0.01 0.01,-0.01 0.01,-0.01 0.01,-0.03 0,-0.01 -0,-0.01 -0,-0.01 -0,-0 -0,-0.01 -0.01,-0.01 -0,-0 -0.01,-0 -0.01,-0.01 -0,-0 -0.01,-0 -0.02,-0l-0.01 0 0 -0.03 0.01 0c0.01,0 0.01,-0 0.02,-0 0,-0 0.01,-0 0.01,-0.01 0,-0 0,-0.01 0.01,-0.01 0,-0 0,-0.01 0,-0.01 0,-0.01 -0,-0.02 -0.01,-0.02 -0.01,-0 -0.01,-0.01 -0.02,-0.01 -0.01,0 -0.02,0 -0.02,0.01 -0.01,0.01 -0.01,0.01 -0.01,0.03l-0.05 0c0,-0.01 0,-0.02 0,-0.03 0,-0.01 0.01,-0.02 0.01,-0.02 0.01,-0.01 0.01,-0.01 0.02,-0.02 0.01,-0 0.02,-0.01 0.04,-0.01 0.02,0 0.03,0 0.04,0.01 0.01,0.01 0.02,0.01 0.02,0.02 0.01,0.01 0.01,0.02 0.01,0.03 0,0.01 -0,0.02 -0.01,0.02 -0,0.01 -0.01,0.01 -0.01,0.02 -0.01,0 -0.01,0.01 -0.02,0.01zm0.16 -0.1l0 0.22 -0.05 0 0 -0.18c-0,0 -0,0 -0.01,0 -0,0 -0.01,0 -0.02,0 -0.01,0 -0.01,0 -0.02,0l0 -0.04c0.01,-0 0.01,-0 0.02,-0 0.01,-0 0.01,-0 0.02,-0.01 0,-0 0.01,-0 0.01,-0.01l0.05 0z"/>
    <g>
     <path id="_1_2" class="fil0 str1" d="M0.1 0.82l0.38 -0.38 0.05 0.05 -0.32 0.32 0.26 0.26 0.09 -0.09 0.06 0.06 -0.08 0.09 -0.05 0.05 -0.38 -0.38 0 -0zm1.03 0.22l0.06 -0.06 0.1 0.11 0.26 -0.26 -0.31 -0.31 0.05 -0.05 0.37 0.37 -0.37 0.37 -0.16 -0.16 0 0z"/>
     <path id="_2_3" class="fil1" d="M0.1 0.82l0.38 -0.38 0.05 0.05 -0.32 0.32 0.26 0.26 0.09 -0.09 0.06 0.06 -0.08 0.09 -0.05 0.05 -0.38 -0.38 0 -0zm1.03 0.22l0.06 -0.06 0.1 0.11 0.26 -0.26 -0.31 -0.31 0.05 -0.05 0.37 0.37 -0.37 0.37 -0.16 -0.16 0 0z"/>
     <path class="fil2" d="M0.58 0.34l0.3 -0.3 0.3 0.31 -0.09 0.09 -0.05 -0.05 0.04 -0.04 -0.2 -0.2 -0.2 0.2 0.04 0.04 -0.05 0.05 -0.09 -0.09 0 0zm-0.26 0.48l0.55 -0.55 0.56 0.56 -0.55 0.55 -0.56 -0.56 0 0zm0.18 0l0.38 0.38 0.37 -0.37 -0.38 -0.38 -0.37 0.37zm0.21 0.44l-0.03 0.04 0.2 0.2 0.2 -0.2 -0.04 -0.04 0.05 -0.05 0.09 0.09 -0.3 0.3 -0.3 -0.3 0.09 -0.09 0.05 0.05 -0 0z"/>
     <path class="fil1" d="M0.76 0.72c0.02,0 0.03,0 0.04,0.01 0.01,0.01 0.01,0.02 0.01,0.04l0 0.01c0,0.01 -0,0.02 -0.01,0.03 -0,0.01 -0.01,0.01 -0.02,0.02 0.02,0.01 0.03,0.02 0.03,0.05l0 0.02c0,0.02 -0,0.03 -0.01,0.04 -0.01,0.01 -0.02,0.01 -0.04,0.01l-0.05 0 0 -0.24 0.05 0 0 -0zm0.29 0l0 0.24 -0.03 0 0 -0.24 0.03 0zm-0.19 0.24l0 -0.24 0.03 0 0.05 0.15 -0 -0.15 0.03 0 0 0.24 -0.03 0 -0.05 -0.15 -0 0.15 -0.03 0 -0 0zm-0.12 -0.14l0 -0.07c0.03,-0 0.05,-0 0.05,0.04 -0,0.04 -0.02,0.04 -0.05,0.04zm0 0.11l0 -0.07c0.03,-0 0.05,-0 0.05,0.04 -0,0.04 -0.02,0.04 -0.05,0.04z"/>
    </g>
   </g>
  </g>
  <polygon class="fil0" points="-0,0 8.06,0 8.06,1.66 -0,1.66 "/>
 </g>
</svg>
