<svg width="127" height="26" viewBox="0 0 127 26" fill="none" xmlns="http://www.w3.org/2000/svg">
<g clip-path="url(#clip0_1160_2448)">
<path d="M13.6002 19.0318V19.0499C13.6002 19.0438 13.6002 19.0378 13.6002 19.0318ZM25.047 10.1406L25.035 10.0682L21.0891 12.1748L20.0123 12.7543L17.5401 14.0761L16.3672 14.7039L12.7581 16.6415C12.6979 16.6717 12.6318 16.6777 12.5716 16.6536C12.5115 16.6355 12.4573 16.5872 12.4273 16.5268L12.1085 15.8629L11.9521 15.549C11.928 15.5067 11.8979 15.4705 11.8558 15.4403C11.8137 15.4162 11.7656 15.4041 11.7175 15.4041C11.6693 15.4041 11.6212 15.4222 11.5851 15.4524C11.5491 15.4826 11.519 15.5248 11.5009 15.5671L11.2483 16.3095L10.7129 17.8729L10.2137 19.3577L10.2017 19.3879L10.725 19.5328L14.2979 20.5106L14.328 20.4925L13.6904 19.1646H13.7024L13.6904 19.1404C13.6904 19.1404 13.6844 19.1284 13.6784 19.1223V19.0861L13.8709 18.9835C13.8709 18.9835 13.8649 18.9714 13.8588 18.9654C13.8588 18.9654 13.8709 18.9714 13.8709 18.9835L22.5868 14.4142C22.5387 14.722 22.4785 15.0238 22.4064 15.3196C21.9732 17.0701 21.089 18.6696 19.8379 19.9614C19.7356 20.064 19.6334 20.1666 19.5251 20.2692C19.4409 20.3477 19.3567 20.4201 19.2785 20.4925C19.1522 20.6012 19.0258 20.7098 18.8995 20.8124C18.7732 20.915 18.6348 21.0177 18.5025 21.1143L18.4364 21.1626L18.3702 21.2108L18.2318 21.3074C17.8108 21.5911 17.3717 21.8446 16.9145 22.0619C16.7461 22.1404 16.5656 22.2188 16.3852 22.2913C16.2769 22.3396 16.1626 22.3818 16.0544 22.4181C15.9401 22.4603 15.8258 22.4965 15.7235 22.5328L15.6092 22.5689C15.5732 22.581 15.531 22.5931 15.495 22.6052C13.3656 23.2269 11.0859 23.1182 9.02269 22.2913L8.99262 22.2792C8.73395 22.1766 8.48135 22.0619 8.2347 21.9412C8.13246 21.8869 8.02419 21.8325 7.92191 21.7722C7.81967 21.7118 7.71739 21.6575 7.61516 21.6032C7.51288 21.5488 7.41663 21.4764 7.31439 21.4161C7.26627 21.3859 7.21216 21.3497 7.17002 21.3195C6.92341 21.1504 6.68882 20.9814 6.46026 20.7943C6.36402 20.7219 6.27979 20.6434 6.18957 20.565L5.92491 20.3296L5.73845 20.1485C5.67826 20.0881 5.61213 20.0278 5.55797 19.9614C5.34143 19.732 5.13088 19.5026 4.93843 19.2551C4.81211 19.0861 4.68579 18.9292 4.5655 18.7602C4.2587 18.3256 3.98201 17.8668 3.74743 17.3839C3.74743 17.3719 3.73539 17.3658 3.73539 17.3538C3.72938 17.3417 3.72336 17.3356 3.71735 17.3236C3.60908 17.1002 3.50682 16.8648 3.41659 16.6355C3.14591 15.9473 2.94741 15.2291 2.82711 14.4927C2.73087 13.9434 2.67673 13.388 2.67072 12.8327C2.67072 12.4404 2.69478 12.0541 2.73688 11.6678C2.785 11.2151 2.86921 10.7684 2.97749 10.3338C3.01959 10.1769 3.0617 10.0199 3.10982 9.86299C3.24215 9.41025 3.41058 8.96361 3.60908 8.53503C3.62111 8.4988 3.63915 8.46863 3.6572 8.43244C4.19254 7.30971 4.92637 6.29562 5.82263 5.43852C6.01513 5.2514 6.21964 5.07635 6.43015 4.9013L6.5625 4.79265C6.65272 4.72024 6.74298 4.65383 6.83319 4.58742L6.97153 4.48483C7.09786 4.39426 7.23016 4.30372 7.36252 4.22526C7.49487 4.14076 7.62718 4.05625 7.76552 3.97778C7.90386 3.89931 8.03621 3.82688 8.18058 3.75445C8.31892 3.68201 8.4633 3.60958 8.60763 3.54922C8.66178 3.52508 8.70991 3.50093 8.76402 3.47679L9.09486 3.344C9.20916 3.30174 9.31742 3.25949 9.42569 3.22327C10.4723 2.85507 11.5731 2.66795 12.6799 2.66795H12.8904C13.0288 2.66795 13.1671 2.66795 13.3055 2.68606C13.4137 2.68606 13.522 2.70417 13.6243 2.71021C13.7927 2.72831 13.9611 2.74642 14.1235 2.77056C14.3521 2.80075 14.5747 2.843 14.7972 2.89129C14.9536 2.92751 15.11 2.96372 15.2664 3.00598C15.4769 3.06633 15.6874 3.1267 15.8919 3.19913C16.0303 3.24742 16.1747 3.30174 16.307 3.35607C16.4393 3.41039 16.5777 3.46472 16.716 3.52508L16.9145 3.61562L17.0649 3.68805C17.1611 3.73634 17.2634 3.78463 17.3597 3.83896L17.504 3.91742L15.1882 5.1307L10.7791 7.44853L8.36705 8.70403L8.28282 8.53503L7.74747 7.48476C7.72343 7.44252 7.69335 7.40629 7.65126 7.38212C7.60913 7.358 7.561 7.34594 7.51288 7.35195C7.46475 7.35195 7.41667 7.37006 7.38057 7.40024C7.34447 7.43042 7.31439 7.46665 7.29634 7.51494L6.51438 9.68189L6.37001 10.0742L6.09332 10.8348C6.0813 10.871 6.07527 10.9012 6.07527 10.9374C6.07527 10.9736 6.08729 11.0098 6.09936 11.04C6.11736 11.0702 6.13542 11.1004 6.16549 11.1245C6.19556 11.1487 6.22568 11.1607 6.25575 11.1728L6.65272 11.2754L10.0031 12.1325L10.0874 12.0842L9.58812 11.1064C9.55805 11.046 9.55201 10.9796 9.57006 10.9133C9.58812 10.8529 9.63021 10.7986 9.69035 10.7684L12.3912 9.32577L13.9671 8.48069L19.5913 5.47475L21.7567 4.32184C21.7928 4.30372 21.8169 4.2796 21.8409 4.24941C21.865 4.21923 21.877 4.18301 21.883 4.1468C21.8891 4.11058 21.883 4.06833 21.877 4.03211C21.865 3.99589 21.8469 3.95968 21.8169 3.93553C20.4875 2.53516 18.8634 1.4547 17.0649 0.778657C16.9747 0.742441 16.8905 0.712259 16.8002 0.682078C15.4649 0.235407 14.0694 0 12.6619 0C12.2528 0 11.8438 0.0181083 11.4408 0.0603609C10.9235 0.10865 10.4122 0.193155 9.9009 0.307841C9.52797 0.392346 9.15504 0.494959 8.79413 0.609645C8.60164 0.670007 8.40914 0.742441 8.22268 0.808834C7.97004 0.905414 7.72343 1.00803 7.48281 1.11668C4.98656 2.2575 2.92335 4.17698 1.58799 6.59744C1.46769 6.81473 1.3534 7.03807 1.24513 7.27348C0.878207 8.0461 0.589484 8.84891 0.378953 9.67584C0.126318 10.714 0 11.7764 0 12.8448V13.0923C0.0180454 14.0037 0.126318 14.9091 0.330832 15.7964C0.384968 16.0379 0.451135 16.2793 0.517302 16.5147C0.517302 16.5268 0.517302 16.5389 0.529331 16.551C0.661666 17.0037 0.824073 17.4503 1.00453 17.8849C1.31731 18.6334 1.70228 19.3457 2.1474 20.0217C2.27372 20.2088 2.40004 20.3899 2.53237 20.571C2.79102 20.909 3.0617 21.247 3.35644 21.567L3.41659 21.6334C4.02412 22.2852 4.69178 22.8768 5.4136 23.3899C5.58205 23.5106 5.75645 23.6253 5.93693 23.74C7.95198 25.0196 10.2799 25.6956 12.6619 25.6896C13.0167 25.6896 13.3656 25.6775 13.7145 25.6473C15.7296 25.4783 17.6725 24.8265 19.3808 23.7339C19.6334 23.577 19.88 23.408 20.1086 23.2269C20.6439 22.8285 21.1492 22.3939 21.6184 21.9171C23.2364 20.2813 24.3853 18.223 24.9387 15.9776C25.065 15.4705 25.1613 14.9574 25.2214 14.4444C25.2816 13.9554 25.3177 13.4605 25.3177 12.9716V12.8508C25.3177 11.9394 25.2274 11.034 25.041 10.1466L25.047 10.1406Z" fill="#001140"/>
<path d="M26.3461 5.26692C26.3822 5.27298 26.4123 5.29109 26.4423 5.31522C26.4724 5.33938 26.4905 5.36351 26.5085 5.39974C26.5265 5.43597 26.5325 5.46614 26.5325 5.50233C26.5325 5.53856 26.5325 5.57479 26.5145 5.60497L25.3415 8.7196C25.3235 8.76184 25.2934 8.80408 25.2574 8.8343C25.2213 8.86447 25.1731 8.87653 25.125 8.88254C25.0769 8.88254 25.0288 8.87654 24.9867 8.85237C24.9445 8.82824 24.9145 8.79201 24.8904 8.74977L24.6258 8.22462C24.5957 8.16426 24.5415 8.12202 24.4814 8.10391C24.4212 8.08579 24.349 8.09185 24.2949 8.12202L24.1626 8.19444L23.8317 8.36344L21.7926 9.44994L21.3776 9.67329L14.4542 13.3794C14.4001 13.4036 14.3459 13.4157 14.2858 13.3976L14.1173 13.3553C14.0812 13.3493 14.0512 13.3311 14.0211 13.307C13.991 13.2829 13.9669 13.2527 13.9549 13.2225L13.1609 11.5928C13.1609 11.5928 13.1368 11.5324 13.1309 11.4962C13.1309 11.466 13.1309 11.4298 13.1429 11.3996C13.1549 11.3694 13.1669 11.3392 13.191 11.3151C13.2091 11.291 13.2391 11.2668 13.2692 11.2548L20.2889 7.50028L20.7159 7.27093L22.731 6.19048L23.0618 6.00937L23.1882 5.94297C23.1882 5.94297 23.2423 5.90678 23.2603 5.88261C23.2784 5.85849 23.2964 5.82831 23.3084 5.79813C23.3205 5.76796 23.3205 5.73173 23.3205 5.70155C23.3205 5.67137 23.3084 5.63514 23.2904 5.61102L22.8754 4.80216C22.8573 4.75993 22.8513 4.71163 22.8573 4.66935C22.8633 4.6211 22.8814 4.57882 22.9114 4.54263C22.9415 4.5064 22.9776 4.48224 23.0197 4.46416C23.0618 4.44605 23.11 4.44605 23.1521 4.45811L25.0709 4.95305L26.34 5.27903L26.3461 5.26692Z" fill="#001140"/>
<path d="M112.104 7.74115V10.8915H114.206V13.4199H112.104V17.8412C112.104 18.2874 112.205 18.5984 112.401 18.7877C112.596 18.977 112.912 19.0649 113.337 19.0649C113.721 19.0649 114.01 19.0378 114.206 18.977V21.3364C113.795 21.5054 113.263 21.5933 112.616 21.5933C111.599 21.5933 110.79 21.3093 110.197 20.7347C109.604 20.1465 109.308 19.3488 109.308 18.3347V13.4199H107.422V10.8915H107.954C108.479 10.8915 108.877 10.7428 109.14 10.4385C109.423 10.1208 109.564 9.71519 109.564 9.21493V7.73438H112.111L112.104 7.74115Z" fill="#001140"/>
<path d="M42.9001 21.4482H40.5218L40.3332 19.7108C39.9492 20.2989 39.3766 20.7925 38.6153 21.1913C37.8675 21.5766 36.958 21.7727 35.9003 21.7727C33.8051 21.7727 32.0265 21.0494 30.5713 19.6094C29.1162 18.1626 28.3818 16.2495 28.3818 13.863C28.3818 11.4766 29.1296 9.57015 30.632 8.11666C32.1478 6.6564 33.9668 5.92627 36.0889 5.92627C37.9281 5.92627 39.4305 6.37922 40.5892 7.27835C41.7614 8.17749 42.5564 9.28619 42.9672 10.6045L40.1648 11.6118C39.9357 10.8276 39.4776 10.1448 38.7837 9.57688C38.1033 8.98873 37.2072 8.69804 36.0889 8.69804C34.8156 8.69804 33.704 9.14422 32.7541 10.0298C31.8177 10.9155 31.3528 12.1932 31.3528 13.8698C31.3528 15.5464 31.8042 16.797 32.7137 17.7097C33.6367 18.6224 34.7685 19.0821 36.1091 19.0821C37.3555 19.0821 38.3121 18.7643 38.9723 18.1356C39.6393 17.4934 40.0233 16.8173 40.1378 16.121H35.3815V13.5453H42.8933V21.4617L42.9001 21.4482Z" fill="#001140"/>
<path d="M52.6518 17.7162L55.01 18.426C54.7271 19.3995 54.1677 20.1973 53.3322 20.826C52.5103 21.4547 51.4863 21.7725 50.2537 21.7725C48.7513 21.7725 47.4779 21.2654 46.4339 20.2513C45.3894 19.2238 44.864 17.8514 44.864 16.1342C44.864 14.4171 45.3758 13.1732 46.3931 12.1456C47.4104 11.1045 48.6167 10.5771 50.0043 10.5771C51.6146 10.5771 52.8744 11.0639 53.7837 12.0374C54.7067 13.0109 55.1646 14.3495 55.1646 16.0464C55.1646 16.1613 55.1582 16.2897 55.1446 16.4317V16.7765L55.1243 16.9252H47.6529C47.6801 17.6148 47.9494 18.1827 48.4616 18.6423C48.9735 19.1021 49.58 19.3319 50.2872 19.3319C51.4931 19.3319 52.2814 18.7978 52.6654 17.7229L52.6518 17.7162ZM47.7069 14.9714H52.3757C52.3489 14.3833 52.1332 13.8898 51.7356 13.4909C51.3516 13.092 50.7859 12.8892 50.0379 12.8892C49.3574 12.8892 48.8053 13.1056 48.3805 13.5315C47.9562 13.9574 47.7272 14.4374 47.7001 14.9714H47.7069Z" fill="#001140"/>
<path d="M60.8551 7.7392V10.8895H62.9572V13.4179H60.8551V17.8393C60.8551 18.2854 60.9562 18.5965 61.1516 18.7857C61.347 18.975 61.6638 19.0629 62.0882 19.0629C62.4721 19.0629 62.7618 19.0359 62.9572 18.975V21.3344C62.5465 21.5034 62.0138 21.5913 61.3674 21.5913C60.3501 21.5913 59.5418 21.3074 58.9488 20.7327C58.3559 20.1446 58.0594 19.3468 58.0594 18.3328V13.4179H56.1731V10.8895H56.7053C57.2307 10.8895 57.6283 10.7408 57.8912 10.4366C58.1741 10.1188 58.3155 9.71324 58.3155 9.21297V7.73242H60.8619L60.8551 7.7392Z" fill="#001140"/>
<path d="M74.9359 21.4488H65.5107V6.23779H74.9359V9.02985H68.4347V12.5047H74.3162V15.1413H68.4347V18.6634H74.9359V21.4488Z" fill="#001140"/>
<path d="M80.2045 13.9836C79.7262 14.5109 79.4837 15.2343 79.4837 16.1469C79.4837 17.0596 79.7262 17.7897 80.2045 18.3373C80.7031 18.8781 81.3228 19.1553 82.0708 19.1553C82.8184 19.1553 83.4381 18.8849 83.9168 18.3373C84.415 17.7965 84.6575 17.0664 84.6575 16.1469C84.6575 15.2275 84.4082 14.5109 83.9168 13.9836C83.4381 13.4563 82.8184 13.1926 82.0708 13.1926C81.3228 13.1926 80.6963 13.4563 80.2045 13.9836ZM87.3997 25.5237H84.6376V20.3993C84.0986 21.2713 83.1284 21.7108 81.7272 21.7108C80.2584 21.7108 79.039 21.1902 78.0756 20.1423C77.1123 19.081 76.634 17.7559 76.634 16.1537C76.634 14.5515 77.0919 13.2738 78.0149 12.2259C78.9515 11.1645 80.1573 10.6372 81.6461 10.6372C82.4684 10.6372 83.1352 10.7927 83.6403 11.1104C84.1657 11.4079 84.5161 11.7459 84.7047 12.1177V10.8941H87.3997V25.5237Z" fill="#001140"/>
<path d="M97.1754 21.449C97.1214 21.1651 97.0875 20.7865 97.0875 20.3133C96.8182 20.7865 96.4138 21.1448 95.8748 21.3882C95.3494 21.618 94.7904 21.733 94.1975 21.733C92.9648 21.733 91.9947 21.3408 91.2871 20.5499C90.5799 19.7522 90.2227 18.7584 90.2227 17.5685V10.896H93.0455V16.9871C93.0455 17.6158 93.2069 18.1297 93.5306 18.5285C93.8538 18.9138 94.3321 19.1099 94.9522 19.1099C95.5719 19.1099 96.0434 18.9206 96.3938 18.5556C96.7506 18.1702 96.926 17.6632 96.926 17.0345V10.9027H99.7489V19.5494C99.7489 20.2186 99.7825 20.8609 99.8564 21.4558H97.1618L97.1754 21.449Z" fill="#001140"/>
<path d="M102.438 7.43915C102.438 6.95239 102.606 6.54002 102.949 6.1952C103.286 5.83691 103.697 5.66113 104.182 5.66113C104.667 5.66113 105.072 5.83018 105.415 6.17495C105.759 6.51973 105.927 6.93888 105.927 7.43915C105.927 7.91235 105.759 8.31799 105.415 8.66277C105.072 9.00755 104.667 9.17659 104.182 9.17659C103.697 9.17659 103.293 9.00755 102.949 8.66277C102.606 8.31799 102.438 7.91235 102.438 7.43915ZM105.597 21.4468H102.774V10.8937H105.597V21.4468Z" fill="#001140"/>
<path d="M120.437 25.6134H117.446L119.905 20.1172L115.472 10.896H118.632L121.414 17.075L123.981 10.896H126.999L120.437 25.6134Z" fill="#001140"/>
</g>
<defs>
<clipPath id="clip0_1160_2448">
<rect width="127" height="26" fill="white"/>
</clipPath>
</defs>
</svg>
