<svg width="131" height="32" viewBox="0 0 131 32" fill="none" xmlns="http://www.w3.org/2000/svg">
<path d="M22.6468 24.8134C20.7119 22.6039 18.803 20.3639 16.7024 18.3199C15.9659 17.6052 14.7326 17.1781 13.6823 17.0735C11.7212 16.8774 9.72959 17.0169 7.75104 17.0169C7.75104 17.0125 7.75104 17.0125 7.75104 17.0082C5.53279 17.0082 3.31018 16.9777 1.0963 17.0343C0.682283 17.043 0.185468 17.3263 0.0503691 17.6314C-0.0803722 17.9321 0.0547293 18.5117 0.324928 18.8298C2.16402 20.9609 3.95082 23.1574 5.97295 25.1054C6.84456 25.9465 8.21298 26.6656 9.38965 26.7222C13.5211 26.9184 17.6612 26.8181 21.8014 26.7702C22.2677 26.7658 22.9868 26.5174 23.1262 26.1906C23.2613 25.8506 22.9562 25.1708 22.6468 24.8134Z" fill="#004E92"/>
<path d="M1.24056 14.9337C3.34114 14.9817 5.44607 14.9555 7.551 14.9555C9.4729 14.9555 11.3992 14.925 13.3211 14.9642C14.9423 14.9991 16.2061 14.3802 17.2651 13.1687C18.9299 11.273 20.6731 9.44695 22.3204 7.53376C22.7039 7.08924 23.3228 6.4399 23.0874 5.87335C22.8521 5.30245 21.9369 5.2458 21.3573 5.23708C17.5702 5.18042 13.7743 5.08019 10.0002 5.28066C8.67539 5.35039 7.11957 5.93872 6.14773 6.8234C4.0733 8.71479 2.29084 10.9374 0.443034 13.0685C0.146686 13.4128 -0.119143 14.158 0.168488 14.4805C0.595576 14.9686 0.813475 14.925 1.24056 14.9337Z" fill="#004E92"/>
<path d="M29.0455 21.5V6.67872H39.0604V9.28303H31.7874V12.5437H36.0962V15.148H31.7874V18.8745H39.5051V21.5H29.0455ZM42.0281 21.5V10.6805H44.6748V11.845C44.8724 11.4286 45.183 11.0898 45.6064 10.8287C46.0299 10.5605 46.4745 10.4264 46.9403 10.4264C47.7096 10.4264 48.359 10.691 48.8883 11.2204L48.5178 13.6447C48.2284 13.4048 47.9461 13.2354 47.6708 13.1366C47.3956 13.0378 47.0921 12.9883 46.7604 12.9883C46.3228 12.9883 45.9487 13.0907 45.6382 13.2954C45.3276 13.5 45.0877 13.7965 44.9183 14.1846C44.756 14.5728 44.6748 15.0386 44.6748 15.5821V21.5H42.0281ZM50.5678 21.5V10.6805H53.2144V11.845C53.412 11.4286 53.7226 11.0898 54.146 10.8287C54.5695 10.5605 55.0141 10.4264 55.48 10.4264C56.2492 10.4264 56.8986 10.691 57.4279 11.2204L57.0574 13.6447C56.768 13.4048 56.4857 13.2354 56.2104 13.1366C55.9352 13.0378 55.6317 12.9883 55.3 12.9883C54.8624 12.9883 54.4883 13.0907 54.1778 13.2954C53.8673 13.5 53.6273 13.7965 53.4579 14.1846C53.2956 14.5728 53.2144 15.0386 53.2144 15.5821V21.5H50.5678ZM62.3459 21.7541C61.1672 21.7541 60.2321 21.4365 59.5404 20.8013C58.8558 20.159 58.5135 19.2909 58.5135 18.197C58.5135 17.4912 58.69 16.8736 59.0429 16.3443C59.4028 15.8079 59.9004 15.395 60.5356 15.1057C61.1778 14.8092 61.9259 14.661 62.7799 14.661C63.2528 14.661 63.708 14.7069 64.1456 14.7987C64.5902 14.8834 64.9784 15.0069 65.3101 15.1692V14.4916C65.3101 13.8847 65.1372 13.4295 64.7914 13.126C64.4526 12.8154 63.9515 12.6602 63.2881 12.6602C62.7588 12.6602 62.2153 12.7554 61.6577 12.946C61.1002 13.1366 60.5356 13.4189 59.9639 13.7929L59.1699 11.7074C59.791 11.298 60.4826 10.9839 61.2449 10.7652C62.0071 10.5393 62.7764 10.4264 63.5528 10.4264C65.0067 10.4264 66.0935 10.7722 66.8134 11.4639C67.5333 12.1485 67.8933 13.1719 67.8933 14.534V21.5H65.3101V20.6319C64.9431 20.9989 64.5056 21.2777 63.9974 21.4682C63.4963 21.6588 62.9458 21.7541 62.3459 21.7541ZM62.9599 19.5203C63.3975 19.5203 63.8174 19.4356 64.2197 19.2662C64.6291 19.0898 64.9925 18.8428 65.3101 18.5252V17.2442C65.0067 17.096 64.6679 16.983 64.2938 16.9054C63.9268 16.8207 63.5598 16.7784 63.1928 16.7784C62.5364 16.7784 62.0177 16.9054 61.6366 17.1595C61.2625 17.4065 61.0755 17.7523 61.0755 18.197C61.0755 18.6134 61.2413 18.938 61.5731 19.1709C61.9048 19.4038 62.3671 19.5203 62.9599 19.5203ZM71.0587 21.5V10.6805H73.7053V11.718C74.0512 11.2874 74.464 10.9663 74.944 10.7546C75.431 10.5358 75.985 10.4264 76.6061 10.4264C77.8129 10.4264 78.7446 10.8004 79.4009 11.5486C80.0573 12.2896 80.3855 13.3589 80.3855 14.7563V21.5H77.7494V15.5715C77.7494 14.661 77.5906 13.9976 77.273 13.5812C76.9625 13.1577 76.4755 12.946 75.8121 12.946C75.0922 12.946 74.5593 13.1577 74.2135 13.5812C73.8747 13.9976 73.7053 14.6469 73.7053 15.5291V21.5H71.0587ZM87.5776 21.7541C86.1872 21.7541 85.0968 21.253 84.3064 20.2508C83.5159 19.2486 83.1207 17.8582 83.1207 16.0796C83.1207 14.9504 83.3077 13.9623 83.6817 13.1154C84.0558 12.2685 84.5781 11.6086 85.2486 11.1357C85.9261 10.6628 86.7131 10.4264 87.6094 10.4264C88.5692 10.4264 89.3562 10.7793 89.9702 11.485V7.40919L92.6063 6.2129V21.5H89.9702V20.6107C89.4479 21.373 88.6504 21.7541 87.5776 21.7541ZM88.0117 19.2239C88.4634 19.2239 88.848 19.1462 89.1656 18.991C89.4832 18.8286 89.7514 18.5887 89.9702 18.2711V13.8988C89.7514 13.6024 89.4656 13.3695 89.1127 13.2001C88.7669 13.0307 88.3999 12.946 88.0117 12.946C87.2988 12.946 86.7483 13.2177 86.3602 13.7612C85.972 14.2976 85.7779 15.0704 85.7779 16.0796C85.7779 16.7431 85.8661 17.3112 86.0426 17.7841C86.219 18.2499 86.4731 18.6063 86.8048 18.8533C87.1365 19.1004 87.5388 19.2239 88.0117 19.2239ZM95.9124 25.7982V10.6805H98.5591V11.4745C99.152 10.7757 99.946 10.4264 100.941 10.4264C101.866 10.4264 102.663 10.6558 103.334 11.1145C104.004 11.5662 104.519 12.2155 104.879 13.0625C105.239 13.9094 105.419 14.9186 105.419 16.0902C105.419 17.2265 105.232 18.2217 104.858 19.0757C104.484 19.9226 103.958 20.5825 103.281 21.0554C102.603 21.5212 101.813 21.7541 100.909 21.7541C100.415 21.7541 99.9707 21.6659 99.5754 21.4894C99.1802 21.3059 98.8414 21.0377 98.5591 20.6848V24.6019L95.9124 25.7982ZM100.518 19.2239C101.238 19.2239 101.792 18.9522 102.18 18.4087C102.568 17.8582 102.762 17.0854 102.762 16.0902C102.762 15.0951 102.564 14.3223 102.169 13.7718C101.774 13.2213 101.223 12.946 100.518 12.946C100.087 12.946 99.7095 13.0236 99.3849 13.1789C99.0673 13.3342 98.792 13.5706 98.5591 13.8882V18.2605C98.7497 18.564 99.0179 18.8004 99.3637 18.9698C99.7166 19.1392 100.101 19.2239 100.518 19.2239ZM111.433 21.7541C110.254 21.7541 109.319 21.4365 108.628 20.8013C107.943 20.159 107.601 19.2909 107.601 18.197C107.601 17.4912 107.777 16.8736 108.13 16.3443C108.49 15.8079 108.988 15.395 109.623 15.1057C110.265 14.8092 111.013 14.661 111.867 14.661C112.34 14.661 112.795 14.7069 113.233 14.7987C113.677 14.8834 114.066 15.0069 114.397 15.1692V14.4916C114.397 13.8847 114.224 13.4295 113.879 13.126C113.54 12.8154 113.039 12.6602 112.375 12.6602C111.846 12.6602 111.303 12.7554 110.745 12.946C110.187 13.1366 109.623 13.4189 109.051 13.7929L108.257 11.7074C108.878 11.298 109.57 10.9839 110.332 10.7652C111.094 10.5393 111.864 10.4264 112.64 10.4264C114.094 10.4264 115.181 10.7722 115.901 11.4639C116.621 12.1485 116.981 13.1719 116.981 14.534V21.5H114.397V20.6319C114.03 20.9989 113.593 21.2777 113.085 21.4682C112.584 21.6588 112.033 21.7541 111.433 21.7541ZM112.047 19.5203C112.485 19.5203 112.905 19.4356 113.307 19.2662C113.716 19.0898 114.08 18.8428 114.397 18.5252V17.2442C114.094 17.096 113.755 16.983 113.381 16.9054C113.014 16.8207 112.647 16.7784 112.28 16.7784C111.624 16.7784 111.105 16.9054 110.724 17.1595C110.35 17.4065 110.163 17.7523 110.163 18.197C110.163 18.6134 110.329 18.938 110.66 19.1709C110.992 19.4038 111.454 19.5203 112.047 19.5203ZM121.212 25.6076L122.852 21.3094L118.798 10.6805H121.519L123.879 17.0113C123.943 17.1595 124.003 17.3218 124.059 17.4983C124.116 17.6747 124.169 17.8511 124.218 18.0276C124.26 17.8511 124.31 17.6782 124.366 17.5088C124.43 17.3324 124.493 17.1665 124.557 17.0113L126.918 10.6805H129.638L123.943 25.6076H121.212Z" fill="#004E92"/>
</svg>
