<svg xmlns="http://www.w3.org/2000/svg" width="160" height="55" viewBox="0 0 160 55" fill="none"><path d="M159.514 41.6524C159.071 41.6524 158.585 41.6524 158.143 41.6524C105.834 41.6524 53.5697 41.6524 1.26108 41.6524C0.863126 41.6524 0.420957 41.7408 0.0230043 41.5639C-0.0654296 41.2544 0.111438 41.1218 0.37674 41.1218C0.686258 41.1218 1.03999 41.1218 1.34951 41.1218C53.614 41.1218 105.878 41.1218 158.143 41.1218C158.585 41.1218 159.071 41.1218 159.514 41.1218C159.514 41.2544 159.514 41.4755 159.514 41.6524Z" fill="#9893C1"></path><path d="M12.1385 28.3873C11.6079 26.3534 10.3256 25.3806 8.29166 25.2922C5.99237 25.2479 4.2237 26.1323 3.20671 28.2105C2.01285 30.5982 2.18972 33.0301 3.51623 35.3736C5.06382 38.1593 10.0603 39.4416 12.1827 35.4178C12.4923 34.843 12.4923 34.8872 13.1555 35.0199C12.9787 35.9927 12.5365 36.9212 12.1827 37.8498C12.0943 38.1151 11.8732 38.2477 11.6079 38.2919C9.39708 38.7783 7.18623 39.0436 4.97538 38.3362C2.05707 37.3634 0.244172 34.7988 0.288389 31.6594C0.332605 28.52 2.36659 25.9112 5.55021 24.9826C7.67262 24.3636 9.79503 24.4963 11.9174 25.0269C11.9617 25.0269 11.9617 25.0269 12.0059 25.0711C13.0229 25.6459 12.4923 26.7071 12.7576 27.503C12.8018 27.7241 13.0229 28.2989 12.1385 28.3873Z" fill="#09072B"></path><path d="M103.756 38.7341C103.579 38.7341 103.446 38.7341 103.27 38.7341C100.838 38.6015 99.8649 37.4961 100.042 35.0641C100.042 34.843 100.13 34.7104 100.351 34.6662C100.572 34.622 100.661 34.7546 100.749 34.9757C100.926 35.4621 101.147 35.9485 101.412 36.3906C102.076 37.4518 103.049 38.0709 104.331 37.9824C105.348 37.9382 106.144 37.5403 106.542 36.5233C106.94 35.5063 106.763 34.5335 106.011 33.7376C105.569 33.2954 105.038 32.9859 104.508 32.6764C103.844 32.3227 103.137 31.9689 102.474 31.5268C100.793 30.4656 100.13 29.0506 100.484 27.4588C100.882 25.8228 102.297 24.7174 104.198 24.5405C104.508 24.4963 104.861 24.4963 105.171 24.5405C107.382 24.6289 108.089 25.3806 107.912 27.5472C107.912 27.7683 107.868 27.9452 107.647 27.9894C107.426 28.0336 107.293 27.9452 107.205 27.7241C107.072 27.3262 106.94 26.9282 106.719 26.5745C106.144 25.5575 105.215 25.2037 104.11 25.3364C103.137 25.469 102.474 25.9554 102.208 26.9282C101.899 27.9894 102.253 28.918 103.093 29.6254C104.021 30.3771 105.171 30.7751 106.232 31.3941C107.426 32.1016 108.487 32.9859 108.576 34.5335C108.708 36.7886 106.984 38.5573 104.419 38.7783C104.198 38.7341 103.977 38.7341 103.756 38.7341Z" fill="#09072B"></path><path d="M35.4851 33.7819C35.9272 34.7546 36.5463 35.5947 37.1211 36.4349C37.6959 37.2308 38.3149 37.9825 39.4646 38.3804C38.1381 39.0437 36.5905 38.6899 35.8388 37.6729C35.3082 36.9655 34.8218 36.1696 34.3796 35.3737C33.9375 34.5335 33.3184 34.0914 32.2572 34.3567C32.2572 35.1968 32.3457 36.0811 32.2572 36.9213C32.1246 38.1151 33.6279 37.5845 33.8933 38.5131C32.213 38.5131 30.6212 38.5131 29.0736 38.5131C28.8967 38.1593 29.0294 37.9825 29.3831 37.9382C30.3117 37.894 30.5328 37.3192 30.5328 36.4791C30.4885 34.5335 30.4885 32.588 30.5328 30.6424C30.5328 29.8023 30.3559 29.2275 29.4273 29.1833C29.0294 29.1833 29.0736 28.918 29.1178 28.6085C31.0634 28.6085 32.9647 28.52 34.866 28.6527C36.3252 28.7411 37.2095 29.537 37.4748 30.7309C37.6959 31.8805 37.2095 32.7649 35.883 33.5608C35.7504 33.605 35.6177 33.6934 35.4851 33.7819ZM32.2572 33.5165C32.832 33.5165 33.2742 33.5608 33.7606 33.5165C34.5565 33.4723 35.1755 33.1186 35.4408 32.2785C35.7061 31.3941 35.6619 30.5982 35.0429 29.935C34.4239 29.2717 33.6279 29.2275 32.7878 29.3602C32.3899 29.4044 32.3014 29.7139 32.3014 30.0676C32.2572 31.2173 32.2572 32.3227 32.2572 33.5165Z" fill="#09072B"></path><path d="M41.4102 28.6085C43.7095 28.7411 46.0087 28.4316 48.2638 28.8295C50.4304 29.2275 51.7127 30.4214 52.1107 32.4111C52.5086 34.4893 51.5801 36.5233 49.8114 37.5845C48.8386 38.1593 47.7774 38.4688 46.672 38.5131C44.9033 38.6015 43.0904 38.5131 41.3217 38.5131C41.1449 38.1151 41.2775 37.9825 41.6755 37.9382C42.4714 37.894 42.8251 37.4519 42.8251 36.6559C42.8251 34.5778 42.8251 32.4996 42.8251 30.4214C42.8251 29.7581 42.604 29.2717 41.8523 29.2275C41.4544 29.1833 41.2333 29.0948 41.4102 28.6085ZM44.5496 33.4281C44.5496 34.224 44.5496 34.9757 44.5496 35.7716C44.5496 37.7172 44.9475 38.0267 46.8931 37.8056C47.6448 37.7172 48.3522 37.4076 48.8828 36.9212C50.1209 35.7716 50.4746 33.1628 49.6787 31.3499C49.0155 29.8908 47.5563 29.1833 45.6108 29.3601C44.9033 29.4044 44.5496 29.7139 44.5496 30.4214C44.5496 31.3941 44.5496 32.4111 44.5496 33.4281Z" fill="#09072B"></path><path d="M64.8893 30.952C64.8893 33.1186 64.8009 35.0641 65.022 36.9655C65.1104 37.5845 65.5084 37.7172 65.9948 37.894C66.2601 37.9825 66.7907 37.8056 66.7022 38.4688C65.2873 38.4688 63.9166 38.4688 62.5016 38.4688C62.369 38.0709 62.5458 37.9382 62.8996 37.894C63.6513 37.8056 63.9166 37.3192 63.9608 36.6117C64.0934 34.622 64.0492 32.6764 64.005 30.6867C64.005 29.8465 63.5628 29.3601 62.7227 29.2275C62.4132 29.1833 62.1037 29.1833 62.2805 28.6085C63.1207 28.6085 64.005 28.6085 64.9336 28.6085C65.3315 28.6085 65.4642 28.918 65.6852 29.1391C67.3655 30.9962 69.0015 32.8533 70.6818 34.7104C70.9028 34.9315 71.1239 35.1526 71.4777 35.5505C71.4777 33.6492 71.5661 31.9689 71.3892 30.2887C71.345 29.6255 70.9028 29.3601 70.328 29.2275C70.0627 29.1833 69.6206 29.2717 69.7532 28.6527C71.1239 28.6527 72.4504 28.6527 73.8212 28.6527C73.9538 29.0064 73.8654 29.1833 73.5116 29.2275C72.6273 29.2717 72.362 29.8465 72.362 30.6424C72.3178 32.9859 72.3178 35.3294 72.2736 37.6287C72.2736 37.9825 72.2736 38.3362 72.2736 38.6457C71.6545 38.911 71.3892 38.5131 71.0797 38.1593C69.2668 36.0369 67.4981 33.9145 65.6852 31.7921C65.4642 31.571 65.2431 31.3499 64.8893 30.952Z" fill="#09072B"></path><path d="M136.476 28.6085C137.317 28.6085 138.201 28.6085 139.041 28.6085C139.483 28.6085 139.66 28.9622 139.881 29.1833C141.738 31.2615 143.595 33.3397 145.674 35.639C145.585 33.5608 145.762 31.7479 145.452 29.935C145.364 29.3601 144.833 29.3159 144.391 29.2275C144.082 29.1391 143.684 29.2275 143.861 28.6527C145.187 28.6527 146.558 28.6527 147.884 28.6527C148.061 29.0064 147.929 29.1833 147.531 29.2275C146.735 29.3159 146.469 29.8465 146.425 30.554C146.248 33.0302 146.381 35.5505 146.337 38.0267C146.337 38.2035 146.337 38.4246 146.337 38.6015C145.762 38.911 145.497 38.5573 145.187 38.2035C143.374 36.0369 141.561 33.9145 139.704 31.7479C139.527 31.5268 139.306 31.3057 138.953 30.9077C138.953 33.1186 138.864 35.1084 139.129 37.0981C139.218 37.7172 139.748 37.7614 140.235 37.894C140.544 37.9825 140.942 37.894 140.81 38.4688C139.439 38.4688 138.068 38.4688 136.653 38.4688C136.432 38.0267 136.697 37.9382 137.051 37.894C137.759 37.8056 138.024 37.3192 138.068 36.6559C138.201 34.6662 138.157 32.6322 138.112 30.6424C138.112 29.8908 137.714 29.3601 136.874 29.2275C136.653 29.2275 136.255 29.2275 136.476 28.6085Z" fill="#09072B"></path><path d="M128.517 38.7341C125.422 38.7341 123.079 36.5675 123.123 33.6934C123.167 30.6424 125.466 28.3873 128.562 28.3873C131.657 28.3873 133.956 30.5097 133.956 33.4281C133.956 36.5232 131.657 38.7341 128.517 38.7341ZM131.878 33.8702C131.878 32.4111 131.391 31.0846 130.596 30.2002C129.313 28.7411 127.191 28.7853 126.041 30.3329C124.626 32.19 124.936 35.7716 126.705 37.3192C128.341 38.7341 130.728 38.2035 131.524 36.2137C131.789 35.4178 131.834 34.6219 131.878 33.8702Z" fill="#09072B"></path><path d="M158.806 38.513C155.888 38.513 153.102 38.513 150.361 38.513C150.14 37.9824 150.493 37.9382 150.847 37.9382C151.732 37.8498 151.953 37.3192 151.953 36.5233C151.908 34.5777 151.953 32.6322 151.953 30.6866C151.953 29.8907 151.776 29.2717 150.803 29.2275C150.449 29.2275 150.361 29.0064 150.493 28.6526C153.102 28.6526 155.711 28.6526 158.364 28.6526C158.408 29.4928 158.585 30.2887 158.541 31.0846C158.187 31.2614 157.922 31.1288 157.833 30.7751C157.48 29.4486 156.507 29.3159 155.357 29.3159C153.721 29.3159 153.721 29.2717 153.721 30.9077C153.721 31.6152 153.721 32.3227 153.721 33.1186C154.517 33.1186 155.269 33.0301 155.976 33.1186C156.905 33.2512 156.684 31.9689 157.568 31.8805C157.568 32.9859 157.568 34.0029 157.568 35.0641C157.347 35.1525 157.082 35.1968 156.993 34.843C156.817 33.9587 156.153 33.8703 155.446 33.8703C154.915 33.8703 154.34 33.8703 153.721 33.8703C153.721 34.8872 153.721 35.8158 153.721 36.7444C153.721 37.4518 154.075 37.8056 154.827 37.8056C155.313 37.8056 155.8 37.8056 156.286 37.8498C157.347 37.894 158.055 37.4076 158.497 36.4348C158.629 36.1695 158.674 35.7274 159.16 35.9484C159.558 36.1253 159.337 36.4348 159.248 36.7001C159.072 37.275 158.939 37.8498 158.806 38.513Z" fill="#09072B"></path><path d="M19.3016 38.513C18.0193 38.513 16.7812 38.513 15.4989 38.513C15.4105 38.2035 15.3663 37.9824 15.7642 37.9382C16.6928 37.8055 17.0907 37.0539 17.4003 36.3022C18.373 33.9587 19.39 31.6152 20.3628 29.2275C20.5397 28.8295 20.6723 28.3431 21.3798 28.4758C22.441 31.0404 23.5022 33.6049 24.5634 36.2137C24.9171 37.0539 25.2267 37.8498 26.2879 37.9382C26.6416 37.9824 26.509 38.2477 26.509 38.513C25.0498 38.513 23.5906 38.513 22.1315 38.513C21.9988 38.2035 21.9988 37.9824 22.3968 37.9382C23.1043 37.8498 23.1485 37.4518 22.8832 36.877C22.8832 36.8328 22.8832 36.8328 22.839 36.7886C22.3083 35.2852 22.3083 35.2852 20.7165 35.2852C20.5397 35.2852 20.3186 35.2852 20.1417 35.2852C18.7268 35.2852 18.2404 35.7716 18.152 37.1865C18.1077 37.6729 18.373 37.8055 18.771 37.894C19.0805 37.9382 19.4785 37.894 19.3016 38.513ZM20.5397 30.7308C20.0091 32.1016 19.5669 33.207 19.1247 34.4008C20.0975 34.4008 20.9818 34.4008 21.9546 34.4008C21.5124 33.2512 21.0703 32.1458 20.5397 30.7308Z" fill="#09072B"></path><path d="M79.4809 38.513C78.1544 38.513 76.9163 38.513 75.6782 38.513C75.5898 38.2477 75.4571 37.9824 75.8551 37.9382C76.8721 37.7613 77.27 37.0096 77.5795 36.1695C78.5523 33.8702 79.5251 31.5709 80.4979 29.2716C80.6747 28.8737 80.7632 28.3873 81.5148 28.4757C82.1781 30.0675 82.8856 31.7478 83.5488 33.3838C83.991 34.4008 84.3889 35.4178 84.7869 36.4348C85.0964 37.1865 85.4502 37.8497 86.3787 37.9382C86.7324 37.9824 86.6882 38.1593 86.644 38.4688C85.1849 38.4688 83.7257 38.4688 82.2223 38.4688C82.0454 38.115 82.1781 37.9382 82.5761 37.8939C83.1951 37.8055 83.2835 37.4076 83.0624 36.9212C82.974 36.7001 82.8414 36.4348 82.7971 36.2137C82.6203 35.462 82.2223 35.1525 81.4264 35.2851C81.0285 35.3294 80.5863 35.3294 80.1441 35.2851C79.1713 35.1083 78.685 35.5062 78.4639 36.479C78.287 37.2749 78.0659 37.8939 79.2156 37.9824C79.5693 37.9824 79.4366 38.2477 79.4809 38.513ZM80.6305 30.7308C80.0999 32.1015 79.6577 33.2069 79.2156 34.3566C80.1883 34.3566 81.0727 34.3566 82.0455 34.3566C81.6033 33.2069 81.1611 32.1015 80.6305 30.7308Z" fill="#09072B"></path><path d="M116.756 29.3601C116.756 31.8805 116.756 34.3566 116.756 36.7886C116.756 37.4518 117.11 37.7613 117.729 37.894C118.038 37.9382 118.524 37.7613 118.436 38.4688C116.8 38.4688 115.12 38.4688 113.44 38.4688C113.218 37.894 113.661 37.9382 113.97 37.894C114.501 37.8055 114.943 37.6287 114.943 37.0096C114.943 34.4451 114.943 31.9247 114.943 29.3159C114.103 29.3601 113.307 29.1832 112.599 29.6254C111.98 30.0234 112.113 30.9961 111.317 31.6152C111.184 30.2887 111.317 29.2717 111.406 28.4758C114.457 28.6526 117.375 28.7411 120.382 28.3873C120.426 29.2275 120.514 30.2444 120.558 31.2172C120.249 31.3499 120.028 31.3941 119.851 31.0403C119.055 29.1832 119.011 29.1832 116.756 29.3601Z" fill="#09072B"></path><path d="M89.0759 38.5572C88.8991 37.9382 89.2528 37.9382 89.5181 37.9382C90.2698 37.8498 90.5793 37.4518 90.5793 36.7001C90.5793 34.6219 90.5793 32.5437 90.5793 30.4655C90.5793 29.7139 90.2698 29.2717 89.5181 29.2275C89.1644 29.1833 88.9433 29.139 89.0759 28.6526C90.6677 28.6526 92.2595 28.6526 93.8514 28.6526C94.0282 29.1833 93.6745 29.1833 93.365 29.2275C92.6133 29.3159 92.348 29.7581 92.348 30.4655C92.348 32.4995 92.348 34.5335 92.348 36.6117C92.348 37.4076 92.7017 37.7613 93.4976 37.8056C95.001 37.894 96.4159 37.8498 96.8581 36.0369C96.9465 35.7274 97.1234 35.5947 97.5214 35.8158C97.5656 36.6117 97.2561 37.4076 97.1234 38.2035C97.0792 38.4688 96.9023 38.5572 96.637 38.5572C94.1167 38.5572 91.5963 38.5572 89.0759 38.5572Z" fill="#09072B"></path><path d="M59.539 38.513C57.9472 38.513 56.3554 38.513 54.8078 38.513C54.6309 38.0266 54.8962 37.9824 55.25 37.9382C56.0017 37.894 56.267 37.4076 56.267 36.7001C56.267 34.6661 56.267 32.6321 56.267 30.5539C56.267 29.8465 56.0459 29.3601 55.25 29.2717C54.9405 29.2274 54.6309 29.2274 54.7636 28.6968C56.3112 28.6968 57.903 28.6968 59.4948 28.6968C59.5832 28.9621 59.6275 29.2274 59.1853 29.2274C58.2125 29.2717 57.9914 29.8907 57.9914 30.7308C58.0356 32.6321 58.0356 34.5777 57.9914 36.479C57.9914 37.3191 58.2125 37.894 59.1411 37.9382C59.4948 37.9382 59.6275 38.0708 59.539 38.513Z" fill="#09072B"></path><path d="M131.701 5.12916V13.8841H130.551V4.73121C130.109 4.59856 129.667 4.55434 129.181 4.46591V14.7242H127.898V4.42169C127.456 4.42169 127.058 4.46591 126.66 4.51012V15.5201H125.555V4.73121C125.068 4.86386 124.626 4.99651 124.184 5.17338V16.2276H122.813V5.92507C120.072 7.60531 118.303 10.5236 118.303 13.8841C118.303 19.1017 122.681 23.3465 128.075 23.3465C133.47 23.3465 137.847 19.1017 137.847 13.8841C137.847 9.90459 135.327 6.49989 131.701 5.12916Z" fill="#09072B"></path><path d="M131.701 16.9793H133.072V0L131.701 0.884339V16.9793Z" fill="#9893C1"></path><path d="M129.225 18.0847H130.595V1.32648L129.225 2.1666V18.0847Z" fill="#9893C1"></path><path d="M126.704 19.1017H128.075V2.60883L126.704 3.49316V19.1017Z" fill="#9893C1"></path><path d="M124.184 20.163H125.555V3.93536L124.184 4.8197V20.163Z" fill="#9893C1"></path><path d="M102.741 53.6795C102.963 53.7237 103.139 53.7679 103.36 53.8121C103.582 53.8563 103.758 53.9448 103.891 54.0332V54.4754H100V54.0332C100.133 53.9448 100.31 53.8563 100.486 53.8121C100.663 53.7679 100.796 53.7237 100.973 53.6795V47.0911C100.796 47.0469 100.619 47.0027 100.442 46.9585C100.265 46.9143 100.133 46.8258 100 46.7374V46.2952H101.459C101.769 46.2952 102.122 46.2952 102.52 46.251C102.918 46.2068 103.272 46.2068 103.626 46.2068C104.024 46.2068 104.422 46.251 104.82 46.3394C105.218 46.4279 105.571 46.5605 105.881 46.7374C106.19 46.9143 106.411 47.1796 106.633 47.4891C106.809 47.7986 106.898 48.1966 106.898 48.6829C106.898 49.1251 106.809 49.5231 106.633 49.8768C106.456 50.2305 106.19 50.4958 105.925 50.7169C105.616 50.938 105.262 51.1149 104.864 51.2033C104.466 51.2917 104.068 51.3802 103.626 51.3802C103.582 51.3802 103.537 51.3802 103.449 51.3802C103.36 51.3802 103.272 51.3802 103.184 51.3802C103.095 51.3802 103.007 51.3802 102.918 51.3802C102.83 51.3802 102.786 51.3802 102.741 51.3802V53.6795ZM103.405 47.0027C103.228 47.0027 103.139 47.0027 103.051 47.0027C102.963 47.0027 102.874 47.0469 102.786 47.0469V50.5843C102.874 50.6285 102.963 50.6285 103.095 50.6285C103.228 50.6285 103.36 50.6285 103.449 50.6285C103.67 50.6285 103.847 50.5843 104.068 50.5401C104.245 50.4516 104.422 50.3632 104.599 50.2305C104.775 50.0979 104.864 49.8768 104.952 49.6557C105.041 49.4346 105.085 49.1251 105.085 48.8156C105.085 48.1966 104.952 47.7544 104.643 47.4449C104.289 47.1353 103.891 47.0027 103.405 47.0027Z" fill="#030A16"></path><path d="M114 46.2731C114 46.6269 113.956 46.9806 113.911 47.3343C113.867 47.6881 113.823 48.0418 113.779 48.3955H113.292L112.762 47.0248H110.595V49.8547H112.01L112.541 48.9704H112.894C112.939 49.3683 112.939 49.7663 112.939 50.2527C112.939 50.739 112.939 51.137 112.894 51.5349H112.541L112.01 50.6064H110.595V53.6131H112.85L113.469 52.154H113.956C114 52.2866 114 52.4635 114.044 52.6404C114.088 52.8172 114.088 53.0383 114.132 53.2152C114.132 53.3921 114.177 53.6131 114.177 53.8342C114.177 54.0553 114.177 54.2322 114.177 54.409H107.898V53.9669C108.03 53.8784 108.163 53.8342 108.34 53.79C108.517 53.7458 108.694 53.7016 108.871 53.6574V47.069C108.694 47.0248 108.561 46.9806 108.384 46.9364C108.207 46.8922 108.075 46.8037 107.942 46.7153V46.2731H114Z" fill="#030A16"></path><path d="M120.66 46.2289H123.534V46.6711C123.401 46.8037 123.224 46.8922 123.047 46.9806C122.87 47.069 122.694 47.1575 122.561 47.2017V54.4975H121.588L117.476 48.5724L116.99 47.6881H116.945L117.034 48.6166V53.4805C117.211 53.5247 117.343 53.5689 117.564 53.6574C117.741 53.7458 117.918 53.8342 118.051 53.9227V54.3648H115.177V53.9227C115.309 53.8342 115.486 53.7458 115.619 53.6574C115.751 53.5689 115.973 53.5247 116.149 53.4363V47.1133C115.973 47.069 115.84 46.9806 115.663 46.8922C115.486 46.8037 115.354 46.7153 115.265 46.6269V46.1847H117.785L121.102 51.0043L121.632 52.0213H121.677L121.632 51.0043V47.1133C121.455 47.069 121.279 46.9806 121.102 46.8922C120.925 46.8037 120.792 46.7153 120.66 46.6269V46.2289Z" fill="#030A16"></path><path d="M125.86 53.4141C125.949 53.5026 126.081 53.591 126.214 53.6352C126.391 53.7237 126.568 53.7237 126.833 53.7237C127.275 53.7237 127.629 53.6352 127.894 53.4141C128.159 53.1931 128.336 52.8835 128.336 52.4856C128.336 52.2203 128.248 51.955 128.071 51.7781C127.894 51.6013 127.673 51.4244 127.364 51.2475C127.098 51.0706 126.789 50.938 126.479 50.7611C126.17 50.5843 125.86 50.4074 125.595 50.1863C125.33 49.9652 125.064 49.6999 124.887 49.4346C124.711 49.1251 124.622 48.7714 124.622 48.3292C124.622 47.9312 124.711 47.6217 124.843 47.3564C124.976 47.0911 125.153 46.8258 125.418 46.6489C125.683 46.4721 125.949 46.3394 126.302 46.251C126.656 46.1626 127.01 46.1183 127.364 46.1183C127.85 46.1183 128.292 46.1626 128.69 46.2068C129.088 46.251 129.442 46.3837 129.796 46.5163C129.796 46.6932 129.796 46.87 129.751 47.0469C129.751 47.268 129.707 47.4449 129.663 47.6659C129.619 47.8428 129.619 48.0639 129.574 48.2408C129.53 48.4176 129.486 48.5503 129.486 48.6829H129L128.469 47.0911C128.381 47.0469 128.248 47.0027 128.071 46.9585C127.894 46.9143 127.717 46.9143 127.496 46.9143C127.187 46.9143 126.877 47.0027 126.656 47.1796C126.435 47.3564 126.302 47.5775 126.302 47.9312C126.302 48.2408 126.391 48.4618 126.568 48.6829C126.745 48.904 126.966 49.0809 127.275 49.2578C127.54 49.4346 127.85 49.6115 128.204 49.7441C128.557 49.8768 128.823 50.0979 129.132 50.319C129.398 50.54 129.663 50.8053 129.84 51.0706C130.017 51.3802 130.105 51.7339 130.105 52.1319C130.105 52.9278 129.84 53.5026 129.309 53.9447C128.779 54.3869 128.027 54.5638 127.01 54.5638C126.745 54.5638 126.523 54.5638 126.258 54.5196C125.993 54.4754 125.772 54.4311 125.551 54.3869C125.33 54.3427 125.109 54.2543 124.932 54.2101C124.755 54.1658 124.622 54.0774 124.534 54.0332C124.534 53.8563 124.578 53.6794 124.578 53.4584C124.622 53.2373 124.622 53.0604 124.666 52.8393C124.711 52.6182 124.755 52.4414 124.755 52.2645C124.799 52.0876 124.843 51.9108 124.887 51.7781H125.374L125.86 53.4141Z" fill="#030A16"></path><path d="M134.731 54.4311H131.105V53.9889C131.414 53.8121 131.724 53.7236 132.034 53.6352V47.0469C131.857 47.0027 131.724 47.0027 131.547 46.9142C131.37 46.87 131.238 46.7816 131.105 46.6931V46.251H134.731V46.6931C134.598 46.7816 134.421 46.87 134.289 46.9142C134.156 46.9584 133.979 47.0027 133.802 47.0469V53.6352C133.979 53.6794 134.112 53.7236 134.289 53.7679C134.465 53.8121 134.598 53.9005 134.731 53.9889V54.4311Z" fill="#030A16"></path><path d="M135.731 50.3411C135.731 49.722 135.819 49.1914 135.996 48.6608C136.173 48.1302 136.438 47.688 136.748 47.3343C137.101 46.9363 137.499 46.671 137.986 46.45C138.472 46.2289 139.047 46.1404 139.666 46.1404C140.285 46.1404 140.86 46.2289 141.346 46.45C141.833 46.671 142.231 46.9363 142.584 47.3343C142.894 47.7323 143.159 48.1744 143.336 48.6608C143.513 49.1914 143.601 49.722 143.601 50.3411C143.601 50.9601 143.513 51.4907 143.336 52.0213C143.159 52.5519 142.894 52.9941 142.584 53.3478C142.275 53.7458 141.833 54.0111 141.346 54.2321C140.86 54.4532 140.285 54.5417 139.666 54.5417C139.047 54.5417 138.472 54.4532 137.986 54.2321C137.499 54.0111 137.101 53.7458 136.748 53.3478C136.394 52.9499 136.173 52.5077 135.996 52.0213C135.819 51.4907 135.731 50.9159 135.731 50.3411ZM137.72 50.3411C137.72 50.8274 137.765 51.3138 137.853 51.7118C137.942 52.154 138.074 52.5077 138.207 52.8172C138.384 53.1267 138.605 53.3478 138.826 53.5247C139.091 53.7015 139.401 53.79 139.754 53.79C140.108 53.79 140.373 53.7015 140.595 53.5247C140.816 53.3478 141.037 53.1267 141.169 52.8172C141.302 52.5077 141.435 52.154 141.479 51.7118C141.523 51.2696 141.567 50.8274 141.567 50.3411C141.567 49.8547 141.523 49.3683 141.479 48.9703C141.39 48.5282 141.302 48.1744 141.125 47.8649C140.948 47.5554 140.771 47.3343 140.506 47.1574C140.241 46.9806 139.931 46.8921 139.578 46.8921C139.224 46.8921 138.914 46.9806 138.693 47.1574C138.472 47.3343 138.251 47.5554 138.118 47.8649C137.986 48.1744 137.853 48.5282 137.809 48.9703C137.765 49.3683 137.72 49.8104 137.72 50.3411Z" fill="#030A16"></path><path d="M150.084 46.2289H152.958V46.6711C152.826 46.8037 152.649 46.8922 152.472 46.9806C152.295 47.069 152.118 47.1575 151.986 47.2017V54.4975H151.013L146.901 48.5724L146.414 47.6881H146.37L146.458 48.6166V53.4805C146.635 53.5247 146.768 53.5689 146.989 53.6574C147.166 53.7458 147.343 53.8342 147.475 53.9227V54.3648H144.601V53.9227C144.734 53.8342 144.911 53.7458 145.043 53.6574C145.176 53.5689 145.397 53.5247 145.574 53.4363V47.1133C145.397 47.069 145.265 46.9806 145.088 46.8922C144.911 46.8037 144.778 46.7153 144.69 46.6269V46.1847H147.21L150.526 51.0043L151.057 52.0213H151.101L151.057 51.0043V47.1133C150.88 47.069 150.703 46.9806 150.526 46.8922C150.35 46.8037 150.217 46.7153 150.084 46.6269V46.2289Z" fill="#030A16"></path><path d="M155.285 53.4141C155.373 53.5026 155.506 53.591 155.639 53.6352C155.816 53.7237 155.992 53.7237 156.258 53.7237C156.7 53.7237 157.054 53.6352 157.319 53.4141C157.584 53.1931 157.761 52.8835 157.761 52.4856C157.761 52.2203 157.673 51.955 157.496 51.7781C157.319 51.6013 157.098 51.4244 156.788 51.2475C156.523 51.0706 156.214 50.938 155.904 50.7611C155.595 50.5843 155.285 50.4074 155.02 50.1863C154.754 49.9652 154.489 49.6999 154.312 49.4346C154.135 49.1251 154.047 48.7714 154.047 48.3292C154.047 47.9312 154.135 47.6217 154.268 47.3564C154.401 47.0911 154.578 46.8258 154.843 46.6489C155.108 46.4721 155.373 46.3394 155.727 46.251C156.081 46.1626 156.435 46.1183 156.788 46.1183C157.275 46.1183 157.717 46.1626 158.115 46.2068C158.513 46.251 158.867 46.3837 159.22 46.5163C159.22 46.6932 159.22 46.87 159.176 47.0469C159.176 47.268 159.132 47.4449 159.088 47.6659C159.043 47.8428 159.043 48.0639 158.999 48.2408C158.955 48.4176 158.911 48.5503 158.911 48.6829H158.424L157.894 47.0911C157.805 47.0469 157.673 47.0027 157.496 46.9585C157.319 46.9143 157.142 46.9143 156.921 46.9143C156.612 46.9143 156.302 47.0027 156.081 47.1796C155.86 47.3564 155.727 47.5775 155.727 47.9312C155.727 48.2408 155.816 48.4618 155.992 48.6829C156.169 48.904 156.39 49.0809 156.7 49.2578C156.965 49.4346 157.275 49.6115 157.629 49.7441C157.982 49.8768 158.248 50.0979 158.557 50.319C158.822 50.54 159.088 50.8053 159.265 51.0706C159.441 51.3802 159.53 51.7339 159.53 52.1319C159.53 52.9278 159.265 53.5026 158.734 53.9447C158.203 54.3869 157.452 54.5638 156.435 54.5638C156.169 54.5638 155.948 54.5638 155.683 54.5196C155.418 54.4754 155.197 54.4311 154.975 54.3869C154.754 54.3427 154.533 54.2543 154.356 54.2101C154.18 54.1658 154.047 54.0774 153.958 54.0332C153.958 53.8563 154.003 53.6794 154.003 53.4584C154.047 53.2373 154.047 53.0604 154.091 52.8393C154.135 52.6182 154.18 52.4414 154.18 52.2645C154.224 52.0876 154.268 51.9108 154.312 51.7781H154.799L155.285 53.4141Z" fill="#09072B"></path></svg>