<svg width="75" height="24" viewBox="0 0 75 24" fill="none" xmlns="http://www.w3.org/2000/svg">
<g clipPath="url(#clip0_4369_2848)">
<path d="M74.8571 15.5254V2.02575C74.8571 0.90748 73.9363 0 72.8017 0H66.1457H2.0555C0.920806 0 0 0.90748 0 2.02575V21.9742C0 23.0925 0.920806 24 2.0555 24H65.5313C66.0388 24 66.5282 23.8142 66.907 23.4802L74.1774 17.0313C74.6088 16.6473 74.8571 16.0988 74.8571 15.5254Z" fill="#46B2C8"/>
<path d="M52.1541 5.06082H50.791V18.941H52.1541V5.06082Z" fill="white"/>
<path d="M18.4344 18.9517H15.5796C14.6733 18.9517 13.9355 18.2246 13.9355 17.3314V6.66856C13.9355 5.77537 14.6733 5.04831 15.5796 5.04831H18.4326C19.3389 5.04831 20.0767 5.77537 20.0767 6.66856V17.3297C20.0785 18.2246 19.3407 18.9517 18.4344 18.9517ZM15.5796 6.39167C15.4255 6.39167 15.2986 6.51493 15.2986 6.66856V17.3297C15.2986 17.4815 15.4237 17.6066 15.5796 17.6066H18.4326C18.5867 17.6066 18.7136 17.4833 18.7136 17.3297V6.66856C18.7136 6.51671 18.5885 6.39167 18.4326 6.39167H15.5796Z" fill="white"/>
<path d="M27.9243 5.04831V17.3297C27.9243 18.2229 27.1866 18.9499 26.2803 18.9499H23.4291C22.5209 18.9499 21.7832 18.2229 21.7832 17.3297V5.04831H23.1463V17.3297C23.1463 17.4833 23.2732 17.6066 23.4291 17.6066H26.2803C26.4362 17.6066 26.5612 17.4815 26.5612 17.3297V5.04831H27.9243Z" fill="white"/>
<path d="M35.2016 5.05368L33.6518 17.6244C33.5032 18.4015 32.8397 18.9446 32.0368 18.9446C31.2338 18.9446 30.5685 18.4015 30.4217 17.6244L30.4145 17.5816L28.8828 5.05368H30.2568L31.7649 17.3922C31.8066 17.5637 31.9334 17.6012 32.0368 17.6012C32.1383 17.6012 32.267 17.5637 32.3086 17.3922L33.8276 5.05368H35.2016Z" fill="white"/>
<path d="M41.6645 6.39167V5.04831H36.2031V18.9517H41.6645V17.6066H37.568V14.241H40.0712V12.8977H37.568V6.39167H41.6645Z" fill="white"/>
<path d="M59.4868 6.39882V5.05368H54.0254V18.9463H55.3903V14.2482H57.8935V12.9048H55.3903V6.39882H59.4868Z" fill="white"/>
<path d="M12.0141 5.04831L10.0692 11.2328L8.24935 5.04831H6.83008L9.36592 13.6622V18.9392H10.729V13.6747L13.4407 5.04831H12.0141Z" fill="white"/>
<path d="M64.8929 5.04831L62.948 11.2328L61.1263 5.04831H59.707L62.2429 13.6622V18.9392H63.606V13.6747L66.3194 5.04831H64.8929Z" fill="white"/>
<path d="M46.3271 13.8605C48.0056 13.1424 49.182 11.4936 49.182 9.58035V6.66856C49.182 5.77537 48.4461 5.04831 47.538 5.04831H44.6831C43.7768 5.04831 43.0391 5.77537 43.0391 6.66856V13.5693V14.241V18.9374H44.4021V14.2428H44.4493C44.6106 14.2428 44.7701 14.2339 44.926 14.2196L48.1234 18.941H49.7657L46.3271 13.8605ZM44.404 12.8994V6.67034C44.404 6.51671 44.529 6.39345 44.6831 6.39345H47.538C47.692 6.39345 47.8171 6.5185 47.8171 6.67034V9.58214C47.8171 11.4114 46.3072 12.8994 44.4511 12.8994H44.404Z" fill="white"/>
</g>
<defs>
<clipPath id="clip0_4369_2848">
<rect width="74.8571" height="24" fill="white"/>
</clipPath>
</defs>
</svg>
