<svg width="117" height="27" viewBox="0 0 117 27" fill="none" xmlns="http://www.w3.org/2000/svg">
<path fill-rule="evenodd" clip-rule="evenodd" d="M101.178 17.1419C101.178 16.5228 101.518 15.7887 101.913 15.5087C103.497 14.3886 107.183 15.1076 107.183 17.1419C107.183 18.9991 103.625 19.933 102.001 18.8038C101.566 18.5011 101.178 17.8548 101.178 17.1419ZM99.6763 10.4335C99.6763 11.2388 100.286 11.8699 101.061 11.8699C101.404 11.8699 104.133 9.80385 106.518 11.3614C107.256 11.8427 107.182 12.1484 107.182 13.3079C105.085 11.8518 101.696 12.0622 99.9901 13.6348C98.1031 15.3755 98.2637 19.1534 100.018 20.6171C102.089 22.3472 105.123 22.3638 107.297 20.8532C107.44 21.4087 107.999 21.8477 108.626 21.7478C109.204 21.6554 109.722 21.1181 109.722 20.4945V12.1091C109.722 11.4794 109.4 10.7968 109.147 10.4305C106.554 6.66008 99.6763 8.25997 99.6763 10.4335Z" fill="black"/>
<path fill-rule="evenodd" clip-rule="evenodd" d="M75.4251 15.1038C75.4251 10.7234 80.2394 8.98879 82.0884 13.2239C83.9432 17.4711 78.6108 21.5699 76.0934 17.406C75.7607 16.8565 75.4265 15.9559 75.4265 15.1023L75.4251 15.1038ZM82.4693 9.59423C82.1438 9.50342 82.0081 9.33086 81.7615 9.13107C80.273 7.93077 78.135 7.94742 76.502 8.79353C73.1923 10.5069 71.6746 15.6805 74.548 19.4872C76.0774 21.5109 78.8487 22.3722 81.1646 21.1764C81.7629 20.8676 81.9862 20.5906 82.4693 20.2546C82.5101 22.1497 84.7794 21.7894 84.7794 20.3742V6.24007C84.7794 4.77489 82.4488 4.13312 82.4649 6.59425C82.4707 7.59324 82.4693 8.59373 82.4693 9.59423Z" fill="black"/>
<path fill-rule="evenodd" clip-rule="evenodd" d="M93.4405 13.3078H89.1676V7.67718H93.4405C96.5387 7.67718 96.6627 13.3078 93.4405 13.3078ZM86.6269 6.59949V20.0146C86.6269 22.5953 89.1676 22.0005 89.1676 20.614V16.0626C92.1972 16.0626 94.9159 16.5167 96.8218 14.5399C100.006 11.2357 98.249 4.92392 92.9779 4.92392H88.2438C87.2325 4.92392 86.6269 5.55358 86.6269 6.601V6.59949Z" fill="black"/>
<path fill-rule="evenodd" clip-rule="evenodd" d="M66.8792 11.1525C69.1236 11.1525 69.522 12.3815 70.2284 13.9073H64.1079C64.2057 12.6888 65.5264 11.1525 66.8807 11.1525H66.8792ZM61.6825 14.5066C61.6825 16.5334 61.7686 17.6444 62.904 19.3487C65.074 22.609 69.128 22.27 70.9405 19.9163C71.606 19.0535 72.2058 18.3164 71.5272 17.3537C70.5027 15.9007 69.2915 18.1862 69.2243 18.2559C67.1973 20.3628 64.2772 18.5147 64.1094 16.4244C65.2987 16.4244 71.5257 16.6454 72.108 16.217C72.5093 15.9219 72.6903 15.4587 72.6129 14.8018C72.3998 12.9945 71.9942 11.5612 70.7829 10.2216C68.537 7.7408 64.6348 8.04049 62.6982 11.2478C62.2911 11.9229 61.684 13.4683 61.684 14.5082L61.6825 14.5066Z" fill="black"/>
<path fill-rule="evenodd" clip-rule="evenodd" d="M40.8943 12.9491C40.8943 15.551 41.5188 17.6216 43.0584 19.2094C45.6473 21.8794 49.4226 22.5499 52.3967 20.6867C55.9838 18.439 53.77 17.1418 53.4825 17.1418C51.9998 17.1418 52.8491 17.3234 51.1256 18.4117C46.1843 21.5282 40.776 14.7473 44.7513 9.40572C46.1026 7.5909 48.8739 6.91734 51.1256 8.32803C52.3077 9.0697 52.4887 9.71753 53.1352 9.71753C54.1041 9.71753 55.8831 8.21602 52.1632 5.93501C49.2314 4.13684 45.6473 4.84823 43.2321 7.35175C42.4207 8.19332 42.2077 8.55659 41.6619 9.67666C41.2197 10.5863 40.8928 11.6413 40.8928 12.9521L40.8943 12.9491Z" fill="black"/>
<path fill-rule="evenodd" clip-rule="evenodd" d="M110.532 6.60103V20.1358C110.532 22.3244 113.073 22.0626 113.073 20.6156V6.12272C113.073 4.61819 110.532 4.35785 110.532 6.60254V6.60103Z" fill="black"/>
<path fill-rule="evenodd" clip-rule="evenodd" d="M57.7554 10.0747C57.4563 8.91069 55.4453 9.32996 55.4453 10.5545V20.6155C55.4453 21.8339 57.3614 22.1836 57.8605 20.9651C58.2531 20.004 57.6839 14.1433 58.1305 13.1004C59.0338 10.9949 60.8215 12.1362 61.7219 11.6761C62.6252 11.2159 63.028 9.23612 60.1794 9.23612C58.9886 9.23612 58.4618 9.58273 57.754 10.0747H57.7554Z" fill="black"/>
<path fill-rule="evenodd" clip-rule="evenodd" d="M113.881 20.4959C113.881 22.3834 117 22.8995 117 20.2567C117 18.3768 113.881 18.3163 113.881 20.4959Z" fill="black"/>
<path fill-rule="evenodd" clip-rule="evenodd" d="M0 13.4333C0 16.9192 1.41847 20.573 3.69503 22.9146C8.15038 27.4978 14.64 28.3121 20.0089 24.9141C20.4861 24.6129 21.2596 24.0135 21.6346 23.629C24.8452 20.3293 24.2965 19.4726 24.2965 14.7411V9.03475C24.2965 7.21236 24.8627 6.12105 25.6536 5.09331C26.6591 3.78857 28.1973 3.32995 29.9134 3.32995C34.0827 3.32995 36.7081 9.03627 33.3837 12.6356C32.2133 13.9025 30.1907 14.5943 28.3563 14.0963C27.7624 13.9343 27.7609 13.7905 27.0473 13.7905C25.5967 13.7905 24.762 16.2365 26.716 16.9858C29.7719 18.1573 32.7445 17.3384 35.1685 15.3178C40.6191 10.7754 37.9106 0 29.569 0C28.1637 0 26.5643 0.490411 25.6347 1.03077C23.5274 2.2568 21.9119 4.28504 21.3851 6.84607C21.064 8.40509 21.2012 14.8107 21.2027 16.8798C21.2041 19.3621 20.7065 20.5912 18.7291 21.9217C14.8298 24.5447 9.5455 24.3843 6.27514 20.9514C5.49001 20.128 4.70489 19.1881 4.19996 18.1119C2.60053 14.7002 2.90845 10.674 4.9953 7.55898C5.21858 7.22447 5.3003 7.19269 5.51774 6.91267C5.73956 6.62811 5.7775 6.54789 6.04456 6.26938C7.33169 4.92529 9.85634 3.32995 12.3781 3.32995C13.7411 3.32995 14.2752 3.26638 15.6368 3.6357C16.6568 3.91269 16.5226 4.16243 17.7645 4.16243C18.8137 4.16243 19.0253 3.08626 19.0253 2.26134C19.0253 0.644799 14.9013 0.00302723 13.0654 0.00302723C10.8633 0.00302723 9.31931 0.534305 7.77533 1.17305C7.00188 1.49394 6.36124 1.89958 5.706 2.35518C5.36159 2.59433 5.11351 2.80926 4.79683 3.07717C4.61441 3.23156 4.5575 3.31784 4.38238 3.4798C3.35209 4.43186 2.47503 5.43841 1.79498 6.7386C1.55711 7.1942 1.40096 7.38037 1.19519 7.89954C0.539954 9.54938 0.00145933 11.1553 0.00145933 13.4363L0 13.4333Z" fill="black"/>
</svg>
