<svg version="1.1" id="Layer_1" xmlns="http://www.w3.org/2000/svg" xmlns:xlink="http://www.w3.org/1999/xlink" x="0px" y="0px"
	 width="140.333px" height="57.632px" viewBox="0 0 140.333 57.632" enable-background="new 0 0 140.333 57.632"
	 xml:space="preserve">
<path fill="#68BC52" d="M28.227,3.008l-0.03,12.494c-1.12,0.137-2.226,0.41-3.292,0.82l0.031-12.9
	C26.025,3.215,27.124,3.078,28.227,3.008"/>
<path fill="#68BC52" d="M34.871,3.428L34.84,16.31c-1.065-0.406-2.17-0.677-3.288-0.811l0.03-12.489
	C32.684,3.081,33.783,3.219,34.871,3.428"/>
<path fill="#68BC52" d="M47.287,9.527l-8.856,8.814c-0.909-0.712-1.887-1.295-2.908-1.748l9.144-9.1
	C45.573,8.107,46.448,8.786,47.287,9.527"/>
<path fill="#68BC52" d="M51.689,14.521l-9.131,9.088c-0.455-1.018-1.039-1.992-1.752-2.899l8.852-8.81
	C50.397,12.741,51.075,13.616,51.689,14.521"/>
<path fill="#68BC52" d="M56.155,27.614l-12.494-0.03c-0.137-1.12-0.41-2.226-0.82-3.292l12.9,0.031
	C55.948,25.411,56.086,26.511,56.155,27.614"/>
<path fill="#68BC52" d="M55.735,34.258l-12.882-0.031c0.406-1.065,0.677-2.17,0.811-3.288l12.489,0.03
	C56.083,32.071,55.944,33.17,55.735,34.258"/>
<path fill="#68BC52" d="M49.637,46.674l-8.813-8.856c0.712-0.909,1.295-1.887,1.748-2.908l9.1,9.144
	C51.056,44.959,50.378,45.834,49.637,46.674"/>
<path fill="#68BC52" d="M44.642,51.075l-9.088-9.131c1.018-0.455,1.993-1.039,2.899-1.752l8.81,8.852
	C46.423,49.783,45.548,50.461,44.642,51.075"/>
<path fill="#68BC52" d="M28.225,43.051l-0.03,12.489c-1.102-0.071-2.201-0.209-3.289-0.418l0.031-12.882
	C26.002,42.646,27.107,42.917,28.225,43.051"/>
<path fill="#68BC52" d="M34.872,42.228l-0.031,12.9c-1.089,0.208-2.188,0.345-3.291,0.414l0.03-12.494
	C32.7,42.91,33.806,42.637,34.872,42.228"/>
<path fill="#68BC52" d="M18.971,37.84l-8.852,8.81c-0.74-0.84-1.416-1.716-2.031-2.621l9.131-9.088
	C17.675,35.959,18.258,36.933,18.971,37.84"/>
<path fill="#68BC52" d="M24.254,41.958l-9.144,9.1c-0.905-0.616-1.78-1.294-2.62-2.035l8.856-8.814
	C22.255,40.922,23.232,41.504,24.254,41.958"/>
<path fill="#68BC52" d="M16.113,27.611l-12.489-0.03c0.071-1.102,0.209-2.201,0.418-3.289l12.882,0.031
	C16.518,25.388,16.247,26.493,16.113,27.611"/>
<path fill="#68BC52" d="M16.936,34.259l-12.9-0.031c-0.208-1.089-0.345-2.188-0.414-3.291l12.494,0.03
	C16.253,32.086,16.526,33.192,16.936,34.259"/>
<path fill="#68BC52" d="M21.324,18.358l-8.81-8.852c0.84-0.74,1.716-1.417,2.621-2.031l9.088,9.131
	C23.205,17.061,22.23,17.645,21.324,18.358"/>
<path fill="#68BC52" d="M17.206,23.64l-9.1-9.144c0.616-0.905,1.295-1.78,2.035-2.62l8.814,8.856
	C18.242,21.641,17.659,22.619,17.206,23.64"/>
<path fill="#057DC1" d="M37.845,37.231c-4.394,4.394-11.518,4.394-15.912,0s-4.394-11.518,0-15.912s11.518-4.394,15.912,0
	C42.238,25.713,42.238,32.837,37.845,37.231z"/>
<path fill="#FFFFFF" d="M36.006,35.392c-3.379,3.379-8.856,3.379-12.235,0s-3.379-8.856,0-12.235s8.856-3.379,12.235,0
	C39.385,26.536,39.385,32.014,36.006,35.392"/>
<path fill="#68BC52" d="M34.214,33.601c-2.389,2.389-6.262,2.389-8.651,0s-2.389-6.262,0-8.651s6.262-2.389,8.651,0
	C36.603,27.338,36.603,31.212,34.214,33.601"/>
<rect x="68.91" y="10.455" fill="#68BC52" width="0.94" height="37.641"/>
<path fill="#057DC1" d="M124.865,25.677h1.688v3.818h-8.025v-3.818h1.792V14.822h-1.792V11.03h5.874l6.8,10.258v-6.466h-1.818V11.03
	h7.999v3.792h-1.662v14.673h-3.978l-6.878-10.284C124.865,19.211,124.865,25.677,124.865,25.677z M102.037,29.495v-3.818h1.792
	V14.822h-1.792V11.03h8.107c1.852,0,3.268,0.39,4.242,1.169c0.978,0.775,1.467,1.9,1.467,3.372c0,0.974-0.186,1.775-0.554,2.402
	c-0.368,0.632-0.952,1.147-1.757,1.554c1.073,0.32,1.87,0.835,2.389,1.537c0.519,0.701,0.779,1.606,0.779,2.714
	c0,0.879-0.156,1.688-0.463,2.433c-0.307,0.744-0.749,1.381-1.324,1.904c-0.558,0.506-1.221,0.861-1.991,1.069
	c-0.766,0.208-1.935,0.312-3.497,0.312L102.037,29.495L102.037,29.495z M108.218,18.146h1.065c0.892,0,1.532-0.113,1.917-0.342
	s0.576-0.602,0.576-1.117c0-0.606-0.164-1.043-0.489-1.312c-0.325-0.264-0.861-0.398-1.614-0.398h-1.454L108.218,18.146
	L108.218,18.146z M108.218,25.573h1.532c0.922,0,1.571-0.143,1.948-0.424c0.381-0.286,0.571-0.758,0.571-1.428
	c0-0.684-0.19-1.164-0.571-1.441c-0.377-0.281-1.061-0.42-2.047-0.42h-1.433V25.573z M84.386,25.677V14.822h-1.792V11.03h8.202
	c1.736,0,3.116,0.169,4.147,0.506c1.034,0.338,1.961,0.905,2.792,1.701c0.879,0.827,1.545,1.84,1.995,3.039
	c0.455,1.195,0.68,2.554,0.68,4.077c0,1.402-0.225,2.688-0.671,3.861c-0.45,1.169-1.099,2.177-1.952,3.021
	c-0.814,0.788-1.718,1.359-2.723,1.718c-1,0.359-2.216,0.541-3.644,0.541h-8.826v-3.818L84.386,25.677L84.386,25.677z
	 M90.723,25.443c1.723,0,3-0.429,3.826-1.281c0.827-0.853,1.238-2.164,1.238-3.939c0-1.662-0.441-2.943-1.329-3.844
	c-0.883-0.9-2.147-1.35-3.787-1.35h-1.766v10.414H90.723z"/>
<path fill="#057DC1" d="M136.167,38.692V34.94h-0.639v-0.481h0.639v-1.372h0.528v1.372h0.638v0.481h-0.638v3.264h0.638v0.489
	L136.167,38.692L136.167,38.692z M130.691,38.204V34.94h-0.623v-0.481h1.159v0.631c0.151-0.247,0.332-0.428,0.543-0.544
	c0.212-0.116,0.464-0.173,0.76-0.173c0.292,0,0.561,0.06,0.807,0.181c0.244,0.121,0.447,0.292,0.606,0.512
	c0.105,0.151,0.181,0.318,0.227,0.501c0.046,0.183,0.07,0.439,0.07,0.77v1.867h0.631v0.489h-1.799v-0.489h0.631v-1.709
	c0-0.269-0.009-0.472-0.028-0.608c-0.017-0.135-0.049-0.256-0.092-0.361c-0.087-0.209-0.222-0.367-0.405-0.476
	c-0.181-0.109-0.401-0.164-0.658-0.164c-0.436,0-0.762,0.145-0.978,0.435s-0.323,0.728-0.323,1.314v1.57h0.639v0.489h-1.789v-0.489
	L130.691,38.204L130.691,38.204z M129.265,36.753h-3.8c0.035,0.448,0.205,0.815,0.506,1.101c0.301,0.285,0.671,0.428,1.11,0.428
	c0.318,0,0.603-0.08,0.855-0.242c0.254-0.162,0.449-0.389,0.587-0.681h0.607c-0.196,0.464-0.469,0.821-0.82,1.07
	c-0.352,0.248-0.757,0.373-1.214,0.373c-0.616,0-1.135-0.217-1.558-0.65c-0.422-0.434-0.633-0.956-0.633-1.567
	c0-0.62,0.211-1.15,0.636-1.587c0.423-0.437,0.929-0.657,1.516-0.657c0.637,0,1.164,0.219,1.582,0.657
	c0.416,0.439,0.625,1,0.625,1.686L129.265,36.753L129.265,36.753z M128.682,36.288c-0.095-0.455-0.281-0.808-0.56-1.059
	c-0.279-0.251-0.623-0.376-1.033-0.376c-0.423,0-0.784,0.133-1.081,0.397c-0.298,0.265-0.473,0.611-0.527,1.038
	C125.481,36.288,128.682,36.288,128.682,36.288z M117.577,38.204V34.94h-0.623v-0.481h1.151v0.631
	c0.134-0.242,0.298-0.422,0.494-0.54c0.197-0.118,0.426-0.177,0.687-0.177c0.321,0,0.608,0.085,0.861,0.255
	c0.252,0.169,0.436,0.399,0.552,0.69c0.147-0.319,0.329-0.556,0.548-0.711c0.218-0.156,0.477-0.234,0.778-0.234
	c0.264,0,0.508,0.06,0.732,0.181c0.223,0.121,0.405,0.292,0.547,0.512c0.097,0.154,0.167,0.318,0.21,0.493
	c0.042,0.175,0.063,0.434,0.063,0.778v1.867h0.631v0.489h-1.79v-0.489h0.631v-1.736c0-0.26-0.008-0.456-0.024-0.591
	c-0.014-0.135-0.042-0.252-0.08-0.352c-0.072-0.204-0.19-0.359-0.356-0.468s-0.364-0.164-0.595-0.164
	c-0.386,0-0.674,0.145-0.866,0.435c-0.191,0.29-0.286,0.725-0.286,1.306v1.57h0.631v0.489h-1.791v-0.489h0.639v-1.57
	c0-0.686-0.083-1.147-0.248-1.385s-0.448-0.356-0.846-0.356c-0.369,0-0.649,0.147-0.837,0.441c-0.189,0.293-0.284,0.727-0.284,1.3
	v1.57h0.639v0.489h-1.789v-0.489C116.956,38.204,117.577,38.204,117.577,38.204z M111.815,39.567V34.94h-0.631v-0.481h1.175v0.608
	c0.243-0.244,0.491-0.423,0.742-0.535c0.252-0.112,0.524-0.168,0.817-0.168c0.636,0,1.165,0.214,1.59,0.641
	c0.423,0.427,0.635,0.957,0.635,1.587c0,0.621-0.208,1.144-0.622,1.571c-0.415,0.426-0.933,0.639-1.553,0.639
	c-0.319,0-0.612-0.058-0.88-0.175s-0.514-0.294-0.737-0.53v1.469h0.623v0.497h-1.789v-0.497L111.815,39.567L111.815,39.567z
	 M112.351,36.547c0,0.482,0.159,0.895,0.478,1.238c0.318,0.343,0.692,0.514,1.125,0.514c0.444,0,0.825-0.163,1.143-0.487
	c0.319-0.325,0.478-0.723,0.478-1.194c0-0.495-0.16-0.911-0.48-1.246c-0.319-0.335-0.707-0.502-1.162-0.502
	c-0.416,0-0.784,0.167-1.104,0.502C112.512,35.706,112.351,36.097,112.351,36.547z M106.047,36.58c0-0.621,0.213-1.152,0.637-1.592
	c0.426-0.441,0.93-0.662,1.516-0.662c0.614,0,1.135,0.217,1.567,0.65c0.431,0.434,0.646,0.95,0.646,1.55
	c0,0.631-0.211,1.169-0.633,1.616c-0.423,0.445-0.937,0.669-1.543,0.669c-0.614,0-1.133-0.218-1.556-0.656
	S106.047,37.192,106.047,36.58z M106.614,36.569c0,0.49,0.154,0.9,0.461,1.228c0.309,0.329,0.694,0.493,1.155,0.493
	c0.455,0,0.837-0.166,1.148-0.497c0.311-0.331,0.468-0.741,0.468-1.231c0-0.501-0.156-0.912-0.469-1.234
	c-0.313-0.322-0.708-0.484-1.185-0.484c-0.434,0-0.805,0.166-1.114,0.497C106.769,35.673,106.614,36.082,106.614,36.569z
	 M104.142,38.204v-4.627h-0.623v-0.489h1.151v5.116h0.639v0.489h-1.789v-0.489C103.52,38.204,104.142,38.204,104.142,38.204z
	 M102.716,36.753h-3.8c0.035,0.448,0.205,0.815,0.506,1.101c0.301,0.285,0.671,0.428,1.11,0.428c0.318,0,0.603-0.08,0.855-0.242
	c0.254-0.162,0.449-0.389,0.587-0.681h0.607c-0.196,0.464-0.469,0.821-0.82,1.07c-0.352,0.248-0.757,0.373-1.214,0.373
	c-0.616,0-1.135-0.217-1.558-0.65c-0.422-0.434-0.633-0.956-0.633-1.567c0-0.62,0.211-1.15,0.636-1.587
	c0.423-0.437,0.929-0.657,1.516-0.657c0.637,0,1.164,0.219,1.582,0.657c0.416,0.439,0.625,1,0.625,1.686L102.716,36.753
	L102.716,36.753z M102.133,36.288c-0.095-0.455-0.281-0.808-0.56-1.059c-0.279-0.251-0.623-0.376-1.033-0.376
	c-0.423,0-0.784,0.133-1.081,0.397c-0.298,0.265-0.473,0.611-0.527,1.038C98.932,36.288,102.133,36.288,102.133,36.288z
	 M95.348,38.692l-1.49-3.752h-0.575v-0.481h1.765v0.481h-0.631l1.186,2.986l1.18-2.986h-0.631v-0.481h1.766v0.481h-0.577
	l-1.489,3.752H95.348z M92.881,36.753h-3.8c0.035,0.448,0.205,0.815,0.506,1.101c0.301,0.285,0.671,0.428,1.11,0.428
	c0.318,0,0.603-0.08,0.855-0.242c0.254-0.162,0.449-0.389,0.587-0.681h0.607c-0.196,0.464-0.469,0.821-0.82,1.07
	c-0.352,0.248-0.757,0.373-1.214,0.373c-0.616,0-1.135-0.217-1.558-0.65c-0.422-0.434-0.633-0.956-0.633-1.567
	c0-0.62,0.211-1.15,0.636-1.587c0.423-0.437,0.929-0.657,1.516-0.657c0.637,0,1.164,0.219,1.582,0.657
	c0.416,0.439,0.625,1,0.625,1.686L92.881,36.753L92.881,36.753z M92.298,36.288c-0.095-0.455-0.281-0.808-0.56-1.059
	s-0.623-0.376-1.033-0.376c-0.423,0-0.784,0.133-1.081,0.397c-0.298,0.265-0.473,0.611-0.527,1.038
	C89.097,36.288,92.298,36.288,92.298,36.288z M83.225,38.18v-4.596h-0.631v-0.497h2.184c0.457,0,0.836,0.046,1.135,0.137
	c0.301,0.091,0.574,0.239,0.82,0.444c0.321,0.275,0.566,0.602,0.737,0.983c0.171,0.38,0.256,0.788,0.256,1.227
	c0,0.493-0.096,0.937-0.289,1.33c-0.192,0.394-0.474,0.729-0.846,1.004c-0.237,0.175-0.486,0.298-0.749,0.372
	c-0.263,0.072-0.649,0.109-1.16,0.109h-2.088v-0.512L83.225,38.18L83.225,38.18z M83.777,38.164h1.294
	c0.627,0,1.127-0.209,1.502-0.625c0.374-0.417,0.562-0.976,0.562-1.677c0-0.679-0.198-1.227-0.595-1.641
	c-0.397-0.414-0.924-0.622-1.581-0.622h-1.182C83.777,33.599,83.777,38.164,83.777,38.164z"/>
<path fill="#057DC1" d="M136.839,45.81h0.532v0.417h-1.003v-0.519c-0.205,0.205-0.416,0.357-0.633,0.454
	c-0.215,0.098-0.45,0.146-0.701,0.146c-0.542,0-0.992-0.183-1.351-0.547c-0.36-0.365-0.54-0.818-0.54-1.358
	c0-0.531,0.176-0.977,0.527-1.339c0.352-0.362,0.793-0.544,1.324-0.544c0.271,0,0.523,0.051,0.754,0.15
	c0.231,0.1,0.442,0.25,0.633,0.45v-0.506h0.989v0.417h-0.532v2.779C136.838,45.81,136.839,45.81,136.839,45.81z M136.381,44.442
	c0-0.412-0.137-0.764-0.411-1.054c-0.274-0.292-0.595-0.438-0.963-0.438c-0.379,0-0.704,0.139-0.977,0.416
	c-0.272,0.277-0.409,0.616-0.409,1.016c0,0.423,0.137,0.777,0.409,1.065c0.273,0.287,0.602,0.431,0.991,0.431
	c0.357,0,0.672-0.144,0.947-0.431S136.381,44.826,136.381,44.442z M131.518,45.81v-2.786h-0.532v-0.411h0.983v3.197h0.545v0.417
	h-1.528V45.81H131.518z M131.518,42.25v-0.808h0.458v0.808H131.518z M128.545,45.81v-2.786h-0.532v-0.411h0.99v0.606
	c0.114-0.228,0.276-0.395,0.487-0.5c0.211-0.107,0.486-0.162,0.826-0.166v1.15h-0.431v-0.611c-0.301,0.033-0.524,0.177-0.67,0.434
	s-0.219,0.633-0.219,1.127v1.158h0.545v0.417h-1.528v-0.417L128.545,45.81L128.545,45.81z M127.327,44.572h-3.244
	c0.03,0.382,0.175,0.695,0.432,0.94c0.257,0.243,0.573,0.366,0.948,0.366c0.272,0,0.515-0.068,0.73-0.206
	c0.217-0.138,0.384-0.332,0.501-0.581h0.518c-0.167,0.396-0.401,0.701-0.7,0.913c-0.301,0.212-0.646,0.319-1.037,0.319
	c-0.526,0-0.969-0.185-1.33-0.555c-0.36-0.37-0.541-0.817-0.541-1.338c0-0.53,0.181-0.982,0.543-1.355
	c0.361-0.374,0.793-0.561,1.295-0.561c0.544,0,0.994,0.187,1.351,0.561c0.356,0.375,0.534,0.854,0.534,1.439
	C127.327,44.514,127.327,44.572,127.327,44.572z M126.829,44.175c-0.081-0.388-0.24-0.69-0.478-0.904s-0.532-0.321-0.882-0.321
	c-0.361,0-0.67,0.113-0.923,0.339c-0.255,0.227-0.404,0.522-0.45,0.886C124.096,44.175,126.829,44.175,126.829,44.175z
	 M122.43,45.629c0,0.596-0.158,1.06-0.473,1.393c-0.315,0.332-0.753,0.498-1.311,0.498c-0.441,0-0.8-0.09-1.076-0.268
	c-0.276-0.18-0.462-0.442-0.559-0.789h0.558c0.062,0.211,0.185,0.371,0.372,0.481c0.187,0.11,0.429,0.165,0.725,0.165
	c0.398,0,0.715-0.125,0.949-0.372c0.234-0.248,0.351-0.584,0.351-1.011v-0.079c-0.193,0.225-0.398,0.393-0.616,0.499
	c-0.218,0.108-0.462,0.162-0.731,0.162c-0.528,0-0.97-0.183-1.327-0.548c-0.358-0.366-0.536-0.819-0.536-1.357
	c0-0.535,0.176-0.983,0.527-1.343c0.352-0.36,0.793-0.541,1.323-0.541c0.292,0,0.548,0.053,0.771,0.158s0.422,0.268,0.597,0.488
	v-0.552h0.996v0.411h-0.538v2.605H122.43z M119.246,44.389c0,0.423,0.135,0.776,0.404,1.061s0.592,0.427,0.969,0.427
	c0.359,0,0.675-0.142,0.949-0.429c0.274-0.286,0.411-0.621,0.411-1.007c0-0.412-0.135-0.764-0.404-1.054
	c-0.269-0.292-0.588-0.438-0.956-0.438c-0.377,0-0.7,0.139-0.969,0.416C119.381,43.643,119.246,43.984,119.246,44.389z
	 M117.129,45.81v-2.786h-0.532v-0.411h0.983v3.197h0.545v0.417h-1.528V45.81H117.129z M117.129,42.25v-0.808h0.458v0.808H117.129z
	 M114.848,45.508v-3.641h-0.538v-0.424h1.541v0.424h-0.539v4.361h-0.565l-2.571-4.065v3.628h0.538v0.437h-1.548v-0.437h0.538v-3.924
	h-0.538v-0.424h1.111L114.848,45.508z M107.39,45.81v-2.786h-0.486v-0.411h0.486v-0.128c0-0.379,0.087-0.664,0.264-0.854
	c0.175-0.19,0.439-0.284,0.792-0.284h0.035l-0.003,0.438c-0.225,0.005-0.388,0.062-0.49,0.171c-0.101,0.11-0.152,0.286-0.152,0.53
	c0,0.012,0.001,0.034,0.003,0.062c0.002,0.029,0.003,0.05,0.003,0.066h0.639v0.411h-0.639l0.007,2.786h0.586v0.417h-1.575v-0.417
	h0.53C107.39,45.811,107.39,45.81,107.39,45.81z M102.438,44.424c0-0.531,0.182-0.984,0.544-1.36
	c0.363-0.377,0.794-0.565,1.295-0.565c0.524,0,0.969,0.185,1.338,0.555c0.368,0.37,0.552,0.811,0.552,1.324
	c0,0.538-0.18,0.998-0.541,1.38c-0.361,0.38-0.8,0.571-1.317,0.571c-0.524,0-0.967-0.186-1.328-0.56
	C102.618,45.395,102.438,44.947,102.438,44.424z M102.922,44.415c0,0.418,0.131,0.768,0.394,1.049
	c0.264,0.28,0.592,0.421,0.986,0.421c0.388,0,0.715-0.141,0.98-0.424c0.266-0.283,0.399-0.633,0.399-1.051
	c0-0.427-0.133-0.778-0.4-1.053s-0.605-0.413-1.012-0.413c-0.37,0-0.688,0.141-0.951,0.424
	C103.054,43.65,102.922,43.999,102.922,44.415z M96.974,45.81v-3.951h-0.532v-0.417h0.983v2.762l1.347-1.18h-0.48v-0.411h1.549
	v0.411h-0.463l-1.401,1.226l1.6,1.56h0.467v0.417h-1.583V45.81h0.513l-1.548-1.514v1.514h0.471v0.417h-1.455V45.81
	C96.442,45.81,96.974,45.81,96.974,45.81z M92.238,45.81v-2.786h-0.532v-0.411h0.989v0.538c0.129-0.211,0.284-0.366,0.463-0.464
	c0.181-0.099,0.396-0.148,0.648-0.148c0.249,0,0.479,0.052,0.689,0.155c0.209,0.103,0.381,0.249,0.517,0.438
	c0.09,0.129,0.155,0.271,0.194,0.427s0.059,0.375,0.059,0.657v1.594h0.538v0.417h-1.535V45.81h0.538v-1.459
	c0-0.23-0.008-0.403-0.024-0.519c-0.015-0.116-0.042-0.219-0.079-0.309c-0.074-0.178-0.19-0.313-0.346-0.406
	c-0.155-0.093-0.342-0.14-0.562-0.14c-0.372,0-0.651,0.123-0.835,0.371c-0.184,0.248-0.276,0.621-0.276,1.122v1.341h0.545v0.417
	h-1.528v-0.417h0.537V45.81z M90.435,45.81h0.532v0.417h-1.003v-0.519c-0.205,0.205-0.416,0.357-0.633,0.454
	c-0.215,0.098-0.45,0.146-0.701,0.146c-0.542,0-0.992-0.183-1.351-0.547c-0.36-0.365-0.54-0.818-0.54-1.358
	c0-0.531,0.176-0.977,0.527-1.339c0.352-0.362,0.793-0.544,1.324-0.544c0.271,0,0.523,0.051,0.754,0.15
	c0.231,0.1,0.442,0.25,0.633,0.45v-0.506h0.989v0.417h-0.532L90.435,45.81L90.435,45.81z M89.977,44.442
	c0-0.412-0.137-0.764-0.411-1.054c-0.274-0.292-0.595-0.438-0.963-0.438c-0.379,0-0.704,0.139-0.977,0.416
	c-0.272,0.277-0.409,0.616-0.409,1.016c0,0.423,0.137,0.777,0.409,1.065c0.273,0.287,0.602,0.431,0.991,0.431
	c0.357,0,0.672-0.144,0.947-0.431S89.977,44.826,89.977,44.442z M82.594,46.228v-0.437h0.538v-3.924h-0.538v-0.424h1.562
	c0.446,0,0.8,0.116,1.061,0.348c0.261,0.232,0.393,0.543,0.393,0.93c0,0.223-0.04,0.413-0.121,0.569
	c-0.081,0.156-0.2,0.276-0.357,0.361c0.224,0.073,0.404,0.209,0.535,0.409c0.132,0.201,0.199,0.434,0.199,0.702
	c0,0.252-0.048,0.482-0.145,0.692c-0.096,0.209-0.231,0.377-0.406,0.505c-0.131,0.096-0.277,0.165-0.435,0.206
	c-0.158,0.042-0.384,0.063-0.674,0.063C84.206,46.228,82.594,46.228,82.594,46.228z M83.591,43.509h0.289
	c0.462,0,0.785-0.064,0.969-0.192c0.184-0.128,0.276-0.338,0.276-0.629c0-0.26-0.09-0.456-0.268-0.589
	c-0.178-0.132-0.443-0.199-0.793-0.199h-0.473C83.591,41.9,83.591,43.509,83.591,43.509z M83.591,45.77h0.667
	c0.387,0,0.674-0.073,0.859-0.22s0.277-0.372,0.277-0.677c0-0.302-0.094-0.528-0.284-0.68c-0.19-0.151-0.477-0.227-0.859-0.227
	H83.59v1.804H83.591z"/>
</svg>
