<svg width="45" height="52" viewBox="0 0 45 52" fill="none" xmlns="http://www.w3.org/2000/svg">
<path d="M0.992598 44.0201C0.7079 44.0201 0.469368 43.9277 0.277004 43.743C0.0923347 43.5502 0 43.3132 0 43.032C0 42.7509 0.0923347 42.5179 0.277004 42.3331C0.469368 42.1403 0.7079 42.0439 0.992598 42.0439C1.2773 42.0439 1.51198 42.1403 1.69665 42.3331C1.88901 42.5179 1.9852 42.7509 1.9852 43.032C1.9852 43.3132 1.88901 43.5502 1.69665 43.743C1.51198 43.9277 1.2773 44.0201 0.992598 44.0201ZM1.78899 44.8154V51.491H0.173128V44.8154H1.78899Z" fill="#641873"/>
<path d="M8.30228 46.4783V47.9001H3.40854V46.4783H8.30228Z" fill="#641873"/>
<path d="M10.9339 44.0201C10.6492 44.0201 10.4107 43.9277 10.2183 43.743C10.0336 43.5502 9.94131 43.3132 9.94131 43.032C9.94131 42.7509 10.0336 42.5179 10.2183 42.3331C10.4107 42.1403 10.6492 42.0439 10.9339 42.0439C11.2186 42.0439 11.4533 42.1403 11.638 42.3331C11.8303 42.5179 11.9265 42.7509 11.9265 43.032C11.9265 43.3132 11.8303 43.5502 11.638 43.743C11.4533 43.9277 11.2186 44.0201 10.9339 44.0201ZM11.7303 44.8154V51.491H10.1144V44.8154H11.7303Z" fill="#641873"/>
<path d="M16.8701 44.719C17.6319 44.719 18.2474 44.972 18.7168 45.4781C19.1862 45.9762 19.4209 46.6751 19.4209 47.5748V51.491H17.805V47.8037C17.805 47.2735 17.678 46.8679 17.4241 46.5867C17.1702 46.2975 16.8239 46.1529 16.3854 46.1529C15.9391 46.1529 15.5851 46.2975 15.3235 46.5867C15.0696 46.8679 14.9426 47.2735 14.9426 47.8037V51.491H13.3268V44.8154H14.9426V45.6468C15.1581 45.3576 15.4312 45.1327 15.7621 44.972C16.1007 44.8033 16.47 44.719 16.8701 44.719Z" fill="#641873"/>
<path d="M23.6236 49.9365L25.2395 44.8154H26.9592L24.5931 51.491H22.631L20.2765 44.8154H22.0078L23.6236 49.9365Z" fill="#641873"/>
<path d="M33.8108 48.0086C33.8108 48.2496 33.7954 48.4665 33.7647 48.6593H29.0902C29.1287 49.1413 29.2903 49.5188 29.575 49.7919C29.8597 50.0651 30.2098 50.2016 30.6253 50.2016C31.2254 50.2016 31.6525 49.9325 31.9064 49.3943H33.6492C33.4646 50.037 33.1106 50.5671 32.5874 50.9849C32.0642 51.3946 31.4217 51.5994 30.6599 51.5994C30.0443 51.5994 29.4903 51.4588 28.9979 51.1777C28.5131 50.8885 28.1322 50.4828 27.8552 49.9606C27.5859 49.4385 27.4513 48.836 27.4513 48.1532C27.4513 47.4623 27.5859 46.8558 27.8552 46.3337C28.1245 45.8115 28.5016 45.4098 28.9863 45.1287C29.4711 44.8475 30.0289 44.7069 30.6599 44.7069C31.2678 44.7069 31.8102 44.8435 32.2873 45.1166C32.7721 45.3898 33.1452 45.7794 33.4069 46.2855C33.6762 46.7835 33.8108 47.3579 33.8108 48.0086ZM32.1373 47.5266C32.1296 47.0928 31.9795 46.7474 31.6871 46.4903C31.3947 46.2252 31.0369 46.0927 30.6137 46.0927C30.2136 46.0927 29.8751 46.2212 29.598 46.4783C29.3287 46.7273 29.1633 47.0767 29.1018 47.5266H32.1373Z" fill="#641873"/>
<path d="M37.4371 51.5994C36.9139 51.5994 36.4445 51.503 36.029 51.3102C35.6135 51.1094 35.2826 50.8403 35.0364 50.5029C34.7979 50.1655 34.6671 49.7919 34.644 49.3823H36.2714C36.3022 49.6393 36.4214 49.8522 36.6292 50.0209C36.8446 50.1896 37.1101 50.2739 37.4256 50.2739C37.7334 50.2739 37.9719 50.2097 38.1412 50.0811C38.3182 49.9526 38.4066 49.7879 38.4066 49.5871C38.4066 49.3702 38.2989 49.2095 38.0835 49.1051C37.8757 48.9926 37.541 48.8721 37.0793 48.7436C36.6023 48.6231 36.2098 48.4986 35.9021 48.3701C35.602 48.2415 35.3404 48.0447 35.1172 47.7796C34.9018 47.5145 34.794 47.1571 34.794 46.7072C34.794 46.3377 34.8941 46.0003 35.0941 45.695C35.3019 45.3898 35.5943 45.1488 35.9713 44.972C36.356 44.7953 36.8062 44.7069 37.3217 44.7069C38.0835 44.7069 38.6913 44.9078 39.1453 45.3094C39.5993 45.7031 39.8494 46.2373 39.8955 46.912H38.3489C38.3258 46.647 38.2181 46.4381 38.0258 46.2855C37.8411 46.1248 37.591 46.0445 37.2755 46.0445C36.9831 46.0445 36.7562 46.1007 36.5946 46.2132C36.4407 46.3256 36.3637 46.4823 36.3637 46.6831C36.3637 46.908 36.4715 47.0807 36.6869 47.2012C36.9024 47.3137 37.2371 47.4302 37.691 47.5507C38.1527 47.6712 38.5336 47.7957 38.8337 47.9242C39.1338 48.0528 39.3915 48.2536 39.607 48.5267C39.8301 48.7918 39.9455 49.1453 39.9532 49.5871C39.9532 49.9727 39.8494 50.3181 39.6416 50.6234C39.4416 50.9286 39.1492 51.1696 38.7644 51.3464C38.3874 51.5151 37.945 51.5994 37.4371 51.5994Z" fill="#641873"/>
<path d="M43.161 46.2011V49.4304C43.161 49.6554 43.211 49.8201 43.311 49.9245C43.4187 50.0209 43.5957 50.0691 43.8419 50.0691H44.5922V51.491H43.5765C42.2145 51.491 41.5336 50.8001 41.5336 49.4184V46.2011H40.7718V44.8154H41.5336V43.1646H43.161V44.8154H44.5922V46.2011H43.161Z" fill="#641873"/>
<path fill-rule="evenodd" clip-rule="evenodd" d="M21.4141 0.0442521C21.4141 0.0685907 21.3407 0.0885042 21.251 0.0885042C21.1613 0.0885042 21.0879 0.108418 21.0879 0.132756C21.0879 0.157095 21.0146 0.177008 20.9249 0.177008C20.8352 0.177008 20.7618 0.196922 20.7618 0.22126C20.7618 0.245599 20.7068 0.265513 20.6395 0.265513C20.5722 0.265513 20.5172 0.285426 20.5172 0.309765C20.5172 0.334103 20.4621 0.354017 20.3949 0.354017C20.3276 0.354017 20.2726 0.37393 20.2726 0.398269C20.2726 0.422607 20.2359 0.442521 20.191 0.442521C20.1462 0.442521 20.1095 0.462434 20.1095 0.486773C20.1095 0.511112 20.0545 0.531025 19.9872 0.531025C19.9199 0.531025 19.8649 0.550939 19.8649 0.575277C19.8649 0.599616 19.8282 0.619529 19.7833 0.619529C19.7385 0.619529 19.7018 0.639443 19.7018 0.663781C19.7018 0.68812 19.6691 0.708033 19.6293 0.708033C19.5894 0.708033 19.5303 0.74786 19.498 0.796538C19.4656 0.845215 19.4066 0.885042 19.3666 0.885042C19.3268 0.885042 19.2941 0.904955 19.2941 0.929294C19.2941 0.953633 19.2574 0.973546 19.2126 0.973546C19.1677 0.973546 19.131 0.993459 19.131 1.0178C19.131 1.04214 19.0943 1.06205 19.0495 1.06205C19.0047 1.06205 18.968 1.08196 18.968 1.1063C18.968 1.13064 18.9353 1.15055 18.8954 1.15055C18.8555 1.15055 18.7965 1.19038 18.7641 1.23906C18.7318 1.28774 18.6727 1.32756 18.6328 1.32756C18.5929 1.32756 18.5603 1.34748 18.5603 1.37181C18.5603 1.39615 18.5236 1.41607 18.4787 1.41607C18.4339 1.41607 18.3972 1.43598 18.3972 1.46032C18.3972 1.48466 18.3605 1.50457 18.3157 1.50457C18.2708 1.50457 18.2341 1.52448 18.2341 1.54882C18.2341 1.57316 18.2015 1.59308 18.1616 1.59308C18.1217 1.59308 18.0626 1.6329 18.0303 1.68158C17.998 1.73026 17.9389 1.77008 17.899 1.77008C17.8591 1.77008 17.8264 1.79 17.8264 1.81434C17.8264 1.83867 17.7897 1.85859 17.7449 1.85859C17.7001 1.85859 17.6634 1.8785 17.6634 1.90284C17.6634 1.92718 17.6267 1.94709 17.5818 1.94709C17.537 1.94709 17.5003 1.96701 17.5003 1.99134C17.5003 2.01568 17.4676 2.0356 17.4278 2.0356C17.3878 2.0356 17.3288 2.07542 17.2964 2.1241C17.2641 2.17278 17.205 2.2126 17.1651 2.2126C17.1253 2.2126 17.0926 2.23252 17.0926 2.25686C17.0926 2.2812 17.0559 2.30111 17.0111 2.30111C16.9662 2.30111 16.9295 2.32102 16.9295 2.34536C16.9295 2.3697 16.8928 2.38961 16.848 2.38961C16.8031 2.38961 16.7664 2.40953 16.7664 2.43386C16.7664 2.4582 16.7338 2.47812 16.6939 2.47812C16.654 2.47812 16.5949 2.51794 16.5626 2.56662C16.5303 2.6153 16.4712 2.65513 16.4313 2.65513C16.3914 2.65513 16.3588 2.67504 16.3588 2.69938C16.3588 2.72372 16.3221 2.74363 16.2772 2.74363C16.2324 2.74363 16.1957 2.76354 16.1957 2.78788C16.1957 2.81222 16.159 2.83213 16.1141 2.83213C16.0693 2.83213 16.0326 2.85205 16.0326 2.87639C16.0326 2.90072 16 2.92064 15.9601 2.92064C15.9202 2.92064 15.8611 2.96046 15.8288 3.00914C15.7964 3.05782 15.7374 3.09765 15.6974 3.09765C15.6576 3.09765 15.6249 3.11756 15.6249 3.1419C15.6249 3.16624 15.5882 3.18615 15.5434 3.18615C15.4985 3.18615 15.4618 3.20606 15.4618 3.2304C15.4618 3.25474 15.4252 3.27465 15.3803 3.27465C15.3355 3.27465 15.2988 3.29457 15.2988 3.31891C15.2988 3.34325 15.2661 3.36316 15.2262 3.36316C15.1863 3.36316 15.1273 3.40299 15.0949 3.45166C15.0626 3.50034 15.0035 3.54017 14.9636 3.54017C14.9237 3.54017 14.8911 3.56008 14.8911 3.58442C14.8911 3.60876 14.8544 3.62867 14.8095 3.62867C14.7647 3.62867 14.728 3.64858 14.728 3.67292C14.728 3.69726 14.6992 3.71718 14.664 3.71718C14.5816 3.71718 14.4834 3.82373 14.4834 3.91317C14.4834 3.9514 14.465 3.98269 14.4426 3.98269C14.4202 3.98269 14.4019 4.04243 14.4019 4.11544C14.4019 4.18846 14.4202 4.2482 14.4426 4.2482C14.4695 4.2482 14.4834 5.61369 14.4834 8.25616C14.4834 11.6707 14.492 12.2735 14.5417 12.3273C14.6084 12.3999 14.728 12.412 14.728 12.3463C14.728 12.322 14.7647 12.3021 14.8095 12.3021C14.8544 12.3021 14.8911 12.2822 14.8911 12.2578C14.8911 12.2335 14.9278 12.2136 14.9726 12.2136C15.0175 12.2136 15.0542 12.1937 15.0542 12.1693C15.0542 12.145 15.0908 12.1251 15.1357 12.1251C15.1805 12.1251 15.2172 12.1052 15.2172 12.0808C15.2172 12.0565 15.2499 12.0366 15.2898 12.0366C15.3297 12.0366 15.3887 11.9967 15.4211 11.9481C15.4534 11.8994 15.5125 11.8596 15.5524 11.8596C15.5923 11.8596 15.6249 11.8396 15.6249 11.8153C15.6249 11.791 15.6616 11.7711 15.7065 11.7711C15.7513 11.7711 15.788 11.7511 15.788 11.7268C15.788 11.7025 15.8247 11.6826 15.8695 11.6826C15.9144 11.6826 15.9511 11.6626 15.9511 11.6383C15.9511 11.614 15.9878 11.594 16.0326 11.594C16.0775 11.594 16.1141 11.5741 16.1141 11.5498C16.1141 11.5255 16.1508 11.5055 16.1957 11.5055C16.2405 11.5055 16.2772 11.4856 16.2772 11.4613C16.2772 11.437 16.3139 11.417 16.3588 11.417C16.4036 11.417 16.4403 11.3971 16.4403 11.3728C16.4403 11.3484 16.477 11.3285 16.5218 11.3285C16.5667 11.3285 16.6034 11.3086 16.6034 11.2843C16.6034 11.2599 16.6401 11.24 16.6849 11.24C16.7298 11.24 16.7664 11.2201 16.7664 11.1958C16.7664 11.1714 16.8031 11.1515 16.848 11.1515C16.8928 11.1515 16.9295 11.1316 16.9295 11.1073C16.9295 11.0829 16.9662 11.063 17.0111 11.063C17.0559 11.063 17.0926 11.0431 17.0926 11.0188C17.0926 10.9944 17.1253 10.9745 17.1651 10.9745C17.205 10.9745 17.2641 10.9347 17.2964 10.886C17.3288 10.8373 17.3878 10.7975 17.4278 10.7975C17.4676 10.7975 17.5003 10.7776 17.5003 10.7533C17.5003 10.7289 17.537 10.709 17.5818 10.709C17.6267 10.709 17.6634 10.6891 17.6634 10.6648C17.6634 10.6404 17.7001 10.6205 17.7449 10.6205C17.7897 10.6205 17.8264 10.6006 17.8264 10.5762C17.8264 10.5519 17.8591 10.532 17.899 10.532C17.9389 10.532 17.998 10.4922 18.0303 10.4435C18.0626 10.3948 18.1217 10.355 18.1616 10.355C18.2015 10.355 18.2341 10.3351 18.2341 10.3107C18.2341 10.2864 18.2708 10.2665 18.3157 10.2665C18.3605 10.2665 18.3972 10.2466 18.3972 10.2222C18.3972 10.1979 18.4339 10.178 18.4787 10.178C18.5236 10.178 18.5603 10.1581 18.5603 10.1337C18.5603 10.1094 18.5929 10.0895 18.6328 10.0895C18.6727 10.0895 18.7318 10.0496 18.7641 10.001C18.7965 9.95229 18.8555 9.91247 18.8954 9.91247C18.9353 9.91247 18.968 9.89255 18.968 9.86822C18.968 9.84388 19.0047 9.82396 19.0495 9.82396C19.0943 9.82396 19.131 9.80405 19.131 9.77971C19.131 9.75537 19.1677 9.73546 19.2126 9.73546C19.2574 9.73546 19.2941 9.71555 19.2941 9.69121C19.2941 9.66687 19.3268 9.64695 19.3666 9.64695C19.4066 9.64695 19.4656 9.60713 19.498 9.55845C19.5303 9.50977 19.5894 9.46995 19.6293 9.46995C19.6691 9.46995 19.7018 9.45003 19.7018 9.42569C19.7018 9.40136 19.7385 9.38144 19.7833 9.38144C19.8282 9.38144 19.8649 9.36153 19.8649 9.33719C19.8649 9.31285 19.9016 9.29294 19.9464 9.29294C19.9913 9.29294 20.028 9.27303 20.028 9.24869C20.028 9.22435 20.0606 9.20443 20.1005 9.20443C20.1404 9.20443 20.1995 9.16461 20.2318 9.11593C20.2641 9.06725 20.3232 9.02743 20.3631 9.02743C20.403 9.02743 20.4356 9.00751 20.4356 8.98317C20.4356 8.95884 20.4723 8.93892 20.5172 8.93892C20.562 8.93892 20.5987 8.91901 20.5987 8.89467C20.5987 8.87033 20.6538 8.85042 20.721 8.85042C20.7883 8.85042 20.8433 8.8305 20.8433 8.80617C20.8433 8.78183 20.88 8.76191 20.9249 8.76191C20.9697 8.76191 21.0064 8.742 21.0064 8.71766C21.0064 8.69332 21.0798 8.67341 21.1695 8.67341C21.2592 8.67341 21.3326 8.6535 21.3326 8.62916C21.3326 8.60482 21.4059 8.5849 21.4956 8.5849C21.5853 8.5849 21.6587 8.56499 21.6587 8.54065C21.6587 8.51255 21.9713 8.4964 22.5149 8.4964C23.0584 8.4964 23.371 8.51255 23.371 8.54065C23.371 8.56499 23.4444 8.5849 23.5341 8.5849C23.6238 8.5849 23.6971 8.60482 23.6971 8.62916C23.6971 8.6535 23.7705 8.67341 23.8602 8.67341C23.9499 8.67341 24.0233 8.69332 24.0233 8.71766C24.0233 8.742 24.0783 8.76191 24.1456 8.76191C24.2129 8.76191 24.2679 8.78183 24.2679 8.80617C24.2679 8.8305 24.3229 8.85042 24.3902 8.85042C24.4575 8.85042 24.5125 8.87033 24.5125 8.89467C24.5125 8.91901 24.5492 8.93892 24.5941 8.93892C24.6389 8.93892 24.6756 8.95884 24.6756 8.98317C24.6756 9.00751 24.7123 9.02743 24.7571 9.02743C24.802 9.02743 24.8387 9.04734 24.8387 9.07168C24.8387 9.09602 24.8713 9.11593 24.9112 9.11593C24.9511 9.11593 25.0102 9.15576 25.0425 9.20443C25.0749 9.25311 25.1339 9.29294 25.1738 9.29294C25.2137 9.29294 25.2464 9.31285 25.2464 9.33719C25.2464 9.36153 25.2831 9.38144 25.3279 9.38144C25.3727 9.38144 25.4094 9.40136 25.4094 9.42569C25.4094 9.45003 25.4461 9.46995 25.491 9.46995C25.5358 9.46995 25.5725 9.48986 25.5725 9.5142C25.5725 9.53854 25.6092 9.55845 25.6541 9.55845C25.6989 9.55845 25.7356 9.57836 25.7356 9.6027C25.7356 9.62704 25.7682 9.64695 25.8081 9.64695C25.848 9.64695 25.9071 9.68678 25.9394 9.73546C25.9718 9.78414 26.0308 9.82396 26.0708 9.82396C26.1106 9.82396 26.1433 9.84388 26.1433 9.86822C26.1433 9.89255 26.18 9.91247 26.2248 9.91247C26.2697 9.91247 26.3064 9.93238 26.3064 9.95672C26.3064 9.98106 26.343 10.001 26.3879 10.001C26.4327 10.001 26.4694 10.0209 26.4694 10.0452C26.4694 10.0696 26.5021 10.0895 26.542 10.0895C26.5819 10.0895 26.6409 10.1293 26.6733 10.178C26.7056 10.2267 26.7647 10.2665 26.8046 10.2665C26.8445 10.2665 26.8771 10.2864 26.8771 10.3107C26.8771 10.3351 26.9138 10.355 26.9587 10.355C27.0035 10.355 27.0402 10.3749 27.0402 10.3992C27.0402 10.4236 27.0769 10.4435 27.1217 10.4435C27.1666 10.4435 27.2033 10.4634 27.2033 10.4877C27.2033 10.5121 27.24 10.532 27.2848 10.532C27.3297 10.532 27.3663 10.5519 27.3663 10.5762C27.3663 10.6006 27.399 10.6205 27.4389 10.6205C27.4788 10.6205 27.5379 10.6603 27.5702 10.709C27.6025 10.7577 27.6616 10.7975 27.7015 10.7975C27.7414 10.7975 27.774 10.8174 27.774 10.8418C27.774 10.8661 27.8107 10.886 27.8556 10.886C27.9004 10.886 27.9371 10.9059 27.9371 10.9303C27.9371 10.9546 27.9738 10.9745 28.0186 10.9745C28.0635 10.9745 28.1002 10.9944 28.1002 11.0188C28.1002 11.0431 28.1369 11.063 28.1817 11.063C28.2266 11.063 28.2633 11.0829 28.2633 11.1073C28.2633 11.1316 28.3 11.1515 28.3448 11.1515C28.3896 11.1515 28.4263 11.1714 28.4263 11.1958C28.4263 11.2201 28.463 11.24 28.5079 11.24C28.5527 11.24 28.5894 11.2599 28.5894 11.2843C28.5894 11.3086 28.6261 11.3285 28.6709 11.3285C28.7158 11.3285 28.7525 11.3484 28.7525 11.3728C28.7525 11.3971 28.7892 11.417 28.834 11.417C28.8789 11.417 28.9156 11.437 28.9156 11.4613C28.9156 11.4856 28.9523 11.5055 28.9971 11.5055C29.0419 11.5055 29.0786 11.5255 29.0786 11.5498C29.0786 11.5741 29.1153 11.594 29.1602 11.594C29.205 11.594 29.2417 11.614 29.2417 11.6383C29.2417 11.6626 29.2744 11.6826 29.3142 11.6826C29.3542 11.6826 29.4132 11.7224 29.4456 11.7711C29.4779 11.8197 29.537 11.8596 29.5769 11.8596C29.6167 11.8596 29.6494 11.8795 29.6494 11.9038C29.6494 11.9282 29.6861 11.9481 29.7309 11.9481C29.7758 11.9481 29.8125 11.968 29.8125 11.9923C29.8125 12.0167 29.8492 12.0366 29.894 12.0366C29.9389 12.0366 29.9755 12.0565 29.9755 12.0808C29.9755 12.1052 30.0122 12.1251 30.0571 12.1251C30.1019 12.1251 30.1386 12.145 30.1386 12.1693C30.1386 12.1937 30.1753 12.2136 30.2202 12.2136C30.265 12.2136 30.3017 12.2335 30.3017 12.2578C30.3017 12.2822 30.3751 12.3021 30.4648 12.3021H30.6278V8.07286C30.6278 3.61402 30.6319 3.71718 30.4563 3.71718C30.426 3.71718 30.3748 3.67735 30.3425 3.62867C30.3101 3.57999 30.2511 3.54017 30.2112 3.54017C30.1713 3.54017 30.1386 3.52025 30.1386 3.49591C30.1386 3.47158 30.1019 3.45166 30.0571 3.45166C30.0122 3.45166 29.9755 3.43175 29.9755 3.40741C29.9755 3.38307 29.9389 3.36316 29.894 3.36316C29.8492 3.36316 29.8125 3.34325 29.8125 3.31891C29.8125 3.29457 29.7758 3.27465 29.7309 3.27465C29.6861 3.27465 29.6494 3.25474 29.6494 3.2304C29.6494 3.20606 29.6127 3.18615 29.5679 3.18615C29.523 3.18615 29.4863 3.16624 29.4863 3.1419C29.4863 3.11756 29.4496 3.09765 29.4048 3.09765C29.3599 3.09765 29.3232 3.07773 29.3232 3.05339C29.3232 3.02906 29.2906 3.00914 29.2507 3.00914C29.2108 3.00914 29.1517 2.96931 29.1194 2.92064C29.0871 2.87196 29.028 2.83213 28.9881 2.83213C28.9482 2.83213 28.9156 2.81222 28.9156 2.78788C28.9156 2.76354 28.8789 2.74363 28.834 2.74363C28.7892 2.74363 28.7525 2.72372 28.7525 2.69938C28.7525 2.67504 28.7158 2.65513 28.6709 2.65513C28.6261 2.65513 28.5894 2.63521 28.5894 2.61087C28.5894 2.58653 28.5527 2.56662 28.5079 2.56662C28.463 2.56662 28.4263 2.54671 28.4263 2.52237C28.4263 2.49803 28.3937 2.47812 28.3538 2.47812C28.3139 2.47812 28.2548 2.43829 28.2225 2.38961C28.1902 2.34094 28.1311 2.30111 28.0912 2.30111C28.0513 2.30111 28.0186 2.2812 28.0186 2.25686C28.0186 2.23252 27.982 2.2126 27.9371 2.2126C27.8923 2.2126 27.8556 2.19269 27.8556 2.16835C27.8556 2.14401 27.8189 2.1241 27.774 2.1241C27.7292 2.1241 27.6925 2.10419 27.6925 2.07985C27.6925 2.05551 27.6598 2.0356 27.62 2.0356C27.5801 2.0356 27.521 1.99577 27.4886 1.94709C27.4563 1.89841 27.3972 1.85859 27.3573 1.85859C27.3175 1.85859 27.2848 1.83867 27.2848 1.81434C27.2848 1.79 27.2481 1.77008 27.2033 1.77008C27.1584 1.77008 27.1217 1.75017 27.1217 1.72583C27.1217 1.70149 27.085 1.68158 27.0402 1.68158C26.9953 1.68158 26.9587 1.66167 26.9587 1.63733C26.9587 1.61299 26.922 1.59308 26.8771 1.59308C26.8323 1.59308 26.7956 1.57316 26.7956 1.54882C26.7956 1.52448 26.7629 1.50457 26.7231 1.50457C26.6831 1.50457 26.6241 1.46474 26.5917 1.41607C26.5594 1.36739 26.5003 1.32756 26.4604 1.32756C26.4205 1.32756 26.3879 1.30765 26.3879 1.28331C26.3879 1.25897 26.3512 1.23906 26.3064 1.23906C26.2615 1.23906 26.2248 1.21914 26.2248 1.19481C26.2248 1.17047 26.1881 1.15055 26.1433 1.15055C26.0984 1.15055 26.0617 1.13064 26.0617 1.1063C26.0617 1.08196 26.0291 1.06205 25.9892 1.06205C25.9493 1.06205 25.8902 1.02222 25.8579 0.973546C25.8256 0.924869 25.7665 0.885042 25.7266 0.885042C25.6867 0.885042 25.6541 0.865128 25.6541 0.84079C25.6541 0.816451 25.6174 0.796538 25.5725 0.796538C25.5277 0.796538 25.491 0.776624 25.491 0.752286C25.491 0.727947 25.4543 0.708033 25.4094 0.708033C25.3646 0.708033 25.3279 0.68812 25.3279 0.663781C25.3279 0.639443 25.2912 0.619529 25.2464 0.619529C25.2015 0.619529 25.1648 0.599616 25.1648 0.575277C25.1648 0.550939 25.1098 0.531025 25.0425 0.531025C24.9753 0.531025 24.9202 0.511112 24.9202 0.486773C24.9202 0.462434 24.8652 0.442521 24.7979 0.442521C24.7306 0.442521 24.6756 0.422607 24.6756 0.398269C24.6756 0.37393 24.6206 0.354017 24.5533 0.354017C24.486 0.354017 24.431 0.334103 24.431 0.309765C24.431 0.285426 24.3759 0.265513 24.3087 0.265513C24.2414 0.265513 24.1864 0.245599 24.1864 0.22126C24.1864 0.196922 24.113 0.177008 24.0233 0.177008C23.9336 0.177008 23.8602 0.157095 23.8602 0.132756C23.8602 0.108418 23.7685 0.0885042 23.6564 0.0885042C23.5443 0.0885042 23.4525 0.0685907 23.4525 0.0442521C23.4525 0.0159308 23.0856 0 22.4333 0C21.781 0 21.4141 0.0159308 21.4141 0.0442521Z" fill="#641873"/>
<path fill-rule="evenodd" clip-rule="evenodd" d="M31.9937 9.31318C31.9547 9.36132 31.9427 9.81141 31.9427 11.2379V13.0999L32.0841 13.2533C32.1618 13.3376 32.2446 13.4067 32.2681 13.4067C32.3299 13.4067 33.0027 14.1469 33.0027 14.2149C33.0027 14.2464 33.0394 14.3009 33.0843 14.336C33.1291 14.3711 33.1658 14.4308 33.1658 14.4687C33.1658 14.5066 33.2025 14.5664 33.2473 14.6015C33.2922 14.6366 33.3289 14.7007 33.3289 14.744C33.3289 14.7873 33.3472 14.8227 33.3697 14.8227C33.3921 14.8227 33.4104 14.8626 33.4104 14.9112C33.4104 14.9599 33.4288 14.9997 33.4512 14.9997C33.4736 14.9997 33.492 15.0595 33.492 15.1325C33.492 15.2055 33.5103 15.2653 33.5327 15.2653C33.5552 15.2653 33.5735 15.3051 33.5735 15.3538C33.5735 15.4024 33.5918 15.4423 33.6143 15.4423C33.6367 15.4423 33.655 15.5219 33.655 15.6193C33.655 15.7166 33.6734 15.7963 33.6958 15.7963C33.7182 15.7963 33.7366 15.8759 33.7366 15.9733C33.7366 16.0706 33.7549 16.1503 33.7773 16.1503C33.8043 16.1503 33.8181 17.7581 33.8181 20.8853C33.8181 24.0124 33.8043 25.6203 33.7773 25.6203C33.7549 25.6203 33.7366 25.6999 33.7366 25.7973C33.7366 25.8946 33.7182 25.9743 33.6958 25.9743C33.6734 25.9743 33.655 26.034 33.655 26.107C33.655 26.18 33.6367 26.2398 33.6143 26.2398C33.5918 26.2398 33.5735 26.2796 33.5735 26.3283C33.5735 26.377 33.5552 26.4168 33.5327 26.4168C33.5103 26.4168 33.492 26.4566 33.492 26.5053C33.492 26.554 33.4736 26.5938 33.4512 26.5938C33.4288 26.5938 33.4104 26.6292 33.4104 26.6725C33.4104 26.7158 33.3737 26.78 33.3289 26.8151C33.284 26.8501 33.2473 26.9099 33.2473 26.9478C33.2473 26.9857 33.2107 27.0455 33.1658 27.0806C33.121 27.1157 33.0843 27.17 33.0843 27.2015C33.0843 27.2711 32.2474 28.1869 32.1838 28.1869C32.1589 28.1869 32.0871 28.2466 32.0243 28.3196C31.9615 28.3926 31.8807 28.4524 31.8449 28.4524C31.809 28.4524 31.7797 28.4723 31.7797 28.4966C31.7797 28.521 31.743 28.5409 31.6981 28.5409C31.6533 28.5409 31.6166 28.5608 31.6166 28.5851C31.6166 28.6095 31.5799 28.6294 31.5351 28.6294C31.4902 28.6294 31.4535 28.6493 31.4535 28.6736C31.4535 28.698 31.4168 28.7179 31.372 28.7179C31.3271 28.7179 31.2904 28.7378 31.2904 28.7621C31.2904 28.7865 31.2538 28.8064 31.2089 28.8064C31.1641 28.8064 31.1274 28.8263 31.1274 28.8507C31.1274 28.875 31.0947 28.8949 31.0548 28.8949C31.0149 28.8949 30.9559 28.9347 30.9235 28.9834C30.889 29.0354 30.818 29.0719 30.7514 29.0719H30.6381V22.8324C30.6381 18.7022 30.6244 16.5928 30.5974 16.5928C30.575 16.5928 30.5566 16.4933 30.5566 16.3716C30.5566 16.2499 30.5383 16.1503 30.5158 16.1503C30.4934 16.1503 30.4751 16.0906 30.4751 16.0175C30.4751 15.9445 30.4567 15.8848 30.4343 15.8848C30.4119 15.8848 30.3935 15.8251 30.3935 15.752C30.3935 15.679 30.3752 15.6193 30.3528 15.6193C30.3303 15.6193 30.312 15.5795 30.312 15.5308C30.312 15.4821 30.2936 15.4423 30.2712 15.4423C30.2488 15.4423 30.2305 15.4068 30.2305 15.3635C30.2305 15.3202 30.1938 15.2561 30.1489 15.221C30.1041 15.1859 30.0674 15.1314 30.0674 15.1C30.0674 15.0253 29.3915 14.2917 29.3227 14.2917C29.2938 14.2917 29.2436 14.2519 29.2112 14.2032C29.1789 14.1545 29.1198 14.1147 29.0799 14.1147C29.04 14.1147 29.0074 14.0948 29.0074 14.0705C29.0074 14.0461 28.9707 14.0262 28.9259 14.0262C28.881 14.0262 28.8443 14.0063 28.8443 13.982C28.8443 13.9576 28.8076 13.9377 28.7628 13.9377C28.7179 13.9377 28.6812 13.9178 28.6812 13.8934C28.6812 13.8691 28.6445 13.8492 28.5997 13.8492C28.5549 13.8492 28.5182 13.8293 28.5182 13.8049C28.5182 13.7806 28.4815 13.7607 28.4366 13.7607C28.3918 13.7607 28.3551 13.7408 28.3551 13.7164C28.3551 13.6921 28.3184 13.6722 28.2736 13.6722C28.2287 13.6722 28.192 13.6523 28.192 13.6279C28.192 13.6036 28.1553 13.5837 28.1105 13.5837C28.0656 13.5837 28.0289 13.5638 28.0289 13.5394C28.0289 13.5151 27.9922 13.4952 27.9474 13.4952C27.9026 13.4952 27.8659 13.4753 27.8659 13.4509C27.8659 13.4266 27.8292 13.4067 27.7843 13.4067C27.7395 13.4067 27.7028 13.3868 27.7028 13.3624C27.7028 13.3381 27.6661 13.3182 27.6213 13.3182C27.5764 13.3182 27.5397 13.2983 27.5397 13.2739C27.5397 13.2496 27.503 13.2297 27.4582 13.2297C27.4133 13.2297 27.3766 13.2098 27.3766 13.1854C27.3766 13.1611 27.3399 13.1412 27.2951 13.1412C27.2503 13.1412 27.2136 13.1212 27.2136 13.0969C27.2136 13.0726 27.1769 13.0527 27.132 13.0527C27.0872 13.0527 27.0505 13.0327 27.0505 13.0084C27.0505 12.9841 27.0138 12.9642 26.969 12.9642C26.9241 12.9642 26.8874 12.9442 26.8874 12.9199C26.8874 12.8956 26.8507 12.8756 26.8059 12.8756C26.761 12.8756 26.7243 12.8557 26.7243 12.8314C26.7243 12.8071 26.6917 12.7871 26.6518 12.7871C26.6119 12.7871 26.5528 12.7473 26.5205 12.6986C26.4882 12.65 26.4291 12.6101 26.3892 12.6101C26.3493 12.6101 26.3166 12.5902 26.3166 12.5659C26.3166 12.5415 26.28 12.5216 26.2351 12.5216C26.1903 12.5216 26.1536 12.5017 26.1536 12.4774C26.1536 12.453 26.1169 12.4331 26.072 12.4331C26.0272 12.4331 25.9905 12.4132 25.9905 12.3889C25.9905 12.3645 25.9538 12.3446 25.909 12.3446C25.8641 12.3446 25.8274 12.3247 25.8274 12.3004C25.8274 12.276 25.7948 12.2561 25.7549 12.2561C25.715 12.2561 25.6559 12.2163 25.6236 12.1676C25.5912 12.1189 25.5322 12.0791 25.4923 12.0791C25.4524 12.0791 25.4197 12.0592 25.4197 12.0349C25.4197 12.0105 25.383 11.9906 25.3382 11.9906C25.2934 11.9906 25.2567 11.9707 25.2567 11.9464C25.2567 11.922 25.22 11.9021 25.1751 11.9021C25.1303 11.9021 25.0936 11.8822 25.0936 11.8579C25.0936 11.8335 25.0609 11.8136 25.0211 11.8136C24.9811 11.8136 24.9221 11.7738 24.8897 11.7251C24.8574 11.6764 24.7983 11.6366 24.7584 11.6366C24.7186 11.6366 24.6859 11.6167 24.6859 11.5923C24.6859 11.568 24.6492 11.5481 24.6044 11.5481C24.5595 11.5481 24.5228 11.5282 24.5228 11.5038C24.5228 11.4795 24.4861 11.4596 24.4413 11.4596C24.3964 11.4596 24.3597 11.4397 24.3597 11.4153C24.3597 11.391 24.3231 11.3711 24.2782 11.3711C24.2334 11.3711 24.1967 11.3512 24.1967 11.3268C24.1967 11.3025 24.16 11.2826 24.1151 11.2826C24.0703 11.2826 24.0336 11.2627 24.0336 11.2383C24.0336 11.214 23.9969 11.1941 23.9521 11.1941C23.9072 11.1941 23.8705 11.1742 23.8705 11.1498C23.8705 11.1255 23.8155 11.1056 23.7482 11.1056C23.6809 11.1056 23.6259 11.0857 23.6259 11.0613C23.6259 11.037 23.5709 11.0171 23.5036 11.0171C23.4363 11.0171 23.3813 10.9971 23.3813 10.9728C23.3813 10.9485 23.2896 10.9286 23.1775 10.9286C23.0653 10.9286 22.9736 10.9086 22.9736 10.8843C22.9736 10.8571 22.7698 10.8401 22.4436 10.8401C22.1175 10.8401 21.9136 10.8571 21.9136 10.8843C21.9136 10.9086 21.8219 10.9286 21.7098 10.9286C21.5977 10.9286 21.5059 10.9485 21.5059 10.9728C21.5059 10.9971 21.4509 11.0171 21.3836 11.0171C21.3164 11.0171 21.2613 11.037 21.2613 11.0613C21.2613 11.0857 21.2246 11.1056 21.1798 11.1056C21.1349 11.1056 21.0982 11.1255 21.0982 11.1498C21.0982 11.1742 21.0615 11.1941 21.0167 11.1941C20.9719 11.1941 20.9352 11.214 20.9352 11.2383C20.9352 11.2627 20.8985 11.2826 20.8536 11.2826C20.8088 11.2826 20.7721 11.3025 20.7721 11.3268C20.7721 11.3512 20.7354 11.3711 20.6906 11.3711C20.6457 11.3711 20.609 11.391 20.609 11.4153C20.609 11.4397 20.5764 11.4596 20.5365 11.4596C20.4966 11.4596 20.4375 11.4994 20.4052 11.5481C20.3728 11.5968 20.3138 11.6366 20.2739 11.6366C20.234 11.6366 20.2013 11.6565 20.2013 11.6808C20.2013 11.7052 20.1646 11.7251 20.1198 11.7251C20.0749 11.7251 20.0383 11.745 20.0383 11.7693C20.0383 11.7937 20.0016 11.8136 19.9567 11.8136C19.9119 11.8136 19.8752 11.8335 19.8752 11.8579C19.8752 11.8822 19.8425 11.9021 19.8026 11.9021C19.7627 11.9021 19.7037 11.9419 19.6713 11.9906C19.639 12.0393 19.5799 12.0791 19.54 12.0791C19.5001 12.0791 19.4675 12.099 19.4675 12.1234C19.4675 12.1477 19.4308 12.1676 19.386 12.1676C19.3411 12.1676 19.3044 12.1875 19.3044 12.2119C19.3044 12.2362 19.2677 12.2561 19.2229 12.2561C19.178 12.2561 19.1413 12.276 19.1413 12.3004C19.1413 12.3247 19.1087 12.3446 19.0688 12.3446C19.0289 12.3446 18.9698 12.3844 18.9375 12.4331C18.9052 12.4818 18.8461 12.5216 18.8062 12.5216C18.7663 12.5216 18.7336 12.5415 18.7336 12.5659C18.7336 12.5902 18.697 12.6101 18.6521 12.6101C18.6073 12.6101 18.5706 12.63 18.5706 12.6544C18.5706 12.6787 18.5339 12.6986 18.489 12.6986C18.4442 12.6986 18.4075 12.7186 18.4075 12.7429C18.4075 12.7672 18.3708 12.7871 18.326 12.7871C18.2811 12.7871 18.2444 12.8071 18.2444 12.8314C18.2444 12.8557 18.2077 12.8756 18.1629 12.8756C18.118 12.8756 18.0813 12.8956 18.0813 12.9199C18.0813 12.9442 18.0447 12.9642 17.9998 12.9642C17.955 12.9642 17.9183 12.9841 17.9183 13.0084C17.9183 13.0327 17.8816 13.0527 17.8367 13.0527C17.7919 13.0527 17.7552 13.0726 17.7552 13.0969C17.7552 13.1212 17.7225 13.1412 17.6827 13.1412C17.6428 13.1412 17.5837 13.181 17.5514 13.2297C17.519 13.2783 17.4599 13.3182 17.42 13.3182C17.3802 13.3182 17.3475 13.3381 17.3475 13.3624C17.3475 13.3868 17.3108 13.4067 17.266 13.4067C17.2211 13.4067 17.1844 13.4266 17.1844 13.4509C17.1844 13.4753 17.1477 13.4952 17.1029 13.4952C17.0581 13.4952 17.0214 13.5151 17.0214 13.5394C17.0214 13.5638 16.9847 13.5837 16.9398 13.5837C16.895 13.5837 16.8583 13.6036 16.8583 13.6279C16.8583 13.6523 16.8216 13.6722 16.7767 13.6722C16.7319 13.6722 16.6952 13.6921 16.6952 13.7164C16.6952 13.7408 16.6585 13.7607 16.6137 13.7607C16.5688 13.7607 16.5321 13.7806 16.5321 13.8049C16.5321 13.8293 16.4954 13.8492 16.4506 13.8492C16.4058 13.8492 16.3691 13.8691 16.3691 13.8934C16.3691 13.9178 16.3324 13.9377 16.2875 13.9377C16.2427 13.9377 16.206 13.9576 16.206 13.982C16.206 14.0063 16.1693 14.0262 16.1244 14.0262C16.0796 14.0262 16.0429 14.0461 16.0429 14.0705C16.0429 14.0948 16.0103 14.1147 15.9704 14.1147C15.9305 14.1147 15.8714 14.1545 15.8391 14.2032C15.8067 14.2519 15.7566 14.2917 15.7276 14.2917C15.6589 14.2917 14.9014 15.114 14.9014 15.1885C14.9014 15.22 14.8647 15.2744 14.8198 15.3095C14.775 15.3446 14.7383 15.4087 14.7383 15.452C14.7383 15.4953 14.72 15.5308 14.6975 15.5308C14.6751 15.5308 14.6568 15.5706 14.6568 15.6193C14.6568 15.668 14.6384 15.7078 14.616 15.7078C14.5936 15.7078 14.5752 15.7675 14.5752 15.8405C14.5752 15.9136 14.5569 15.9733 14.5345 15.9733C14.512 15.9733 14.4937 16.0529 14.4937 16.1503C14.4937 16.2477 14.4753 16.3273 14.4529 16.3273C14.4263 16.3273 14.4122 17.0058 14.4122 18.2744C14.4122 19.543 14.4263 20.2215 14.4529 20.2215C14.4797 20.2215 14.4937 21.2688 14.4937 23.2749C14.4937 25.281 14.5077 26.3283 14.5345 26.3283C14.5608 26.3283 14.5752 26.8298 14.5752 27.7444V29.1604H14.4529C14.3857 29.1604 14.3306 29.1405 14.3306 29.1162C14.3306 29.0918 14.2939 29.0719 14.2491 29.0719C14.2042 29.0719 14.1675 29.052 14.1675 29.0277C14.1675 29.0033 14.1309 28.9834 14.086 28.9834C14.0412 28.9834 14.0045 28.9635 14.0045 28.9392C14.0045 28.9148 13.9678 28.8949 13.9229 28.8949C13.8781 28.8949 13.8414 28.875 13.8414 28.8507C13.8414 28.8263 13.8047 28.8064 13.7599 28.8064C13.715 28.8064 13.6783 28.7865 13.6783 28.7621C13.6783 28.7378 13.6416 28.7179 13.5968 28.7179C13.5519 28.7179 13.5152 28.698 13.5152 28.6736C13.5152 28.6493 13.4785 28.6294 13.4337 28.6294C13.3889 28.6294 13.3522 28.6095 13.3522 28.5851C13.3522 28.5608 13.3155 28.5409 13.2706 28.5409C13.2258 28.5409 13.1891 28.521 13.1891 28.4966C13.1891 28.4723 13.1598 28.4524 13.1239 28.4524C13.0881 28.4524 13.0073 28.3926 12.9445 28.3196C12.8817 28.2466 12.8098 28.1869 12.7849 28.1869C12.7256 28.1869 12.0476 27.4509 12.0476 27.3866C12.0476 27.3595 11.9925 27.2815 11.9253 27.2133C11.858 27.1451 11.803 27.0575 11.803 27.0186C11.803 26.9796 11.7846 26.9478 11.7622 26.9478C11.7398 26.9478 11.7214 26.908 11.7214 26.8593C11.7214 26.8106 11.7031 26.7708 11.6806 26.7708C11.6582 26.7708 11.6399 26.731 11.6399 26.6823C11.6399 26.6336 11.6215 26.5938 11.5991 26.5938C11.5767 26.5938 11.5583 26.554 11.5583 26.5053C11.5583 26.4566 11.54 26.4168 11.5176 26.4168C11.4951 26.4168 11.4768 26.357 11.4768 26.284C11.4768 26.211 11.4585 26.1513 11.436 26.1513C11.4136 26.1513 11.3953 26.0915 11.3953 26.0185C11.3953 25.9455 11.3769 25.8858 11.3545 25.8858C11.3321 25.8858 11.3137 25.8061 11.3137 25.7088C11.3137 25.6114 11.2954 25.5317 11.273 25.5317C11.2461 25.5317 11.2322 24.2189 11.2322 21.6818C11.2322 19.1447 11.2183 17.8319 11.1914 17.8319C11.1659 17.8319 11.1506 17.5664 11.1506 17.1238C11.1506 16.6813 11.1659 16.4158 11.1914 16.4158C11.2141 16.4158 11.2322 16.2978 11.2322 16.1503C11.2322 16.0028 11.2503 15.8848 11.273 15.8848C11.2954 15.8848 11.3137 15.8051 11.3137 15.7078C11.3137 15.6104 11.3321 15.5308 11.3545 15.5308C11.3769 15.5308 11.3953 15.4909 11.3953 15.4423C11.3953 15.3936 11.4136 15.3538 11.436 15.3538C11.4585 15.3538 11.4768 15.294 11.4768 15.221C11.4768 15.148 11.4951 15.0883 11.5176 15.0883C11.54 15.0883 11.5583 15.0528 11.5583 15.0095C11.5583 14.9662 11.595 14.9021 11.6399 14.867C11.6847 14.8319 11.7214 14.7722 11.7214 14.7342C11.7214 14.6963 11.7581 14.6366 11.803 14.6015C11.8478 14.5664 11.8845 14.5102 11.8845 14.4767C11.8845 14.4432 11.9395 14.3599 12.0068 14.2917C12.0741 14.2235 12.1291 14.1453 12.1291 14.1179C12.1291 14.0536 12.4798 13.6722 12.5389 13.6722C12.5637 13.6722 12.6544 13.5925 12.7406 13.4952C12.8268 13.3978 12.9263 13.3182 12.9617 13.3182C12.9988 13.3182 13.026 13.2808 13.026 13.2297C13.026 13.181 13.0444 13.1412 13.0668 13.1412C13.0915 13.1412 13.1076 12.9494 13.1076 12.6544C13.1076 12.3594 13.0915 12.1676 13.0668 12.1676C13.0404 12.1676 13.026 11.6661 13.026 10.7515V9.33548H12.8629C12.7732 9.33548 12.6999 9.35539 12.6999 9.37973C12.6999 9.40407 12.6632 9.42399 12.6183 9.42399C12.5735 9.42399 12.5368 9.4439 12.5368 9.46824C12.5368 9.49258 12.5001 9.51249 12.4553 9.51249C12.4104 9.51249 12.3737 9.5324 12.3737 9.55674C12.3737 9.58108 12.3411 9.60099 12.3012 9.60099C12.2613 9.60099 12.2022 9.64082 12.1699 9.6895C12.1375 9.73818 12.0785 9.778 12.0386 9.778C11.9987 9.778 11.966 9.79792 11.966 9.82225C11.966 9.84659 11.9293 9.86651 11.8845 9.86651C11.8396 9.86651 11.803 9.88642 11.803 9.91076C11.803 9.9351 11.7663 9.95501 11.7214 9.95501C11.6766 9.95501 11.6399 9.97492 11.6399 9.99926C11.6399 10.0236 11.6032 10.0435 11.5583 10.0435C11.5135 10.0435 11.4768 10.0634 11.4768 10.0878C11.4768 10.1121 11.4401 10.132 11.3953 10.132C11.3504 10.132 11.3137 10.1519 11.3137 10.1763C11.3137 10.2006 11.277 10.2205 11.2322 10.2205C11.1873 10.2205 11.1506 10.2404 11.1506 10.2648C11.1506 10.2891 11.114 10.309 11.0691 10.309C11.0243 10.309 10.9876 10.3289 10.9876 10.3533C10.9876 10.3776 10.9509 10.3975 10.906 10.3975C10.8612 10.3975 10.8245 10.4174 10.8245 10.4418C10.8245 10.4661 10.7878 10.486 10.743 10.486C10.6981 10.486 10.6614 10.5059 10.6614 10.5303C10.6614 10.5546 10.6288 10.5745 10.5889 10.5745C10.549 10.5745 10.4899 10.6144 10.4576 10.663C10.4252 10.7117 10.3662 10.7515 10.3263 10.7515C10.2864 10.7515 10.2537 10.7715 10.2537 10.7958C10.2537 10.8201 10.2244 10.8401 10.1885 10.8401C10.1527 10.8401 10.0719 10.8998 10.0091 10.9728C9.9463 11.0458 9.87454 11.1056 9.84972 11.1056C9.79072 11.1056 8.70452 12.2846 8.70452 12.3486C8.70452 12.3756 8.64948 12.4534 8.58221 12.5216C8.51495 12.5898 8.45991 12.6775 8.45991 12.7164C8.45991 12.7553 8.44156 12.7871 8.41914 12.7871C8.39672 12.7871 8.37837 12.8226 8.37837 12.8659C8.37837 12.9092 8.34168 12.9733 8.29683 13.0084C8.25199 13.0435 8.21529 13.1076 8.21529 13.1509C8.21529 13.1942 8.19695 13.2297 8.17453 13.2297C8.1521 13.2297 8.13376 13.2695 8.13376 13.3182C8.13376 13.3668 8.11541 13.4067 8.09299 13.4067C8.07057 13.4067 8.05222 13.4664 8.05222 13.5394C8.05222 13.6124 8.03387 13.6722 8.01145 13.6722C7.98903 13.6722 7.97068 13.712 7.97068 13.7607C7.97068 13.8094 7.95234 13.8492 7.92991 13.8492C7.90749 13.8492 7.88914 13.9089 7.88914 13.982C7.88914 14.055 7.8708 14.1147 7.84838 14.1147C7.82595 14.1147 7.80761 14.1944 7.80761 14.2917C7.80761 14.3891 7.78926 14.4687 7.76684 14.4687C7.74356 14.4687 7.72607 14.6015 7.72607 14.7785C7.72607 14.9555 7.70858 15.0883 7.6853 15.0883C7.65982 15.0883 7.64453 15.3538 7.64453 15.7963C7.64453 16.2388 7.65982 16.5043 7.6853 16.5043C7.71225 16.5043 7.72607 18.2449 7.72607 21.6376C7.72607 25.0302 7.73989 26.7708 7.76684 26.7708C7.78926 26.7708 7.80761 26.8704 7.80761 26.9921C7.80761 27.1138 7.82595 27.2133 7.84838 27.2133C7.8708 27.2133 7.88914 27.293 7.88914 27.3903C7.88914 27.4877 7.90749 27.5673 7.92991 27.5673C7.95234 27.5673 7.97068 27.6271 7.97068 27.7001C7.97068 27.7731 7.98903 27.8329 8.01145 27.8329C8.03387 27.8329 8.05222 27.8727 8.05222 27.9214C8.05222 27.97 8.07057 28.0099 8.09299 28.0099C8.11541 28.0099 8.13376 28.0696 8.13376 28.1426C8.13376 28.2156 8.1521 28.2754 8.17453 28.2754C8.19695 28.2754 8.21529 28.3152 8.21529 28.3639C8.21529 28.4126 8.23364 28.4524 8.25606 28.4524C8.27849 28.4524 8.29683 28.4922 8.29683 28.5409C8.29683 28.5896 8.31518 28.6294 8.3376 28.6294C8.36002 28.6294 8.37837 28.6648 8.37837 28.7081C8.37837 28.7514 8.41506 28.8156 8.45991 28.8507C8.50475 28.8857 8.54145 28.9455 8.54145 28.9834C8.54145 29.0213 8.57814 29.0811 8.62298 29.1162C8.66783 29.1513 8.70452 29.211 8.70452 29.2489C8.70452 29.2868 8.74121 29.3466 8.78606 29.3817C8.8309 29.4168 8.8676 29.4712 8.8676 29.5027C8.8676 29.5723 9.62284 30.3995 9.68648 30.3995C9.71139 30.3995 9.78322 30.4592 9.84605 30.5322C9.90887 30.6052 9.9856 30.665 10.0165 30.665C10.0474 30.665 10.0991 30.7048 10.1314 30.7535C10.1638 30.8022 10.2228 30.842 10.2627 30.842C10.3026 30.842 10.3353 30.8619 10.3353 30.8862C10.3353 30.9106 10.372 30.9305 10.4168 30.9305C10.4617 30.9305 10.4983 30.9504 10.4983 30.9748C10.4983 30.9991 10.531 31.019 10.5709 31.019C10.6108 31.019 10.6699 31.0588 10.7022 31.1075C10.7345 31.1562 10.7936 31.196 10.8335 31.196C10.8734 31.196 10.906 31.2159 10.906 31.2403C10.906 31.2646 10.9427 31.2845 10.9876 31.2845C11.0324 31.2845 11.0691 31.3044 11.0691 31.3288C11.0691 31.3531 11.1058 31.373 11.1506 31.373C11.1955 31.373 11.2322 31.3929 11.2322 31.4173C11.2322 31.4416 11.2689 31.4615 11.3137 31.4615C11.3586 31.4615 11.3953 31.4814 11.3953 31.5058C11.3953 31.5301 11.432 31.55 11.4768 31.55C11.5216 31.55 11.5583 31.5699 11.5583 31.5943C11.5583 31.6186 11.595 31.6385 11.6399 31.6385C11.6847 31.6385 11.7214 31.6585 11.7214 31.6828C11.7214 31.7071 11.7581 31.727 11.803 31.727C11.8478 31.727 11.8845 31.747 11.8845 31.7713C11.8845 31.7956 11.9212 31.8155 11.966 31.8155C12.0109 31.8155 12.0476 31.8355 12.0476 31.8598C12.0476 31.8841 12.0843 31.904 12.1291 31.904C12.1739 31.904 12.2106 31.924 12.2106 31.9483C12.2106 31.9726 12.2473 31.9926 12.2922 31.9926C12.337 31.9926 12.3737 32.0125 12.3737 32.0368C12.3737 32.0611 12.4104 32.0811 12.4553 32.0811C12.5001 32.0811 12.5368 32.101 12.5368 32.1253C12.5368 32.1496 12.5735 32.1696 12.6183 32.1696C12.6632 32.1696 12.6999 32.1895 12.6999 32.2138C12.6999 32.2382 12.7366 32.2581 12.7814 32.2581C12.8262 32.2581 12.8629 32.278 12.8629 32.3023C12.8629 32.3267 12.8996 32.3466 12.9445 32.3466C12.9893 32.3466 13.026 32.3665 13.026 32.3908C13.026 32.4152 13.0627 32.4351 13.1076 32.4351C13.1524 32.4351 13.1891 32.455 13.1891 32.4793C13.1891 32.5037 13.2258 32.5236 13.2706 32.5236C13.3155 32.5236 13.3522 32.5435 13.3522 32.5678C13.3522 32.5922 13.3889 32.6121 13.4337 32.6121C13.4785 32.6121 13.5152 32.632 13.5152 32.6563C13.5152 32.6807 13.5519 32.7006 13.5968 32.7006C13.6416 32.7006 13.6783 32.7205 13.6783 32.7448C13.6783 32.7692 13.715 32.7891 13.7599 32.7891C13.8047 32.7891 13.8414 32.809 13.8414 32.8333C13.8414 32.8577 13.8781 32.8776 13.9229 32.8776C13.9678 32.8776 14.0045 32.8975 14.0045 32.9218C14.0045 32.9462 14.0412 32.9661 14.086 32.9661C14.1309 32.9661 14.1675 32.986 14.1675 33.0104C14.1675 33.0347 14.2042 33.0546 14.2491 33.0546C14.2939 33.0546 14.3306 33.0745 14.3306 33.0989C14.3306 33.1232 14.3673 33.1431 14.4122 33.1431C14.457 33.1431 14.4937 33.163 14.4937 33.1874C14.4937 33.2117 14.5304 33.2316 14.5752 33.2316C14.6201 33.2316 14.6568 33.2515 14.6568 33.2759C14.6568 33.3002 14.6935 33.3201 14.7383 33.3201C14.7832 33.3201 14.8198 33.34 14.8198 33.3644C14.8198 33.3887 14.8565 33.4086 14.9014 33.4086C14.9462 33.4086 14.9829 33.4285 14.9829 33.4529C14.9829 33.4772 15.0196 33.4971 15.0645 33.4971C15.1093 33.4971 15.146 33.517 15.146 33.5414C15.146 33.5657 15.1786 33.5856 15.2185 33.5856C15.2584 33.5856 15.3175 33.6255 15.3498 33.6741C15.3822 33.7228 15.4412 33.7626 15.4812 33.7626C15.521 33.7626 15.5537 33.7825 15.5537 33.8069C15.5537 33.8312 15.5904 33.8511 15.6352 33.8511C15.6801 33.8511 15.7168 33.8711 15.7168 33.8954C15.7168 33.9197 15.7534 33.9396 15.7983 33.9396C15.8431 33.9396 15.8798 33.9596 15.8798 33.9839C15.8798 34.0082 15.9165 34.0281 15.9614 34.0281C16.0062 34.0281 16.0429 34.0481 16.0429 34.0724C16.0429 34.0967 16.0756 34.1167 16.1154 34.1167C16.1553 34.1167 16.2144 34.1565 16.2468 34.2052C16.2791 34.2538 16.3382 34.2937 16.3781 34.2937C16.4179 34.2937 16.4506 34.3136 16.4506 34.3379C16.4506 34.3623 16.4873 34.3822 16.5321 34.3822C16.577 34.3822 16.6137 34.4021 16.6137 34.4264C16.6137 34.4508 16.6504 34.4707 16.6952 34.4707C16.7401 34.4707 16.7767 34.4906 16.7767 34.5149C16.7767 34.5393 16.8094 34.5592 16.8493 34.5592C16.8892 34.5592 16.9483 34.599 16.9806 34.6477C17.0129 34.6964 17.072 34.7362 17.1119 34.7362C17.1518 34.7362 17.1844 34.7561 17.1844 34.7804C17.1844 34.8048 17.2211 34.8247 17.266 34.8247C17.3108 34.8247 17.3475 34.8446 17.3475 34.8689C17.3475 34.8933 17.3842 34.9132 17.429 34.9132C17.4739 34.9132 17.5106 34.9331 17.5106 34.9574C17.5106 34.9818 17.5473 35.0017 17.5921 35.0017C17.637 35.0017 17.6737 35.0216 17.6737 35.0459C17.6737 35.0703 17.7063 35.0902 17.7462 35.0902C17.7861 35.0902 17.8452 35.13 17.8775 35.1787C17.9098 35.2274 17.9689 35.2672 18.0088 35.2672C18.0487 35.2672 18.0813 35.2871 18.0813 35.3115C18.0813 35.3358 18.118 35.3557 18.1629 35.3557C18.2077 35.3557 18.2444 35.3756 18.2444 35.4C18.2444 35.4243 18.2811 35.4442 18.326 35.4442C18.3708 35.4442 18.4075 35.4641 18.4075 35.4885C18.4075 35.5128 18.4402 35.5327 18.48 35.5327C18.5199 35.5327 18.579 35.5725 18.6113 35.6212C18.6437 35.6699 18.7027 35.7097 18.7427 35.7097C18.7825 35.7097 18.8152 35.7296 18.8152 35.754C18.8152 35.7783 18.8519 35.7982 18.8967 35.7982C18.9416 35.7982 18.9783 35.8181 18.9783 35.8425C18.9783 35.8668 19.015 35.8867 19.0598 35.8867C19.1046 35.8867 19.1413 35.9067 19.1413 35.931C19.1413 35.9553 19.178 35.9752 19.2229 35.9752C19.2677 35.9752 19.3044 35.9952 19.3044 36.0195C19.3044 36.0438 19.3371 36.0637 19.3769 36.0637C19.4169 36.0637 19.4759 36.1036 19.5083 36.1522C19.5406 36.2009 19.5997 36.2408 19.6396 36.2408C19.6794 36.2408 19.7121 36.2607 19.7121 36.285C19.7121 36.3093 19.7671 36.3293 19.8344 36.3293C19.9017 36.3293 19.9567 36.3492 19.9567 36.3735C19.9567 36.3978 19.9934 36.4178 20.0383 36.4178C20.0831 36.4178 20.1198 36.4377 20.1198 36.462C20.1198 36.4864 20.1748 36.5063 20.2421 36.5063C20.3094 36.5063 20.3644 36.5262 20.3644 36.5505C20.3644 36.5749 20.4194 36.5948 20.4867 36.5948C20.554 36.5948 20.609 36.6147 20.609 36.639C20.609 36.6634 20.6641 36.6833 20.7313 36.6833C20.7986 36.6833 20.8536 36.7032 20.8536 36.7275C20.8536 36.7519 20.927 36.7718 21.0167 36.7718C21.1064 36.7718 21.1798 36.7917 21.1798 36.816C21.1798 36.8406 21.2885 36.8603 21.4244 36.8603C21.5603 36.8603 21.669 36.8799 21.669 36.9045C21.669 36.9328 22.0223 36.9488 22.6475 36.9488C23.2726 36.9488 23.6259 36.9328 23.6259 36.9045C23.6259 36.8802 23.7176 36.8603 23.8298 36.8603C23.9419 36.8603 24.0336 36.8404 24.0336 36.816C24.0336 36.7917 24.107 36.7718 24.1967 36.7718C24.2864 36.7718 24.3597 36.7519 24.3597 36.7275C24.3597 36.7032 24.4148 36.6833 24.4821 36.6833C24.5493 36.6833 24.6044 36.6634 24.6044 36.639C24.6044 36.6147 24.6594 36.5948 24.7267 36.5948C24.7939 36.5948 24.849 36.5749 24.849 36.5505C24.849 36.5262 24.8857 36.5063 24.9305 36.5063C24.9754 36.5063 25.012 36.4864 25.012 36.462C25.012 36.4377 25.0487 36.4178 25.0936 36.4178C25.1384 36.4178 25.1751 36.3978 25.1751 36.3735C25.1751 36.3492 25.2118 36.3293 25.2567 36.3293C25.3015 36.3293 25.3382 36.3093 25.3382 36.285C25.3382 36.2607 25.3749 36.2408 25.4197 36.2408C25.4646 36.2408 25.5013 36.2208 25.5013 36.1965C25.5013 36.1722 25.538 36.1522 25.5828 36.1522C25.6277 36.1522 25.6643 36.1323 25.6643 36.108C25.6643 36.0837 25.701 36.0637 25.7459 36.0637C25.7907 36.0637 25.8274 36.0438 25.8274 36.0195C25.8274 35.9952 25.8601 35.9752 25.9 35.9752C25.9399 35.9752 25.9989 35.9354 26.0313 35.8867C26.0636 35.8381 26.1227 35.7982 26.1626 35.7982C26.2025 35.7982 26.2351 35.7783 26.2351 35.754C26.2351 35.7296 26.2718 35.7097 26.3166 35.7097C26.3615 35.7097 26.3982 35.6898 26.3982 35.6655C26.3982 35.6411 26.4349 35.6212 26.4797 35.6212C26.5246 35.6212 26.5613 35.6013 26.5613 35.577C26.5613 35.5526 26.5939 35.5327 26.6338 35.5327C26.6737 35.5327 26.7328 35.4929 26.7651 35.4442C26.7974 35.3955 26.8565 35.3557 26.8964 35.3557C26.9363 35.3557 26.969 35.3358 26.969 35.3115C26.969 35.2871 27.0056 35.2672 27.0505 35.2672C27.0953 35.2672 27.132 35.2473 27.132 35.223C27.132 35.1986 27.1687 35.1787 27.2136 35.1787C27.2584 35.1787 27.2951 35.1588 27.2951 35.1345C27.2951 35.1101 27.3278 35.0902 27.3676 35.0902C27.4075 35.0902 27.4666 35.0504 27.4989 35.0017C27.5313 34.953 27.5903 34.9132 27.6303 34.9132C27.6701 34.9132 27.7028 34.8933 27.7028 34.8689C27.7028 34.8446 27.7395 34.8247 27.7843 34.8247C27.8292 34.8247 27.8659 34.8048 27.8659 34.7804C27.8659 34.7561 27.9026 34.7362 27.9474 34.7362C27.9922 34.7362 28.0289 34.7163 28.0289 34.6919C28.0289 34.6676 28.0616 34.6477 28.1015 34.6477C28.1414 34.6477 28.2005 34.6079 28.2328 34.5592C28.2651 34.5105 28.3242 34.4707 28.3641 34.4707C28.404 34.4707 28.4366 34.4508 28.4366 34.4264C28.4366 34.4021 28.4733 34.3822 28.5182 34.3822C28.563 34.3822 28.5997 34.3623 28.5997 34.3379C28.5997 34.3136 28.6364 34.2937 28.6812 34.2937C28.7261 34.2937 28.7628 34.2737 28.7628 34.2494C28.7628 34.2251 28.7954 34.2052 28.8353 34.2052C28.8752 34.2052 28.9343 34.1653 28.9666 34.1167C28.999 34.068 29.058 34.0281 29.0979 34.0281C29.1378 34.0281 29.1705 34.0082 29.1705 33.9839C29.1705 33.9596 29.2072 33.9396 29.252 33.9396C29.2968 33.9396 29.3335 33.9197 29.3335 33.8954C29.3335 33.8711 29.3702 33.8511 29.4151 33.8511C29.4599 33.8511 29.4966 33.8312 29.4966 33.8069C29.4966 33.7825 29.5293 33.7626 29.5691 33.7626C29.6091 33.7626 29.6681 33.7228 29.7005 33.6741C29.7328 33.6255 29.7919 33.5856 29.8318 33.5856C29.8716 33.5856 29.9043 33.5657 29.9043 33.5414C29.9043 33.517 29.941 33.4971 29.9858 33.4971C30.0307 33.4971 30.0674 33.4772 30.0674 33.4529C30.0674 33.4285 30.1041 33.4086 30.1489 33.4086C30.1938 33.4086 30.2305 33.3887 30.2305 33.3644C30.2305 33.34 30.2671 33.3201 30.312 33.3201C30.3568 33.3201 30.3935 33.3002 30.3935 33.2759C30.3935 33.2515 30.4302 33.2316 30.4751 33.2316C30.5199 33.2316 30.5566 33.2117 30.5566 33.1874C30.5566 33.163 30.5933 33.1431 30.6381 33.1431C30.683 33.1431 30.7197 33.1232 30.7197 33.0989C30.7197 33.0745 30.7564 33.0546 30.8012 33.0546C30.8461 33.0546 30.8828 33.0347 30.8828 33.0104C30.8828 32.986 30.9195 32.9661 30.9643 32.9661C31.0091 32.9661 31.0458 32.9462 31.0458 32.9218C31.0458 32.8975 31.0825 32.8776 31.1274 32.8776C31.1722 32.8776 31.2089 32.8577 31.2089 32.8333C31.2089 32.809 31.2456 32.7891 31.2904 32.7891C31.3353 32.7891 31.372 32.7692 31.372 32.7448C31.372 32.7205 31.4087 32.7006 31.4535 32.7006C31.4984 32.7006 31.5351 32.6807 31.5351 32.6563C31.5351 32.632 31.5718 32.6121 31.6166 32.6121C31.6614 32.6121 31.6981 32.5922 31.6981 32.5678C31.6981 32.5435 31.7308 32.5236 31.7707 32.5236C31.8106 32.5236 31.8696 32.4837 31.902 32.4351C31.9343 32.3864 31.9934 32.3466 32.0333 32.3466C32.0732 32.3466 32.1058 32.3267 32.1058 32.3023C32.1058 32.278 32.1425 32.2581 32.1874 32.2581C32.2322 32.2581 32.2689 32.2382 32.2689 32.2138C32.2689 32.1895 32.3056 32.1696 32.3504 32.1696C32.3953 32.1696 32.432 32.1496 32.432 32.1253C32.432 32.101 32.4687 32.0811 32.5135 32.0811C32.5584 32.0811 32.595 32.0611 32.595 32.0368C32.595 32.0125 32.6317 31.9926 32.6766 31.9926C32.7214 31.9926 32.7581 31.9726 32.7581 31.9483C32.7581 31.924 32.7948 31.904 32.8397 31.904C32.8845 31.904 32.9212 31.8841 32.9212 31.8598C32.9212 31.8355 32.9579 31.8155 33.0027 31.8155C33.0476 31.8155 33.0843 31.7956 33.0843 31.7713C33.0843 31.747 33.121 31.727 33.1658 31.727C33.2107 31.727 33.2473 31.7071 33.2473 31.6828C33.2473 31.6585 33.284 31.6385 33.3289 31.6385C33.3737 31.6385 33.4104 31.6186 33.4104 31.5943C33.4104 31.5699 33.4471 31.55 33.492 31.55C33.5368 31.55 33.5735 31.5301 33.5735 31.5058C33.5735 31.4814 33.6102 31.4615 33.655 31.4615C33.6999 31.4615 33.7366 31.4416 33.7366 31.4173C33.7366 31.3929 33.7733 31.373 33.8181 31.373C33.863 31.373 33.8996 31.3531 33.8996 31.3288C33.8996 31.3044 33.9363 31.2845 33.9812 31.2845C34.026 31.2845 34.0627 31.2646 34.0627 31.2403C34.0627 31.2159 34.0994 31.196 34.1443 31.196C34.1891 31.196 34.2258 31.1761 34.2258 31.1518C34.2258 31.1274 34.2585 31.1075 34.2983 31.1075C34.3382 31.1075 34.3973 31.0677 34.4296 31.019C34.462 30.9703 34.521 30.9305 34.561 30.9305C34.6008 30.9305 34.6335 30.9106 34.6335 30.8862C34.6335 30.8619 34.6661 30.842 34.706 30.842C34.7459 30.842 34.805 30.8022 34.8373 30.7535C34.8697 30.7048 34.9214 30.665 34.9523 30.665C34.9832 30.665 35.0599 30.6052 35.1227 30.5322C35.1855 30.4592 35.2573 30.3995 35.2822 30.3995C35.3412 30.3995 36.2642 29.3976 36.2642 29.3335C36.2642 29.3065 36.3193 29.2286 36.3865 29.1604C36.4538 29.0922 36.5089 29.0089 36.5089 28.9754C36.5089 28.9419 36.5455 28.8857 36.5904 28.8507C36.6352 28.8156 36.6719 28.7514 36.6719 28.7081C36.6719 28.6648 36.6903 28.6294 36.7127 28.6294C36.7351 28.6294 36.7535 28.5896 36.7535 28.5409C36.7535 28.4922 36.7718 28.4524 36.7942 28.4524C36.8167 28.4524 36.835 28.4126 36.835 28.3639C36.835 28.3152 36.8534 28.2754 36.8758 28.2754C36.8982 28.2754 36.9165 28.2355 36.9165 28.1869C36.9165 28.1382 36.9349 28.0984 36.9573 28.0984C36.9797 28.0984 36.9981 28.0585 36.9981 28.0099C36.9981 27.9612 37.0164 27.9214 37.0388 27.9214C37.0613 27.9214 37.0796 27.8616 37.0796 27.7886C37.0796 27.7156 37.098 27.6558 37.1204 27.6558C37.1428 27.6558 37.1612 27.5961 37.1612 27.5231C37.1612 27.4501 37.1795 27.3903 37.2019 27.3903C37.2243 27.3903 37.2427 27.3107 37.2427 27.2133C37.2427 27.116 37.261 27.0363 37.2835 27.0363C37.3102 27.0363 37.3242 26.107 37.3242 24.3369C37.3242 22.5669 37.3102 21.6376 37.2835 21.6376C37.2574 21.6376 37.2427 21.254 37.2427 20.5755C37.2427 19.897 37.2574 19.5135 37.2835 19.5135C37.3101 19.5135 37.3242 18.7169 37.3242 17.2124C37.3242 15.7078 37.3101 14.9112 37.2835 14.9112C37.261 14.9112 37.2427 14.8117 37.2427 14.69C37.2427 14.5683 37.2243 14.4687 37.2019 14.4687C37.1795 14.4687 37.1612 14.3891 37.1612 14.2917C37.1612 14.1944 37.1428 14.1147 37.1204 14.1147C37.098 14.1147 37.0796 14.055 37.0796 13.982C37.0796 13.9089 37.0613 13.8492 37.0388 13.8492C37.0164 13.8492 36.9981 13.7895 36.9981 13.7164C36.9981 13.6434 36.9797 13.5837 36.9573 13.5837C36.9349 13.5837 36.9165 13.5439 36.9165 13.4952C36.9165 13.4465 36.8982 13.4067 36.8758 13.4067C36.8534 13.4067 36.835 13.3668 36.835 13.3182C36.835 13.2695 36.8167 13.2297 36.7942 13.2297C36.7718 13.2297 36.7535 13.1898 36.7535 13.1412C36.7535 13.0925 36.7351 13.0527 36.7127 13.0527C36.6903 13.0527 36.6719 13.0128 36.6719 12.9642C36.6719 12.9155 36.6536 12.8756 36.6312 12.8756C36.6087 12.8756 36.5904 12.8358 36.5904 12.7871C36.5904 12.7385 36.572 12.6986 36.5496 12.6986C36.5272 12.6986 36.5089 12.6632 36.5089 12.6199C36.5089 12.5766 36.4722 12.5125 36.4273 12.4774C36.3825 12.4423 36.3458 12.3861 36.3458 12.3526C36.3458 12.3191 36.2907 12.2358 36.2235 12.1676C36.1562 12.0994 36.1012 12.0214 36.1012 11.9943C36.1012 11.9305 35.505 11.2826 35.4463 11.2826C35.4218 11.2826 35.3312 11.2029 35.245 11.1056C35.1588 11.0082 35.0634 10.9286 35.033 10.9286C35.0025 10.9286 34.9512 10.8887 34.9189 10.8401C34.8865 10.7914 34.8275 10.7515 34.7876 10.7515C34.7477 10.7515 34.715 10.7316 34.715 10.7073C34.715 10.683 34.6783 10.663 34.6335 10.663C34.5886 10.663 34.552 10.6431 34.552 10.6188C34.552 10.5945 34.5153 10.5745 34.4704 10.5745C34.4256 10.5745 34.3889 10.5546 34.3889 10.5303C34.3889 10.5059 34.3522 10.486 34.3073 10.486C34.2625 10.486 34.2258 10.4661 34.2258 10.4418C34.2258 10.4174 34.1891 10.3975 34.1443 10.3975C34.0994 10.3975 34.0627 10.3776 34.0627 10.3533C34.0627 10.3289 34.0301 10.309 33.9902 10.309C33.9503 10.309 33.8912 10.2692 33.8589 10.2205C33.8266 10.1718 33.7675 10.132 33.7276 10.132C33.6877 10.132 33.655 10.1121 33.655 10.0878C33.655 10.0634 33.6183 10.0435 33.5735 10.0435C33.5287 10.0435 33.492 10.0236 33.492 9.99926C33.492 9.97492 33.4553 9.95501 33.4104 9.95501C33.3656 9.95501 33.3289 9.9351 33.3289 9.91076C33.3289 9.88642 33.2922 9.86651 33.2473 9.86651C33.2025 9.86651 33.1658 9.84659 33.1658 9.82225C33.1658 9.79792 33.1291 9.778 33.0843 9.778C33.0394 9.778 33.0027 9.75809 33.0027 9.73375C33.0027 9.70941 32.966 9.6895 32.9212 9.6895C32.8764 9.6895 32.8397 9.66958 32.8397 9.64525C32.8397 9.62091 32.803 9.60099 32.7581 9.60099C32.7133 9.60099 32.6766 9.58108 32.6766 9.55674C32.6766 9.5324 32.6399 9.51249 32.595 9.51249C32.5502 9.51249 32.5135 9.49258 32.5135 9.46824C32.5135 9.4439 32.4768 9.42399 32.432 9.42399C32.3871 9.42399 32.3504 9.40407 32.3504 9.37973C32.3504 9.35539 32.3137 9.33548 32.2689 9.33548C32.2241 9.33548 32.1874 9.31557 32.1874 9.29123C32.1874 9.22556 32.0524 9.24083 31.9937 9.31318Z" fill="url(#paint0_linear_1025_873)"/>
<defs>
<linearGradient id="paint0_linear_1025_873" x1="22.6292" y1="9.20279" x2="22.6292" y2="30.5705" gradientUnits="userSpaceOnUse">
<stop stop-color="#008AD0"/>
<stop offset="1" stop-color="#641873"/>
</linearGradient>
</defs>
</svg>
