<svg width="120" height="30" viewBox="0 0 120 30" fill="none" xmlns="http://www.w3.org/2000/svg">
<path d="M39.4472 15.6804L39.855 13.5399C39.855 13.5399 36.7143 12.5996 34.1582 14.3434V22.9062H36.8726V15.9493C37.9543 15.1458 39.4472 15.6804 39.4472 15.6804" fill="white"/>
<mask id="mask0_3764_12417" style="mask-type:luminance" maskUnits="userSpaceOnUse" x="34" y="13" width="6" height="10">
<path fill-rule="evenodd" clip-rule="evenodd" d="M34.1582 14.3434C35.3881 13.5046 36.7533 13.2868 37.8389 13.287C39.0096 13.287 39.8552 13.5401 39.8552 13.5401L39.4472 15.6806C39.4472 15.6806 37.9543 15.146 36.8726 15.9493V22.9062H34.1582V14.3434Z" fill="white"/>
</mask>
<g mask="url(#mask0_3764_12417)">
<path d="M-131.078 49.4473L251.181 49.4473L251.181 -449.756H-131.078L-131.078 49.4473Z" fill="white"/>
</g>
<mask id="mask1_3764_12417" style="mask-type:luminance" maskUnits="userSpaceOnUse" x="34" y="13" width="6" height="10">
<path fill-rule="evenodd" clip-rule="evenodd" d="M34.1582 14.3434C35.3881 13.5046 36.7531 13.287 37.8389 13.287C39.0096 13.287 39.8552 13.5401 39.8552 13.5401L39.4472 15.6806C39.4472 15.6806 37.9543 15.146 36.8726 15.9493V22.9062H34.1582V14.3434Z" fill="white"/>
</mask>
<g mask="url(#mask1_3764_12417)">
<path d="M29.6084 27.0996H44.4067V9.09022H29.6084V27.0996Z" fill="white"/>
</g>
<path d="M16.0469 11.0994L18.76 10.6282V13.4131H21.4448V15.6402H18.76V18.9615C18.76 19.5273 18.8593 19.9764 19.0622 20.3086C19.2629 20.6458 19.6652 20.813 20.2694 20.813C20.5649 20.813 20.8616 20.7868 21.1746 20.7314C21.4787 20.6751 21.7623 20.6027 22.0175 20.5079L22.4014 22.594C22.073 22.7239 21.71 22.8367 21.3098 22.9322C20.9083 23.0268 20.4154 23.0762 19.833 23.0762C19.0927 23.0762 18.4809 22.9767 17.9944 22.7793C17.5103 22.5819 17.1211 22.305 16.831 21.9516C16.5408 21.6013 16.3368 21.1714 16.2223 20.668C16.1057 20.1656 16.0469 19.6108 16.0469 18.9988V11.0994Z" fill="white"/>
<mask id="mask2_3764_12417" style="mask-type:luminance" maskUnits="userSpaceOnUse" x="16" y="10" width="7" height="14">
<path fill-rule="evenodd" clip-rule="evenodd" d="M16.0469 11.0994L18.76 10.6282V13.4131H21.4448V15.6402H18.76V18.9615C18.76 19.5275 18.8593 19.9764 19.0621 20.3086C19.2627 20.646 19.665 20.813 20.2692 20.813C20.5647 20.813 20.8612 20.7868 21.1744 20.7314C21.4785 20.6751 21.7623 20.6027 22.0175 20.5081L22.4012 22.594C22.073 22.7241 21.7098 22.8368 21.3096 22.9324C20.9082 23.027 20.4153 23.0762 19.8329 23.0762C19.0924 23.0762 18.4807 22.9767 17.9944 22.7793C17.5101 22.5819 17.1208 22.305 16.8308 21.9518C16.5407 21.6013 16.3368 21.1714 16.2223 20.668C16.1055 20.1656 16.0469 19.6109 16.0469 18.9988V11.0994Z" fill="white"/>
</mask>
<g mask="url(#mask2_3764_12417)">
<path d="M-131.075 49.4473L251.184 49.4473L251.184 -449.756H-131.075L-131.075 49.4473Z" fill="white"/>
</g>
<mask id="mask3_3764_12417" style="mask-type:luminance" maskUnits="userSpaceOnUse" x="16" y="10" width="7" height="14">
<path fill-rule="evenodd" clip-rule="evenodd" d="M16.0469 11.0994L18.76 10.6282V13.4131H21.4448V15.6402H18.76V18.9615C18.76 19.5275 18.8593 19.9764 19.0621 20.3086C19.2627 20.646 19.665 20.813 20.2692 20.813C20.5647 20.813 20.8612 20.7868 21.1744 20.7314C21.4785 20.6751 21.7623 20.6027 22.0175 20.5081L22.4012 22.594C22.073 22.7241 21.7098 22.8368 21.3096 22.9324C20.9082 23.027 20.4153 23.0762 19.8329 23.0762C19.0924 23.0762 18.4807 22.9767 17.9944 22.7793C17.5101 22.5819 17.1208 22.305 16.8308 21.9518C16.5407 21.6013 16.3368 21.1714 16.2223 20.668C16.1055 20.1656 16.0469 19.6109 16.0469 18.9988V11.0994Z" fill="white"/>
</mask>
<g mask="url(#mask3_3764_12417)">
<path d="M11.4941 27.2695H26.95V6.43146H11.4941L11.4941 27.2695Z" fill="white"/>
</g>
<path d="M43.8746 20.9876C44.3708 20.9876 44.7219 20.9372 44.9304 20.8426C45.1374 20.747 45.2377 20.5597 45.2377 20.2859C45.2377 20.0694 45.1069 19.8812 44.8386 19.7211C44.5704 19.558 44.1668 19.3768 43.6195 19.1703C43.1952 19.0143 42.8092 18.8534 42.4613 18.6872C42.1178 18.5181 41.8234 18.3207 41.5802 18.0861C41.3379 17.8526 41.1504 17.5726 41.0152 17.2465C40.8799 16.9262 40.8158 16.5387 40.8158 16.0815C40.8158 15.1965 41.1504 14.4947 41.8168 13.9803C42.4841 13.4679 43.3981 13.2061 44.5649 13.2061C45.1484 13.2061 45.7067 13.2574 46.2411 13.3612C46.7744 13.4618 47.2008 13.5767 47.5136 13.6924L47.0415 15.7763C46.7253 15.6687 46.3818 15.5741 46.0121 15.4916C45.6423 15.4071 45.2258 15.3627 44.7655 15.3627C43.916 15.3627 43.4907 15.5983 43.4907 16.0644C43.4907 16.1721 43.5093 16.2678 43.5463 16.3513C43.5834 16.4359 43.6555 16.5165 43.7624 16.5939C43.8746 16.6706 44.0208 16.757 44.2104 16.8457C44.399 16.9393 44.639 17.0359 44.9304 17.1457C45.5224 17.3631 46.0142 17.5746 46.4025 17.7881C46.7917 18.0015 47.0971 18.2261 47.3229 18.4756C47.5475 18.7194 47.7068 18.9893 47.7961 19.2891C47.8857 19.5883 47.9324 19.9335 47.9324 20.3273C47.9324 21.2605 47.5769 21.9662 46.8692 22.4434C46.1581 22.9187 45.1526 23.1582 43.8538 23.1582C43.0054 23.1582 42.2987 23.0888 41.7349 22.9429C41.169 22.8009 40.7786 22.6782 40.5605 22.5834L41.0152 20.4107C41.4744 20.59 41.9521 20.7288 42.4341 20.8337C42.9226 20.9364 43.3981 20.9876 43.8746 20.9876" fill="white"/>
<mask id="mask4_3764_12417" style="mask-type:luminance" maskUnits="userSpaceOnUse" x="40" y="13" width="8" height="11">
<path fill-rule="evenodd" clip-rule="evenodd" d="M41.8168 13.9804C42.4843 13.4679 43.3981 13.2061 44.5649 13.2061C45.1485 13.2061 45.7069 13.2574 46.2412 13.3612C46.7744 13.4618 47.2008 13.5765 47.5138 13.6924L47.0416 15.7763C46.7253 15.6687 46.382 15.5741 46.0121 15.4916C45.6425 15.4069 45.2258 15.3628 44.7657 15.3628C43.916 15.3628 43.4908 15.5981 43.4908 16.0644C43.4908 16.1721 43.5093 16.2678 43.5463 16.3513C43.5835 16.4359 43.6557 16.5165 43.7626 16.5939C43.8746 16.6706 44.021 16.757 44.2106 16.8457C44.3992 16.9391 44.639 17.036 44.9304 17.1457C45.5225 17.3631 46.0144 17.5746 46.4025 17.7881C46.7919 18.0015 47.0973 18.226 47.3231 18.4756C47.5477 18.7194 47.7068 18.9891 47.7963 19.2891C47.8858 19.5883 47.9324 19.9335 47.9324 20.3273C47.9324 21.2605 47.5769 21.9663 46.8694 22.4434C46.1583 22.9187 45.1528 23.1582 43.854 23.1582C43.0056 23.1582 42.2989 23.0888 41.7351 22.9429C41.169 22.8009 40.7787 22.6782 40.5605 22.5834L41.0153 20.4107C41.4746 20.5901 41.9521 20.7288 42.4341 20.8337C42.9226 20.9362 43.3981 20.9876 43.8746 20.9876C44.3708 20.9876 44.7221 20.9373 44.9304 20.8426C45.1376 20.747 45.2379 20.5597 45.2379 20.2859C45.2379 20.0694 45.1071 19.8812 44.8387 19.7211C44.5704 19.558 44.1668 19.3768 43.6195 19.1703C43.1952 19.0143 42.8094 18.8534 42.4613 18.6872C42.118 18.5181 41.8234 18.3207 41.5804 18.0861C41.3381 17.8525 41.1506 17.5726 41.0153 17.2465C40.8801 16.9261 40.8158 16.5387 40.8158 16.0815C40.8158 15.1966 41.1506 14.4949 41.8168 13.9804Z" fill="white"/>
</mask>
<g mask="url(#mask4_3764_12417)">
<path d="M-131.075 49.4473L251.184 49.4473L251.184 -449.756H-131.075L-131.075 49.4473Z" fill="white"/>
</g>
<mask id="mask5_3764_12417" style="mask-type:luminance" maskUnits="userSpaceOnUse" x="40" y="13" width="8" height="11">
<path fill-rule="evenodd" clip-rule="evenodd" d="M41.8168 13.9804C42.4843 13.4679 43.3981 13.2061 44.5649 13.2061C45.1485 13.2061 45.7069 13.2574 46.2412 13.3612C46.7744 13.4618 47.2008 13.5765 47.5138 13.6924L47.0416 15.7763C46.7253 15.6687 46.382 15.5741 46.0121 15.4916C45.6425 15.4069 45.2258 15.3628 44.7657 15.3628C43.916 15.3628 43.4908 15.5981 43.4908 16.0644C43.4908 16.1721 43.5093 16.2678 43.5463 16.3513C43.5835 16.4359 43.6557 16.5165 43.7626 16.5939C43.8746 16.6706 44.021 16.757 44.2106 16.8457C44.3992 16.9391 44.639 17.036 44.9304 17.1457C45.5225 17.3631 46.0144 17.5746 46.4025 17.7881C46.7919 18.0015 47.0973 18.226 47.3231 18.4756C47.5477 18.7194 47.7068 18.9891 47.7963 19.2891C47.8858 19.5883 47.9324 19.9335 47.9324 20.3273C47.9324 21.2605 47.5769 21.9663 46.8694 22.4434C46.1583 22.9187 45.1528 23.1582 43.854 23.1582C43.0056 23.1582 42.2989 23.0888 41.7351 22.9429C41.169 22.8009 40.7787 22.6782 40.5605 22.5834L41.0153 20.4107C41.4746 20.5901 41.9521 20.7288 42.4341 20.8337C42.9226 20.9362 43.3981 20.9876 43.8746 20.9876C44.3708 20.9876 44.7221 20.9373 44.9304 20.8426C45.1376 20.747 45.2379 20.5597 45.2379 20.2859C45.2379 20.0694 45.1071 19.8812 44.8387 19.7211C44.5704 19.558 44.1668 19.3768 43.6195 19.1703C43.1952 19.0143 42.8094 18.8534 42.4613 18.6872C42.118 18.5181 41.8234 18.3207 41.5804 18.0861C41.3381 17.8525 41.1506 17.5726 41.0153 17.2465C40.8801 16.9261 40.8158 16.5387 40.8158 16.0815C40.8158 15.1966 41.1506 14.4949 41.8168 13.9804Z" fill="white"/>
</mask>
<g mask="url(#mask5_3764_12417)">
<path d="M36.0107 27.3535H52.4842V9.01132H36.0107V27.3535Z" fill="white"/>
</g>
<path d="M56.2961 17.4845C56.0529 18.3947 55.7966 19.3008 55.523 20.1968C55.2502 21.0959 54.9601 22.0001 54.6603 22.9102H52.548C52.3288 22.4068 52.09 21.8088 51.8348 21.115C51.5773 20.4184 51.3146 19.6622 51.0386 18.8398C50.7659 18.02 50.4869 17.1523 50.201 16.2341C49.9142 15.32 49.6362 14.3957 49.3701 13.4603H52.2295C52.3243 13.8902 52.4323 14.3625 52.5489 14.8708C52.6646 15.3802 52.7868 15.9049 52.9144 16.4445C53.042 16.9822 53.1783 17.5227 53.3178 18.0684C53.4585 18.6141 53.6026 19.1366 53.7484 19.6392C53.9067 19.1126 54.0616 18.5749 54.2132 18.0241C54.3626 17.4726 54.5099 16.9308 54.6504 16.3983C54.789 15.8666 54.9253 15.3502 55.0495 14.8528C55.1761 14.3563 55.2885 13.8902 55.3877 13.4603H57.3517C57.452 13.8902 57.5577 14.3563 57.6808 14.8528C57.8008 15.3502 57.9286 15.8666 58.0638 16.3983C58.1947 16.9308 58.3375 17.4726 58.4804 18.0241C58.6275 18.5749 58.7781 19.1126 58.9341 19.6392C59.0812 19.1366 59.2274 18.6141 59.3745 18.0684C59.5218 17.5227 59.6602 16.9822 59.7868 16.4445C59.9133 15.9049 60.0355 15.3802 60.1533 14.8708C60.2699 14.3625 60.3758 13.8902 60.4727 13.4603H63.2951C63.0269 14.3957 62.7509 15.32 62.4641 16.2341C62.1751 17.1523 61.8991 18.02 61.6233 18.8398C61.3516 19.6622 61.0835 20.4184 60.8227 21.115C60.5601 21.8088 60.3178 22.4068 60.1021 22.9102H57.9898C57.6842 22.0001 57.3877 21.0959 57.0954 20.1968C56.8042 19.3008 56.5403 18.3947 56.2961 17.4845" fill="white"/>
<mask id="mask6_3764_12417" style="mask-type:luminance" maskUnits="userSpaceOnUse" x="49" y="13" width="15" height="10">
<path fill-rule="evenodd" clip-rule="evenodd" d="M60.4727 13.4603H63.2951C63.0269 14.3957 62.7509 15.32 62.464 16.2339C62.1751 17.1523 61.8991 18.0202 61.6231 18.8398C61.3516 19.6622 61.0835 20.4184 60.8226 21.115C60.5599 21.8088 60.3178 22.4066 60.1019 22.9102H57.9896C57.6842 22.0001 57.3877 21.0958 57.0954 20.1967C56.8042 19.3008 56.5403 18.3947 56.2961 17.4845C56.0527 18.3947 55.7964 19.3008 55.523 20.1967C55.2502 21.0958 54.9601 22.0001 54.6602 22.9102H52.5478C52.3286 22.4066 52.0898 21.8088 51.8346 21.115C51.5773 20.4184 51.3144 19.6622 51.0386 18.8398C50.7659 18.0202 50.4867 17.1523 50.201 16.2339C49.9142 15.32 49.6362 14.3957 49.3701 13.4603H52.2293C52.3243 13.8902 52.4323 14.3624 52.5489 14.8708C52.6646 15.3802 52.7866 15.9049 52.9144 16.4444C53.0418 16.9821 53.1783 17.5227 53.3178 18.0684C53.4585 18.6141 53.6026 19.1366 53.7484 19.6392C53.9065 19.1126 54.0614 18.5748 54.213 18.0241C54.3624 17.4726 54.5099 16.9308 54.6504 16.3983C54.7888 15.8665 54.9251 15.35 55.0495 14.8528C55.1761 14.3563 55.2885 13.8902 55.3876 13.4603H57.3517C57.4518 13.8902 57.5577 14.3563 57.6808 14.8528C57.8008 15.35 57.9286 15.8665 58.0637 16.3983C58.1947 16.9308 58.3373 17.4726 58.4804 18.0241C58.6275 18.5748 58.7781 19.1126 58.9339 19.6392C59.0812 19.1366 59.2272 18.6141 59.3745 18.0684C59.5218 17.5227 59.6602 16.9821 59.7868 16.4444C59.9133 15.9049 60.0355 15.3802 60.1531 14.8708C60.2699 14.3624 60.3758 13.8902 60.4727 13.4603Z" fill="white"/>
</mask>
<g mask="url(#mask6_3764_12417)">
<path d="M-131.075 49.4473L251.184 49.4473L251.184 -449.756H-131.075L-131.075 49.4473Z" fill="white"/>
</g>
<mask id="mask7_3764_12417" style="mask-type:luminance" maskUnits="userSpaceOnUse" x="49" y="13" width="15" height="10">
<path fill-rule="evenodd" clip-rule="evenodd" d="M60.4727 13.4603H63.2951C63.0269 14.3957 62.7509 15.32 62.464 16.2339C62.1751 17.1523 61.8991 18.0202 61.6231 18.8398C61.3516 19.6622 61.0835 20.4184 60.8226 21.115C60.5599 21.8088 60.3178 22.4066 60.1019 22.9102H57.9896C57.6842 22.0001 57.3877 21.0958 57.0954 20.1967C56.8042 19.3008 56.5403 18.3947 56.2961 17.4845C56.0527 18.3947 55.7964 19.3008 55.523 20.1967C55.2502 21.0958 54.9601 22.0001 54.6602 22.9102H52.5478C52.3286 22.4066 52.0898 21.8088 51.8346 21.115C51.5773 20.4184 51.3144 19.6622 51.0386 18.8398C50.7659 18.0202 50.4867 17.1523 50.201 16.2339C49.9142 15.32 49.6362 14.3957 49.3701 13.4603H52.2293C52.3243 13.8902 52.4323 14.3624 52.5489 14.8708C52.6646 15.3802 52.7866 15.9049 52.9144 16.4444C53.0418 16.9821 53.1783 17.5227 53.3178 18.0684C53.4585 18.6141 53.6026 19.1366 53.7484 19.6392C53.9065 19.1126 54.0614 18.5748 54.213 18.0241C54.3624 17.4726 54.5099 16.9308 54.6504 16.3983C54.7888 15.8665 54.9251 15.35 55.0495 14.8528C55.1761 14.3563 55.2885 13.8902 55.3876 13.4603H57.3517C57.4518 13.8902 57.5577 14.3563 57.6808 14.8528C57.8008 15.35 57.9286 15.8665 58.0637 16.3983C58.1947 16.9308 58.3373 17.4726 58.4804 18.0241C58.6275 18.5748 58.7781 19.1126 58.9339 19.6392C59.0812 19.1366 59.2272 18.6141 59.3745 18.0684C59.5218 17.5227 59.6602 16.9821 59.7868 16.4444C59.9133 15.9049 60.0355 15.3802 60.1531 14.8708C60.2699 14.3624 60.3758 13.8902 60.4727 13.4603Z" fill="white"/>
</mask>
<g mask="url(#mask7_3764_12417)">
<path d="M44.8203 27.1035H67.8467V9.26363H44.8203V27.1035Z" fill="white"/>
</g>
<path d="M65.2119 22.9062H67.9209V13.4584H65.2119V22.9062Z" fill="white"/>
<mask id="mask8_3764_12417" style="mask-type:luminance" maskUnits="userSpaceOnUse" x="65" y="13" width="3" height="10">
<path fill-rule="evenodd" clip-rule="evenodd" d="M65.2119 22.9062V13.4584H67.921V22.9062H65.2119Z" fill="white"/>
</mask>
<g mask="url(#mask8_3764_12417)">
<path d="M-131.075 49.4473L251.184 49.4473L251.184 -449.756H-131.075L-131.075 49.4473Z" fill="white"/>
</g>
<mask id="mask9_3764_12417" style="mask-type:luminance" maskUnits="userSpaceOnUse" x="65" y="13" width="3" height="10">
<path fill-rule="evenodd" clip-rule="evenodd" d="M65.2119 22.9062V13.4584H67.921V22.9062H65.2119Z" fill="white"/>
</mask>
<g mask="url(#mask9_3764_12417)">
<path d="M60.6592 27.0996H72.4695V9.26169H60.6592V27.0996Z" fill="white"/>
</g>
<path d="M70.0762 11.1038L72.7872 10.6297V13.4647H75.4701V15.6878H72.7872V19.0123C72.7872 19.575 72.8875 20.0282 73.0871 20.3594C73.2867 20.6946 73.6911 20.8628 74.2966 20.8628C74.5899 20.8628 74.8908 20.8386 75.1984 20.7832C75.5091 20.7288 75.7905 20.6514 76.0468 20.5577L76.4275 22.6419C76.0991 22.7745 75.7338 22.8874 75.3359 22.984C74.9332 23.0786 74.446 23.127 73.8613 23.127C73.1199 23.127 72.5081 23.0284 72.0228 22.8289C71.5364 22.6347 71.1481 22.3599 70.8582 22.0034C70.568 21.6531 70.3653 21.2211 70.2486 20.7208C70.1308 20.2164 70.0762 19.6586 70.0762 19.0494V11.1038Z" fill="white"/>
<mask id="mask10_3764_12417" style="mask-type:luminance" maskUnits="userSpaceOnUse" x="70" y="10" width="7" height="14">
<path fill-rule="evenodd" clip-rule="evenodd" d="M70.0762 11.1038L72.787 10.6297V13.4647H75.4699V15.6877H72.787V19.0123C72.787 19.575 72.8875 20.028 73.0871 20.3594C73.2867 20.6946 73.6911 20.8626 74.2964 20.8626C74.5897 20.8626 74.8909 20.8386 75.1984 20.7832C75.5091 20.7286 75.7905 20.6514 76.0466 20.5577L76.4273 22.6417C76.0991 22.7745 75.7336 22.8874 75.3359 22.984C74.9332 23.0786 74.446 23.127 73.8613 23.127C73.1199 23.127 72.5079 23.0284 72.0228 22.8289C71.5363 22.6345 71.1481 22.3599 70.8582 22.0035C70.568 21.6531 70.3653 21.2213 70.2485 20.7208C70.1308 20.2164 70.0762 19.6585 70.0762 19.0495V11.1038Z" fill="white"/>
</mask>
<g mask="url(#mask10_3764_12417)">
<path d="M-131.075 49.4473L251.184 49.4473L251.184 -449.756H-131.075L-131.075 49.4473Z" fill="white"/>
</g>
<mask id="mask11_3764_12417" style="mask-type:luminance" maskUnits="userSpaceOnUse" x="70" y="10" width="7" height="14">
<path fill-rule="evenodd" clip-rule="evenodd" d="M70.0762 11.1038L72.787 10.6297V13.4647H75.4699V15.6877H72.787V19.0123C72.787 19.575 72.8875 20.028 73.0871 20.3594C73.2867 20.6946 73.6911 20.8626 74.2964 20.8626C74.5897 20.8626 74.8909 20.8386 75.1984 20.7832C75.5091 20.7286 75.7905 20.6514 76.0466 20.5577L76.4273 22.6417C76.0991 22.7745 75.7336 22.8874 75.3359 22.984C74.9332 23.0786 74.446 23.127 73.8613 23.127C73.1199 23.127 72.5079 23.0284 72.0228 22.8289C71.5363 22.6345 71.1481 22.3599 70.8582 22.0035C70.568 21.6531 70.3653 21.2213 70.2485 20.7208C70.1308 20.2164 70.0762 19.6585 70.0762 19.0495V11.1038Z" fill="white"/>
</mask>
<g mask="url(#mask11_3764_12417)">
<path d="M65.5244 27.3203H80.9772V6.43288H65.5244V27.3203Z" fill="white"/>
</g>
<path d="M77.3857 18.1895C77.3857 17.5057 77.4983 16.8615 77.7228 16.2575C77.9474 15.6513 78.2714 15.1259 78.6957 14.6758C79.1209 14.2258 79.6356 13.8713 80.2441 13.6066C80.8493 13.3458 81.5407 13.2109 82.3172 13.2109C82.8265 13.2109 83.2943 13.2582 83.7195 13.3468C84.1451 13.4384 84.5595 13.5664 84.9574 13.7324L84.3948 15.8699C84.1385 15.7752 83.8603 15.6927 83.5551 15.6182C83.2518 15.5476 82.9105 15.5105 82.5354 15.5105C81.735 15.5105 81.1361 15.757 80.7446 16.2483C80.3465 16.7408 80.1524 17.3861 80.1524 18.1895C80.1524 19.0381 80.3368 19.6975 80.7099 20.1648C81.0762 20.631 81.724 20.8656 82.6455 20.8656C82.9737 20.8656 83.3238 20.8342 83.7022 20.7749C84.0774 20.7144 84.423 20.6199 84.7415 20.487L85.1212 22.6798C84.8046 22.8116 84.4122 22.9224 83.939 23.02C83.4634 23.1149 82.9431 23.1641 82.374 23.1641C81.5003 23.1641 80.7458 23.0332 80.1165 22.7764C79.4864 22.5197 78.966 22.1692 78.5603 21.7263C78.1514 21.2824 77.857 20.7589 77.6684 20.1547C77.4797 19.5497 77.3857 18.8934 77.3857 18.1895" fill="white"/>
<mask id="mask12_3764_12417" style="mask-type:luminance" maskUnits="userSpaceOnUse" x="77" y="13" width="9" height="11">
<path fill-rule="evenodd" clip-rule="evenodd" d="M80.2441 13.6066C80.8493 13.3458 81.5407 13.2109 82.3172 13.2109C82.8265 13.2109 83.2943 13.2581 83.7195 13.3466C84.1449 13.4384 84.5595 13.5662 84.9574 13.7324L84.3948 15.8698C84.1384 15.7752 83.8603 15.6927 83.5549 15.6182C83.2517 15.5474 82.9105 15.5103 82.5352 15.5103C81.735 15.5103 81.1361 15.757 80.7446 16.2483C80.3465 16.7406 80.1524 17.386 80.1524 18.1895C80.1524 19.0381 80.337 19.6975 80.7099 20.1648C81.0762 20.631 81.7239 20.8656 82.6453 20.8656C82.9737 20.8656 83.3238 20.8342 83.7022 20.7749C84.0774 20.7144 84.423 20.6199 84.7413 20.4868L85.121 22.6798C84.8048 22.8116 84.4122 22.9223 83.9388 23.02C83.4634 23.1147 82.9433 23.1641 82.374 23.1641C81.5002 23.1641 80.7458 23.033 80.1165 22.7762C79.4864 22.5195 78.966 22.1692 78.5601 21.7264C78.1516 21.2824 77.857 20.7589 77.6684 20.1547C77.4797 19.5497 77.3857 18.8932 77.3857 18.1895C77.3857 17.5057 77.4983 16.8615 77.7228 16.2575C77.9474 15.6513 78.2714 15.1257 78.6955 14.6756C79.1209 14.2256 79.6356 13.8713 80.2441 13.6066Z" fill="white"/>
</mask>
<g mask="url(#mask12_3764_12417)">
<path d="M-131.075 49.4473L251.184 49.4473L251.184 -449.756H-131.075L-131.075 49.4473Z" fill="white"/>
</g>
<mask id="mask13_3764_12417" style="mask-type:luminance" maskUnits="userSpaceOnUse" x="77" y="13" width="9" height="11">
<path fill-rule="evenodd" clip-rule="evenodd" d="M80.2441 13.6066C80.8493 13.3458 81.5407 13.2109 82.3172 13.2109C82.8265 13.2109 83.2943 13.2581 83.7195 13.3466C84.1449 13.4384 84.5595 13.5662 84.9574 13.7324L84.3948 15.8698C84.1384 15.7752 83.8603 15.6927 83.5549 15.6182C83.2517 15.5474 82.9105 15.5103 82.5352 15.5103C81.735 15.5103 81.1361 15.757 80.7446 16.2483C80.3465 16.7406 80.1524 17.386 80.1524 18.1895C80.1524 19.0381 80.337 19.6975 80.7099 20.1648C81.0762 20.631 81.7239 20.8656 82.6453 20.8656C82.9737 20.8656 83.3238 20.8342 83.7022 20.7749C84.0774 20.7144 84.423 20.6199 84.7413 20.4868L85.121 22.6798C84.8048 22.8116 84.4122 22.9223 83.9388 23.02C83.4634 23.1147 82.9433 23.1641 82.374 23.1641C81.5002 23.1641 80.7458 23.033 80.1165 22.7762C79.4864 22.5195 78.966 22.1692 78.5601 21.7264C78.1516 21.2824 77.857 20.7589 77.6684 20.1547C77.4797 19.5497 77.3857 18.8932 77.3857 18.1895C77.3857 17.5057 77.4983 16.8615 77.7228 16.2575C77.9474 15.6513 78.2714 15.1257 78.6955 14.6756C79.1209 14.2256 79.6356 13.8713 80.2441 13.6066Z" fill="white"/>
</mask>
<g mask="url(#mask13_3764_12417)">
<path d="M72.8359 27.3574H89.6724V9.01408H72.8359V27.3574Z" fill="white"/>
</g>
<path d="M86.873 22.9062V11.0985L89.5852 10.6284V13.4978C89.7661 13.4383 89.9985 13.3809 90.2865 13.3267C90.5699 13.2733 90.848 13.245 91.1142 13.245C91.8894 13.245 92.5339 13.3507 93.0507 13.5592C93.5656 13.7686 93.981 14.0657 94.2885 14.4491C94.6005 14.8308 94.8164 15.2878 94.9463 15.8124C95.0716 16.3408 95.1347 16.929 95.1347 17.5753V22.9062H92.4236V17.8964C92.4236 17.0345 92.3114 16.4245 92.0879 16.0631C91.8632 15.7075 91.4467 15.5275 90.8414 15.5275C90.595 15.5275 90.3701 15.5487 90.1566 15.5889C89.9449 15.6312 89.7542 15.6775 89.5852 15.7248V22.9062H86.873Z" fill="white"/>
<mask id="mask14_3764_12417" style="mask-type:luminance" maskUnits="userSpaceOnUse" x="86" y="10" width="10" height="13">
<path fill-rule="evenodd" clip-rule="evenodd" d="M86.873 11.0985L89.585 10.6284V13.4979C89.7661 13.4383 89.9985 13.3809 90.2865 13.3267C90.5699 13.2733 90.848 13.2452 91.1142 13.2452C91.8894 13.2452 92.5341 13.3509 93.0509 13.5592C93.5656 13.7688 93.9812 14.0657 94.2885 14.4493C94.6003 14.8308 94.8165 15.2878 94.9463 15.8126C95.0716 16.341 95.1347 16.929 95.1347 17.5755V22.9062H92.4238V17.8964C92.4238 17.0347 92.3113 16.4245 92.0879 16.0631C91.8632 15.7077 91.4467 15.5275 90.8414 15.5275C90.595 15.5275 90.3701 15.5487 90.1566 15.5891C89.9449 15.6312 89.7542 15.6775 89.585 15.7248V22.9062H86.873V11.0985Z" fill="white"/>
</mask>
<g mask="url(#mask14_3764_12417)">
<path d="M-131.075 49.4473L251.184 49.4473L251.184 -449.756H-131.075L-131.075 49.4473Z" fill="white"/>
</g>
<mask id="mask15_3764_12417" style="mask-type:luminance" maskUnits="userSpaceOnUse" x="86" y="10" width="10" height="13">
<path fill-rule="evenodd" clip-rule="evenodd" d="M86.873 11.0985L89.585 10.6284V13.4979C89.7661 13.4383 89.9985 13.3809 90.2865 13.3267C90.5699 13.2733 90.848 13.2452 91.1142 13.2452C91.8894 13.2452 92.5341 13.3509 93.0509 13.5592C93.5656 13.7688 93.9812 14.0657 94.2885 14.4493C94.6003 14.8308 94.8165 15.2878 94.9463 15.8126C95.0716 16.341 95.1347 16.929 95.1347 17.5755V22.9062H92.4238V17.8964C92.4238 17.0347 92.3113 16.4245 92.0879 16.0631C91.8632 15.7077 91.4467 15.5275 90.8414 15.5275C90.595 15.5275 90.3701 15.5487 90.1566 15.5891C89.9449 15.6312 89.7542 15.6775 89.585 15.7248V22.9062H86.873V11.0985Z" fill="white"/>
</mask>
<g mask="url(#mask15_3764_12417)">
<path d="M82.3232 27.0996H99.6863V6.43154H82.3232V27.0996Z" fill="white"/>
</g>
<path d="M5.10547 22.9102L5.10547 14.3483C5.10547 14.3483 6.46861 13.2741 9.45012 13.2741C12.1633 13.2741 13.6532 14.6122 13.6532 17.557V22.9102H10.9432V17.557C10.9432 15.6814 9.99211 15.5515 9.17965 15.5515C8.3672 15.5515 7.82307 15.9501 7.82307 15.9501V22.9102H5.10547Z" fill="white"/>
<mask id="mask16_3764_12417" style="mask-type:luminance" maskUnits="userSpaceOnUse" x="5" y="13" width="9" height="10">
<path fill-rule="evenodd" clip-rule="evenodd" d="M5.10547 14.3483C5.10547 14.3483 6.46861 13.2741 9.45012 13.2741C12.1633 13.2741 13.653 14.612 13.653 17.5572V22.9102H10.9432V17.5572C10.9432 15.6812 9.99211 15.5515 9.17965 15.5515C8.3672 15.5515 7.82307 15.9503 7.82307 15.9503V22.9102H5.10547L5.10547 14.3483Z" fill="white"/>
</mask>
<g mask="url(#mask16_3764_12417)">
<path d="M-131.078 49.4473L251.181 49.4473L251.181 -449.756H-131.078L-131.078 49.4473Z" fill="white"/>
</g>
<mask id="mask17_3764_12417" style="mask-type:luminance" maskUnits="userSpaceOnUse" x="5" y="13" width="9" height="10">
<path fill-rule="evenodd" clip-rule="evenodd" d="M5.10547 14.3483C5.10547 14.3483 6.46861 13.2741 9.45012 13.2741C12.1633 13.2741 13.653 14.612 13.653 17.5572V22.9102H10.9432V17.5572C10.9432 15.6812 9.99211 15.5515 9.17965 15.5515C8.3672 15.5515 7.82307 15.9503 7.82307 15.9503V22.9102H5.10547L5.10547 14.3483Z" fill="white"/>
</mask>
<g mask="url(#mask17_3764_12417)">
<path d="M0.555664 27.1035H18.2044V9.07745H0.555664L0.555664 27.1035Z" fill="white"/>
</g>
<path d="M0 22.9102L0 11.1003L2.71319 10.6291L2.71319 22.9102H0Z" fill="white"/>
<mask id="mask18_3764_12417" style="mask-type:luminance" maskUnits="userSpaceOnUse" x="0" y="10" width="3" height="13">
<path fill-rule="evenodd" clip-rule="evenodd" d="M0 11.1005L2.71319 10.6291L2.71319 22.9102H0L0 11.1005Z" fill="white"/>
</mask>
<g mask="url(#mask18_3764_12417)">
<path d="M-131.075 49.4473L251.184 49.4473L251.184 -449.756H-131.075L-131.075 49.4473Z" fill="white"/>
</g>
<mask id="mask19_3764_12417" style="mask-type:luminance" maskUnits="userSpaceOnUse" x="0" y="10" width="3" height="13">
<path fill-rule="evenodd" clip-rule="evenodd" d="M0 11.1005L2.71319 10.6291L2.71319 22.9102H0L0 11.1005Z" fill="white"/>
</mask>
<g mask="url(#mask19_3764_12417)">
<path d="M-4.5498 27.1035H7.26491L7.26491 6.4325H-4.5498L-4.5498 27.1035Z" fill="white"/>
</g>
<path fill-rule="evenodd" clip-rule="evenodd" d="M25.9343 18.8617H32.037C32.3096 17.2527 32.037 13.2438 27.9672 13.2438C25.255 13.2438 23.3574 15.1144 23.3574 18.0603C23.3574 21.8064 25.798 23.1426 28.5124 23.1426C30.4099 23.1426 31.7655 22.6119 31.7655 22.6119L31.4939 20.4685C31.4939 20.4685 30.1373 20.8683 28.7806 20.8683C26.0706 20.8683 25.9343 18.8617 25.9343 18.8617ZM25.9348 16.985C25.9348 16.985 26.0711 15.1125 27.8346 15.1125C29.5969 15.1125 29.7298 16.985 29.7298 16.985H25.9348Z" fill="white"/>
<mask id="mask20_3764_12417" style="mask-type:luminance" maskUnits="userSpaceOnUse" x="23" y="13" width="10" height="11">
<path fill-rule="evenodd" clip-rule="evenodd" d="M23.3574 18.0602C23.3574 15.1142 25.255 13.2436 27.9671 13.2436C32.0368 13.2436 32.3094 17.2527 32.0368 18.8616H25.9343C25.9343 18.8616 26.0706 20.8681 28.7804 20.8681C30.1372 20.8681 31.4938 20.4683 31.4938 20.4683L31.7653 22.6117C31.7653 22.6117 30.4098 23.1426 28.5122 23.1426C25.798 23.1426 23.3574 21.8064 23.3574 18.0602ZM27.8344 15.1123C26.0711 15.1123 25.9348 16.985 25.9348 16.985H29.7298C29.7298 16.985 29.5967 15.1123 27.8344 15.1123Z" fill="white"/>
</mask>
<g mask="url(#mask20_3764_12417)">
<path d="M-131.076 49.4434L251.183 49.4434L251.183 -449.76H-131.076L-131.076 49.4434Z" fill="white"/>
</g>
<mask id="mask21_3764_12417" style="mask-type:luminance" maskUnits="userSpaceOnUse" x="23" y="13" width="10" height="11">
<path fill-rule="evenodd" clip-rule="evenodd" d="M23.3574 18.0602C23.3574 15.1142 25.255 13.2436 27.9671 13.2436C32.0368 13.2436 32.3094 17.2527 32.0368 18.8616H25.9343C25.9343 18.8616 26.0706 20.8681 28.7804 20.8681C30.1372 20.8681 31.4938 20.4683 31.4938 20.4683L31.7653 22.6117C31.7653 22.6117 30.4098 23.1426 28.5122 23.1426C25.798 23.1426 23.3574 21.8064 23.3574 18.0602ZM27.8344 15.1123C26.0711 15.1123 25.9348 16.985 25.9348 16.985H29.7298C29.7298 16.985 29.5967 15.1123 27.8344 15.1123Z" fill="white"/>
</mask>
<g mask="url(#mask21_3764_12417)">
<path d="M18.8076 27.3359H36.6644V9.04703H18.8076V27.3359Z" fill="white"/>
</g>
<mask id="mask22_3764_12417" style="mask-type:luminance" maskUnits="userSpaceOnUse" x="98" y="8" width="19" height="22">
<path fill-rule="evenodd" clip-rule="evenodd" d="M98.7275 10.6302C98.7275 10.0593 106.528 8.82742 111.759 8.82742C114.028 8.82742 115.813 9.05911 116.27 9.6767C118.625 12.5441 102.043 30.5335 100.661 29.9878C99.5531 29.715 109.502 18.2647 107.844 13.6285C107.016 11.1769 98.7275 11.4496 98.7275 10.6302Z" fill="white"/>
</mask>
<g mask="url(#mask22_3764_12417)">
<path d="M94.1777 34.1934H121.05V4.63077H94.1777V34.1934Z" fill="#EE312A"/>
</g>
<mask id="mask23_3764_12417" style="mask-type:luminance" maskUnits="userSpaceOnUse" x="112" y="0" width="9" height="8">
<path fill-rule="evenodd" clip-rule="evenodd" d="M112.818 3.54212C112.818 1.58396 114.427 -0.000701538 116.41 -0.000701538C118.394 -0.000701538 120.001 1.58396 120.001 3.54212C120.001 5.50127 118.394 7.08594 116.41 7.08594C114.427 7.08594 112.818 5.50127 112.818 3.54212Z" fill="white"/>
</mask>
<g mask="url(#mask23_3764_12417)">
<path d="M108.269 11.2793L124.552 11.2793V-4.19761L108.269 -4.19761V11.2793Z" fill="#EE312A"/>
</g>
</svg>
