<svg xmlns="http://www.w3.org/2000/svg" width="174.46" height="28.25" fill="none" viewBox="0 0 175 30"><g clip-path="url(#a)"><path fill="#615F62" d="M68.315 11.036c-1.359-.945-2.88-1.098-4.476-1.048-3.407.12-6.304 3.407-6.112 6.636a.96.96 0 0 0-.008.873c-.175 2.887 1.617 5.742 4.87 6.335 1.809.329 3.64.266 5.404-.393q.572-.213 1.072-.562a.35.35 0 0 0 .133-.51c-.35-.675-.62-1.397-1.077-2.024-1.289.919-2.02 1.111-4.069.971a3.26 3.26 0 0 1-2.984-2.485c-.042-.164-.02-.349-.164-.476a.16.16 0 0 0-.028-.163c.204-.382.567-.215.857-.216q4.134-.018 8.267 0c.433 0 .698-.068.777-.562.424-2.485-.229-4.824-2.463-6.376m-7.139 4.518c.075-1.83 1.434-2.97 3.423-2.97 1.466 0 3.083.858 3.07 2.97zM45.492 14.832a4.94 4.94 0 0 0-1.664-3.684c-1.773-1.582-5.087-1.622-6.89-.068-.407.349-.542.349-.724-.152-.227-.63-.614-.831-1.25-.744q-.524.04-1.048.009c-.246 0-.382.1-.377.349v12.747c0 .329.163.466.486.463.812-.01 1.624-.01 2.444-.02.102 0 .137-.085.175-.165l.016-.175c.014-.23.038-.46.038-.698 0-2.6.037-5.202-.017-7.802-.018-.873.325-1.397 1.047-1.804.524-.292 1.067-.534 1.635-.548 1.416-.034 2.485.459 2.834 1.879.125.563.18 1.14.166 1.716v6.936c0 .655.014.662.683.669.639 0 1.278-.012 1.92 0 .386.012.577-.07.573-.524-.031-2.78.021-5.583-.047-8.384M90.358 20.712a3.84 3.84 0 0 1-2.557.61c-.807-.067-1.275-.435-1.49-1.223a3.7 3.7 0 0 1-.157-.934c-.013-1.965 0-3.931-.015-5.895 0-.456.134-.612.594-.596.873.028 1.746 0 2.619.014.367 0 .524-.107.506-.49a17 17 0 0 1 0-1.562c.012-.335-.115-.457-.452-.452-.842.016-1.685 0-2.527 0-.714 0-.72-.009-.723-.699 0-1.241-.019-2.484 0-3.726.01-.458-.146-.611-.597-.59q-.96.045-1.92 0c-.48-.025-.673.12-.657.628.033 1.099.01 2.197.01 3.296 0 1.037 0 1.047-1.048 1.09-.349.011-.544.074-.523.478q.035.823-.01 1.646c-.013.262.062.38.324.374h.35c.918.018.92.018.92.974v5.548q-.014.738.07 1.47c.195 1.424.91 2.53 2.285 3.02 1.486.524 3.033.331 4.556.054.35-.063.464-.266.456-.613-.028-.735-.014-1.491-.014-2.422M79.56 16.636a6.4 6.4 0 0 0-1.303-.698 17 17 0 0 1-2.296-1.025c-.382-.224-.723-.488-.805-.963-.138-.794.299-1.384 1.13-1.48a4.73 4.73 0 0 1 3.4.813c.258-.672.447-1.28.721-1.847.21-.431.09-.608-.314-.782a8.13 8.13 0 0 0-5.614-.397c-2.848.823-3.519 3.828-1.453 5.992.796.834 1.798 1.234 2.794 1.693a9.4 9.4 0 0 1 1.53.812 1.664 1.664 0 0 1 .637 1.921c-.257.683-.861.779-1.49.825-1.267.088-2.397-.29-3.492-1.094-.339.744-.604 1.382-.917 1.998-.174.35-.15.524.232.732 2.02 1.047 4.139 1.14 6.26.511 1.433-.424 2.478-1.363 2.73-2.956.264-1.722-.33-3.063-1.75-4.055M55.954 10.184c-.417-.016-.613.141-.765.524-.661 1.634-1.346 3.258-2.03 4.89-.39.923-.793 1.84-1.204 2.793a2.2 2.2 0 0 1-.445-.841q-1.338-3.379-2.663-6.764c-.115-.296-.183-.597-.623-.586-.982.024-1.965.008-2.943.008-.002.225.058.446.175.638q1.165 2.608 2.326 5.224c1.1 2.482 2.205 4.962 3.297 7.446a.7.7 0 0 0 .718.486c.656 0 .661.019 1.03-.79q2.096-4.614 4.206-9.226c.56-1.223 1.113-2.461 1.708-3.778-.992-.015-1.891.006-2.787-.024M31.414 5.694a.42.42 0 0 0-.024-.349c-.945-.358-1.92-.089-2.883-.147-.175-.01-.238.14-.245.296v17.271q.012.175 0 .35c-.062.475.107.68.62.653.699-.039 1.397 0 2.096-.012.164 0 .36.049.43-.175l.015-.175c.012-.316.033-.632.033-.948V8.12c-.01-.816-.031-1.612-.042-2.426"></path><path fill="#5A575A" d="M174.44 24.32c.014-1.609-.659-2.487-2.206-3.013-1.421-.483-2.846-.412-4.275-.066-.452.107-.92.125-1.379.052a.47.47 0 0 1-.424-.382.44.44 0 0 1 .235-.435c.419-.234.798-.482 1.359-.41 1.063.136 2.136.134 3.162-.304 2.433-1.034 3.442-3.707 2.723-6.286-.117-.423-.535-.8-.468-1.176.078-.449.684-.562 1.033-.857.322-.27.275-.477-.041-.676-.397-.251-.69-.616-1.031-.93-.723-.662-.716-.67-1.383.087-.559.635-.55.607-1.428.349-2.01-.615-3.938-.484-5.728.712-2.767 1.848-2.666 5.599-.698 7.45.26.244.501.515.803.828l.011.01h-.016a3.36 3.36 0 0 0-1.317 1.137c-.718 1.086-.367 2.4.786 3.005.495.246 1.04.377 1.593.382.9.024 1.801-.025 2.694-.146.749-.088 1.507-.135 2.249.084a1.03 1.03 0 0 1 .761.957 1.01 1.01 0 0 1-.523 1.014c-.874.524-1.853.637-2.835.587a5.16 5.16 0 0 1-3.468-1.463c-.745.667-1.222 1.508-1.875 2.195-.211.221-.063.364.127.476.95.554 1.888 1.137 3.011 1.296.175.26.587 0 .719.337h3.144c.083-.206.282-.175.443-.204a7.5 7.5 0 0 0 2.27-.83c.802-.45 1.453-1.028 1.825-1.9.244-.628.141-1.262.147-1.88m-8.683-9.456c0-1.376 1.048-2.361 2.471-2.358s2.38 1.048 2.367 2.534c-.081 1.815-.973 2.607-2.395 2.567-1.493-.05-2.446-.91-2.443-2.75zM160.104 15.657c0-.956-.019-1.91-.396-2.81-.952-2.27-3.143-3.168-5.579-2.923a4.9 4.9 0 0 0-3.037 1.397 1.95 1.95 0 0 1-.407-.74.475.475 0 0 0-.496-.395h-1.655c-.302 0-.416.141-.402.426v12.234000000000002c0 .145.013.29 0 .435-.031.38.151.503.524.494.755-.018 1.511 0 2.27 0 .149 0 .287-.018.35-.175.251-.24.125-.546.127-.819.011-2.603.08-5.209-.03-7.805-.049-1.153.453-1.712 1.382-2.096.349-.143.712-.323 1.072-.332 1.589-.038 2.752.463 3.017 2.167q.124.947.105 1.902c.012 2.197.018 4.395-.012 6.592 0 .428.11.58.524.573.609-.01 1.222 0 1.83 0 .864 0 .873 0 .873-.847-.025-2.433-.047-4.855-.06-7.278M141.919 19.944a2.396 2.396 0 0 0-1.397 2.876 2.236 2.236 0 0 0 2.723 1.458c1.337-.3 2.146-1.9 1.582-3.133a2.304 2.304 0 0 0-2.908-1.201"></path><path fill="#E80000" d="m143.064 2.895-.122-.119-.026-.026-.293-.286-.018-.012a.4.4 0 0 1-.078-.054c-.35-.264-.44-.767-.894-.922a.2.2 0 0 0-.145.02c-.121-.326-.241-.65-.699-.618-.112.21-.349.28-.524.421a2 2 0 0 1-.188.08 6.5 6.5 0 0 0-1.078.601l-.016.014a.3.3 0 0 1-.048.046c-.385.349-.935.508-1.144 1.03-.248.033-.463.105-.468.412a.5.5 0 0 0 .117.049c.539.016.814.026.931.153q.032.054.055.11c.021.236-.004.473-.073.699l-.04.072a1 1 0 0 0-.023.071.5.5 0 0 1-.12.018l-.61 1.879a.14.14 0 0 0-.1.137q0 .03.015.058c-.053.068-.135.131-.152.206-.339 1.423-.982 2.745-1.415 4.135 0 .058 0 .115-.014.175a.078.078 0 0 0-.038.05.1.1 0 0 0 0 .031q.004.015.014.029a6.5 6.5 0 0 0-.698 1.954 18.7 18.7 0 0 0-1.205 3.318 2.13 2.13 0 0 0-.365 1.047c-.161.156-.175.437-.432.509a1.6 1.6 0 0 0-.384-.861c-.07-.311-.108-.636-.37-.873 0-.479-.367-.793-.524-1.202a1.48 1.48 0 0 0-.339-.906c-.524-1.252-1.058-2.497-1.542-3.763-.174-.463-.504-.377-.841-.398-.379-.023-.631.075-.617.51a4.9 4.9 0 0 0-.698 1.594c-.208.238-.33.537-.349.852a25 25 0 0 0-1.397 3.266c-.19.206-.307.468-.334.747a1.57 1.57 0 0 0-.349.873 11 11 0 0 0-1.048 2.432 25 25 0 0 0-1.275 2.93c-.104.23-.578.572.011.659.698.103 1.435 0 2.153-.021.271 0 .442-.133.349-.444.585-.574.777-1.34 1.032-2.078.222-.23.361-.528.393-.846a.899.899 0 0 0 .309-.716 2.4 2.4 0 0 1 .349-.873c.381-.439.634-.973.732-1.544.318-.414.466-.913.686-1.376.158-.332.299-.124.451 0a7 7 0 0 0 .889 1.92c.26.855.621 1.676 1.075 2.445.196.524.35 1.078.709 1.532a.95.95 0 0 0 .323.709c.032.325.158.633.364.887 0 .152.136.213.223.304l.04.01c.833.218.873.201 1.149-.35a1.8 1.8 0 0 0 .364-1.008c.448-.897.799-1.839 1.047-2.81.197-.299.317-.642.349-.999.294-.427.475-.922.524-1.439v-.284c.077-.039.205-.058.224-.114.251-.733.59-1.437.756-2.198a.75.75 0 0 0 .22-.524c.212-.304.336-.66.36-1.03.223-.3.352-.658.37-1.03h-.011a1.13 1.13 0 0 0 .329-.89c.115-.349.228-.698.349-1.058.285-.154.293-.46.395-.714.272-.683.537-1.37.805-2.054.23-.616.651-1.171.606-1.875L141 5.548l.011-.044.127-.134c-.097-.463.301-.784.369-1.198q.074-.078.16-.14c.296-.215.634-.225.984-.225.274 0 .637.101.763-.23.085-.294-.178-.491-.35-.682m-18.492 17.562-.012-.01zm2.794-2.794q-.007.02.002.007zm4.079 1.32a.03.03 0 0 1 0 .02l.002-.013zm2.663 4.383a.13.13 0 0 1-.056-.064l.065.059zM123.182 19.13c.535-.89.873-1.874 1.296-2.813a.74.74 0 0 0 .019-.587c-.621-1.725-1.116-3.493-1.823-5.193 0-.15-.031-.323-.195-.329a26 26 0 0 0-3.198.02c.246.668.405 1.241.721 1.755.146.653.362 1.288.647 1.894l.392.903c.077.35.135.698.362.981-.098.505.279.856.428 1.279.312.894.653 1.777.997 2.704a.72.72 0 0 0 .354-.614m-1.557-4.443a.3.3 0 0 1-.046.044l-.01-.028zM105.375 5.343v-.008c-.908-.336-1.846-.09-2.77-.142-.097 0-.143.072-.174.154-.15.269-.077.564-.077.845q-.01 2.97 0 5.951c0 1.264.03 2.527.044 3.791 0 .093-.016.187-.025.28-.199-.046-.44-.018-.524-.28a1.56 1.56 0 0 0-.662-.83c-.174-.137-.242-.406-.497-.47 0-.085.017-.19-.025-.249-.581-.806-1.13-1.643-1.92-2.27.022-.164-.135-.225-.193-.349a.95.95 0 0 0-.668-.733c0-.058.024-.131 0-.175-1.07-1.397-2.112-2.824-3.302-4.126-.042-.35-.289-.552-.524-.762a.224.224 0 0 0-.194-.227c-.108-.087-.163-.24-.329-.256l-.034.048.036-.047c-.26-.297-1.31-.433-1.512-.188a.44.44 0 0 0-.075.237c-.01.175 0 .35 0 .524v17.262999999999998c-.01.276.09.437.396.435H94.7c.308 0 .41-.152.402-.43V12.499c.379.082.43.415.676.506q.096.163.197.325.448.681 1.015 1.27c.43.487.668 1.127 1.222 1.506.038.34.286.524.524.739 1.09 1.446 2.17 2.897 3.274 4.33.295.387.524.834.929 1.125l.159.096c.113.524.559.826.861 1.223.04.174.12.31.325.32 1.157.183 1.222.156 1.222-.643q.012-8.7.014-17.4c-.018-.187.075-.408-.145-.552M92.278 23.05v-.045l.056.06zm12.559-15.622h.004zm-1.222-1.908v-.01l.008.01zm-1.048 1.098v-.06l.07-.025c-.012.026-.037.054-.06.085zM119.88 15.215c-.08-.739-.197-1.465-.73-2.047-.228-.269-.111-.728-.506-.904a.43.43 0 0 0-.101-.22.43.43 0 0 0-.206-.13 1.05 1.05 0 0 0-.564-.58c-.1-.127-.163-.33-.393-.195-.089-.333-.383-.39-.653-.475-1.139-.698-2.391-.77-3.676-.656-.948-.034-1.848.122-2.635.698a.85.85 0 0 0-.629.372c-1.002.494-1.603 1.41-2.036 2.33-1.154 2.444-1.072 4.96.086 7.41.223.475.45 1.001 1.006 1.235a.2.2 0 0 0 .055.119.2.2 0 0 0 .119.056c.644.99 1.668 1.314 2.742 1.547a6.16 6.16 0 0 0 3.593-.009c.213.086.35-.077.493-.175l.166-.015c1.32-.416 2.184-1.378 2.968-2.445.393-.496.643-1.09.722-1.718.468-1.38.436-2.777.179-4.198m-4.566 5.743-1.268.51h-.433c-1.697-.01-2.727-.81-3.127-2.43-.082-.336-.147-.677-.219-1.014-.024-.873.116-1.735-.026-2.601.232-.442.231-.973.538-1.385a.96.96 0 0 0 .534-.699c.236-.393.76-.349 1.036-.675a5.16 5.16 0 0 1 2.378 0c.222.177.474.313.744.401.613.524.873 1.223 1.081 1.96.313 1.15.187 2.324.138 3.492-.255.618-.437 1.266-.821 1.839-.157.226-.345.43-.56.602z"></path><path fill="#E32526" d="M18.84 22.88q.021-8.37.01-16.744c0-.143-.012-.29 0-.433.035-.396-.113-.602-.54-.57-.202.017-.406 0-.61 0H2.354c-.784 0-1.572.024-2.354.036v16.489c.19-.111.405-.204.374-.483l.152-.09c.32-.198.609-.422.698-.813a1.15 1.15 0 0 0 .552-.51c.28-.18.518-.419.698-.699a.2.2 0 0 0 .175-.174c.397-.293.75-.642 1.048-1.036.389-.28.731-.619 1.014-1.006.791-.553 1.544-1.149 2.077-1.97a1.4 1.4 0 0 0 .815-.698l1.486-1.547c.28-.18.518-.419.699-.698a.6.6 0 0 0 .349-.35c.285-.173.524-.413.698-.698l.479-.39c.473-.1.524-.635.873-.855.524-.33.964-.968 1.723-.494a1.22 1.22 0 0 1 .207 1.028l-2.27 2.31c-.28.136-.507.36-.645.64a4.2 4.2 0 0 0-1.1 1.082 1.27 1.27 0 0 0-.664.653c-.304.259-.621.505-.91.78a403 403 0 0 0-3.206 3.099Q3.075 20.934.836 23.137c-.174.053-.263.222-.4.325-.07.06-.16.09-.25.087.074.158.146.308.373.236.339-.108.698-.047 1.034-.047h16.09c.317 0 .635-.023.953-.035.39-.187.202-.543.204-.822M9.372 11.922q.102.002.203.027a.4.4 0 0 1-.203-.027"></path></g><defs><clipPath id="a"><path fill="#fff" d="M0 .875h174.458v28.25H0z"></path></clipPath></defs></svg>
