<svg width="198" height="63" viewBox="0 0 198 63" fill="none" xmlns="http://www.w3.org/2000/svg">
<path d="M67.8591 26.4554H70.1541V43.6109H67.8591V26.4554Z" fill="white"/>
<path d="M75.4956 31.4816H77.6986V33.3269C78.598 31.9427 80.1104 31.2749 81.6879 31.2749C84.8565 31.2749 86.251 33.4603 86.2903 36.0582V43.6099H84.0873V36.4345C84.0873 34.431 83.0577 33.1801 81.0883 33.1801C79.0156 33.1801 77.6986 34.3338 77.6986 36.6164V43.6099H75.4956V31.4806V31.4816Z" fill="white"/>
<path d="M88.6475 31.4817H91.0593L94.8925 40.9759L98.7382 31.4817H101.15L95.8177 43.611H93.9663L88.6475 31.4817Z" fill="white"/>
<path d="M102.529 37.6006C102.529 34.2615 104.562 31.2749 108.552 31.2749C112.919 31.2749 114.34 34.5406 114.34 37.0423C114.34 37.492 114.288 37.9769 114.235 38.1598H104.861C105.031 40.491 106.348 41.9476 108.785 41.9476C110.219 41.9476 111.288 41.5589 112.37 40.491L113.909 41.7419C112.461 43.1871 110.897 43.8177 108.772 43.8177C104.652 43.8177 102.527 41.0131 102.527 37.6016L102.529 37.6006ZM112.151 36.6536C112.151 36.3869 112.151 36.1316 112.1 35.8886C111.878 34.3834 110.731 33.0116 108.54 33.0116C106.35 33.0116 105.111 34.5292 104.864 36.6536H112.152H112.151Z" fill="white"/>
<path d="M116.528 40.5509L118.315 39.8221C118.758 40.9758 119.853 42.0923 121.77 42.0923C123.568 42.0923 124.481 41.1939 124.481 40.125C124.481 37.248 117.258 39.1047 117.258 34.7463C117.258 32.4637 119.344 31.2738 121.847 31.2738C123.959 31.2738 125.602 32.2207 126.54 33.8355L124.833 34.6977C124.259 33.7259 123.294 32.9134 121.769 32.9134C120.243 32.9134 119.37 33.5688 119.37 34.4796C119.37 37.1022 126.658 35.4513 126.658 40.0278C126.658 42.5771 124.39 43.8156 121.874 43.8156C119.358 43.8156 117.181 42.3952 116.528 40.5499V40.5509Z" fill="white"/>
<path d="M130.867 40.2232V33.2173H128.716V31.4816H130.893V28.1301L133.07 26.6487V31.4806H136.59V33.2163H133.07V39.8821C133.07 41.4121 133.76 41.9951 134.961 41.9951C135.56 41.9951 136.199 41.8132 136.577 41.655L136.591 43.5251C136.173 43.6709 135.392 43.8166 134.583 43.8166C132.197 43.8166 130.868 42.5058 130.868 40.2232H130.867Z" fill="white"/>
<path d="M154.005 26.4554V43.6109H151.632L142.962 29.9278V43.6109H140.746V26.4554H143.092L151.788 40.1023V26.4554H154.005Z" fill="white"/>
<path d="M169.125 36.2163V43.6109H167.287L167.143 41.4493C166.218 43.0279 164.418 43.8167 162.632 43.8167C159.985 43.8167 158.055 42.42 158.055 40.0165C158.055 37.613 160.219 36.544 163.427 36.544H167.116C167.103 34.1767 166.269 33.0716 163.805 33.0716C162.149 33.0716 161.041 33.8366 160.259 34.9655L158.565 33.8242C159.829 32.2094 161.394 31.2749 163.78 31.2749C167.196 31.2749 169.126 33.2049 169.126 36.2163H169.125ZM167.117 38.839V38.0503H163.558C161.367 38.0503 160.324 38.8638 160.324 40.0899C160.324 41.316 161.289 42.0572 163.062 42.0572C165.265 42.0572 166.686 40.6605 167.116 38.8401L167.117 38.839Z" fill="white"/>
<path d="M173.477 26.4554H175.785V29.0295H173.477V26.4554ZM173.529 31.4816H175.732V43.6109H173.529V31.4816Z" fill="white"/>
<path d="M177.032 48.5038L177.606 46.7071C178.101 46.9014 178.636 47.0224 178.988 47.0224C180.045 47.0224 180.54 46.4393 180.54 45.2009V31.4816H182.756V45.0562C182.756 47.3026 181.648 48.8925 179.197 48.8925C178.493 48.8925 177.594 48.6982 177.032 48.5038ZM180.487 26.4554H182.808V29.0295H180.487V26.4554Z" fill="white"/>
<path d="M197.433 36.2163V43.6109H195.595L195.451 41.4493C194.526 43.0279 192.726 43.8167 190.94 43.8167C188.293 43.8167 186.363 42.42 186.363 40.0165C186.363 37.613 188.527 36.544 191.735 36.544H195.424C195.411 34.1767 194.577 33.0716 192.113 33.0716C190.457 33.0716 189.349 33.8366 188.567 34.9655L186.873 33.8242C188.137 32.2094 189.702 31.2749 192.088 31.2749C195.504 31.2749 197.434 33.2049 197.434 36.2163H197.433ZM195.425 38.839V38.0503H191.866C189.676 38.0503 188.632 38.8638 188.632 40.0899C188.632 41.316 189.597 42.0572 191.37 42.0572C193.573 42.0572 194.994 40.6605 195.424 38.8401L195.425 38.839Z" fill="white"/>
<path d="M68.1042 51.9191H70.33C71.5629 51.9191 72.5296 52.4425 72.5296 53.6767C72.5296 54.3744 72.0876 54.9306 71.5367 55.1391C72.3473 55.3227 72.889 56.0153 72.889 56.8678C72.889 58.0981 71.9171 58.7604 70.5438 58.7604H68.1056V51.9191H68.1042ZM70.5543 54.9161C71.277 54.9161 71.8699 54.5004 71.8699 53.716C71.8699 52.9317 71.3085 52.5251 70.3418 52.5251H68.8178V54.9161H70.5543ZM70.5543 58.1256C71.6206 58.1256 72.1873 57.6797 72.1873 56.7943C72.1873 56.0192 71.6469 55.4972 70.7419 55.4972H68.8178V58.1256H70.5543Z" fill="white"/>
<path d="M76.6924 56.1451L73.8948 51.9191H74.7578L77.0557 55.4972L79.3589 51.9191H80.2272L77.4295 56.1451V58.7591H76.6911V56.1451H76.6924Z" fill="white"/>
<path d="M84.2449 55.3279C84.2449 53.2989 85.3781 51.8377 87.6144 51.8377C89.0703 51.8377 90.0684 52.4673 90.6088 53.6871L89.9385 53.9389C89.57 52.9172 88.7896 52.4765 87.6091 52.4765C85.8358 52.4765 84.9518 53.5992 84.9518 55.3043C84.9518 57.0094 85.7322 58.199 87.5724 58.199C88.7266 58.199 89.4913 57.7386 89.9543 56.7182L90.6193 56.97C90.0422 58.1898 89.0073 58.8338 87.5724 58.8338C85.3781 58.8338 84.2449 57.357 84.2449 55.3292V55.3279Z" fill="white"/>
<path d="M92.4436 51.9191H93.1558V55.0132H97.0132V51.9191H97.7254V58.7604H97.0132V55.6283H93.1558V58.7604H92.4436V51.9191Z" fill="white"/>
<path d="M102.139 51.9191H102.737L105.461 58.7604H104.686L104.062 57.1091H100.822L100.187 58.7604H99.407L102.136 51.9191H102.139ZM103.84 56.5333L102.442 52.8491L101.049 56.5333H103.842H103.84Z" fill="white"/>
<path d="M107.145 51.9191H109.163C110.645 51.9191 111.632 52.6313 111.632 53.855C111.632 55.0787 110.66 55.7673 109.163 55.7673H107.852V58.7591H107.145V51.9178V51.9191ZM109.163 55.1391C110.338 55.1391 110.925 54.684 110.925 53.8563C110.925 53.0287 110.317 52.5447 109.163 52.5447H107.852V55.1391H109.163Z" fill="white"/>
<path d="M113.555 51.9191H118.359V52.5343H114.267V55.0184H117.949V55.6336H114.267V58.1322H118.359V58.7617H113.555V51.9204V51.9191Z" fill="white"/>
<path d="M120.339 51.9191H121.051V58.1309H124.415V58.7604H120.339V51.9191Z" fill="white"/>
<path d="M128.957 51.9191H129.669V55.0132H133.528V51.9191H134.24V58.7604H133.528V55.6283H129.669V58.7604H128.957V51.9191Z" fill="white"/>
<path d="M136.729 51.9191H137.441V58.7604H136.729V51.9191Z" fill="white"/>
<path d="M139.935 51.9191H140.648V58.1309H144.012V58.7604H139.935V51.9191Z" fill="white"/>
<path d="M145.675 51.9191H146.387V58.1309H149.752V58.7604H145.675V51.9191Z" fill="white"/>
<path d="M154.292 51.9191H156.273C158.706 51.9191 160.021 53.1638 160.021 55.3896C160.021 57.6154 158.674 58.7591 156.262 58.7591H154.292V51.9178V51.9191ZM156.2 58.1453C158.156 58.1453 159.31 57.2639 159.31 55.366C159.31 53.4681 158.323 52.5342 156.263 52.5342H155.005V58.1453H156.202H156.2Z" fill="white"/>
<path d="M162.023 51.9191H166.827V52.5343H162.735V55.0184H166.417V55.6336H162.735V58.1322H166.827V58.7617H162.023V51.9204V51.9191Z" fill="white"/>
<path d="M173.903 51.9191V58.7604H173.149L169.494 52.9697V58.7604H168.808V51.9191H169.562L173.217 57.6902V51.9191H173.903Z" fill="white"/>
<path d="M176.391 51.9191H177.103V55.0132H180.962V51.9191H181.674V58.7604H180.962V55.6283H177.103V58.7604H176.391V51.9191Z" fill="white"/>
<path d="M186.088 51.9191H186.686L189.41 58.7604H188.635L188.011 57.1091H184.771L184.136 58.7604H183.356L186.085 51.9191H186.088ZM187.788 56.5333L186.39 52.8491L184.997 56.5333H187.789H187.788Z" fill="white"/>
<path d="M197.999 51.9191V58.7604H197.313V52.7913L194.895 58.1991H194.199L191.782 52.7822V58.7604H191.096V51.9191H192.083L194.553 57.458L197.018 51.9191H198H197.999Z" fill="white"/>
<path d="M48.5245 48.3891C50.1052 49.9656 50.9952 52.1065 50.9973 54.3395V20.5866C50.9518 15.9233 47.1351 12.181 42.4717 12.2265C37.8725 12.2709 34.156 15.9884 34.1116 20.5866V33.9741L48.5245 48.3891Z" fill="url(#paint0_linear_2925_56)"/>
<path d="M2.81305 26.5577C1.2324 24.9802 0.343355 22.8403 0.340254 20.6073V54.3602C0.294768 59.0235 4.03808 62.8402 8.70145 62.8857C13.3648 62.9312 17.1815 59.1879 17.227 54.5245C17.227 54.4697 17.227 54.4149 17.227 54.3602V40.9717L2.81305 26.5577Z" fill="url(#paint1_linear_2925_56)"/>
<path d="M50.9921 54.3395C50.99 52.1065 50.0999 49.9666 48.5193 48.3891L34.1115 33.9823V54.3591C34.066 59.0225 37.8093 62.8392 42.4727 62.8837C47.1361 62.9292 50.9528 59.1858 50.9972 54.5225C50.9972 54.4677 50.9972 54.4129 50.9972 54.3581" fill="url(#paint2_linear_2925_56)"/>
<path d="M36.569 60.3137C34.9925 58.7331 34.1086 56.5921 34.1117 54.3602V33.9751L29.1237 28.9871L14.7532 14.6176C16.338 16.1993 17.228 18.3475 17.2249 20.5867V40.9645L36.568 60.3137H36.569Z" fill="url(#paint3_linear_2925_56)"/>
<path d="M8.79332 1.83361e-06C3.94076 -0.0030995 0.00310222 3.92836 8.8918e-07 8.78195C-0.00103289 11.0831 0.899388 13.2934 2.51001 14.9381C5.62996 11.4749 10.9663 11.1958 14.4295 14.3147C14.6507 14.5142 14.8616 14.7251 15.0601 14.9464C18.4602 11.4822 18.4085 5.91735 14.9443 2.51725C13.3037 0.904558 11.0945 0.00103561 8.79332 1.83361e-06Z" fill="url(#paint4_linear_2925_56)"/>
<path d="M8.78298 12.1448C6.38978 12.1417 4.10926 13.1579 2.51001 14.9381C5.90287 18.4064 11.4646 18.4674 14.9329 15.0745C14.9763 15.0322 15.0187 14.9898 15.0611 14.9464C13.4629 13.1621 11.1793 12.1427 8.78298 12.1448Z" fill="url(#paint5_linear_2925_56)"/>
<path d="M15.0632 14.9485C11.6652 18.4116 6.10346 18.4654 2.6403 15.0673C2.59688 15.025 2.5545 14.9826 2.51211 14.9391C1.11238 16.4867 0.338079 18.4995 0.339112 20.5856L0.345315 20.6053C0.347383 22.8382 1.23643 24.9792 2.81811 26.5557L17.2248 40.9624V20.5846C17.2269 18.5026 16.4567 16.4929 15.0622 14.9464L15.0632 14.9485Z" fill="url(#paint6_linear_2925_56)"/>
<defs>
<linearGradient id="paint0_linear_2925_56" x1="42.5534" y1="54.3395" x2="42.5534" y2="12.1448" gradientUnits="userSpaceOnUse">
<stop offset="0.28" stop-color="#FF5733"/>
<stop offset="0.44" stop-color="#FE702B"/>
<stop offset="0.76" stop-color="#FCB017"/>
<stop offset="1" stop-color="#FAE407"/>
</linearGradient>
<linearGradient id="paint1_linear_2925_56" x1="17.226" y1="41.746" x2="0.340254" y2="41.746" gradientUnits="userSpaceOnUse">
<stop stop-color="#002B43"/>
<stop offset="0.24" stop-color="#075363"/>
<stop offset="0.69" stop-color="#13999D"/>
<stop offset="0.9" stop-color="#18B5B4"/>
</linearGradient>
<linearGradient id="paint2_linear_2925_56" x1="42.5544" y1="33.9834" x2="42.5544" y2="62.803" gradientUnits="userSpaceOnUse">
<stop offset="0.02" stop-color="#E52000"/>
<stop offset="0.42" stop-color="#E32002"/>
<stop offset="0.6" stop-color="#DC1E07"/>
<stop offset="0.73" stop-color="#CF1B10"/>
<stop offset="0.84" stop-color="#BD171D"/>
<stop offset="0.93" stop-color="#A6112E"/>
<stop offset="1" stop-color="#900C3E"/>
</linearGradient>
<linearGradient id="paint3_linear_2925_56" x1="36.569" y1="37.4662" x2="14.7542" y2="37.4662" gradientUnits="userSpaceOnUse">
<stop stop-color="#900C3E"/>
<stop offset="0.09" stop-color="#9E1842"/>
<stop offset="0.35" stop-color="#C0344C"/>
<stop offset="0.59" stop-color="#D84853"/>
<stop offset="0.81" stop-color="#E75557"/>
<stop offset="1" stop-color="#EC5959"/>
</linearGradient>
<linearGradient id="paint4_linear_2925_56" x1="8.8918e-07" y1="7.47422" x2="17.5784" y2="7.47422" gradientUnits="userSpaceOnUse">
<stop stop-color="#248887"/>
<stop offset="1" stop-color="#18B5B4"/>
</linearGradient>
<linearGradient id="paint5_linear_2925_56" x1="2.51001" y1="14.8626" x2="15.0611" y2="14.8626" gradientUnits="userSpaceOnUse">
<stop stop-color="#002B43"/>
<stop offset="0.43" stop-color="#0A6371"/>
<stop offset="1" stop-color="#18B5B4"/>
</linearGradient>
<linearGradient id="paint6_linear_2925_56" x1="0.340146" y1="27.9534" x2="17.2259" y2="27.9534" gradientUnits="userSpaceOnUse">
<stop stop-color="#248887"/>
<stop offset="0.18" stop-color="#228383"/>
<stop offset="0.41" stop-color="#1C7378"/>
<stop offset="0.66" stop-color="#125A66"/>
<stop offset="0.92" stop-color="#05374C"/>
<stop offset="1" stop-color="#002B43"/>
</linearGradient>
</defs>
</svg>
