<svg width="250" height="57" viewBox="0 0 250 57" fill="none" xmlns="http://www.w3.org/2000/svg">
<path d="M68.3247 13.5538C68.3247 12.7332 68.6159 12.0185 69.2248 11.4361C69.8071 10.8537 70.5219 10.5625 71.316 10.5625C72.1367 10.5625 72.8514 10.8537 73.4338 11.4361C74.0162 12.0185 74.3073 12.7332 74.3073 13.5538C74.3073 14.3744 74.0162 15.0892 73.4338 15.6451C72.8514 16.2275 72.1367 16.5187 71.316 16.5187C70.5219 16.5187 69.8071 16.2275 69.2248 15.6451C68.6159 15.0892 68.3247 14.3744 68.3247 13.5538ZM66.1011 41.0845H67.4511C67.7953 41.0845 68.0865 40.9522 68.3512 40.7139C68.5894 40.4492 68.6953 40.158 68.6953 39.7874V17.7364H73.8838V39.7874C73.8838 40.6875 73.6985 41.5346 73.3544 42.3287C73.0367 43.1229 72.5602 43.8111 71.9778 44.3935C71.3954 44.9759 70.7072 45.4524 69.9395 45.7965C69.1718 46.1407 68.3247 46.2995 67.4511 46.2995H66.1011V41.0845Z" fill="#004080"/>
<path d="M96.2521 28.7483C96.2521 27.8483 96.0668 27.0276 95.7491 26.2335C95.4314 25.4393 94.955 24.7511 94.3726 24.1687C93.7902 23.5863 93.1019 23.1363 92.3078 22.7921C91.5401 22.448 90.693 22.2627 89.7665 22.2627C88.8664 22.2627 88.0458 22.448 87.2516 22.7921C86.4575 23.1363 85.7692 23.5863 85.1868 24.1687C84.6045 24.7511 84.1544 25.4393 83.8103 26.2335C83.4662 27.0276 83.2809 27.8483 83.2809 28.7483C83.2809 29.6219 83.4662 30.469 83.8103 31.2631C84.1544 32.0838 84.6045 32.772 85.1868 33.3544C85.7692 33.9368 86.4575 34.4133 87.2516 34.7309C88.0458 35.0751 88.8664 35.2604 89.7665 35.2604C90.693 35.2604 91.5401 35.0751 92.3078 34.7309C93.1019 34.4133 93.7902 33.9368 94.3726 33.3544C94.955 32.772 95.4314 32.0838 95.7491 31.2631C96.0668 30.469 96.2521 29.6219 96.2521 28.7483ZM96.2521 36.5575H96.1727C95.7756 37.0605 95.352 37.537 94.8491 38.0134C94.3461 38.4899 93.8167 38.9135 93.2078 39.2576C92.599 39.6018 91.9107 39.8929 91.1695 40.1047C90.4283 40.343 89.6341 40.4489 88.787 40.4489C87.2516 40.4489 85.8222 40.1577 84.4721 39.5753C83.122 38.9664 81.9573 38.1723 80.9513 37.1134C79.9454 36.0545 79.1513 34.8104 78.5689 33.3809C77.9865 31.9779 77.6953 30.416 77.6953 28.7483C77.6953 27.0541 77.9865 25.5187 78.5689 24.0893C79.1513 22.6598 79.9454 21.4421 80.9513 20.4097C81.9573 19.3508 83.122 18.5566 84.4721 17.9478C85.8222 17.3654 87.2516 17.0742 88.787 17.0742C89.6341 17.0742 90.4283 17.1801 91.1695 17.3919C91.9107 17.6037 92.599 17.8684 93.2078 18.239C93.8167 18.5831 94.3461 19.0067 94.8491 19.4567C95.352 19.9332 95.7756 20.4361 96.1727 20.9391H96.2521V17.736H101.546V39.7871H96.2521V36.5575Z" fill="#004080"/>
<path d="M111.446 39.787H106.099V17.7359H111.446V39.787ZM105.781 13.421C105.781 12.6004 106.072 11.8856 106.655 11.3033C107.237 10.7209 107.952 10.4297 108.773 10.4297C109.62 10.4297 110.334 10.7209 110.917 11.3033C111.499 11.8856 111.79 12.6004 111.79 13.421C111.79 14.2681 111.499 14.9828 110.917 15.5652C110.334 16.1476 109.62 16.4388 108.773 16.4388C107.952 16.4388 107.237 16.1476 106.655 15.5652C106.072 14.9828 105.781 14.2681 105.781 13.421Z" fill="#004080"/>
<path d="M122.484 34.5459V34.5989H134V39.7874H115.178V34.5989L126.72 22.9513V22.8719H115.178V17.7363H134V22.8719L122.484 34.5459Z" fill="#004080"/>
<path d="M153.352 28.7485C153.352 29.6221 153.511 30.4692 153.855 31.2633C154.199 32.0839 154.676 32.7722 155.258 33.3546C155.84 33.937 156.529 34.4135 157.323 34.7311C158.091 35.0753 158.938 35.2606 159.838 35.2606C160.738 35.2606 161.585 35.0753 162.379 34.7311C163.173 34.4135 163.861 33.937 164.444 33.3546C165.026 32.7722 165.476 32.0839 165.82 31.2633C166.138 30.4692 166.297 29.6221 166.297 28.7485C166.297 27.8484 166.138 27.0278 165.82 26.2337C165.476 25.4395 165.026 24.7512 164.444 24.1689C163.861 23.5865 163.173 23.1365 162.379 22.7923C161.585 22.4482 160.738 22.2629 159.838 22.2629C158.938 22.2629 158.091 22.4482 157.323 22.7923C156.529 23.1365 155.84 23.5865 155.258 24.1689C154.676 24.7512 154.199 25.4395 153.855 26.2337C153.511 27.0278 153.352 27.8484 153.352 28.7485ZM152.929 39.7872H148.031V11.2241H153.352V20.9393H153.432C154.226 19.8804 155.205 18.9804 156.396 18.2392C157.588 17.4715 159.07 17.0744 160.817 17.0744C162.353 17.0744 163.782 17.3656 165.132 17.948C166.482 18.5568 167.647 19.351 168.653 20.4099C169.659 21.4423 170.453 22.66 171.035 24.0894C171.618 25.5189 171.909 27.0543 171.909 28.7485C171.909 30.4162 171.618 31.978 171.035 33.3811C170.453 34.8105 169.659 36.0547 168.653 37.1136C167.647 38.1725 166.482 38.9666 165.132 39.5755C163.782 40.1578 162.353 40.449 160.817 40.449C159.917 40.449 159.044 40.3167 158.276 40.1049C157.482 39.8667 156.767 39.549 156.105 39.1519C155.47 38.7813 154.887 38.3048 154.384 37.7754C153.882 37.2459 153.405 36.69 153.008 36.1077H152.929V39.7872Z" fill="#716F70"/>
<path d="M193.509 28.7483C193.509 27.8483 193.35 27.0276 193.006 26.2335C192.688 25.4393 192.212 24.7511 191.629 24.1687C191.047 23.5863 190.359 23.1363 189.591 22.7921C188.797 22.448 187.95 22.2627 187.023 22.2627C186.15 22.2627 185.303 22.448 184.508 22.7921C183.714 23.1363 183.053 23.5863 182.47 24.1687C181.861 24.7511 181.411 25.4393 181.067 26.2335C180.723 27.0276 180.564 27.8483 180.564 28.7483C180.564 29.6219 180.723 30.469 181.067 31.2631C181.411 32.0838 181.861 32.772 182.47 33.3544C183.053 33.9368 183.714 34.4133 184.508 34.7309C185.303 35.0751 186.15 35.2604 187.023 35.2604C187.95 35.2604 188.797 35.0751 189.591 34.7309C190.359 34.4133 191.047 33.9368 191.629 33.3544C192.212 32.772 192.688 32.0838 193.006 31.2631C193.35 30.469 193.509 29.6219 193.509 28.7483ZM193.509 36.5575H193.429C193.059 37.0605 192.609 37.537 192.106 38.0134C191.629 38.4899 191.074 38.9135 190.465 39.2576C189.856 39.6018 189.168 39.8929 188.426 40.1047C187.712 40.343 186.891 40.4489 186.044 40.4489C184.508 40.4489 183.079 40.1577 181.729 39.5753C180.379 38.9664 179.214 38.1723 178.208 37.1134C177.202 36.0545 176.408 34.8104 175.826 33.3809C175.243 31.9779 174.952 30.416 174.952 28.7483C174.952 27.0541 175.243 25.5187 175.826 24.0893C176.408 22.6598 177.202 21.4421 178.208 20.4097C179.214 19.3508 180.379 18.5566 181.729 17.9478C183.079 17.3654 184.508 17.0742 186.044 17.0742C186.891 17.0742 187.712 17.1801 188.426 17.3919C189.168 17.6037 189.856 17.8684 190.465 18.239C191.074 18.5831 191.629 19.0067 192.106 19.4567C192.609 19.9332 193.059 20.4361 193.429 20.9391H193.509V17.736H198.803V39.7871H193.509V36.5575Z" fill="#716F70"/>
<path d="M203.383 39.7871V17.736H208.28V20.8862H208.36C208.942 19.8273 209.815 18.9272 210.98 18.186C212.119 17.4448 213.548 17.0742 215.216 17.0742C216.486 17.0742 217.651 17.3125 218.684 17.7625C219.742 18.239 220.616 18.8743 221.384 19.6949C222.125 20.5156 222.707 21.5215 223.131 22.6598C223.554 23.8245 223.766 25.0952 223.766 26.4453V39.7871H218.419V27.1335C218.419 26.4453 218.286 25.8099 218.048 25.2275C217.783 24.6452 217.439 24.1422 216.989 23.6922C216.539 23.2422 216.036 22.898 215.454 22.6598C214.872 22.3951 214.236 22.2627 213.574 22.2627C212.886 22.2627 212.251 22.3951 211.668 22.6598C211.086 22.898 210.583 23.2422 210.133 23.6922C209.683 24.1422 209.339 24.6452 209.101 25.2275C208.836 25.8099 208.704 26.4453 208.704 27.1335V39.7871H203.383Z" fill="#716F70"/>
<path d="M249.497 17.7362L239.596 27.9808L249.497 39.7872H242.72L235.996 31.7133L233.508 34.3076V39.7872H228.319V11.2241H233.508V26.8425L242.296 17.7362H249.497Z" fill="#716F70"/>
<path d="M55.2203 20.0657C51.726 8.25922 40.8461 0.132359 28.3778 0.0529437C19.3244 0 10.2975 0.0264718 1.27065 0H0.0794155V23.8511H1.5089C12.3094 23.8511 23.1099 23.7982 33.9104 23.8511H35.0487V23.8776C35.8694 23.8776 36.69 23.8776 37.5371 23.8776C46.0875 23.9305 52.2554 32.5074 49.7671 40.7137C47.8346 47.014 41.7726 51.0377 35.5252 50.1641C28.6955 49.2112 24.01 43.8638 23.9835 36.9812C23.9835 33.5134 23.9835 30.0191 23.9835 26.5248H0C0 27.2131 0 27.8749 0.0264718 28.5366C0.238247 37.8812 3.91783 45.611 11.5417 51.0907C20.5951 57.6027 30.4956 58.4234 40.4755 53.7908C53.129 47.914 59.191 33.4604 55.2203 20.0657Z" fill="#FFBF00"/>
<path d="M164.813 51.9113H163.675L162.563 47.8082H162.537L161.399 51.9113H160.26L158.513 45.6905H159.704L160.816 49.7936H160.843L161.981 45.6905H163.093L164.205 49.7936H164.258L165.343 45.6905H166.561L164.813 51.9113ZM167.805 45.6905H168.97V51.9113H167.805V45.6905ZM173.232 46.8288V51.9113H172.067V46.8288H170.214V45.6905H175.058V46.8288H173.232ZM180.008 51.9113V49.3701H177.467V51.9113H176.302V45.6905H177.467V48.2318H180.008V45.6905H181.173V51.9113H180.008ZM190.941 45.6905L188.691 49.2906V51.9113H187.526V49.2906L185.276 45.6905H186.653L188.109 48.0729H188.135L189.538 45.6905H190.941ZM196.924 48.8141C196.924 48.523 196.871 48.2318 196.765 47.9935C196.633 47.7288 196.5 47.4905 196.289 47.3052C196.103 47.1199 195.891 46.9611 195.627 46.8552C195.362 46.7493 195.097 46.6964 194.806 46.6964C194.515 46.6964 194.224 46.7493 193.985 46.8552C193.721 46.9611 193.482 47.1199 193.297 47.3052C193.112 47.4905 192.953 47.7288 192.847 47.9935C192.741 48.2318 192.688 48.523 192.688 48.8141C192.688 49.1053 192.741 49.3701 192.847 49.6348C192.953 49.8995 193.112 50.1113 193.297 50.2966C193.482 50.5083 193.721 50.6407 193.985 50.7466C194.224 50.8789 194.515 50.9319 194.806 50.9319C195.097 50.9319 195.362 50.8789 195.627 50.7466C195.891 50.6407 196.103 50.5083 196.289 50.2966C196.5 50.1113 196.633 49.8995 196.765 49.6348C196.871 49.3701 196.924 49.1053 196.924 48.8141ZM198.115 48.8141C198.115 49.2642 198.036 49.6877 197.877 50.0848C197.692 50.4819 197.453 50.826 197.162 51.1172C196.844 51.4084 196.5 51.6202 196.103 51.8055C195.68 51.9643 195.256 52.0437 194.806 52.0437C194.33 52.0437 193.906 51.9643 193.509 51.8055C193.085 51.6202 192.741 51.4084 192.45 51.1172C192.132 50.826 191.921 50.4819 191.735 50.0848C191.55 49.6877 191.471 49.2642 191.471 48.8141C191.471 48.3376 191.55 47.9141 191.735 47.517C191.921 47.1199 192.132 46.7758 192.45 46.4846C192.741 46.1934 193.085 45.9817 193.509 45.8228C193.906 45.6375 194.33 45.5581 194.806 45.5581C195.256 45.5581 195.68 45.6375 196.103 45.8228C196.5 45.9817 196.844 46.1934 197.162 46.4846C197.453 46.7758 197.692 47.1199 197.877 47.517C198.036 47.9141 198.115 48.3376 198.115 48.8141ZM204.468 49.7407C204.468 50.1113 204.415 50.4289 204.283 50.7201C204.151 50.9848 203.992 51.2496 203.78 51.4349C203.542 51.6466 203.304 51.779 202.986 51.8849C202.695 51.9908 202.351 52.0437 202.006 52.0437C201.636 52.0437 201.318 51.9908 201 51.8849C200.709 51.779 200.445 51.6466 200.233 51.4349C200.021 51.2496 199.836 50.9848 199.703 50.7201C199.597 50.4289 199.545 50.1113 199.545 49.7407V45.6905H200.709V49.7407C200.709 49.926 200.736 50.0848 200.815 50.2436C200.868 50.4025 200.974 50.5083 201.08 50.6142C201.186 50.7201 201.318 50.7995 201.503 50.8525C201.662 50.9319 201.821 50.9584 202.006 50.9584C202.192 50.9584 202.351 50.9319 202.509 50.8525C202.668 50.7995 202.827 50.7201 202.933 50.6142C203.039 50.5083 203.145 50.4025 203.198 50.2436C203.277 50.0848 203.304 49.926 203.304 49.7407V45.6905H204.468V49.7407ZM210.107 46.8288V48.2318H212.78V49.3701H210.107V51.9113H208.942V45.6905H213.336V46.8288H210.107ZM219.663 48.8141C219.663 48.523 219.61 48.2318 219.504 47.9935C219.398 47.7288 219.24 47.4905 219.054 47.3052C218.843 47.1199 218.631 46.9611 218.366 46.8552C218.101 46.7493 217.837 46.6964 217.545 46.6964C217.254 46.6964 216.963 46.7493 216.725 46.8552C216.46 46.9611 216.248 47.1199 216.037 47.3052C215.851 47.4905 215.719 47.7288 215.586 47.9935C215.481 48.2318 215.428 48.523 215.428 48.8141C215.428 49.1053 215.481 49.3701 215.586 49.6348C215.719 49.8995 215.851 50.1113 216.037 50.2966C216.248 50.5083 216.46 50.6407 216.725 50.7466C216.963 50.8789 217.254 50.9319 217.545 50.9319C217.837 50.9319 218.101 50.8789 218.366 50.7466C218.631 50.6407 218.843 50.5083 219.054 50.2966C219.24 50.1113 219.398 49.8995 219.504 49.6348C219.61 49.3701 219.663 49.1053 219.663 48.8141ZM220.881 48.8141C220.881 49.2642 220.775 49.6877 220.616 50.0848C220.431 50.4819 220.193 50.826 219.901 51.1172C219.584 51.4084 219.24 51.6202 218.843 51.8055C218.419 51.9643 217.995 52.0437 217.545 52.0437C217.069 52.0437 216.645 51.9643 216.248 51.8055C215.851 51.6202 215.481 51.4084 215.189 51.1172C214.898 50.826 214.66 50.4819 214.475 50.0848C214.289 49.6877 214.21 49.2642 214.21 48.8141C214.21 48.3376 214.289 47.9141 214.475 47.517C214.66 47.1199 214.898 46.7758 215.189 46.4846C215.481 46.1934 215.851 45.9817 216.248 45.8228C216.645 45.6375 217.069 45.5581 217.545 45.5581C217.995 45.5581 218.419 45.6375 218.843 45.8228C219.24 45.9817 219.584 46.1934 219.901 46.4846C220.193 46.7758 220.431 47.1199 220.616 47.517C220.775 47.9141 220.881 48.3376 220.881 48.8141ZM227.181 47.8082C227.181 48.2582 227.075 48.6553 226.837 48.9994C226.599 49.3171 226.308 49.5818 225.937 49.7407L227.022 51.9113H225.699L224.719 49.926H223.449V51.9113H222.284V45.6905H225.01C225.302 45.6905 225.593 45.7434 225.858 45.8758C226.122 45.9817 226.361 46.114 226.546 46.2993C226.758 46.4846 226.916 46.7229 227.022 46.9876C227.128 47.2258 227.181 47.517 227.181 47.8082ZM225.99 47.8082C225.99 47.6759 225.963 47.5435 225.91 47.4376C225.858 47.3052 225.778 47.1994 225.699 47.1199C225.619 47.0405 225.513 46.9611 225.381 46.9082C225.275 46.8552 225.143 46.8288 225.01 46.8288H223.449V48.8141H225.01C225.143 48.8141 225.275 48.7877 225.381 48.7347C225.513 48.6818 225.619 48.6024 225.699 48.523C225.778 48.4171 225.858 48.3112 225.91 48.2053C225.963 48.0729 225.99 47.967 225.99 47.8082ZM235.758 51.9113H231.496V45.6905H232.661V50.7731H235.758V51.9113ZM237.002 45.6905H238.167V51.9113H237.002V45.6905ZM240.973 46.8288V48.2318H243.647V49.3701H240.973V51.9113H239.782V45.6905H244.203V46.8288H240.973ZM250 50.7731V51.9113H245.447V45.6905H250V46.8288H246.611V48.2318H249.417V49.3701H246.611V50.7731H250Z" fill="black"/>
</svg>
