<svg width="145" height="82" viewBox="0 0 145 82" fill="none" xmlns="http://www.w3.org/2000/svg">
<g clip-path="url(#clip0_2391_97)">
<path fill-rule="evenodd" clip-rule="evenodd" d="M17.5879 31.7308L7.70361 33.2416L39.1693 12.4051L49.1547 18.1432L73.5603 0L96.1503 18.7465L106.639 12.8088L137.299 33.0385L131.551 32.2338L106.237 15.9297L90.1003 23.6799L94.2338 19.9538L73.1557 4.25465L51.675 19.7534L56.3134 22.673L40.1781 16.4328L17.5879 31.7308Z" fill="#231F20"/>
<path fill-rule="evenodd" clip-rule="evenodd" d="M71.9711 12.2365V18.0387H67.457V14.9923C67.457 13.4756 68.7046 12.2365 70.2298 12.2365L71.9711 12.2365ZM67.457 19.2428V24.8172H71.9711V19.2428H67.457ZM73.1784 24.8172H77.5421V19.2428H73.1784V24.8172ZM77.5421 18.0387V14.9923C77.5421 13.4756 76.2926 12.2365 74.7677 12.2365H73.1784V18.0386L77.5421 18.0387Z" fill="#231F20"/>
<path fill-rule="evenodd" clip-rule="evenodd" d="M13.6689 31.1547H20.9429L37.3301 51.2184V35.7944C37.3301 34.1509 37.1419 33.1216 36.777 32.7172C36.2834 32.1644 35.5138 31.8894 34.4637 31.8894H33.5311V31.1547H42.8616V31.8894H41.911C40.7773 31.8894 39.9745 32.2338 39.5016 32.9142C39.2113 33.336 39.0706 34.2924 39.0706 35.7944V58.3355H38.3561L20.6861 36.796V53.2724C20.6861 54.9151 20.8613 55.9377 21.2193 56.349C21.7198 56.9019 22.4936 57.1773 23.5344 57.1773H24.4771V57.9043H15.1555V57.1773H16.0791C17.2246 57.1773 18.0354 56.8349 18.5154 56.1467C18.8048 55.7303 18.9465 54.7661 18.9465 53.2724V34.6699C18.1702 33.7618 17.5752 33.1626 17.1794 32.8721C16.7738 32.5832 16.1866 32.3144 15.4096 32.0623C15.0264 31.95 14.4468 31.8894 13.6689 31.8894V31.1547ZM52.4085 41.9095C52.848 41.5212 53.25 40.9531 53.5994 40.1784C53.9909 39.3129 53.9987 39.2839 53.4423 38.5537L52.6953 37.5633L53.145 36.4182C52.6985 35.8029 52.7898 35.103 52.9879 34.4226L51.4689 31.1547H43.879V31.8894C44.9737 31.8894 45.7621 32.0154 46.2618 32.2732C46.7538 32.5286 47.0905 32.8448 47.2792 33.2288C47.5429 33.7551 47.671 34.6091 47.671 35.7944V53.2724C47.671 54.7661 47.5284 55.7303 47.2382 56.147C46.7599 56.8349 45.9568 57.1776 44.8226 57.1776H43.879V57.9043H53.2028V57.1776H52.2589C51.2053 57.1776 50.4306 56.9019 49.9446 56.349C49.5882 55.9377 49.4116 54.9154 49.4116 53.2724V35.3956L51.9069 40.8229L52.4085 41.9095ZM74.5486 50.4437C74.2541 50.5801 73.9821 50.9236 73.6421 50.9142C73.4754 51.0094 73.2504 50.6921 73.0554 50.6013L73.0452 50.5962C72.9928 50.575 72.9429 50.5699 72.8981 50.5962C72.056 51.0804 71.6451 52.3685 70.7577 52.8852V53.2724C70.7577 54.7661 70.6159 55.7303 70.3265 56.147C69.8611 56.8349 69.0574 57.1776 67.9103 57.1776H66.9595V57.9043H78.3476V57.1776H77.4167C76.3649 57.1776 75.5953 56.9019 75.1085 56.349C74.7377 55.9377 74.5486 54.9154 74.5486 53.2724V50.4437ZM59.7664 57.9043L52.4085 41.9095C52.848 41.5212 53.25 40.9531 53.5994 40.1784C53.9909 39.3129 53.9987 39.2839 53.4423 38.5537L52.6953 37.5633L53.145 36.4182C52.6985 35.8029 52.7898 35.103 52.9879 34.4226L53.1217 34.7155L61.1909 52.0874L70.0534 32.6974C72.5506 33.0624 73.2528 32.4206 74.691 31.1547H78.3474V31.8894H77.4167C76.2693 31.8894 75.4578 32.2338 74.9874 32.9144C74.6963 33.336 74.5486 34.2924 74.5486 35.7944V50.4437C74.2541 50.5801 73.9821 50.9236 73.6421 50.9142C73.4754 51.0094 73.2504 50.6924 73.0554 50.6015L73.0452 50.5962C72.9928 50.575 72.9429 50.5699 72.8981 50.5962C72.056 51.0804 71.6451 52.3685 70.7577 52.8852L70.7574 35.3959L60.4222 57.9043H59.7664ZM70.0534 32.6974L70.1772 32.4232L70.7577 31.1547H74.6912C73.2528 32.4206 72.5506 33.0626 70.0534 32.6974ZM83.515 38.6231C84.6175 38.0285 86.092 37.6324 86.5807 36.7052L87.2359 35.233C86.2096 35.1062 85.8178 33.8968 85.1068 33.2304C85.1696 32.4436 84.7266 31.794 84.243 31.1547H79.6628V31.8894H80.6676C81.6783 31.8894 82.4485 32.1772 82.9602 32.7555C83.3244 33.1626 83.515 34.2037 83.515 35.8876V38.6231ZM106.324 57.9043H99.167L90.0908 45.4023C89.4243 45.4219 88.8765 45.4366 88.4525 45.4366C88.285 45.4366 88.1029 45.4366 87.9002 45.428C87.7028 45.4219 87.5012 45.4162 87.2847 45.4023V53.1714C87.2847 54.8553 87.4735 55.8975 87.8384 56.3086C88.3441 56.8879 89.0938 57.1773 90.0908 57.1773H91.1442V57.9043H79.6628V57.1773H80.6676C81.7992 57.1773 82.6117 56.8057 83.0942 56.073C83.3732 55.6644 83.515 54.6943 83.515 53.1714V38.6231C84.6175 38.0285 86.092 37.6324 86.5807 36.7052L87.2359 35.233C86.2096 35.1059 85.8178 33.8968 85.1068 33.2304C85.1696 32.4436 84.7266 31.794 84.243 31.1547H89.4243C92.2719 31.1547 94.3696 31.3623 95.7194 31.7822C97.0685 32.192 98.2137 32.9536 99.1584 34.0635C100.098 35.1826 100.569 36.5029 100.569 38.0432C100.569 39.6848 100.037 41.1134 98.9556 42.3243C97.8842 43.53 96.2245 44.3853 93.9714 44.8824L99.5037 52.5588C100.765 54.3231 101.859 55.4947 102.762 56.073C103.674 56.6446 104.86 57.0165 106.324 57.1776V57.9043ZM87.2847 44.1562C87.542 44.1562 87.7579 44.1562 87.9407 44.1632C88.1228 44.1693 88.2761 44.1771 88.3924 44.1771C90.9492 44.1771 92.878 43.624 94.1736 42.5213C95.4764 41.417 96.123 40.008 96.123 38.2983C96.123 36.6288 95.5975 35.2683 94.5509 34.2243C93.5058 33.1821 92.1149 32.6572 90.388 32.6572C89.6273 32.6572 88.594 32.7839 87.2847 33.0342V44.1562ZM130.104 30.549L130.717 39.6368H130.104C129.289 36.9169 128.119 34.9596 126.609 33.7615C125.091 32.5618 123.277 31.9621 121.152 31.9621C119.371 31.9621 117.766 32.4144 116.327 33.3151C114.89 34.2176 113.765 35.6529 112.942 37.6238C112.117 39.5974 111.706 42.055 111.706 44.9843C111.706 47.4022 112.092 49.5028 112.874 51.2782C113.649 53.0495 114.818 54.4105 116.383 55.3583C117.94 56.3086 119.72 56.7799 121.725 56.7799C123.465 56.7799 124.998 56.4088 126.332 55.6641C127.662 54.9221 129.126 53.4471 130.717 51.238L131.331 51.6297C129.99 54.0126 128.417 55.7557 126.63 56.8603C124.835 57.9657 122.709 58.5177 120.241 58.5177C115.802 58.5177 112.361 56.8743 109.925 53.5825C108.112 51.1377 107.2 48.2559 107.2 44.943C107.2 42.278 107.8 39.8217 108.995 37.5836C110.197 35.3495 111.848 33.6203 113.946 32.3863C116.051 31.1616 118.346 30.5488 120.834 30.5488C122.771 30.5488 124.688 31.0209 126.568 31.9621C127.122 32.2533 127.519 32.4007 127.756 32.4007C128.108 32.4007 128.417 32.2729 128.681 32.0237C129.025 31.674 129.268 31.1753 129.417 30.5488H130.104L130.104 30.549ZM53.3585 36.4962L53.1405 36.4112L53.145 36.4182L52.6953 37.5633L52.71 37.5825L52.8827 37.4526L53.6308 38.4414L53.457 38.573C53.7465 38.9535 53.8786 39.1411 53.8786 39.3643C53.8794 39.5567 53.7812 39.7759 53.6026 40.1701L53.4538 40.1031L53.489 40.0251L53.5218 39.9514L53.5526 39.8828L53.5803 39.8193L53.6061 39.7588L53.6284 39.703L53.6472 39.6516L53.6652 39.6044L53.6797 39.5597L53.6909 39.5195L53.7011 39.4836L53.7073 39.4493L53.7116 39.4192L53.714 39.3908L53.7151 39.3635L53.7135 39.3386L53.71 39.3139L53.7049 39.2882L53.6976 39.2633L53.6885 39.2349L53.6756 39.2051L53.6601 39.1724L53.6421 39.1373L53.6206 39.1003L53.5959 39.0593L53.5666 39.0157L53.5341 38.9685L53.4584 38.8632L53.4154 38.8048L53.3193 38.6772L53.457 38.573L53.4425 38.5539L52.7688 37.6603L52.5704 37.6873L52.5452 37.4989L52.9947 36.3547L53.1405 36.4112C52.9098 36.0913 52.8252 35.7483 52.8244 35.3978C52.8233 35.0751 52.894 34.7463 52.9885 34.4223L53.1225 34.7155L53.1381 34.7487L53.1099 34.8739L53.0868 35.0033L53.0685 35.1311L53.0567 35.2579L53.0521 35.3822L53.0551 35.5055L53.0661 35.6255L53.0849 35.7448L53.1139 35.8611L53.1526 35.9758L53.2017 36.0891L53.2618 36.2006L53.3359 36.311L53.3585 36.4962ZM53.1405 36.4112L52.9947 36.3547L53.0178 36.5391L52.9265 36.4013L52.8494 36.2588L52.7866 36.1151L52.7388 35.9693L52.7028 35.8228L52.6778 35.6754L52.6647 35.5272L52.6614 35.3803L52.6665 35.233L52.6794 35.0874L52.7012 34.9417L52.7267 34.7978L52.7576 34.6547L52.7938 34.5124L52.8338 34.3711L52.8754 34.2321L52.8851 34.2004L52.9885 34.4223C52.894 34.7463 52.8233 35.0754 52.8242 35.3978C52.825 35.7483 52.9095 36.091 53.1405 36.4112ZM53.6026 40.1698L53.5986 40.1784C53.25 40.9523 52.8483 41.5223 52.4085 41.9087L52.5046 42.1177L52.5068 42.1161L52.5774 42.0561L52.6467 41.9918L52.7157 41.9259L52.7825 41.8583L52.8494 41.786L52.9157 41.7123L52.9815 41.6354L53.0451 41.5555L53.1096 41.4735L53.1722 41.3878L53.2339 41.3001L53.2951 41.2093L53.3558 41.116L53.4152 41.019L53.4745 40.9207L53.5902 40.7133L53.6464 40.6053L53.7011 40.4938L53.7562 40.3797L53.8102 40.2634L53.6026 40.1698ZM52.3344 41.7485L52.4085 41.9087C52.8483 41.5223 53.25 40.9523 53.5986 40.1784L53.6026 40.1698L53.8102 40.2634L53.8792 40.1098L53.9108 40.0388L53.9401 39.9713L53.9667 39.9086L53.9922 39.8469L54.0148 39.7877L54.0352 39.7312L54.0532 39.6765L54.0695 39.6224L54.0816 39.5677L54.0926 39.5154L54.1004 39.4621L54.1047 39.4091V39.3568L54.1023 39.3035L54.0953 39.2515L54.0859 39.2L54.0714 39.1486L54.054 39.0979L54.0336 39.0492L54.0102 38.9993L53.9847 38.9506L53.9562 38.9002L53.9245 38.8501L53.891 38.7981L53.855 38.7447L53.8163 38.6901L53.7742 38.6327L53.7296 38.5727L53.6813 38.5092L53.6308 38.4414L53.457 38.573C53.7465 38.9535 53.8786 39.1411 53.8786 39.3643C53.8794 39.5567 53.7812 39.7759 53.6026 40.1701L53.4538 40.1031L53.4025 40.2143L53.3507 40.3223L53.2976 40.4279L53.2444 40.53L53.1912 40.6283L53.1362 40.7243L53.0811 40.8178L53.0255 40.9078L52.9689 40.9952L52.913 41.0793L52.8556 41.1605L52.797 41.2385L52.7388 41.3141L52.6794 41.3859L52.6203 41.4561L52.561 41.5231L52.5009 41.5874L52.4399 41.6499L52.3789 41.708L52.3344 41.7485ZM53.457 38.573L53.4425 38.5539L52.7686 37.6603L52.9085 37.6412L53.3585 36.4962L53.1405 36.4112L53.145 36.4182L52.6953 37.5633L52.71 37.5825L52.5701 37.6873L53.319 38.6775L53.457 38.573ZM53.3357 36.311L53.3974 36.3976L53.3585 36.4962L53.3357 36.311ZM52.5701 37.6873L52.5043 37.6008L52.5449 37.4987L52.5701 37.6873ZM84.3114 31.223C84.6138 31.6212 84.8995 32.025 85.056 32.4626L85.0576 32.4672C85.0687 32.4988 85.0799 32.5312 85.0893 32.5631L85.0995 32.5972C85.1092 32.6274 85.117 32.6583 85.1248 32.6891L85.1272 32.6976L85.1326 32.7199V32.7234L85.1398 32.7577L85.1476 32.7952L85.1495 32.8046L85.1581 32.8552L85.1597 32.8689L85.1634 32.8879L85.1651 32.9032L85.1691 32.9383L85.1702 32.9453L85.171 32.9573C85.1745 32.9873 85.1769 33.0179 85.1788 33.0482L85.1796 33.0755V33.0876L85.1814 33.1398V33.1639L85.1804 33.1896L85.1788 33.2368V33.2384L85.1753 33.2968V33.2974L85.1825 33.3046C85.6213 33.7213 85.9395 34.3433 86.3637 34.7844L86.3667 34.787C86.6024 35.0317 86.8715 35.2204 87.212 35.2865L87.2847 35.2983L84.3112 31.223H84.3114ZM87.2847 35.3436L86.6489 36.7733L86.6247 36.8153L86.6228 36.8194L86.5995 36.8579L86.5955 36.8657L86.5732 36.8992L86.5724 36.9019L86.5568 36.9241L86.5415 36.9464L86.5181 36.978L86.5165 36.9807L86.5028 36.9986L86.4977 37.0053L86.4735 37.0353L86.465 37.0466C86.447 37.0683 86.4279 37.0895 86.4088 37.1109L86.3876 37.134L86.3592 37.164L86.3522 37.1709L86.342 37.1811L86.3049 37.217L86.2561 37.2634L86.2142 37.3004L86.2005 37.3122L86.1935 37.3183C86.1559 37.3499 86.1161 37.3816 86.0761 37.4124L86.0399 37.4389L86.0321 37.4451L86.009 37.462C85.9773 37.4842 85.9454 37.5067 85.9126 37.5289L85.9102 37.53L85.8965 37.5394L85.8914 37.5426L85.8503 37.5691L85.8071 37.5967L85.8031 37.6L85.705 37.6595L85.7016 37.6611L85.6559 37.6887L85.6476 37.6927L85.6054 37.7168L85.5925 37.7246C85.4698 37.7932 85.3428 37.8591 85.2115 37.9231L85.1608 37.9483L85.0748 37.9893L85.0705 37.9909L85.067 37.9917L84.9736 38.0365L84.9642 38.0408L84.9505 38.0475L84.9433 38.0499L84.74 38.1434L84.7054 38.159L84.6831 38.1694L84.6436 38.1863L84.6267 38.1941L84.6154 38.1992L84.2891 38.3468L84.2755 38.3527L84.2333 38.3725L84.2142 38.3811L84.1766 38.3983L84.1535 38.4095L84.1208 38.4237C83.9911 38.4848 83.863 38.5454 83.7392 38.6089L83.7357 38.6097C83.6844 38.6373 83.6321 38.6638 83.5824 38.6903L87.2847 35.3439V35.3436ZM73.8075 51.1503L73.6719 50.914C73.9979 50.9043 74.2621 50.5758 74.5489 50.4437V50.3287L74.4987 50.3515L74.4318 50.3893L74.3674 50.4284L74.3064 50.4694L74.2471 50.5115L74.1904 50.5527L74.1357 50.5929L74.0814 50.6315L74.0301 50.6666L73.9794 50.6993L73.9305 50.7267L73.883 50.7492L73.8395 50.7661L73.7973 50.7773L73.756 50.7851L73.7157 50.7867L73.6137 50.8127L73.6719 50.914L73.6421 50.9142C73.4756 51.0094 73.2506 50.6924 73.0557 50.6013L73.0452 50.5954C73.0017 50.5793 72.9593 50.5723 72.9211 50.5852L72.8691 50.4946L72.9179 50.4705L72.9711 50.456L73.0245 50.4509L73.0734 50.4525L73.1196 50.4611L73.1609 50.4734L73.1988 50.4884L73.2359 50.5064L73.2673 50.5254L73.2992 50.5452L73.329 50.5664L73.3575 50.5873L73.4125 50.6299L73.4383 50.6514L73.4641 50.6731L73.4883 50.6934L73.5114 50.7122L73.5336 50.731L73.5551 50.7473L73.5758 50.7628L73.5946 50.7757L73.6107 50.7859L73.6255 50.7945L73.6368 50.8004L73.6445 50.803L73.6486 50.8049L73.6478 50.8038L73.641 50.8049L73.6322 50.8057L73.622 50.8081L73.6137 50.8127L73.6719 50.914L73.8075 51.1503L73.7579 51.1742L73.7052 51.1886L73.6542 51.1937L73.6032 51.1921L73.557 51.1836L73.5157 51.1718L73.477 51.1562L73.4415 51.1383L73.4085 51.1203L73.3766 51.0994L73.3473 51.079L73.3183 51.0579L73.2906 51.0354L73.2641 51.0147L73.2383 50.9925L73.2125 50.9721L73.1886 50.9523L73.1421 50.9137L73.1207 50.8974L73.1011 50.8829L73.082 50.869L73.0656 50.8588L73.0506 50.8502L73.0398 50.8451L73.032 50.8419L73.028 50.8397L73.0286 50.8408H73.0342L73.0433 50.8392L73.0554 50.8363L73.0629 50.8322L72.9211 50.5852C72.9134 50.5879 72.9058 50.5911 72.8983 50.5954C72.056 51.0804 71.6449 52.3683 70.7569 52.8849V52.7662L70.8125 52.7311L70.9 52.6692L70.9851 52.6009L71.0684 52.5272L71.1492 52.4473L71.2273 52.3643L71.3052 52.2761L71.3812 52.1844L71.4564 52.0882L71.5313 51.9904L71.6051 51.8913L71.6782 51.7886L71.752 51.6865L71.8259 51.5828L71.9005 51.4783L71.976 51.3754L72.0525 51.2744L72.1306 51.1731L72.2115 51.0745L72.2947 50.9786L72.3795 50.8861L72.469 50.7979L72.5627 50.713L72.6604 50.6342L72.7619 50.5605L72.8691 50.4946L72.9211 50.5852C72.9134 50.5879 72.9058 50.5911 72.8986 50.5954C72.056 51.0804 71.6452 52.3683 70.7569 52.8849V53.2062L70.8007 53.1872L70.9175 53.1253L71.03 53.0559L71.136 52.9795L71.2375 52.8983L71.3345 52.8118L71.4274 52.7209L71.5168 52.6269L71.6027 52.5291L71.686 52.4288L71.7654 52.3275L71.8439 52.2246L71.9201 52.1201L71.9966 52.0164L72.0705 51.9119L72.1443 51.809L72.2174 51.708L72.2896 51.6075L72.3632 51.5108L72.4373 51.4164L72.5109 51.3259L72.5858 51.239L72.661 51.157L72.7386 51.0807L72.8167 51.0096L72.8975 50.9445L72.9789 50.885L73.0629 50.8322L72.9211 50.5852C72.9593 50.5723 73.0017 50.579 73.0452 50.5954L73.0557 50.6013C73.2506 50.6921 73.4754 51.0094 73.6421 50.9142L73.6719 50.914C73.9982 50.9043 74.2624 50.5755 74.5489 50.4437V50.7768L74.5298 50.7899L74.4775 50.8277L74.4214 50.8682L74.3639 50.9092L74.3056 50.952L74.2431 50.9938L74.1786 51.034L74.1107 51.0718L74.0385 51.1069L73.9614 51.1361L73.8795 51.1592L73.7946 51.1731L73.7052 51.1755L73.8075 51.1501V51.1503ZM73.6134 50.8127L73.6606 50.7851L73.7157 50.7867L73.6134 50.8127ZM75.1319 31.1549L75.0693 31.2091L74.8829 31.3739L74.7025 31.5314L74.5298 31.6828L74.3626 31.827L74.1977 31.9655L74.0347 32.0969L73.8741 32.2212L73.7125 32.3386L73.5503 32.4474L73.3854 32.5495L73.2163 32.6427L73.0436 32.7285L72.864 32.804L72.6787 32.8708L72.4856 32.9281L72.2845 32.9753L72.0732 33.0131L71.8527 33.0388L71.6218 33.0559L71.3769 33.0621L71.1205 33.0575L70.8471 33.0431L70.5595 33.0173L70.2548 32.9814L69.9436 32.9359L70.0526 32.6974C70.0767 32.7009 70.0998 32.7043 70.124 32.7078C70.1337 32.7086 70.1431 32.7102 70.1522 32.711C70.573 32.7695 70.9424 32.7984 71.2722 32.7995C71.2773 32.7995 71.2832 32.7995 71.2886 32.7995C71.2942 32.7995 71.3004 32.7995 71.3071 32.7995C72.847 32.7941 73.5288 32.1778 74.6912 31.1547L75.1316 31.1549H75.1319ZM70.1116 32.5666L70.3055 32.5947L70.6001 32.6293L70.8756 32.6532L71.1331 32.6676L71.3753 32.6719L71.6027 32.666L71.8167 32.6505L72.0176 32.6256L72.2064 32.5931L72.3868 32.55L72.5576 32.4996L72.7224 32.4407L72.8814 32.3739L73.0361 32.2976L73.1878 32.2134L73.3374 32.121L73.4877 32.0189L73.6397 31.9093L73.7925 31.7911L73.9477 31.6649L74.1085 31.5304L74.2742 31.3883L74.4461 31.2383L74.5403 31.1549H74.6915C73.5288 32.178 72.8462 32.7939 71.3074 32.7995C71.3006 32.7995 71.2945 32.7995 71.2886 32.7995C71.2832 32.7995 71.2773 32.7995 71.2725 32.7995C70.9424 32.7984 70.5732 32.7692 70.1525 32.7108C70.1433 32.7102 70.1337 32.7084 70.1243 32.7076C70.1001 32.7041 70.0767 32.7006 70.0526 32.6974L70.1116 32.5666ZM85.3095 33.1553L85.1758 33.2974C85.8444 33.9751 86.2432 35.1097 87.2361 35.233L87.2219 35.2651L87.1255 35.2222L87.19 35.3361L87.2219 35.2651L87.2847 35.293V35.1003L87.2466 35.0947L87.1693 35.0756L87.0946 35.0534L87.0224 35.0261L86.9529 34.9945L86.886 34.9575L86.8197 34.9165L86.7544 34.8709L86.691 34.8221L86.6293 34.7683L86.5673 34.7117L86.5082 34.6525L86.4488 34.5882L86.3895 34.5223L86.332 34.4537L86.2754 34.3819L86.2177 34.3079L86.161 34.2326L86.1054 34.1554L86.0496 34.0774L85.9362 33.9196L85.8788 33.8392L85.8211 33.7594L85.7631 33.6806L85.7029 33.601L85.6417 33.5222L85.5799 33.4458L85.5147 33.3705L85.4483 33.2966L85.3807 33.2248L85.3095 33.1553L85.1758 33.2974L85.1071 33.2304C85.1106 33.1805 85.1122 33.1326 85.1122 33.0838C85.114 32.3621 84.696 31.7541 84.2427 31.1549H84.5053L84.5101 31.1614L84.5845 31.2616L84.6576 31.361L84.729 31.4631L84.8001 31.5641L84.8689 31.6689L84.9352 31.7734L84.9975 31.8795L85.0571 31.9875L85.1138 32.0974L85.1661 32.2086L85.2134 32.3236L85.2555 32.4385L85.2923 32.5572L85.3232 32.6773L85.3471 32.7997L85.3651 32.9249L85.3748 33.0519L85.3764 33.1811L85.3713 33.3132L85.3095 33.1553ZM85.1758 33.2974L85.0415 33.4399L84.9806 33.2824L84.9865 33.1752L84.9841 33.0704L84.9763 32.9659L84.9626 32.8641L84.9419 32.763L84.9161 32.6625L84.8853 32.5639L84.8493 32.4637L84.8071 32.3662L84.7625 32.2684L84.7126 32.1705L84.6586 32.073L84.6012 31.976L84.54 31.8793L84.4755 31.7825L84.4097 31.6855L84.341 31.5888L84.2695 31.492L84.1973 31.395L84.1229 31.2975L84.0499 31.2007L84.0142 31.1549H84.2427C84.696 31.7538 85.114 32.3619 85.1122 33.0838C85.1122 33.1326 85.1103 33.1805 85.1071 33.2304L85.1761 33.2974H85.1758ZM87.1314 35.4682L86.5807 36.7052L86.5673 36.7299L86.8224 36.8633L86.7614 36.9678L86.6943 37.0691L86.6215 37.164L86.5415 37.2567L86.4574 37.3424L86.3672 37.4263L86.273 37.507L86.1739 37.5831L86.0721 37.657L85.9663 37.7281L85.8573 37.7967L85.7467 37.8618L85.6315 37.9269L85.5157 37.9888L85.3971 38.0496L85.2768 38.1094L85.1549 38.1678L85.0321 38.2251L84.7865 38.3374L84.6629 38.3932L84.5402 38.4481L84.4175 38.5036L84.2956 38.5585L84.1761 38.6142L84.0566 38.67L83.9398 38.7263L83.8257 38.7841L83.7132 38.8423L83.6042 38.9012L83.5142 38.953V38.6231C84.6044 38.0368 86.0563 37.6423 86.5622 36.739L86.4703 36.6945L87.1255 35.2222L87.2219 35.2651L87.2847 35.293V35.823L86.8275 36.8515L86.8224 36.8633L86.5622 36.739C86.0563 37.6423 84.6044 38.0368 83.5142 38.6231V38.5063L83.53 38.4977L83.6479 38.4366L83.7671 38.3766L83.8883 38.3184L84.0102 38.2611L84.1331 38.2037L84.2567 38.1472L84.3794 38.0922L84.6259 37.9808L84.7481 37.9261L84.8689 37.8701L84.9884 37.8146L85.1049 37.7581L85.2201 37.7013L85.3326 37.6431L85.4432 37.5842L85.5498 37.5241L85.6538 37.4633L85.7534 37.4006L85.8487 37.3363L85.9397 37.2712L86.0265 37.2036L86.107 37.135L86.1827 37.0648L86.2539 36.9919L86.3178 36.9185L86.3766 36.8411L86.4301 36.7631L86.4757 36.6819L86.5673 36.7299L86.5807 36.7052L87.1314 35.4685L87.068 35.454L86.9676 35.4229L86.8715 35.3854L86.7786 35.3426L86.6892 35.2954L86.6043 35.2423L86.5219 35.1847L86.4445 35.1247L86.3683 35.0604L86.2969 34.9928L86.2257 34.9226L86.1578 34.8497L86.0936 34.7758L86.0289 34.6997L85.9671 34.6214L85.907 34.5437L85.8479 34.4649L85.7883 34.3851L85.7308 34.3055L85.6742 34.2248L85.6175 34.1452L85.5619 34.0673L85.505 33.9893L85.4483 33.9132L85.392 33.8379L85.3353 33.7655L85.2776 33.6945L85.2212 33.627L85.161 33.5608L85.1025 33.4984L85.0415 33.4399L85.1758 33.2976C85.8444 33.9751 86.2432 35.1094 87.2361 35.233L87.2219 35.2651L87.19 35.3364L87.2802 35.495L87.172 35.4779L87.1314 35.4685V35.4682ZM85.0415 33.4399L84.9728 33.3748L84.9806 33.2824L85.0415 33.4399ZM86.8277 36.8515L86.8224 36.8633L86.8215 36.8644L86.8277 36.8515Z" fill="#00652E"/>
<path d="M3.71436 65.0072H5.03263V70.4321H3.79191L1.32606 67.1896V70.4321H0V65.0072H1.24845L3.72212 68.273L3.71436 65.0072ZM5.94468 66.2455H7.31718V70.4321H5.94468V66.2455ZM6.61936 64.3185C6.83135 64.3185 7.00573 64.3869 7.14273 64.5235C7.27978 64.6605 7.34822 64.8371 7.34822 65.0536C7.34822 65.2653 7.27978 65.4405 7.14273 65.5799C7.00567 65.7192 6.83127 65.7889 6.61936 65.7889C6.40731 65.7889 6.23291 65.7192 6.09585 65.5799C5.95894 65.4405 5.89036 65.2653 5.89036 65.0536C5.89036 64.8371 5.95888 64.6605 6.09585 64.5235C6.23291 64.3869 6.40731 64.3185 6.61936 64.3185ZM12.2383 66.2455V70.0607C12.2383 70.4476 12.1426 70.7869 11.9514 71.0782C11.7601 71.3697 11.4926 71.5943 11.1488 71.7516C10.805 71.9089 10.4083 71.9877 9.95855 71.9877C9.607 71.9877 9.26843 71.9386 8.94274 71.8406C8.61703 71.7425 8.33017 71.6109 8.08198 71.4458L8.56271 70.494C8.75403 70.6229 8.96078 70.7237 9.18304 70.7957C9.40534 70.8681 9.63023 70.9043 9.85772 70.9043C10.1679 70.9043 10.4134 70.8319 10.5943 70.6875C10.7753 70.543 10.8657 70.3471 10.8657 70.0993V69.6504C10.5866 70.0167 10.1885 70.2 9.67155 70.2C9.32519 70.2 9.01629 70.1162 8.74487 69.9484C8.47345 69.7807 8.26154 69.5435 8.10904 69.2364C7.9565 68.9296 7.88032 68.5774 7.88032 68.18C7.88032 67.788 7.95395 67.4423 8.10126 67.1433C8.24865 66.8439 8.45664 66.6119 8.72551 66.4468C8.99432 66.2817 9.29931 66.1992 9.64057 66.1992C9.89896 66.1992 10.1329 66.2469 10.3423 66.3423C10.5517 66.4377 10.7261 66.5757 10.8657 66.7563V66.2455H12.2383ZM10.0205 69.1938C10.2738 69.1938 10.4781 69.1035 10.6331 68.9231C10.7882 68.7425 10.8658 68.5078 10.8658 68.2189C10.8658 67.9247 10.7882 67.6875 10.6331 67.5069C10.4781 67.3263 10.2739 67.236 10.0205 67.236C9.7672 67.236 9.5617 67.3276 9.40405 67.5106C9.24641 67.6939 9.16754 67.93 9.16754 68.2189C9.16754 68.5078 9.24646 68.7425 9.40405 68.9231C9.5617 69.1035 9.7672 69.1938 10.0205 69.1938ZM14.9416 66.1989C15.624 66.1989 16.1488 66.4002 16.5158 66.8027C16.8829 67.2049 17.0664 67.7569 17.0664 68.4587C17.0664 68.567 17.0638 68.6495 17.0587 68.7063H14.143C14.2103 68.9438 14.3266 69.1255 14.4919 69.2519C14.6574 69.3784 14.859 69.4414 15.0968 69.4414C15.2778 69.4414 15.4522 69.4055 15.6203 69.3331C15.7883 69.261 15.9421 69.1552 16.0817 69.0159L16.8028 69.7356C16.5857 69.9779 16.3233 70.1625 16.0158 70.2887C15.7082 70.4152 15.3605 70.4785 14.9728 70.4785C14.5231 70.4785 14.1302 70.3908 13.7942 70.2153C13.4581 70.0401 13.201 69.7922 13.0226 69.4725C12.8443 69.1525 12.7551 68.7811 12.7551 68.358C12.7551 67.9298 12.8455 67.5519 13.0264 67.2242C13.2074 66.8967 13.4633 66.644 13.7941 66.4658C14.1249 66.2879 14.5074 66.1989 14.9416 66.1989ZM15.7249 67.971C15.7249 67.7288 15.6538 67.534 15.5116 67.3868C15.3695 67.2397 15.1821 67.1663 14.9494 67.1663C14.7323 67.1663 14.55 67.2387 14.4027 67.3831C14.2554 67.5275 14.1585 67.7234 14.1119 67.9713H15.7248L15.7249 67.971ZM19.0021 66.942C19.1469 66.6995 19.3343 66.5138 19.5642 66.3846C19.7943 66.2557 20.0567 66.1911 20.3513 66.1911V67.4528C20.3048 67.4474 20.235 67.445 20.1419 67.445C19.8162 67.445 19.5525 67.5208 19.351 67.6733C19.1493 67.8252 19.033 68.0332 19.002 68.2961V70.4321H17.6217V66.2453H19.002L19.0021 66.942ZM20.806 66.2453H22.1784V70.4321H20.806V66.2453ZM21.4806 64.3185C21.6926 64.3185 21.867 64.3869 22.004 64.5235C22.141 64.6602 22.2095 64.8371 22.2095 65.0536C22.2095 65.265 22.141 65.4405 22.004 65.5799C21.8669 65.7192 21.6926 65.7889 21.4806 65.7889C21.2687 65.7889 21.0942 65.7192 20.9571 65.5799C20.8202 65.4405 20.7516 65.265 20.7516 65.0536C20.7516 64.8371 20.8201 64.6602 20.9571 64.5235C21.0942 64.3869 21.2686 64.3185 21.4806 64.3185ZM24.9749 66.1911C25.5539 66.1911 26.0037 66.3241 26.3242 66.5899C26.6447 66.8555 26.8075 67.2282 26.8127 67.7081V70.4321H25.4556V69.9599C25.1765 70.3161 24.7552 70.494 24.1918 70.494C23.7472 70.494 23.397 70.3739 23.141 70.1341C22.8851 69.8943 22.7572 69.5783 22.7572 69.186C22.7572 68.7889 22.8954 68.4794 23.172 68.2575C23.4486 68.0356 23.8453 67.9223 24.3624 67.9169H25.4557V67.8705C25.4557 67.6693 25.3872 67.5147 25.2502 67.4061C25.1133 67.2979 24.9155 67.2437 24.6571 67.2437C24.4813 67.2437 24.2835 67.2721 24.0639 67.329C23.8441 67.3855 23.6232 67.468 23.4008 67.5766L23.0209 66.6478C23.3621 66.4929 23.6891 66.3782 24.0019 66.3034C24.3146 66.2287 24.6388 66.1911 24.9749 66.1911ZM24.6182 69.5577C24.825 69.5577 25.0058 69.5073 25.1609 69.4068C25.316 69.3061 25.4143 69.1758 25.4556 69.0159V68.6522H24.6336C24.246 68.6522 24.0522 68.7967 24.0522 69.0855C24.0522 69.23 24.1026 69.3447 24.2033 69.4299C24.3041 69.5151 24.4424 69.5577 24.6182 69.5577ZM29.3144 65.0072H30.8576L32.4319 68.18L33.9982 65.0072H35.5414V70.4321H34.285L34.2772 66.9961L32.8892 69.8903H31.9741L30.5784 66.9961V70.4321H29.3144V65.0072ZM38.392 66.1989C38.8468 66.1989 39.2475 66.2881 39.5939 66.4661C39.9402 66.644 40.209 66.8943 40.4002 67.2167C40.5917 67.539 40.6873 67.9118 40.6873 68.3349C40.6873 68.7632 40.5917 69.1383 40.4002 69.461C40.209 69.7833 39.9402 70.0334 39.5939 70.2116C39.2475 70.3895 38.8468 70.4785 38.392 70.4785C37.9371 70.4785 37.5365 70.3895 37.1901 70.2116C36.8437 70.0334 36.5762 69.7833 36.3875 69.461C36.199 69.1383 36.1045 68.7632 36.1045 68.3349C36.1045 67.9118 36.1987 67.539 36.3875 67.2167C36.5762 66.8943 36.8437 66.644 37.1901 66.4661C37.5365 66.2881 37.9371 66.1989 38.392 66.1989ZM38.392 67.3134C38.1232 67.3134 37.906 67.4088 37.7405 67.5996C37.5751 67.7904 37.4924 68.0407 37.4924 68.3505C37.4924 68.6651 37.5751 68.9178 37.7405 69.1088C37.906 69.2996 38.1232 69.395 38.392 69.395C38.6659 69.395 38.8858 69.2996 39.0512 69.1088C39.2166 68.918 39.2993 68.6651 39.2993 68.3505C39.2993 68.0407 39.2153 67.7907 39.0472 67.5996C38.8793 67.4088 38.6608 67.3134 38.392 67.3134ZM42.623 66.942C42.7677 66.6995 42.9552 66.5138 43.185 66.3846C43.4151 66.2557 43.6775 66.1911 43.9723 66.1911V67.4528C43.9256 67.4477 43.8558 67.445 43.7629 67.445C43.4372 67.445 43.1735 67.5211 42.9721 67.6733C42.7702 67.8255 42.6539 68.0332 42.623 68.2961V70.4321H41.2426V66.2455H42.623V66.942ZM47.1564 70.2153C47.0012 70.3032 46.8229 70.3715 46.6213 70.4206C46.4196 70.4696 46.2155 70.494 46.0088 70.494C45.595 70.494 45.2604 70.3753 45.0045 70.1381C44.7486 69.9007 44.6205 69.573 44.6205 69.1552V67.3598H44.0392V66.4468H44.6205V65.2859H45.9932V66.4468H47.0788V67.3598H45.9932V68.9384C45.9932 69.2326 46.1146 69.3795 46.3576 69.3795C46.5074 69.3795 46.6857 69.3331 46.8925 69.2404L47.1564 70.2153ZM51.6587 66.2455V70.0607C51.6587 70.4476 51.5631 70.7869 51.3719 71.0782C51.1804 71.3697 50.913 71.5943 50.5693 71.7516C50.2253 71.9089 49.8287 71.9877 49.3789 71.9877C49.0275 71.9877 48.6888 71.9386 48.3631 71.8406C48.0374 71.7425 47.7504 71.6109 47.5023 71.4458L47.9832 70.494C48.1744 70.6229 48.3811 70.7237 48.6035 70.7957C48.8258 70.8681 49.0505 70.9043 49.2782 70.9043C49.5884 70.9043 49.8338 70.8319 50.0148 70.6875C50.1958 70.543 50.2863 70.3471 50.2863 70.0993V69.6504C50.007 70.0167 49.6091 70.2 49.0919 70.2C48.7455 70.2 48.4367 70.1162 48.1652 69.9484C47.8938 69.7807 47.6819 69.5435 47.5297 69.2364C47.3769 68.9296 47.3009 68.5774 47.3009 68.18C47.3009 67.788 47.3745 67.4423 47.5219 67.1433C47.669 66.8439 47.8771 66.6119 48.1459 66.4468C48.415 66.2817 48.7197 66.1992 49.061 66.1992C49.3196 66.1992 49.5535 66.2469 49.7629 66.3423C49.9721 66.4377 50.1466 66.5757 50.2863 66.7563V66.2455H51.6587ZM49.441 69.1938C49.6942 69.1938 49.8985 69.1035 50.0535 68.9231C50.2087 68.7425 50.2863 68.5078 50.2863 68.2189C50.2863 67.9247 50.2087 67.6875 50.0535 67.5069C49.8985 67.3263 49.6942 67.236 49.441 67.236C49.1878 67.236 48.9821 67.3276 48.8245 67.5106C48.6668 67.6939 48.5879 67.93 48.5879 68.2189C48.5879 68.5078 48.6668 68.7425 48.8245 68.9231C48.9821 69.1035 49.1878 69.1938 49.441 69.1938ZM54.4086 66.1911C54.9875 66.1911 55.4373 66.3241 55.7579 66.5899C56.0785 66.8555 56.2412 67.2285 56.2463 67.7081V70.4321H54.8895V69.9602C54.6102 70.3161 54.1889 70.494 53.6256 70.494C53.1809 70.494 52.8307 70.3742 52.5746 70.1341C52.319 69.8943 52.1909 69.5783 52.1909 69.1863C52.1909 68.7889 52.3292 68.4794 52.6057 68.2575C52.8823 68.0356 53.2792 67.9223 53.7961 67.9172H54.8895V67.8705C54.8895 67.6693 54.821 67.5147 54.6838 67.4064C54.5468 67.2979 54.3492 67.2437 54.0906 67.2437C53.915 67.2437 53.7171 67.2721 53.4975 67.329C53.2778 67.3855 53.0568 67.4683 52.8345 67.5766L52.4546 66.6478C52.7958 66.4932 53.1229 66.3782 53.4355 66.3034C53.7483 66.2287 54.0726 66.1911 54.4088 66.1911H54.4086ZM54.052 69.5577C54.2587 69.5577 54.4394 69.5073 54.5946 69.4068C54.7498 69.3061 54.8479 69.1758 54.8895 69.0159V68.6522H54.0673C53.6798 68.6522 53.4859 68.7967 53.4859 69.0855C53.4859 69.23 53.5364 69.3449 53.6371 69.4299C53.7378 69.5151 53.8761 69.5577 54.052 69.5577ZM61.0437 66.2455V70.0607C61.0437 70.4476 60.9478 70.7869 60.7566 71.0784C60.5652 71.3697 60.2977 71.5943 59.954 71.7516C59.6103 71.9089 59.2134 71.9877 58.7637 71.9877C58.4122 71.9877 58.0736 71.9386 57.7479 71.8406C57.4221 71.7428 57.1354 71.6112 56.8873 71.4458L57.3679 70.494C57.5591 70.6229 57.7658 70.7237 57.9882 70.796C58.2105 70.8681 58.4355 70.9043 58.663 70.9043C58.9731 70.9043 59.2188 70.8319 59.3995 70.6875C59.5805 70.543 59.671 70.3471 59.671 70.0993V69.6507C59.3917 70.0167 58.9938 70.2 58.4769 70.2C58.1305 70.2 57.8214 70.1162 57.5502 69.9487C57.2788 69.7809 57.0669 69.5435 56.9144 69.2367C56.7619 68.9296 56.6856 68.5774 56.6856 68.1803C56.6856 67.7883 56.7592 67.4426 56.9066 67.1433C57.054 66.8439 57.2618 66.6119 57.5309 66.4468C57.7997 66.2817 58.1045 66.1992 58.4457 66.1992C58.7043 66.1992 58.9382 66.2469 59.1476 66.3423C59.3571 66.4377 59.5314 66.5757 59.671 66.7563V66.2455H61.0437ZM58.8257 69.1938C59.0789 69.1938 59.2832 69.1037 59.4382 68.9231C59.5934 68.7425 59.671 68.5078 59.671 68.2189C59.671 67.9249 59.5934 67.6875 59.4382 67.5069C59.2832 67.3263 59.0789 67.236 58.8257 67.236C58.5725 67.236 58.3668 67.3276 58.2092 67.5109C58.0516 67.6939 57.9726 67.93 57.9726 68.2189C57.9726 68.5078 58.0516 68.7425 58.2092 68.9231C58.3668 69.1037 58.5722 69.1938 58.8257 69.1938ZM63.7468 66.1992C64.4291 66.1992 64.9538 66.4002 65.3212 66.8027C65.688 67.2052 65.8716 67.7572 65.8716 68.4587C65.8716 68.567 65.8689 68.6495 65.8638 68.7063H62.9483C63.0154 68.9438 63.1317 69.1255 63.2971 69.2519C63.4625 69.3784 63.6641 69.4417 63.902 69.4417C64.083 69.4417 64.2573 69.4055 64.4254 69.3331C64.5935 69.261 64.7473 69.1552 64.887 69.0159L65.6079 69.7356C65.391 69.9781 65.1284 70.1625 64.8209 70.289C64.5134 70.4152 64.1657 70.4785 63.778 70.4785C63.3282 70.4785 62.9354 70.3908 62.5995 70.2153C62.2633 70.0401 62.0063 69.7924 61.8277 69.4725C61.6494 69.1525 61.5603 68.7811 61.5603 68.358C61.5603 67.9298 61.6508 67.5519 61.8315 67.2244C62.0125 66.8967 62.2684 66.644 62.5995 66.4661C62.93 66.2881 63.3126 66.1992 63.7468 66.1992ZM64.5301 67.9713C64.5301 67.7288 64.4589 67.534 64.3169 67.3868C64.1746 67.24 63.9872 67.1663 63.7546 67.1663C63.5374 67.1663 63.3553 67.2387 63.2079 67.3831C63.0605 67.5275 62.9636 67.7237 62.9171 67.9713H64.5301ZM71.413 70.4321L70.622 68.9309H70.5911H69.5675V70.4321H68.1484V65.0072H70.5911C71.3097 65.0072 71.8666 65.1736 72.2621 65.5065C72.6576 65.839 72.8552 66.3072 72.8552 66.9109C72.8552 67.3185 72.7725 67.6706 72.6071 67.9673C72.4417 68.2639 72.2014 68.4946 71.8859 68.66L73.0182 70.4321H71.413ZM69.5675 67.8009H70.5989C70.8884 67.8009 71.1118 67.7288 71.2696 67.5841C71.4273 67.4396 71.5059 67.2309 71.5059 66.9573C71.5059 66.6941 71.4273 66.4918 71.2696 66.3498C71.112 66.208 70.8884 66.137 70.5989 66.137H69.5675V67.8009ZM75.4577 66.1989C76.1403 66.1989 76.665 66.4002 77.032 66.8027C77.3991 67.2049 77.5825 67.7569 77.5825 68.4587C77.5825 68.567 77.5801 68.6495 77.575 68.7063H74.6592C74.7265 68.9438 74.8428 69.1255 75.0082 69.2519C75.1736 69.3784 75.3753 69.4414 75.6129 69.4414C75.7939 69.4414 75.9685 69.4055 76.1365 69.3331C76.3044 69.261 76.4582 69.1552 76.5979 69.0159L77.3191 69.7356C77.1019 69.9779 76.8395 70.1625 76.5318 70.2887C76.2244 70.4152 75.8766 70.4785 75.4889 70.4785C75.0394 70.4785 74.6463 70.3908 74.3103 70.2153C73.9742 70.0401 73.7172 69.7922 73.5389 69.4725C73.3606 69.1525 73.2712 68.7811 73.2712 68.358C73.2712 67.9298 73.3617 67.5519 73.5427 67.2242C73.7236 66.8967 73.9795 66.644 74.3103 66.4658C74.6412 66.2879 75.0233 66.1989 75.4577 66.1989ZM76.241 67.971C76.241 67.7288 76.1698 67.534 76.0278 67.3868C75.8857 67.2397 75.6983 67.1663 75.4658 67.1663C75.2486 67.1663 75.0662 67.2387 74.9188 67.3831C74.7717 67.5275 74.6747 67.7234 74.6283 67.9713H76.241V67.971ZM80.1697 65.727C80.0301 65.727 79.9165 65.7656 79.8284 65.843C79.7406 65.9205 79.6966 66.0314 79.6966 66.1759V66.4468H80.6272V67.3598H79.6966V70.4321H78.3242V67.3598H77.7581V66.4468H78.3242V66.0596C78.3242 65.6161 78.4727 65.2666 78.7699 65.011C79.0672 64.7556 79.4484 64.6281 79.9138 64.6281C80.2186 64.6281 80.5185 64.6822 80.8131 64.7904L80.6348 65.8353C80.428 65.7629 80.2733 65.727 80.1697 65.727ZM81.1466 66.2455H82.5192V70.4321H81.1466V66.2455ZM81.8213 64.3185C82.0332 64.3185 82.2077 64.3869 82.3447 64.5235C82.4816 64.6605 82.5501 64.8371 82.5501 65.0536C82.5501 65.2653 82.4816 65.4405 82.3447 65.5799C82.2077 65.7192 82.0332 65.7889 81.8213 65.7889C81.6095 65.7889 81.435 65.7192 81.2977 65.5799C81.1608 65.4405 81.0923 65.2653 81.0923 65.0536C81.0923 64.8371 81.1608 64.6605 81.2977 64.5235C81.435 64.3869 81.6095 64.3185 81.8213 64.3185ZM86.1918 66.1911C86.652 66.1911 87.0201 66.3358 87.2967 66.6247C87.5736 66.9136 87.7118 67.303 87.7118 67.7931V70.4321H86.3392V68.1878C86.3392 67.9507 86.2745 67.7636 86.1453 67.6269C86.0161 67.49 85.8427 67.4217 85.6257 67.4217C85.3983 67.4268 85.2109 67.5018 85.0634 67.6462C84.916 67.7907 84.8296 67.9815 84.8038 68.2186V70.4321H83.4233V66.2453H84.8038V66.9265C84.9536 66.6839 85.1461 66.5007 85.3814 66.3768C85.6166 66.253 85.8867 66.1911 86.1918 66.1911ZM90.3917 66.1911C90.9709 66.1911 91.4206 66.3241 91.741 66.5899C92.0616 66.8555 92.2243 67.2285 92.2297 67.7081V70.4321H90.8726V69.9602C90.5933 70.3161 90.172 70.494 89.6087 70.494C89.164 70.494 88.8138 70.3742 88.5579 70.1341C88.302 69.8943 88.174 69.5783 88.174 69.1863C88.174 68.7889 88.3122 68.4794 88.5888 68.2575C88.8654 68.0356 89.2623 67.9223 89.7792 67.9172H90.8726V67.8705C90.8726 67.6693 90.8041 67.5147 90.6672 67.4064C90.5302 67.2979 90.3323 67.2437 90.074 67.2437C89.8981 67.2437 89.7005 67.2721 89.4808 67.329C89.2609 67.3855 89.0399 67.4683 88.8176 67.5766L88.4376 66.6478C88.7789 66.4932 89.106 66.3782 89.4188 66.3034C89.7314 66.2287 90.0555 66.1911 90.3917 66.1911ZM90.0351 69.5577C90.2418 69.5577 90.4228 69.5073 90.5777 69.4068C90.7329 69.3061 90.8312 69.1758 90.8726 69.0159V68.6522H90.0506C89.6629 68.6522 89.469 68.7967 89.469 69.0855C89.469 69.23 89.5195 69.3449 89.6202 69.4299C89.7212 69.5151 89.8595 69.5577 90.0351 69.5577ZM95.7781 66.1911C96.2384 66.1911 96.6065 66.3358 96.8831 66.6247C97.1597 66.9136 97.298 67.303 97.298 67.7931V70.4321H95.9255V68.1878C95.9255 67.9507 95.8608 67.7636 95.7317 67.6269C95.6023 67.49 95.4293 67.4217 95.2121 67.4217C94.9847 67.4268 94.7972 67.5018 94.6498 67.6462C94.5024 67.7907 94.4159 67.9815 94.3902 68.2186V70.4321H93.0097V66.2453H94.3902V66.9265C94.54 66.6839 94.7325 66.5007 94.9677 66.3768C95.203 66.253 95.4731 66.1911 95.7781 66.1911ZM100.792 67.77C100.596 67.4812 100.322 67.3367 99.9702 67.3367C99.7221 67.3367 99.5207 67.4308 99.3655 67.6192C99.2106 67.8073 99.133 68.0511 99.133 68.3505C99.133 68.6549 99.2106 68.8998 99.3655 69.0855C99.5207 69.2712 99.7221 69.3642 99.9702 69.3642C100.353 69.3642 100.627 69.2069 100.792 68.892L101.808 69.4725C101.643 69.7924 101.395 70.0401 101.064 70.2153C100.733 70.3908 100.345 70.4785 99.9007 70.4785C99.4716 70.4785 99.0943 70.3908 98.7686 70.2153C98.4429 70.0401 98.1908 69.7924 98.0125 69.4725C97.8342 69.1525 97.745 68.7811 97.745 68.358C97.745 67.9298 97.8353 67.5519 98.0162 67.2244C98.1972 66.8967 98.4518 66.644 98.7802 66.4661C99.1083 66.2881 99.4869 66.1989 99.9163 66.1989C100.335 66.1989 100.707 66.2855 101.033 66.4583C101.358 66.6312 101.612 66.8747 101.793 67.1896L100.792 67.77ZM104.023 66.1992C104.705 66.1992 105.23 66.4002 105.597 66.8027C105.964 67.2052 106.148 67.7572 106.148 68.4587C106.148 68.567 106.145 68.6495 106.14 68.7063H103.224C103.292 68.9438 103.408 69.1255 103.573 69.2519C103.739 69.3784 103.94 69.4417 104.178 69.4417C104.359 69.4417 104.533 69.4055 104.702 69.3331C104.87 69.261 105.023 69.1552 105.163 69.0159L105.884 69.7356C105.667 69.9781 105.405 70.1625 105.097 70.289C104.79 70.4152 104.442 70.4785 104.054 70.4785C103.604 70.4785 103.212 70.3908 102.876 70.2153C102.539 70.0401 102.282 69.7924 102.104 69.4725C101.926 69.1525 101.836 68.7811 101.836 68.358C101.836 67.9298 101.927 67.5519 102.108 67.2244C102.289 66.8967 102.545 66.644 102.876 66.4661C103.206 66.2881 103.589 66.1992 104.023 66.1992ZM104.806 67.9713C104.806 67.7288 104.735 67.534 104.593 67.3868C104.451 67.24 104.263 67.1663 104.031 67.1663C103.814 67.1663 103.631 67.2387 103.484 67.3831C103.337 67.5275 103.24 67.7237 103.193 67.9713H104.806ZM112.356 66.849C112.18 66.6271 111.971 66.4505 111.728 66.319C111.485 66.1874 111.245 66.1217 111.007 66.1217C110.733 66.1217 110.483 66.1901 110.259 66.3267C110.034 66.4634 109.857 66.6518 109.727 66.8916C109.598 67.1315 109.534 67.3984 109.534 67.6926C109.534 67.9866 109.598 68.2537 109.727 68.4936C109.857 68.7334 110.034 68.9218 110.259 69.0585C110.483 69.1951 110.733 69.2635 111.007 69.2635C111.229 69.2635 111.462 69.2069 111.705 69.0933C111.948 68.9797 112.165 68.8251 112.356 68.6289L113.186 69.5188C112.891 69.8284 112.541 70.0749 112.135 70.2579C111.729 70.4412 111.327 70.5326 110.929 70.5326C110.391 70.5326 109.906 70.4088 109.471 70.1612C109.037 69.9136 108.696 69.5757 108.448 69.1474C108.2 68.7192 108.075 68.2395 108.075 67.7081C108.075 67.1818 108.202 66.7073 108.456 66.2841C108.709 65.8613 109.057 65.5284 109.498 65.2859C109.94 65.0434 110.435 64.9223 110.984 64.9223C111.387 64.9223 111.785 65.0062 112.178 65.1739C112.57 65.3414 112.904 65.5697 113.178 65.8586L112.356 66.8493V66.849ZM115.494 66.1989C115.948 66.1989 116.349 66.2881 116.695 66.4661C117.042 66.644 117.311 66.8943 117.502 67.2167C117.693 67.539 117.789 67.9118 117.789 68.3349C117.789 68.7632 117.693 69.1383 117.502 69.461C117.311 69.7833 117.042 70.0334 116.695 70.2116C116.349 70.3895 115.948 70.4785 115.494 70.4785C115.039 70.4785 114.638 70.3895 114.292 70.2116C113.945 70.0334 113.678 69.7833 113.489 69.461C113.3 69.1383 113.206 68.7632 113.206 68.3349C113.206 67.9118 113.3 67.539 113.489 67.2167C113.678 66.8943 113.945 66.644 114.292 66.4661C114.638 66.2881 115.039 66.1989 115.494 66.1989ZM115.494 67.3134C115.225 67.3134 115.008 67.4088 114.842 67.5996C114.677 67.7904 114.594 68.0407 114.594 68.3505C114.594 68.6651 114.677 68.9178 114.842 69.1088C115.008 69.2996 115.225 69.395 115.494 69.395C115.768 69.395 115.987 69.2996 116.153 69.1088C116.318 68.918 116.401 68.6651 116.401 68.3505C116.401 68.0407 116.317 67.7907 116.149 67.5996C115.981 67.4088 115.762 67.3134 115.494 67.3134ZM123.943 66.1911C124.398 66.1911 124.762 66.3358 125.036 66.6247C125.31 66.9136 125.447 67.303 125.447 67.7931V70.4321H124.067V68.1878C124.067 67.9504 124.005 67.7633 123.881 67.6267C123.757 67.49 123.589 67.4217 123.377 67.4217C123.134 67.4268 122.941 67.5157 122.799 67.6886C122.657 67.8614 122.586 68.0873 122.586 68.3658V70.4321H121.205V68.1878C121.205 67.9504 121.143 67.7633 121.019 67.6267C120.896 67.49 120.728 67.4217 120.515 67.4217C120.272 67.4268 120.079 67.5157 119.934 67.6886C119.789 67.8614 119.717 68.0873 119.717 68.3658V70.4321H118.344V66.2453H119.717V66.9342C119.862 66.6917 120.049 66.5071 120.279 66.3809C120.509 66.2544 120.777 66.1911 121.081 66.1911C121.423 66.1911 121.715 66.2737 121.958 66.4387C122.201 66.6038 122.374 66.8335 122.477 67.1274C122.612 66.8179 122.804 66.5845 123.055 66.4272C123.306 66.2699 123.602 66.1911 123.943 66.1911ZM128.888 66.1989C129.275 66.1989 129.616 66.2881 129.911 66.4661C130.206 66.644 130.434 66.8967 130.597 67.2244C130.76 67.5519 130.842 67.9298 130.842 68.358C130.842 68.7811 130.763 69.1525 130.605 69.4725C130.447 69.7924 130.223 70.0401 129.93 70.2153C129.638 70.3908 129.301 70.4785 128.918 70.4785C128.655 70.4785 128.416 70.4281 128.201 70.3276C127.987 70.2268 127.804 70.0813 127.655 69.8903V71.9333H126.274V66.2455H127.655V66.7871C127.96 66.3951 128.371 66.1989 128.888 66.1989ZM128.546 69.3642C128.815 69.3642 129.033 69.2686 129.201 69.0778C129.37 68.887 129.454 68.6367 129.454 68.3272C129.454 68.0177 129.37 67.766 129.201 67.5725C129.033 67.3791 128.815 67.2823 128.546 67.2823C128.283 67.2823 128.068 67.3791 127.903 67.5725C127.737 67.766 127.655 68.0177 127.655 68.3272C127.655 68.6367 127.737 68.887 127.903 69.0778C128.068 69.2686 128.283 69.3642 128.546 69.3642ZM133.297 66.1911C133.876 66.1911 134.326 66.3241 134.646 66.5899C134.967 66.8555 135.129 67.2282 135.135 67.7081V70.4321H133.778V69.9599C133.498 70.3161 133.077 70.494 132.514 70.494C132.069 70.494 131.719 70.3739 131.463 70.1341C131.207 69.8943 131.079 69.5783 131.079 69.186C131.079 68.7889 131.217 68.4794 131.494 68.2575C131.77 68.0356 132.167 67.9223 132.684 67.9169H133.778V67.8705C133.778 67.6693 133.709 67.5147 133.572 67.4061C133.435 67.2979 133.237 67.2437 132.979 67.2437C132.803 67.2437 132.605 67.2721 132.386 67.329C132.166 67.3855 131.945 67.468 131.723 67.5766L131.343 66.6478C131.684 66.4929 132.011 66.3782 132.324 66.3034C132.636 66.2287 132.96 66.1911 133.297 66.1911ZM132.94 69.5577C133.147 69.5577 133.328 69.5073 133.483 69.4068C133.638 69.3061 133.736 69.1758 133.778 69.0159V68.6522H132.956C132.568 68.6522 132.374 68.7967 132.374 69.0855C132.374 69.23 132.424 69.3447 132.525 69.4299C132.626 69.5151 132.764 69.5577 132.94 69.5577ZM138.683 66.1911C139.143 66.1911 139.511 66.3358 139.788 66.6247C140.065 66.9136 140.203 67.303 140.203 67.7931V70.4321H138.831V68.1878C138.831 67.9504 138.766 67.7633 138.637 67.6267C138.507 67.49 138.334 67.4217 138.117 67.4217C137.89 67.4268 137.702 67.5015 137.555 67.646C137.407 67.7904 137.321 67.9815 137.295 68.2186V70.4318H135.915V66.2453H137.295V66.9262C137.445 66.6837 137.637 66.5007 137.873 66.3768C138.108 66.253 138.378 66.1911 138.683 66.1911ZM143.201 70.8421C143.041 71.2344 142.826 71.5244 142.558 71.7127C142.288 71.9011 141.955 71.9952 141.557 71.9952C141.325 71.9952 141.107 71.9603 140.906 71.8907C140.704 71.8213 140.508 71.7114 140.316 71.5619L140.89 70.61C140.988 70.6926 141.082 70.7521 141.169 70.788C141.257 70.8241 141.35 70.8421 141.449 70.8421C141.676 70.8421 141.844 70.7365 141.953 70.5248L142.053 70.3313L140.316 66.2453H141.735L142.736 68.9695L143.628 66.2453H145L143.201 70.8421H143.201Z" fill="#231F20"/>
<mask id="mask0_2391_97" style="mask-type:luminance" maskUnits="userSpaceOnUse" x="8" y="75" width="129" height="7">
<path d="M10.0533 75.487C9.80114 75.8734 9.60643 76.3183 9.46909 76.8215C9.33179 77.3248 9.26308 77.8527 9.26308 78.4055C9.26308 78.9581 9.33179 79.486 9.46909 79.9892C9.60643 80.4925 9.80114 80.9373 10.0533 81.3237H9.4725C9.21136 80.9419 9.01099 80.5003 8.87147 79.9994C8.73192 79.4983 8.66211 78.9669 8.66211 78.4055C8.66211 77.8438 8.73192 77.3124 8.87147 76.8116C9.01108 76.3105 9.21136 75.8689 9.4725 75.487H10.0533ZM10.7159 75.7702H11.3642V79.9016H13.4308V80.4879H10.7159V75.77V75.7702ZM14.0395 76.9225H14.6675V80.4879H14.0395V76.9225ZM14.3501 75.5007C14.4627 75.5007 14.5561 75.5387 14.6304 75.6151C14.7047 75.6915 14.7419 75.7882 14.7419 75.905C14.7419 76.0216 14.7047 76.1183 14.6304 76.1947C14.5561 76.2711 14.4627 76.3094 14.3501 76.3094C14.2375 76.3094 14.1441 76.2711 14.0699 76.1947C13.9956 76.1183 13.9584 76.0216 13.9584 75.905C13.9584 75.7882 13.9956 75.6915 14.0699 75.6151C14.1442 75.5387 14.2376 75.5007 14.3501 75.5007ZM18.241 77.873C17.9574 77.5989 17.6173 77.462 17.2211 77.462C16.987 77.462 16.7789 77.5134 16.5964 77.6169C16.4141 77.7203 16.2712 77.8663 16.1677 78.055C16.064 78.2436 16.0123 78.4615 16.0123 78.7086C16.0123 78.9557 16.063 79.1738 16.1642 79.3624C16.2656 79.5511 16.4051 79.6982 16.583 79.8038C16.7608 79.9094 16.9646 79.9622 17.1942 79.9622C17.4238 79.9622 17.6309 79.9241 17.8155 79.8477C18.0002 79.7714 18.1532 79.6612 18.2748 79.5173L18.6326 79.8812C18.4706 80.0836 18.2646 80.2384 18.0147 80.3464C17.7649 80.4542 17.4824 80.508 17.1672 80.508C16.8205 80.508 16.5121 80.4317 16.2419 80.2789C15.9718 80.1262 15.7614 79.9139 15.6105 79.6419C15.4596 79.3702 15.3843 79.0591 15.3843 78.7086C15.3843 78.3581 15.4597 78.0459 15.6105 77.7717C15.7614 77.4979 15.9718 77.2843 16.2419 77.1316C16.5121 76.9788 16.8205 76.9024 17.1672 76.9024C17.4688 76.9024 17.7401 76.9485 17.981 77.0407C18.2219 77.1326 18.4233 77.2663 18.5854 77.4416L18.241 77.873ZM20.6527 76.9024C21.2066 76.9024 21.6253 77.0654 21.9089 77.391C22.1925 77.7168 22.3344 78.1694 22.3344 78.749C22.3344 78.8391 22.3321 78.9063 22.3276 78.9514H19.5047C19.5542 79.2703 19.6881 79.524 19.9065 79.713C20.1249 79.9016 20.3938 79.9959 20.7135 79.9959C20.9252 79.9959 21.1221 79.9576 21.3044 79.8815C21.4868 79.8049 21.6455 79.6971 21.7806 79.5578L22.1249 79.915C21.9494 80.1039 21.7377 80.25 21.4901 80.3531C21.2424 80.4566 20.9678 80.5083 20.6662 80.5083C20.315 80.5083 20.0032 80.433 19.7308 80.2824C19.4584 80.1321 19.2468 79.9196 19.096 79.6454C18.9451 79.3715 18.8697 79.0591 18.8697 78.7088C18.8697 78.3583 18.9451 78.0472 19.096 77.7752C19.2469 77.5035 19.4573 77.2899 19.7274 77.135C19.9975 76.9802 20.306 76.9024 20.6527 76.9024ZM21.767 78.4661C21.7491 78.1426 21.641 77.8875 21.443 77.701C21.2449 77.5148 20.9837 77.4212 20.6595 77.4212C20.3443 77.4212 20.0821 77.5158 19.8728 77.7045C19.6633 77.8931 19.5385 78.1472 19.4979 78.4661H21.767ZM25.0231 76.9024C25.4418 76.9024 25.7705 77.0249 26.0091 77.2696C26.2478 77.5148 26.367 77.8527 26.367 78.2841V80.4879H25.7389V78.4524C25.7389 78.1515 25.6545 77.9167 25.4857 77.7482C25.3169 77.5796 25.0839 77.4955 24.7868 77.4955C24.467 77.5 24.207 77.6021 24.0067 77.802C23.8064 78.0019 23.6927 78.2616 23.6657 78.5805V80.4879H23.0376V76.9225H23.6657V77.6774C23.9043 77.1696 24.3567 76.9113 25.0232 76.9022L25.0231 76.9024ZM29.2854 77.7112C29.1367 77.6214 28.9737 77.5493 28.7957 77.4955C28.6179 77.4416 28.4479 77.4145 28.2857 77.4145C28.0967 77.4145 27.9447 77.4494 27.8301 77.519C27.7151 77.5887 27.6577 77.6954 27.6577 77.8393C27.6577 77.9829 27.7218 78.092 27.8502 78.1662C27.9785 78.2402 28.1732 78.3155 28.4345 78.3918C28.6821 78.4637 28.8845 78.5357 29.0422 78.6076C29.1998 78.6794 29.3338 78.785 29.4441 78.9243C29.5542 79.0637 29.6095 79.2477 29.6095 79.4769C29.6095 79.814 29.4823 80.0702 29.228 80.2451C28.9737 80.4204 28.6574 80.508 28.279 80.508C28.0135 80.508 27.7557 80.4654 27.5057 80.3802C27.256 80.2947 27.0455 80.1733 26.8744 80.0163L27.1107 79.5578C27.2595 79.6926 27.4429 79.8006 27.6612 79.8815C27.8795 79.9622 28.0921 80.0026 28.2994 80.0026C28.5065 80.0026 28.6732 79.9646 28.7991 79.8882C28.9251 79.8118 28.9882 79.695 28.9882 79.5377C28.9882 79.3758 28.9219 79.2544 28.7889 79.1738C28.6563 79.0929 28.4546 79.0119 28.1845 78.931C27.9458 78.8637 27.7511 78.7951 27.6005 78.7255C27.4496 78.6558 27.3212 78.5537 27.2154 78.4189C27.1096 78.2841 27.0567 78.1089 27.0567 77.8931C27.0567 77.5606 27.1784 77.3111 27.4214 77.145C27.6647 76.9788 27.9686 76.8957 28.3333 76.8957C28.5494 76.8957 28.7621 76.926 28.9713 76.9866C29.1807 77.0474 29.362 77.1291 29.515 77.2326L29.2854 77.7112ZM31.7174 76.9024C32.2714 76.9024 32.69 77.0654 32.9735 77.391C33.2574 77.7168 33.3991 78.1694 33.3991 78.749C33.3991 78.8391 33.3967 78.9063 33.3924 78.9514H30.5695C30.6189 79.2703 30.7529 79.524 30.9712 79.713C31.1898 79.9016 31.4586 79.9959 31.7784 79.9959C31.99 79.9959 32.1868 79.9576 32.3694 79.8815C32.5517 79.8049 32.7104 79.6971 32.8455 79.5578L33.1897 79.915C33.0143 80.1039 32.8025 80.25 32.5549 80.3531C32.3073 80.4566 32.0326 80.5083 31.7311 80.5083C31.3799 80.5083 31.0681 80.433 30.7956 80.2824C30.5233 80.1321 30.3117 79.9196 30.1608 79.6454C30.0102 79.3715 29.9347 79.0591 29.9347 78.7088C29.9347 78.3583 30.0102 78.0472 30.1608 77.7752C30.3117 77.5035 30.5222 77.2899 30.7924 77.135C31.0625 76.9802 31.3707 76.9024 31.7174 76.9024ZM32.8318 78.4661C32.8138 78.1426 32.7055 77.8875 32.5077 77.701C32.3095 77.5148 32.0485 77.4212 31.7244 77.4212C31.4091 77.4212 31.1468 77.5158 30.9376 77.7045C30.7282 77.8931 30.6033 78.1472 30.5628 78.4661H32.8318ZM37.4317 75.487V80.4879H36.8037V79.7802C36.6686 80.0184 36.4874 80.2015 36.2599 80.3296C36.0328 80.4576 35.768 80.5217 35.4665 80.5217C35.1289 80.5217 34.8306 80.4442 34.5718 80.2891C34.3126 80.1342 34.1112 79.9185 33.9673 79.6422C33.8231 79.3659 33.7512 79.0502 33.7512 78.6952C33.7512 78.3447 33.8231 78.0336 33.9673 77.7618C34.1112 77.4901 34.3126 77.2776 34.5718 77.1249C34.8306 76.9721 35.1265 76.8957 35.4597 76.8957C35.7659 76.8957 36.0338 76.9587 36.2634 77.0844C36.493 77.2103 36.6732 77.3923 36.8037 77.6305V75.4873H37.4317V75.487ZM35.5948 79.9825C35.829 79.9825 36.0371 79.9284 36.2194 79.8207C36.402 79.7127 36.5448 79.5623 36.6482 79.3691C36.7519 79.1759 36.8037 78.9581 36.8037 78.7153C36.8037 78.4682 36.7519 78.2482 36.6482 78.055C36.5448 77.8618 36.4017 77.7112 36.2194 77.6035C36.0371 77.4955 35.829 77.4416 35.5948 77.4416C35.3607 77.4416 35.1523 77.4965 34.9702 77.6067C34.7876 77.7168 34.6448 77.8685 34.5411 78.0614C34.4378 78.2549 34.3859 78.4728 34.3859 78.7153C34.3859 78.9581 34.4378 79.1759 34.5411 79.3691C34.6448 79.5621 34.7876 79.7127 34.9702 79.8207C35.1526 79.9284 35.3607 79.9825 35.5948 79.9825ZM42.2949 76.9024C42.6281 76.9024 42.9254 76.9788 43.1864 77.1316C43.4476 77.2843 43.6501 77.4979 43.7943 77.7717C43.9385 78.0459 44.0104 78.3605 44.0104 78.7153C44.0104 79.0658 43.9393 79.3769 43.7975 79.6489C43.6557 79.9206 43.4554 80.1318 43.1966 80.2821C42.9377 80.4327 42.6415 80.508 42.3083 80.508C42.0068 80.508 41.7412 80.4451 41.5116 80.3194C41.282 80.1934 41.1019 80.0139 40.9714 79.7802V80.4879H40.3433V75.487H40.9714V77.6303C41.1019 77.3966 41.2807 77.2168 41.5081 77.0911C41.7356 76.9651 41.9976 76.9022 42.2949 76.9022V76.9024ZM42.1735 79.9622C42.4031 79.9622 42.6091 79.9083 42.7914 79.8006C42.9737 79.6926 43.1155 79.5422 43.2167 79.3488C43.3182 79.1556 43.3687 78.9377 43.3687 78.6952C43.3687 78.457 43.3169 78.2412 43.2132 78.048C43.1098 77.8548 42.9678 77.7045 42.7879 77.5965C42.6077 77.4885 42.4028 77.4346 42.1732 77.4346C41.9437 77.4346 41.7377 77.4885 41.5554 77.5965C41.3728 77.7045 41.2302 77.8548 41.1266 78.048C41.0229 78.2412 40.9711 78.457 40.9711 78.6952C40.9711 78.9423 41.0229 79.1612 41.1266 79.3523C41.2302 79.5433 41.3728 79.6926 41.5554 79.8006C41.7377 79.9083 41.9437 79.9622 42.1732 79.9622H42.1735ZM45.8616 80.9933C45.7491 81.2675 45.5993 81.4741 45.4124 81.6134C45.2258 81.7528 45.0061 81.8224 44.754 81.8224C44.6009 81.8224 44.4613 81.7999 44.3354 81.7549C44.2092 81.7102 44.0875 81.6402 43.9707 81.5462L44.2408 81.0539C44.3982 81.1664 44.5582 81.2224 44.7201 81.2224C44.9903 81.2224 45.193 81.0697 45.3281 80.7642L45.4631 80.4475L43.9841 76.9225H44.646L45.7805 79.7802L46.8541 76.9225H47.4958L45.8613 80.9933H45.8616ZM51.6162 80.2521C51.3415 80.4274 51.0626 80.5147 50.7787 80.5147C50.4952 80.5147 50.2656 80.4306 50.09 80.262C49.9144 80.0935 49.8266 79.8386 49.8266 79.4972V77.5225H49.3201V77.0439H49.8266V76.0867H50.4616V77.0439H51.5555V77.5225H50.4616V79.3825C50.4616 79.5803 50.4976 79.7218 50.5695 79.8073C50.6415 79.8925 50.7497 79.9354 50.8939 79.9354C51.0647 79.9354 51.2494 79.8791 51.4476 79.7668L51.6165 80.2518L51.6162 80.2521ZM54.2509 76.9024C54.6696 76.9024 54.9982 77.0246 55.2369 77.2696C55.4757 77.5145 55.5949 77.8527 55.5949 78.2838V80.4879H54.9668V78.4524C54.9668 78.1515 54.8825 77.9167 54.7136 77.7482C54.5447 77.5796 54.3119 77.4955 54.0146 77.4955C53.668 77.4998 53.3933 77.6166 53.1906 77.8457C52.9881 78.0751 52.8869 78.3715 52.8869 78.7354V80.4879H52.2588V75.487H52.8869V77.6908C53.1253 77.1742 53.5802 76.9113 54.2509 76.9022V76.9024ZM57.993 76.9024C58.547 76.9024 58.9656 77.0654 59.2494 77.391C59.533 77.7168 59.6747 78.1694 59.6747 78.749C59.6747 78.8388 59.6726 78.9063 59.668 78.9511H56.8451C56.8945 79.2703 57.0285 79.524 57.2471 79.7127C57.4654 79.9016 57.7342 79.9959 58.054 79.9959C58.2656 79.9959 58.4627 79.9576 58.645 79.8812C58.8273 79.8049 58.986 79.6971 59.1211 79.5578L59.4656 79.915C59.29 80.1039 59.0781 80.25 58.8308 80.3531C58.5829 80.4566 58.3083 80.508 58.0067 80.508C57.6555 80.508 57.3437 80.433 57.0715 80.2824C56.7989 80.1321 56.5873 79.9196 56.4364 79.6454C56.2858 79.3713 56.2103 79.0591 56.2103 78.7086C56.2103 78.3583 56.2858 78.047 56.4364 77.7752C56.5873 77.5035 56.7978 77.2899 57.068 77.135C57.3381 76.9802 57.6466 76.9024 57.9933 76.9024H57.993ZM59.1074 78.4661C59.0894 78.1426 58.9814 77.8875 58.7833 77.701C58.5854 77.5145 58.3241 77.4212 58 77.4212C57.6848 77.4212 57.4224 77.5158 57.2132 77.7045C57.0038 77.8931 56.8789 78.1469 56.8384 78.4661H59.1074ZM65.6321 76.9024C65.4519 76.7138 65.2427 76.5667 65.004 76.4611C64.7653 76.3555 64.5199 76.3027 64.268 76.3027C63.9348 76.3027 63.6287 76.3834 63.3494 76.5452C63.0704 76.7071 62.8497 76.926 62.6875 77.2023C62.5256 77.4786 62.4445 77.783 62.4445 78.1156C62.4445 78.4436 62.5256 78.7469 62.6875 79.0253C62.8497 79.304 63.0704 79.524 63.3494 79.6859C63.6287 79.8477 63.9348 79.9284 64.268 79.9284C64.5156 79.9284 64.7586 79.878 64.9973 79.777C65.236 79.6757 65.4474 79.5377 65.6321 79.3624L66.0239 79.7869C65.7852 80.0206 65.5083 80.2039 65.1931 80.3363C64.8781 80.4689 64.5583 80.5351 64.2342 80.5351C63.7839 80.5351 63.372 80.4284 62.9982 80.2149C62.6247 80.0016 62.3299 79.7108 62.1137 79.3421C61.8975 78.9739 61.7896 78.5671 61.7896 78.1223C61.7896 77.682 61.8986 77.2787 62.1169 76.9126C62.3355 76.5463 62.6335 76.2577 63.0119 76.0465C63.39 75.8354 63.8064 75.7295 64.2613 75.7295C64.59 75.7295 64.9084 75.7914 65.217 75.915C65.5252 76.0385 65.7919 76.2127 66.0172 76.4372L65.6321 76.9024ZM68.0372 76.9024C68.5909 76.9024 69.0098 77.0654 69.2933 77.391C69.5769 77.7168 69.719 78.1694 69.719 78.749C69.719 78.8388 69.7165 78.9063 69.712 78.9511H66.889C66.9384 79.2703 67.0724 79.524 67.291 79.7127C67.5093 79.9016 67.7784 79.9959 68.0979 79.9959C68.3095 79.9959 68.5066 79.9576 68.6889 79.8812C68.8712 79.8049 69.0299 79.6971 69.165 79.5578L69.5095 79.915C69.3339 80.1039 69.122 80.25 68.8747 80.3531C68.6269 80.4566 68.3522 80.508 68.0506 80.508C67.6994 80.508 67.3877 80.433 67.1154 80.2824C66.8428 80.1321 66.6313 79.9196 66.4803 79.6454C66.3297 79.3713 66.2543 79.0591 66.2543 78.7086C66.2543 78.3583 66.3297 78.047 66.4803 77.7752C66.6313 77.5035 66.8418 77.2899 67.1119 77.135C67.382 76.9802 67.6906 76.9024 68.0372 76.9024ZM69.1516 78.4661C69.1336 78.1426 69.0254 77.8875 68.8275 77.701C68.6293 77.5145 68.368 77.4212 68.0439 77.4212C67.7287 77.4212 67.4666 77.5158 67.2572 77.7045C67.0477 77.8931 66.9229 78.1469 66.8823 78.4661H69.1516ZM72.4074 76.9024C72.8262 76.9024 73.1549 77.0246 73.3934 77.2696C73.6321 77.5145 73.7513 77.8527 73.7513 78.2838V80.4879H73.1232V78.4524C73.1232 78.1515 73.0389 77.9167 72.87 77.7482C72.7011 77.5796 72.4683 77.4955 72.1711 77.4955C71.8515 77.4998 71.5913 77.6021 71.391 77.802C71.1907 78.0019 71.0771 78.2613 71.05 78.5805V80.4877H70.4219V76.9225H71.05V77.6774C71.2887 77.1696 71.7412 76.9113 72.4074 76.9022V76.9024ZM76.636 80.2521C76.3613 80.4274 76.0823 80.5147 75.7985 80.5147C75.5149 80.5147 75.2853 80.4306 75.1097 80.262C74.9341 80.0935 74.8463 79.8386 74.8463 79.4972V77.5225H74.3399V77.0439H74.8463V76.0867H75.4811V77.0439H76.575V77.5225H75.4811V79.3825C75.4811 79.5803 75.5171 79.7218 75.5893 79.8073C75.6613 79.8925 75.7692 79.9354 75.9134 79.9354C76.0845 79.9354 76.2692 79.8791 76.4671 79.7668L76.636 80.2518V80.2521ZM77.8728 77.6908C77.9899 77.4349 78.1563 77.2406 78.3725 77.108C78.5887 76.9756 78.8451 76.907 79.1423 76.9024V77.5089C78.7777 77.4955 78.4829 77.5898 78.2576 77.7921C78.0326 77.9942 77.9042 78.2662 77.8728 78.6076V80.4879H77.2447V76.9225H77.8728V77.6911V77.6908ZM81.6959 80.4879V79.9892C81.4304 80.3397 81.0139 80.515 80.4465 80.515C80.199 80.515 79.9817 80.4678 79.7948 80.3735C79.608 80.2789 79.464 80.1487 79.3628 79.9825C79.2613 79.8161 79.2108 79.6296 79.2108 79.423C79.2108 79.1041 79.329 78.8514 79.5653 78.6649C79.8016 78.4784 80.1316 78.383 80.5547 78.3784H81.6892V78.2099C81.6892 77.9583 81.6116 77.764 81.4562 77.6268C81.301 77.4898 81.0746 77.4212 80.7776 77.4212C80.4173 77.4212 80.0505 77.5493 79.6767 77.8055L79.4133 77.3741C79.67 77.2079 79.9076 77.0876 80.1259 77.0137C80.3442 76.9394 80.6042 76.9024 80.906 76.9024C81.3517 76.9024 81.6959 77.0112 81.9392 77.2291C82.1822 77.4472 82.306 77.7517 82.3106 78.1424L82.3173 80.4879H81.6959ZM80.5749 79.9959C80.8676 79.9959 81.1162 79.9252 81.3211 79.7837C81.526 79.6419 81.6487 79.4544 81.6892 79.221V78.8637H80.6423C80.3587 78.8637 80.1482 78.9063 80.011 78.9916C79.8735 79.077 79.8048 79.2118 79.8048 79.3962C79.8048 79.5803 79.8746 79.7263 80.0142 79.8341C80.1538 79.9421 80.3407 79.9959 80.5749 79.9959ZM83.3175 75.487H83.9456V80.4879H83.3175V75.487ZM88.9035 75.77C89.3852 75.77 89.7647 75.8745 90.0415 76.0835C90.3183 76.2925 90.4569 76.5811 90.4569 76.9496C90.4569 77.2189 90.3804 77.4472 90.2273 77.6335C90.0743 77.82 89.8648 77.9449 89.5993 78.0076C89.9279 78.0571 90.1857 78.1884 90.3726 78.402C90.5592 78.6153 90.6527 78.8814 90.6527 79.2006C90.6527 79.605 90.5007 79.9206 90.197 80.1476C89.893 80.3743 89.4731 80.4879 88.9374 80.4879H86.8843V75.77H88.9035ZM88.8697 77.7717C89.1624 77.7717 89.3887 77.7101 89.5485 77.5866C89.7083 77.4628 89.7883 77.2864 89.7883 77.0573C89.7883 76.8328 89.7083 76.6597 89.5485 76.5383C89.3887 76.4169 89.1624 76.3587 88.8697 76.363H87.5325V77.7717H88.8697ZM88.8697 79.8946C89.2209 79.8992 89.4956 79.833 89.6938 79.6958C89.8919 79.5589 89.9908 79.3667 89.9908 79.1197C89.9908 78.8814 89.8919 78.6952 89.6938 78.5601C89.4956 78.4253 89.2209 78.3581 88.8697 78.3581H87.5325V79.8946H88.8697ZM93.6587 80.4879V79.9892C93.3932 80.3395 92.9767 80.5147 92.4093 80.5147C92.1617 80.5147 91.9445 80.4676 91.7576 80.3732C91.571 80.2789 91.4268 80.1487 91.3256 79.9823C91.2243 79.8161 91.1736 79.6296 91.1736 79.423C91.1736 79.1038 91.2917 78.8511 91.528 78.6646C91.7643 78.4784 92.0943 78.3827 92.5175 78.3784H93.652V78.2099C93.652 77.9583 93.5744 77.7637 93.4192 77.6268C93.2637 77.4898 93.0376 77.4212 92.7404 77.4212C92.3803 77.4212 92.0132 77.5493 91.6397 77.8055L91.3763 77.3741C91.6328 77.2079 91.8704 77.0876 92.0887 77.0137C92.307 76.9394 92.5669 76.9022 92.8687 76.9022C93.3145 76.9022 93.6587 77.0112 93.902 77.2291C94.145 77.4472 94.2688 77.7514 94.2734 78.1424L94.2801 80.4877H93.6587V80.4879ZM92.5377 79.9959C92.8303 79.9959 93.079 79.9249 93.2839 79.7834C93.4887 79.6419 93.6115 79.4544 93.652 79.2207V78.8635H92.6053C92.3215 78.8635 92.1112 78.9063 91.9738 78.9916C91.8365 79.077 91.7678 79.2118 91.7678 79.3959C91.7678 79.5803 91.8376 79.7263 91.9773 79.8341C92.1166 79.9418 92.3035 79.9959 92.5377 79.9959ZM97.2322 76.9022C97.6508 76.9022 97.9794 77.0246 98.2182 77.2696C98.4569 77.5145 98.5761 77.8527 98.5761 78.2838V80.4877H97.948V78.4524C97.948 78.1515 97.8634 77.9165 97.6948 77.7482C97.5259 77.5796 97.2928 77.4952 96.9959 77.4952C96.6761 77.4998 96.4161 77.6018 96.2158 77.802C96.0155 78.0019 95.9017 78.2613 95.8745 78.5802V80.4877H95.2467V76.9223H95.8745V77.6771C96.1132 77.1696 96.5657 76.9113 97.2322 76.9022ZM102.041 80.4879L100.9 78.7558L100.204 79.4769V80.4877H99.5763V75.487H100.204V78.6748L101.933 76.9223H102.669L101.339 78.3039L102.798 80.4877H102.041V80.4879ZM106.574 76.9022C106.929 76.9022 107.246 76.9785 107.523 77.1316C107.799 77.2843 108.016 77.4965 108.171 77.7683C108.326 78.0403 108.404 78.3514 108.404 78.7019C108.404 79.0521 108.326 79.3646 108.171 79.6387C108.016 79.9129 107.799 80.1262 107.523 80.2789C107.246 80.4317 106.929 80.508 106.574 80.508C106.214 80.508 105.895 80.4317 105.618 80.2789C105.341 80.1262 105.125 79.9139 104.97 79.6419C104.815 79.3702 104.737 79.0567 104.737 78.7019C104.737 78.3514 104.815 78.0403 104.97 77.7683C105.125 77.4965 105.341 77.2843 105.618 77.1316C105.895 76.9785 106.214 76.9022 106.574 76.9022ZM106.574 77.4483C106.34 77.4483 106.131 77.5022 105.949 77.6099C105.767 77.7179 105.625 77.8671 105.524 78.0582C105.422 78.2493 105.372 78.4661 105.372 78.7086C105.372 78.9557 105.423 79.1759 105.524 79.3691C105.625 79.5621 105.767 79.7116 105.949 79.8172C106.131 79.9228 106.34 79.9756 106.574 79.9756C106.804 79.9756 107.009 79.9228 107.192 79.8172C107.374 79.7116 107.516 79.5621 107.617 79.3691C107.719 79.1759 107.769 78.9557 107.769 78.7086C107.769 78.4658 107.718 78.2493 107.617 78.0582C107.516 77.8671 107.374 77.7179 107.192 77.6099C107.009 77.5022 106.804 77.4483 106.574 77.4483ZM110.417 76.0061C110.255 76.0061 110.12 76.0554 110.012 76.1543C109.904 76.2531 109.85 76.3946 109.85 76.5787V77.0439H110.836V77.5225H109.85V80.4879H109.222V77.5225H108.756V77.0439H109.222V76.6597C109.222 76.3992 109.277 76.1778 109.387 75.9959C109.498 75.8139 109.643 75.6767 109.823 75.5848C110.003 75.4926 110.197 75.4465 110.404 75.4465C110.602 75.4465 110.809 75.5004 111.025 75.6084L110.877 76.1205C110.714 76.0441 110.561 76.0061 110.417 76.0061ZM116.449 75.77H117.09V80.4879H116.436L113.734 76.8349V80.4879H113.086V75.77H113.741L116.449 79.4297V75.77ZM118.233 76.9225H118.861V80.4879H118.233V76.9225ZM118.543 75.5004C118.656 75.5004 118.749 75.5387 118.824 75.6151C118.898 75.6915 118.935 75.7879 118.935 75.9048C118.935 76.0216 118.898 76.1183 118.824 76.1947C118.749 76.2711 118.656 76.3094 118.543 76.3094C118.431 76.3094 118.337 76.2711 118.263 76.1947C118.189 76.1183 118.152 76.0216 118.152 75.9048C118.152 75.7879 118.189 75.6915 118.263 75.6151C118.337 75.5387 118.431 75.5004 118.543 75.5004ZM123.089 76.9225V80.124C123.089 80.4654 123.014 80.7642 122.863 81.0204C122.712 81.2763 122.499 81.473 122.225 81.6099C121.95 81.7471 121.631 81.8155 121.266 81.8155C120.739 81.8155 120.248 81.6493 119.794 81.3168L120.07 80.8585C120.246 81.0024 120.428 81.1091 120.618 81.1788C120.807 81.2482 121.014 81.283 121.239 81.283C121.608 81.283 121.903 81.1798 122.124 80.973C122.344 80.7664 122.455 80.4901 122.455 80.1441V79.6454C122.328 79.8611 122.157 80.0284 121.941 80.1476C121.725 80.2666 121.478 80.3261 121.198 80.3261C120.879 80.3261 120.596 80.2529 120.351 80.1071C120.105 79.9608 119.915 79.7577 119.78 79.497C119.645 79.2365 119.577 78.9377 119.577 78.6006C119.577 78.2683 119.645 77.9741 119.78 77.7179C119.915 77.4617 120.105 77.2618 120.351 77.1179C120.596 76.9743 120.879 76.9022 121.198 76.9022C121.482 76.9022 121.731 76.9606 121.945 77.0774C122.158 77.1943 122.328 77.3607 122.455 77.5761V76.9225H123.089ZM121.32 79.8207C121.541 79.8207 121.736 79.769 121.907 79.6655C122.079 79.5621 122.212 79.4195 122.309 79.2376C122.406 79.0556 122.455 78.8501 122.455 78.621C122.455 78.3873 122.406 78.1796 122.309 77.9974C122.212 77.8154 122.079 77.6729 121.907 77.5697C121.736 77.4663 121.541 77.4145 121.32 77.4145C121.099 77.4145 120.902 77.4663 120.729 77.5697C120.556 77.6729 120.42 77.8157 120.32 77.9974C120.221 78.1796 120.172 78.3873 120.172 78.621C120.176 78.9715 120.284 79.259 120.496 79.4836C120.708 79.7084 120.982 79.8207 121.32 79.8207ZM125.515 76.9022C126.068 76.9022 126.487 77.0651 126.771 77.391C127.054 77.7168 127.196 78.1694 127.196 78.749C127.196 78.8388 127.194 78.9063 127.189 78.9511H124.366C124.416 79.2703 124.55 79.524 124.768 79.7127C124.987 79.9016 125.256 79.9959 125.575 79.9959C125.787 79.9959 125.984 79.9576 126.166 79.8812C126.349 79.8049 126.507 79.6969 126.642 79.5578L126.987 79.915C126.811 80.1037 126.599 80.2497 126.352 80.3531C126.104 80.4563 125.83 80.508 125.528 80.508C125.177 80.508 124.865 80.4327 124.593 80.2824C124.32 80.1318 124.109 79.9196 123.958 79.6454C123.807 79.3713 123.732 79.0591 123.732 78.7086C123.732 78.3581 123.807 78.047 123.958 77.7752C124.109 77.5032 124.319 77.2899 124.589 77.1348C124.859 76.9799 125.168 76.9024 125.515 76.9024V76.9022ZM126.629 78.4658C126.611 78.1424 126.503 77.8875 126.305 77.701C126.107 77.5145 125.845 77.4212 125.521 77.4212C125.206 77.4212 124.944 77.5156 124.735 77.7045C124.525 77.8931 124.4 78.1469 124.36 78.4661H126.629L126.629 78.4658ZM128.527 77.6908C128.645 77.4349 128.811 77.2404 129.027 77.108C129.243 76.9753 129.5 76.9067 129.797 76.9022V77.5089C129.432 77.4955 129.138 77.5898 128.912 77.7918C128.687 77.9942 128.559 78.2659 128.527 78.6076V80.4879H127.899V76.9225H128.527V77.6908ZM130.325 76.9225H130.953V80.4877H130.325V76.9225ZM130.635 75.5004C130.748 75.5004 130.841 75.5387 130.916 75.6151C130.99 75.6915 131.027 75.7879 131.027 75.9048C131.027 76.0216 130.99 76.1181 130.916 76.1945C130.841 76.2711 130.748 76.3091 130.635 76.3091C130.523 76.3091 130.429 76.2711 130.355 76.1945C130.281 76.1181 130.244 76.0216 130.244 75.9048C130.244 75.7879 130.281 75.6912 130.355 75.6151C130.429 75.5387 130.523 75.5004 130.635 75.5004ZM134.202 80.4879V79.9892C133.936 80.3395 133.52 80.5147 132.953 80.5147C132.705 80.5147 132.488 80.4676 132.301 80.3732C132.114 80.2789 131.97 80.1487 131.869 79.9823C131.767 79.8161 131.717 79.6296 131.717 79.423C131.717 79.1038 131.835 78.8511 132.071 78.6646C132.308 78.4784 132.638 78.3827 133.061 78.3784H134.195V78.2099C134.195 77.9583 134.118 77.7637 133.962 77.6268C133.807 77.4898 133.581 77.4212 133.284 77.4212C132.923 77.4212 132.557 77.5493 132.183 77.8055L131.92 77.3741C132.176 77.2079 132.414 77.0876 132.632 77.0137C132.85 76.9394 133.11 76.9022 133.412 76.9022C133.858 76.9022 134.202 77.0112 134.445 77.2291C134.688 77.4472 134.812 77.7514 134.817 78.1424L134.823 80.4877H134.202V80.4879ZM133.081 79.9959C133.374 79.9959 133.622 79.9249 133.827 79.7834C134.032 79.6419 134.155 79.4544 134.195 79.2207V78.8635H133.149C132.865 78.8635 132.654 78.9063 132.517 78.9916C132.38 79.077 132.311 79.2118 132.311 79.3959C132.311 79.5803 132.381 79.7263 132.52 79.8341C132.66 79.9418 132.847 79.9959 133.081 79.9959ZM135.898 75.487C136.159 75.8689 136.359 76.3102 136.499 76.8113C136.639 77.3124 136.708 77.8436 136.708 78.4052C136.708 78.9669 136.639 79.4983 136.499 79.9991C136.359 80.5003 136.159 80.9416 135.898 81.3235H135.317C135.569 80.9373 135.764 80.4922 135.901 79.9892C136.038 79.486 136.107 78.9581 136.107 78.4052C136.107 77.8527 136.038 77.3248 135.901 76.8215C135.764 76.3183 135.569 75.8734 135.317 75.487H135.898Z" fill="white"/>
</mask>
<g mask="url(#mask0_2391_97)">
<path d="M10.0533 75.487C9.80114 75.8734 9.60643 76.3183 9.46909 76.8215C9.33179 77.3248 9.26308 77.8527 9.26308 78.4055C9.26308 78.9581 9.33179 79.486 9.46909 79.9892C9.60643 80.4925 9.80114 80.9373 10.0533 81.3237H9.4725C9.21136 80.9419 9.01099 80.5003 8.87147 79.9994C8.73192 79.4983 8.66211 78.9669 8.66211 78.4055C8.66211 77.8438 8.73192 77.3124 8.87147 76.8116C9.01108 76.3105 9.21136 75.8689 9.4725 75.487H10.0533ZM10.7159 75.7702H11.3642V79.9016H13.4308V80.4879H10.7159V75.77V75.7702ZM14.0395 76.9225H14.6675V80.4879H14.0395V76.9225ZM14.3501 75.5007C14.4627 75.5007 14.5561 75.5387 14.6304 75.6151C14.7047 75.6915 14.7419 75.7882 14.7419 75.905C14.7419 76.0216 14.7047 76.1183 14.6304 76.1947C14.5561 76.2711 14.4627 76.3094 14.3501 76.3094C14.2375 76.3094 14.1441 76.2711 14.0699 76.1947C13.9956 76.1183 13.9584 76.0216 13.9584 75.905C13.9584 75.7882 13.9956 75.6915 14.0699 75.6151C14.1442 75.5387 14.2376 75.5007 14.3501 75.5007ZM18.241 77.873C17.9574 77.5989 17.6173 77.462 17.2211 77.462C16.987 77.462 16.7789 77.5134 16.5964 77.6169C16.4141 77.7203 16.2712 77.8663 16.1677 78.055C16.064 78.2436 16.0123 78.4615 16.0123 78.7086C16.0123 78.9557 16.063 79.1738 16.1642 79.3624C16.2656 79.5511 16.4051 79.6982 16.583 79.8038C16.7608 79.9094 16.9646 79.9622 17.1942 79.9622C17.4238 79.9622 17.6309 79.9241 17.8155 79.8477C18.0002 79.7714 18.1532 79.6612 18.2748 79.5173L18.6326 79.8812C18.4706 80.0836 18.2646 80.2384 18.0147 80.3464C17.7649 80.4542 17.4824 80.508 17.1672 80.508C16.8205 80.508 16.5121 80.4317 16.2419 80.2789C15.9718 80.1262 15.7614 79.9139 15.6105 79.6419C15.4596 79.3702 15.3843 79.0591 15.3843 78.7086C15.3843 78.3581 15.4597 78.0459 15.6105 77.7717C15.7614 77.4979 15.9718 77.2843 16.2419 77.1316C16.5121 76.9788 16.8205 76.9024 17.1672 76.9024C17.4688 76.9024 17.7401 76.9485 17.981 77.0407C18.2219 77.1326 18.4233 77.2663 18.5854 77.4416L18.241 77.873ZM20.6527 76.9024C21.2066 76.9024 21.6253 77.0654 21.9089 77.391C22.1925 77.7168 22.3344 78.1694 22.3344 78.749C22.3344 78.8391 22.3321 78.9063 22.3276 78.9514H19.5047C19.5542 79.2703 19.6881 79.524 19.9065 79.713C20.1249 79.9016 20.3938 79.9959 20.7135 79.9959C20.9252 79.9959 21.1221 79.9576 21.3044 79.8815C21.4868 79.8049 21.6455 79.6971 21.7806 79.5578L22.1249 79.915C21.9494 80.1039 21.7377 80.25 21.4901 80.3531C21.2424 80.4566 20.9678 80.5083 20.6662 80.5083C20.315 80.5083 20.0032 80.433 19.7308 80.2824C19.4584 80.1321 19.2468 79.9196 19.096 79.6454C18.9451 79.3715 18.8697 79.0591 18.8697 78.7088C18.8697 78.3583 18.9451 78.0472 19.096 77.7752C19.2469 77.5035 19.4573 77.2899 19.7274 77.135C19.9975 76.9802 20.306 76.9024 20.6527 76.9024ZM21.767 78.4661C21.7491 78.1426 21.641 77.8875 21.443 77.701C21.2449 77.5148 20.9837 77.4212 20.6595 77.4212C20.3443 77.4212 20.0821 77.5158 19.8728 77.7045C19.6633 77.8931 19.5385 78.1472 19.4979 78.4661H21.767ZM25.0231 76.9024C25.4418 76.9024 25.7705 77.0249 26.0091 77.2696C26.2478 77.5148 26.367 77.8527 26.367 78.2841V80.4879H25.7389V78.4524C25.7389 78.1515 25.6545 77.9167 25.4857 77.7482C25.3169 77.5796 25.0839 77.4955 24.7868 77.4955C24.467 77.5 24.207 77.6021 24.0067 77.802C23.8064 78.0019 23.6927 78.2616 23.6657 78.5805V80.4879H23.0376V76.9225H23.6657V77.6774C23.9043 77.1696 24.3567 76.9113 25.0232 76.9022L25.0231 76.9024ZM29.2854 77.7112C29.1367 77.6214 28.9737 77.5493 28.7957 77.4955C28.6179 77.4416 28.4479 77.4145 28.2857 77.4145C28.0967 77.4145 27.9447 77.4494 27.8301 77.519C27.7151 77.5887 27.6577 77.6954 27.6577 77.8393C27.6577 77.9829 27.7218 78.092 27.8502 78.1662C27.9785 78.2402 28.1732 78.3155 28.4345 78.3918C28.6821 78.4637 28.8845 78.5357 29.0422 78.6076C29.1998 78.6794 29.3338 78.785 29.4441 78.9243C29.5542 79.0637 29.6095 79.2477 29.6095 79.4769C29.6095 79.814 29.4823 80.0702 29.228 80.2451C28.9737 80.4204 28.6574 80.508 28.279 80.508C28.0135 80.508 27.7557 80.4654 27.5057 80.3802C27.256 80.2947 27.0455 80.1733 26.8744 80.0163L27.1107 79.5578C27.2595 79.6926 27.4429 79.8006 27.6612 79.8815C27.8795 79.9622 28.0921 80.0026 28.2994 80.0026C28.5065 80.0026 28.6732 79.9646 28.7991 79.8882C28.9251 79.8118 28.9882 79.695 28.9882 79.5377C28.9882 79.3758 28.9219 79.2544 28.7889 79.1738C28.6563 79.0929 28.4546 79.0119 28.1845 78.931C27.9458 78.8637 27.7511 78.7951 27.6005 78.7255C27.4496 78.6558 27.3212 78.5537 27.2154 78.4189C27.1096 78.2841 27.0567 78.1089 27.0567 77.8931C27.0567 77.5606 27.1784 77.3111 27.4214 77.145C27.6647 76.9788 27.9686 76.8957 28.3333 76.8957C28.5494 76.8957 28.7621 76.926 28.9713 76.9866C29.1807 77.0474 29.362 77.1291 29.515 77.2326L29.2854 77.7112ZM31.7174 76.9024C32.2714 76.9024 32.69 77.0654 32.9735 77.391C33.2574 77.7168 33.3991 78.1694 33.3991 78.749C33.3991 78.8391 33.3967 78.9063 33.3924 78.9514H30.5695C30.6189 79.2703 30.7529 79.524 30.9712 79.713C31.1898 79.9016 31.4586 79.9959 31.7784 79.9959C31.99 79.9959 32.1868 79.9576 32.3694 79.8815C32.5517 79.8049 32.7104 79.6971 32.8455 79.5578L33.1897 79.915C33.0143 80.1039 32.8025 80.25 32.5549 80.3531C32.3073 80.4566 32.0326 80.5083 31.7311 80.5083C31.3799 80.5083 31.0681 80.433 30.7956 80.2824C30.5233 80.1321 30.3117 79.9196 30.1608 79.6454C30.0102 79.3715 29.9347 79.0591 29.9347 78.7088C29.9347 78.3583 30.0102 78.0472 30.1608 77.7752C30.3117 77.5035 30.5222 77.2899 30.7924 77.135C31.0625 76.9802 31.3707 76.9024 31.7174 76.9024ZM32.8318 78.4661C32.8138 78.1426 32.7055 77.8875 32.5077 77.701C32.3095 77.5148 32.0485 77.4212 31.7244 77.4212C31.4091 77.4212 31.1468 77.5158 30.9376 77.7045C30.7282 77.8931 30.6033 78.1472 30.5628 78.4661H32.8318ZM37.4317 75.487V80.4879H36.8037V79.7802C36.6686 80.0184 36.4874 80.2015 36.2599 80.3296C36.0328 80.4576 35.768 80.5217 35.4665 80.5217C35.1289 80.5217 34.8306 80.4442 34.5718 80.2891C34.3126 80.1342 34.1112 79.9185 33.9673 79.6422C33.8231 79.3659 33.7512 79.0502 33.7512 78.6952C33.7512 78.3447 33.8231 78.0336 33.9673 77.7618C34.1112 77.4901 34.3126 77.2776 34.5718 77.1249C34.8306 76.9721 35.1265 76.8957 35.4597 76.8957C35.7659 76.8957 36.0338 76.9587 36.2634 77.0844C36.493 77.2103 36.6732 77.3923 36.8037 77.6305V75.4873H37.4317V75.487ZM35.5948 79.9825C35.829 79.9825 36.0371 79.9284 36.2194 79.8207C36.402 79.7127 36.5448 79.5623 36.6482 79.3691C36.7519 79.1759 36.8037 78.9581 36.8037 78.7153C36.8037 78.4682 36.7519 78.2482 36.6482 78.055C36.5448 77.8618 36.4017 77.7112 36.2194 77.6035C36.0371 77.4955 35.829 77.4416 35.5948 77.4416C35.3607 77.4416 35.1523 77.4965 34.9702 77.6067C34.7876 77.7168 34.6448 77.8685 34.5411 78.0614C34.4378 78.2549 34.3859 78.4728 34.3859 78.7153C34.3859 78.9581 34.4378 79.1759 34.5411 79.3691C34.6448 79.5621 34.7876 79.7127 34.9702 79.8207C35.1526 79.9284 35.3607 79.9825 35.5948 79.9825ZM42.2949 76.9024C42.6281 76.9024 42.9254 76.9788 43.1864 77.1316C43.4476 77.2843 43.6501 77.4979 43.7943 77.7717C43.9385 78.0459 44.0104 78.3605 44.0104 78.7153C44.0104 79.0658 43.9393 79.3769 43.7975 79.6489C43.6557 79.9206 43.4554 80.1318 43.1966 80.2821C42.9377 80.4327 42.6415 80.508 42.3083 80.508C42.0068 80.508 41.7412 80.4451 41.5116 80.3194C41.282 80.1934 41.1019 80.0139 40.9714 79.7802V80.4879H40.3433V75.487H40.9714V77.6303C41.1019 77.3966 41.2807 77.2168 41.5081 77.0911C41.7356 76.9651 41.9976 76.9022 42.2949 76.9022V76.9024ZM42.1735 79.9622C42.4031 79.9622 42.6091 79.9083 42.7914 79.8006C42.9737 79.6926 43.1155 79.5422 43.2167 79.3488C43.3182 79.1556 43.3687 78.9377 43.3687 78.6952C43.3687 78.457 43.3169 78.2412 43.2132 78.048C43.1098 77.8548 42.9678 77.7045 42.7879 77.5965C42.6077 77.4885 42.4028 77.4346 42.1732 77.4346C41.9437 77.4346 41.7377 77.4885 41.5554 77.5965C41.3728 77.7045 41.2302 77.8548 41.1266 78.048C41.0229 78.2412 40.9711 78.457 40.9711 78.6952C40.9711 78.9423 41.0229 79.1612 41.1266 79.3523C41.2302 79.5433 41.3728 79.6926 41.5554 79.8006C41.7377 79.9083 41.9437 79.9622 42.1732 79.9622H42.1735ZM45.8616 80.9933C45.7491 81.2675 45.5993 81.4741 45.4124 81.6134C45.2258 81.7528 45.0061 81.8224 44.754 81.8224C44.6009 81.8224 44.4613 81.7999 44.3354 81.7549C44.2092 81.7102 44.0875 81.6402 43.9707 81.5462L44.2408 81.0539C44.3982 81.1664 44.5582 81.2224 44.7201 81.2224C44.9903 81.2224 45.193 81.0697 45.3281 80.7642L45.4631 80.4475L43.9841 76.9225H44.646L45.7805 79.7802L46.8541 76.9225H47.4958L45.8613 80.9933H45.8616ZM51.6162 80.2521C51.3415 80.4274 51.0626 80.5147 50.7787 80.5147C50.4952 80.5147 50.2656 80.4306 50.09 80.262C49.9144 80.0935 49.8266 79.8386 49.8266 79.4972V77.5225H49.3201V77.0439H49.8266V76.0867H50.4616V77.0439H51.5555V77.5225H50.4616V79.3825C50.4616 79.5803 50.4976 79.7218 50.5695 79.8073C50.6415 79.8925 50.7497 79.9354 50.8939 79.9354C51.0647 79.9354 51.2494 79.8791 51.4476 79.7668L51.6165 80.2518L51.6162 80.2521ZM54.2509 76.9024C54.6696 76.9024 54.9982 77.0246 55.2369 77.2696C55.4757 77.5145 55.5949 77.8527 55.5949 78.2838V80.4879H54.9668V78.4524C54.9668 78.1515 54.8825 77.9167 54.7136 77.7482C54.5447 77.5796 54.3119 77.4955 54.0146 77.4955C53.668 77.4998 53.3933 77.6166 53.1906 77.8457C52.9881 78.0751 52.8869 78.3715 52.8869 78.7354V80.4879H52.2588V75.487H52.8869V77.6908C53.1253 77.1742 53.5802 76.9113 54.2509 76.9022V76.9024ZM57.993 76.9024C58.547 76.9024 58.9656 77.0654 59.2494 77.391C59.533 77.7168 59.6747 78.1694 59.6747 78.749C59.6747 78.8388 59.6726 78.9063 59.668 78.9511H56.8451C56.8945 79.2703 57.0285 79.524 57.2471 79.7127C57.4654 79.9016 57.7342 79.9959 58.054 79.9959C58.2656 79.9959 58.4627 79.9576 58.645 79.8812C58.8273 79.8049 58.986 79.6971 59.1211 79.5578L59.4656 79.915C59.29 80.1039 59.0781 80.25 58.8308 80.3531C58.5829 80.4566 58.3083 80.508 58.0067 80.508C57.6555 80.508 57.3437 80.433 57.0715 80.2824C56.7989 80.1321 56.5873 79.9196 56.4364 79.6454C56.2858 79.3713 56.2103 79.0591 56.2103 78.7086C56.2103 78.3583 56.2858 78.047 56.4364 77.7752C56.5873 77.5035 56.7978 77.2899 57.068 77.135C57.3381 76.9802 57.6466 76.9024 57.9933 76.9024H57.993ZM59.1074 78.4661C59.0894 78.1426 58.9814 77.8875 58.7833 77.701C58.5854 77.5145 58.3241 77.4212 58 77.4212C57.6848 77.4212 57.4224 77.5158 57.2132 77.7045C57.0038 77.8931 56.8789 78.1469 56.8384 78.4661H59.1074ZM65.6321 76.9024C65.4519 76.7138 65.2427 76.5667 65.004 76.4611C64.7653 76.3555 64.5199 76.3027 64.268 76.3027C63.9348 76.3027 63.6287 76.3834 63.3494 76.5452C63.0704 76.7071 62.8497 76.926 62.6875 77.2023C62.5256 77.4786 62.4445 77.783 62.4445 78.1156C62.4445 78.4436 62.5256 78.7469 62.6875 79.0253C62.8497 79.304 63.0704 79.524 63.3494 79.6859C63.6287 79.8477 63.9348 79.9284 64.268 79.9284C64.5156 79.9284 64.7586 79.878 64.9973 79.777C65.236 79.6757 65.4474 79.5377 65.6321 79.3624L66.0239 79.7869C65.7852 80.0206 65.5083 80.2039 65.1931 80.3363C64.8781 80.4689 64.5583 80.5351 64.2342 80.5351C63.7839 80.5351 63.372 80.4284 62.9982 80.2149C62.6247 80.0016 62.3299 79.7108 62.1137 79.3421C61.8975 78.9739 61.7896 78.5671 61.7896 78.1223C61.7896 77.682 61.8986 77.2787 62.1169 76.9126C62.3355 76.5463 62.6335 76.2577 63.0119 76.0465C63.39 75.8354 63.8064 75.7295 64.2613 75.7295C64.59 75.7295 64.9084 75.7914 65.217 75.915C65.5252 76.0385 65.7919 76.2127 66.0172 76.4372L65.6321 76.9024ZM68.0372 76.9024C68.5909 76.9024 69.0098 77.0654 69.2933 77.391C69.5769 77.7168 69.719 78.1694 69.719 78.749C69.719 78.8388 69.7165 78.9063 69.712 78.9511H66.889C66.9384 79.2703 67.0724 79.524 67.291 79.7127C67.5093 79.9016 67.7784 79.9959 68.0979 79.9959C68.3095 79.9959 68.5066 79.9576 68.6889 79.8812C68.8712 79.8049 69.0299 79.6971 69.165 79.5578L69.5095 79.915C69.3339 80.1039 69.122 80.25 68.8747 80.3531C68.6269 80.4566 68.3522 80.508 68.0506 80.508C67.6994 80.508 67.3877 80.433 67.1154 80.2824C66.8428 80.1321 66.6313 79.9196 66.4803 79.6454C66.3297 79.3713 66.2543 79.0591 66.2543 78.7086C66.2543 78.3583 66.3297 78.047 66.4803 77.7752C66.6313 77.5035 66.8418 77.2899 67.1119 77.135C67.382 76.9802 67.6906 76.9024 68.0372 76.9024ZM69.1516 78.4661C69.1336 78.1426 69.0254 77.8875 68.8275 77.701C68.6293 77.5145 68.368 77.4212 68.0439 77.4212C67.7287 77.4212 67.4666 77.5158 67.2572 77.7045C67.0477 77.8931 66.9229 78.1469 66.8823 78.4661H69.1516ZM72.4074 76.9024C72.8262 76.9024 73.1549 77.0246 73.3934 77.2696C73.6321 77.5145 73.7513 77.8527 73.7513 78.2838V80.4879H73.1232V78.4524C73.1232 78.1515 73.0389 77.9167 72.87 77.7482C72.7011 77.5796 72.4683 77.4955 72.1711 77.4955C71.8515 77.4998 71.5913 77.6021 71.391 77.802C71.1907 78.0019 71.0771 78.2613 71.05 78.5805V80.4877H70.4219V76.9225H71.05V77.6774C71.2887 77.1696 71.7412 76.9113 72.4074 76.9022V76.9024ZM76.636 80.2521C76.3613 80.4274 76.0823 80.5147 75.7985 80.5147C75.5149 80.5147 75.2853 80.4306 75.1097 80.262C74.9341 80.0935 74.8463 79.8386 74.8463 79.4972V77.5225H74.3399V77.0439H74.8463V76.0867H75.4811V77.0439H76.575V77.5225H75.4811V79.3825C75.4811 79.5803 75.5171 79.7218 75.5893 79.8073C75.6613 79.8925 75.7692 79.9354 75.9134 79.9354C76.0845 79.9354 76.2692 79.8791 76.4671 79.7668L76.636 80.2518V80.2521ZM77.8728 77.6908C77.9899 77.4349 78.1563 77.2406 78.3725 77.108C78.5887 76.9756 78.8451 76.907 79.1423 76.9024V77.5089C78.7777 77.4955 78.4829 77.5898 78.2576 77.7921C78.0326 77.9942 77.9042 78.2662 77.8728 78.6076V80.4879H77.2447V76.9225H77.8728V77.6911V77.6908ZM81.6959 80.4879V79.9892C81.4304 80.3397 81.0139 80.515 80.4465 80.515C80.199 80.515 79.9817 80.4678 79.7948 80.3735C79.608 80.2789 79.464 80.1487 79.3628 79.9825C79.2613 79.8161 79.2108 79.6296 79.2108 79.423C79.2108 79.1041 79.329 78.8514 79.5653 78.6649C79.8016 78.4784 80.1316 78.383 80.5547 78.3784H81.6892V78.2099C81.6892 77.9583 81.6116 77.764 81.4562 77.6268C81.301 77.4898 81.0746 77.4212 80.7776 77.4212C80.4173 77.4212 80.0505 77.5493 79.6767 77.8055L79.4133 77.3741C79.67 77.2079 79.9076 77.0876 80.1259 77.0137C80.3442 76.9394 80.6042 76.9024 80.906 76.9024C81.3517 76.9024 81.6959 77.0112 81.9392 77.2291C82.1822 77.4472 82.306 77.7517 82.3106 78.1424L82.3173 80.4879H81.6959ZM80.5749 79.9959C80.8676 79.9959 81.1162 79.9252 81.3211 79.7837C81.526 79.6419 81.6487 79.4544 81.6892 79.221V78.8637H80.6423C80.3587 78.8637 80.1482 78.9063 80.011 78.9916C79.8735 79.077 79.8048 79.2118 79.8048 79.3962C79.8048 79.5803 79.8746 79.7263 80.0142 79.8341C80.1538 79.9421 80.3407 79.9959 80.5749 79.9959ZM83.3175 75.487H83.9456V80.4879H83.3175V75.487ZM88.9035 75.77C89.3852 75.77 89.7647 75.8745 90.0415 76.0835C90.3183 76.2925 90.4569 76.5811 90.4569 76.9496C90.4569 77.2189 90.3804 77.4472 90.2273 77.6335C90.0743 77.82 89.8648 77.9449 89.5993 78.0076C89.9279 78.0571 90.1857 78.1884 90.3726 78.402C90.5592 78.6153 90.6527 78.8814 90.6527 79.2006C90.6527 79.605 90.5007 79.9206 90.197 80.1476C89.893 80.3743 89.4731 80.4879 88.9374 80.4879H86.8843V75.77H88.9035ZM88.8697 77.7717C89.1624 77.7717 89.3887 77.7101 89.5485 77.5866C89.7083 77.4628 89.7883 77.2864 89.7883 77.0573C89.7883 76.8328 89.7083 76.6597 89.5485 76.5383C89.3887 76.4169 89.1624 76.3587 88.8697 76.363H87.5325V77.7717H88.8697ZM88.8697 79.8946C89.2209 79.8992 89.4956 79.833 89.6938 79.6958C89.8919 79.5589 89.9908 79.3667 89.9908 79.1197C89.9908 78.8814 89.8919 78.6952 89.6938 78.5601C89.4956 78.4253 89.2209 78.3581 88.8697 78.3581H87.5325V79.8946H88.8697ZM93.6587 80.4879V79.9892C93.3932 80.3395 92.9767 80.5147 92.4093 80.5147C92.1617 80.5147 91.9445 80.4676 91.7576 80.3732C91.571 80.2789 91.4268 80.1487 91.3256 79.9823C91.2243 79.8161 91.1736 79.6296 91.1736 79.423C91.1736 79.1038 91.2917 78.8511 91.528 78.6646C91.7643 78.4784 92.0943 78.3827 92.5175 78.3784H93.652V78.2099C93.652 77.9583 93.5744 77.7637 93.4192 77.6268C93.2637 77.4898 93.0376 77.4212 92.7404 77.4212C92.3803 77.4212 92.0132 77.5493 91.6397 77.8055L91.3763 77.3741C91.6328 77.2079 91.8704 77.0876 92.0887 77.0137C92.307 76.9394 92.5669 76.9022 92.8687 76.9022C93.3145 76.9022 93.6587 77.0112 93.902 77.2291C94.145 77.4472 94.2688 77.7514 94.2734 78.1424L94.2801 80.4877H93.6587V80.4879ZM92.5377 79.9959C92.8303 79.9959 93.079 79.9249 93.2839 79.7834C93.4887 79.6419 93.6115 79.4544 93.652 79.2207V78.8635H92.6053C92.3215 78.8635 92.1112 78.9063 91.9738 78.9916C91.8365 79.077 91.7678 79.2118 91.7678 79.3959C91.7678 79.5803 91.8376 79.7263 91.9773 79.8341C92.1166 79.9418 92.3035 79.9959 92.5377 79.9959ZM97.2322 76.9022C97.6508 76.9022 97.9794 77.0246 98.2182 77.2696C98.4569 77.5145 98.5761 77.8527 98.5761 78.2838V80.4877H97.948V78.4524C97.948 78.1515 97.8634 77.9165 97.6948 77.7482C97.5259 77.5796 97.2928 77.4952 96.9959 77.4952C96.6761 77.4998 96.4161 77.6018 96.2158 77.802C96.0155 78.0019 95.9017 78.2613 95.8745 78.5802V80.4877H95.2467V76.9223H95.8745V77.6771C96.1132 77.1696 96.5657 76.9113 97.2322 76.9022ZM102.041 80.4879L100.9 78.7558L100.204 79.4769V80.4877H99.5763V75.487H100.204V78.6748L101.933 76.9223H102.669L101.339 78.3039L102.798 80.4877H102.041V80.4879ZM106.574 76.9022C106.929 76.9022 107.246 76.9785 107.523 77.1316C107.799 77.2843 108.016 77.4965 108.171 77.7683C108.326 78.0403 108.404 78.3514 108.404 78.7019C108.404 79.0521 108.326 79.3646 108.171 79.6387C108.016 79.9129 107.799 80.1262 107.523 80.2789C107.246 80.4317 106.929 80.508 106.574 80.508C106.214 80.508 105.895 80.4317 105.618 80.2789C105.341 80.1262 105.125 79.9139 104.97 79.6419C104.815 79.3702 104.737 79.0567 104.737 78.7019C104.737 78.3514 104.815 78.0403 104.97 77.7683C105.125 77.4965 105.341 77.2843 105.618 77.1316C105.895 76.9785 106.214 76.9022 106.574 76.9022ZM106.574 77.4483C106.34 77.4483 106.131 77.5022 105.949 77.6099C105.767 77.7179 105.625 77.8671 105.524 78.0582C105.422 78.2493 105.372 78.4661 105.372 78.7086C105.372 78.9557 105.423 79.1759 105.524 79.3691C105.625 79.5621 105.767 79.7116 105.949 79.8172C106.131 79.9228 106.34 79.9756 106.574 79.9756C106.804 79.9756 107.009 79.9228 107.192 79.8172C107.374 79.7116 107.516 79.5621 107.617 79.3691C107.719 79.1759 107.769 78.9557 107.769 78.7086C107.769 78.4658 107.718 78.2493 107.617 78.0582C107.516 77.8671 107.374 77.7179 107.192 77.6099C107.009 77.5022 106.804 77.4483 106.574 77.4483ZM110.417 76.0061C110.255 76.0061 110.12 76.0554 110.012 76.1543C109.904 76.2531 109.85 76.3946 109.85 76.5787V77.0439H110.836V77.5225H109.85V80.4879H109.222V77.5225H108.756V77.0439H109.222V76.6597C109.222 76.3992 109.277 76.1778 109.387 75.9959C109.498 75.8139 109.643 75.6767 109.823 75.5848C110.003 75.4926 110.197 75.4465 110.404 75.4465C110.602 75.4465 110.809 75.5004 111.025 75.6084L110.877 76.1205C110.714 76.0441 110.561 76.0061 110.417 76.0061ZM116.449 75.77H117.09V80.4879H116.436L113.734 76.8349V80.4879H113.086V75.77H113.741L116.449 79.4297V75.77ZM118.233 76.9225H118.861V80.4879H118.233V76.9225ZM118.543 75.5004C118.656 75.5004 118.749 75.5387 118.824 75.6151C118.898 75.6915 118.935 75.7879 118.935 75.9048C118.935 76.0216 118.898 76.1183 118.824 76.1947C118.749 76.2711 118.656 76.3094 118.543 76.3094C118.431 76.3094 118.337 76.2711 118.263 76.1947C118.189 76.1183 118.152 76.0216 118.152 75.9048C118.152 75.7879 118.189 75.6915 118.263 75.6151C118.337 75.5387 118.431 75.5004 118.543 75.5004ZM123.089 76.9225V80.124C123.089 80.4654 123.014 80.7642 122.863 81.0204C122.712 81.2763 122.499 81.473 122.225 81.6099C121.95 81.7471 121.631 81.8155 121.266 81.8155C120.739 81.8155 120.248 81.6493 119.794 81.3168L120.07 80.8585C120.246 81.0024 120.428 81.1091 120.618 81.1788C120.807 81.2482 121.014 81.283 121.239 81.283C121.608 81.283 121.903 81.1798 122.124 80.973C122.344 80.7664 122.455 80.4901 122.455 80.1441V79.6454C122.328 79.8611 122.157 80.0284 121.941 80.1476C121.725 80.2666 121.478 80.3261 121.198 80.3261C120.879 80.3261 120.596 80.2529 120.351 80.1071C120.105 79.9608 119.915 79.7577 119.78 79.497C119.645 79.2365 119.577 78.9377 119.577 78.6006C119.577 78.2683 119.645 77.9741 119.78 77.7179C119.915 77.4617 120.105 77.2618 120.351 77.1179C120.596 76.9743 120.879 76.9022 121.198 76.9022C121.482 76.9022 121.731 76.9606 121.945 77.0774C122.158 77.1943 122.328 77.3607 122.455 77.5761V76.9225H123.089ZM121.32 79.8207C121.541 79.8207 121.736 79.769 121.907 79.6655C122.079 79.5621 122.212 79.4195 122.309 79.2376C122.406 79.0556 122.455 78.8501 122.455 78.621C122.455 78.3873 122.406 78.1796 122.309 77.9974C122.212 77.8154 122.079 77.6729 121.907 77.5697C121.736 77.4663 121.541 77.4145 121.32 77.4145C121.099 77.4145 120.902 77.4663 120.729 77.5697C120.556 77.6729 120.42 77.8157 120.32 77.9974C120.221 78.1796 120.172 78.3873 120.172 78.621C120.176 78.9715 120.284 79.259 120.496 79.4836C120.708 79.7084 120.982 79.8207 121.32 79.8207ZM125.515 76.9022C126.068 76.9022 126.487 77.0651 126.771 77.391C127.054 77.7168 127.196 78.1694 127.196 78.749C127.196 78.8388 127.194 78.9063 127.189 78.9511H124.366C124.416 79.2703 124.55 79.524 124.768 79.7127C124.987 79.9016 125.256 79.9959 125.575 79.9959C125.787 79.9959 125.984 79.9576 126.166 79.8812C126.349 79.8049 126.507 79.6969 126.642 79.5578L126.987 79.915C126.811 80.1037 126.599 80.2497 126.352 80.3531C126.104 80.4563 125.83 80.508 125.528 80.508C125.177 80.508 124.865 80.4327 124.593 80.2824C124.32 80.1318 124.109 79.9196 123.958 79.6454C123.807 79.3713 123.732 79.0591 123.732 78.7086C123.732 78.3581 123.807 78.047 123.958 77.7752C124.109 77.5032 124.319 77.2899 124.589 77.1348C124.859 76.9799 125.168 76.9024 125.515 76.9024V76.9022ZM126.629 78.4658C126.611 78.1424 126.503 77.8875 126.305 77.701C126.107 77.5145 125.845 77.4212 125.521 77.4212C125.206 77.4212 124.944 77.5156 124.735 77.7045C124.525 77.8931 124.4 78.1469 124.36 78.4661H126.629L126.629 78.4658ZM128.527 77.6908C128.645 77.4349 128.811 77.2404 129.027 77.108C129.243 76.9753 129.5 76.9067 129.797 76.9022V77.5089C129.432 77.4955 129.138 77.5898 128.912 77.7918C128.687 77.9942 128.559 78.2659 128.527 78.6076V80.4879H127.899V76.9225H128.527V77.6908ZM130.325 76.9225H130.953V80.4877H130.325V76.9225ZM130.635 75.5004C130.748 75.5004 130.841 75.5387 130.916 75.6151C130.99 75.6915 131.027 75.7879 131.027 75.9048C131.027 76.0216 130.99 76.1181 130.916 76.1945C130.841 76.2711 130.748 76.3091 130.635 76.3091C130.523 76.3091 130.429 76.2711 130.355 76.1945C130.281 76.1181 130.244 76.0216 130.244 75.9048C130.244 75.7879 130.281 75.6912 130.355 75.6151C130.429 75.5387 130.523 75.5004 130.635 75.5004ZM134.202 80.4879V79.9892C133.936 80.3395 133.52 80.5147 132.953 80.5147C132.705 80.5147 132.488 80.4676 132.301 80.3732C132.114 80.2789 131.97 80.1487 131.869 79.9823C131.767 79.8161 131.717 79.6296 131.717 79.423C131.717 79.1038 131.835 78.8511 132.071 78.6646C132.308 78.4784 132.638 78.3827 133.061 78.3784H134.195V78.2099C134.195 77.9583 134.118 77.7637 133.962 77.6268C133.807 77.4898 133.581 77.4212 133.284 77.4212C132.923 77.4212 132.557 77.5493 132.183 77.8055L131.92 77.3741C132.176 77.2079 132.414 77.0876 132.632 77.0137C132.85 76.9394 133.11 76.9022 133.412 76.9022C133.858 76.9022 134.202 77.0112 134.445 77.2291C134.688 77.4472 134.812 77.7514 134.817 78.1424L134.823 80.4877H134.202V80.4879ZM133.081 79.9959C133.374 79.9959 133.622 79.9249 133.827 79.7834C134.032 79.6419 134.155 79.4544 134.195 79.2207V78.8635H133.149C132.865 78.8635 132.654 78.9063 132.517 78.9916C132.38 79.077 132.311 79.2118 132.311 79.3959C132.311 79.5803 132.381 79.7263 132.52 79.8341C132.66 79.9418 132.847 79.9959 133.081 79.9959ZM135.898 75.487C136.159 75.8689 136.359 76.3102 136.499 76.8113C136.639 77.3124 136.708 77.8436 136.708 78.4052C136.708 78.9669 136.639 79.4983 136.499 79.9991C136.359 80.5003 136.159 80.9416 135.898 81.3235H135.317C135.569 80.9373 135.764 80.4922 135.901 79.9892C136.038 79.486 136.107 78.9581 136.107 78.4052C136.107 77.8527 136.038 77.3248 135.901 76.8215C135.764 76.3183 135.569 75.8734 135.317 75.487H135.898Z" fill="#373435" stroke="black" stroke-width="4"/>
</g>
</g>
<defs>
<clipPath id="clip0_2391_97">
<rect width="145" height="82" fill="white"/>
</clipPath>
</defs>
</svg>
