<svg xmlns="http://www.w3.org/2000/svg" xml:space="preserve" width="85.2486mm" height="43.4973mm" version="1.1" style="shape-rendering:geometricPrecision; text-rendering:geometricPrecision; image-rendering:optimizeQuality; fill-rule:evenodd; clip-rule:evenodd"
viewBox="0 0 8556.38 4365.81"
 xmlns:xlink="http://www.w3.org/1999/xlink"
 xmlns:xodm="http://www.corel.com/coreldraw/odm/2003">
 <defs>
  <style type="text/css">
   <![CDATA[
    .fil1 {fill:#0098DA}
    .fil2 {fill:#3C3E76}
    .fil0 {fill:#0098DA;fill-rule:nonzero}
    .fil3 {fill:#3C3E76;fill-rule:nonzero}
   ]]>
  </style>
 </defs>
 <g id="Layer_x0020_1">
  <metadata id="CorelCorpID_0Corel-Layer"/>
  <path class="fil0" d="M670.61 2601.26l-207.93 0 0 755.15 -249.79 0 0 -755.15 -203.59 0 0 -207.93 661.31 0 0 207.93zm1419.86 755.15l-267.1 0 -62.09 -167.5 -345.33 0 -66.18 167.5 -264.24 0 369.88 -963.08 272.92 0 362.15 963.08zm-395.63 -358.08l-104.67 -307.56 -106.13 307.56 210.8 0zm1800.83 358.08l-323.42 0 -324.88 -417.28 0 417.28 -249.79 0 0 -963.08 249.79 0 0 396.82 304.66 -396.82 307.55 0 -381.19 455.8 417.28 507.28zm1422.05 0l-267.12 0 -62.09 -167.5 -345.32 0 -66.17 167.5 -264.23 0 369.86 -963.08 272.91 0 362.17 963.08zm-395.63 -358.08l-104.67 -307.56 -106.15 307.56 210.82 0zm1454.31 -397.07l-301.78 0 0 166.04 274.34 0 0 207.93 -274.34 0 0 381.18 -249.8 0 0 -963.08 551.58 0 0 207.93zm1384.01 347.26c0,57.75 -4.56,107.33 -13.95,148.24 -14.67,63.29 -49.33,121.29 -104.44,173.51 -77.97,73.87 -182.16,110.7 -312.59,110.7 -133.09,0 -236.81,-37.55 -311.41,-112.87 -39.48,-39.48 -66.42,-89.05 -81.1,-148.96 -10.35,-42.13 -15.4,-99.16 -15.4,-170.62l0 -555.18 249.8 0 0 520.29c0,41.86 0.72,72.92 2.17,93.61 4.57,65.21 34.4,110.7 89.5,136.68 22.63,10.83 47.41,16.13 74.85,16.13 61.14,0 107.1,-21.43 138.14,-64.02 23.11,-31.54 34.66,-92.41 34.66,-182.41l0 -520.29 249.78 0 0 555.18zm1148.44 407.89l-550.13 0 0 -963.08 249.79 0 0 755.16 300.34 0 0 207.92z"/>
  <path class="fil1" d="M2269.82 1367.43l0.43 1.59 0 -0.08 -0.43 -1.51zm935.47 671.75l-1.18 -0.77c-3.5,-2.28 -6.99,-4.6 -10.44,-6.98l-1.71 -1.17c-3.48,-2.41 -6.91,-4.86 -10.34,-7.35l-1.4 -1.03c-3.22,-2.37 -6.41,-4.78 -9.6,-7.24l-2.14 -1.67c-2.95,-2.3 -5.87,-4.64 -8.76,-7l-2.9 -2.4c-2.85,-2.35 -5.66,-4.72 -8.47,-7.14l-2.56 -2.23c-2.79,-2.43 -5.54,-4.88 -8.28,-7.38l-2.54 -2.32c-2.72,-2.51 -5.41,-5.03 -8.09,-7.59l-2.35 -2.26c-2.67,-2.57 -5.32,-5.18 -7.94,-7.81l-2.8 -2.84c-2.37,-2.4 -4.7,-4.82 -7.04,-7.27l-3.64 -3.87c-2.13,-2.27 -4.25,-4.56 -6.32,-6.86l-3.65 -4.05c-2.04,-2.28 -4.04,-4.57 -6.05,-6.87l-3.77 -4.4c-1.94,-2.28 -3.87,-4.57 -5.79,-6.89l-3.79 -4.63 -5.22 -6.49 -22.68 -34.73 -5.11 -6.66 -3.51 -4.66c-1.86,-2.5 31.01,-7.23 29.19,-9.77l1.99 -1.55 22.71 3.05c148.76,13.93 437.4,23.38 656.83,-173.47 227.4,-203.99 489.79,-603.05 648.58,-891.37 118.66,-215.46 265.69,-379.76 424.35,-503.77 -15.14,13.3 98.02,-58.14 83.4,-43.84 0,0 337.92,-183.55 629.76,-96.15 161.2,48.27 167.3,124.75 292.8,262.52 -148.67,-14.84 -471.68,-24.34 -692.3,171.17 -228.61,202.6 -493.43,600.07 -653.95,887.43 -78.71,140.87 -186.74,285.15 -312.23,407.84 -1.64,1.05 2.21,-2.79 -4.57,3.52 -6.78,6.31 -52.67,40.96 -66.13,49.33 -170.46,106.23 -526.95,208.13 -722.16,160.59 -46.01,-11.21 -130.32,-27.3 -170.19,-53.02z"/>
  <path class="fil2" d="M2269.82 890.75l0.43 -1.59 0 0.08 -0.43 1.51zm788.29 -538.69l-25.41 62.32c234.59,-58.61 533.55,-4.11 715.22,158.88 227.4,203.99 489.79,603.05 648.58,891.37 118.66,215.46 263.16,378.29 421.84,502.3 -10.9,-9.58 207.75,112.32 398.34,148.88 120.5,23.11 238.53,20.65 309.77,3.49 670.77,-161.48 161.23,-139.71 276,-275.09 -148.66,14.83 -447.32,26.02 -667.94,-169.49 -228.61,-202.62 -493.44,-600.08 -653.95,-887.43 -115.56,-206.86 -249.96,-355.7 -403.46,-477.11 -178.85,-106.05 -493.58,-171.01 -490.05,-167.52 43.43,-85.46 -510.41,124.13 -529.63,200.69 -0.75,3.08 -0.57,6 0.68,8.71z"/>
  <path class="fil1" d="M4774.1 1931.2c0,0 429.91,213.29 725.48,139.39 295.56,-73.89 470.21,-487.01 416.47,-722.12 -54.87,-240.06 138.71,-213.67 119.06,52.16 -32.74,443.02 107.22,100.07 166.96,-62.61 31.46,-85.67 57.77,-275.55 44.73,-405.63 -9.84,-98.42 -43.36,-171.04 -5.02,-153.67 34.06,15.42 121.42,163.8 176.74,350.85 26.83,90.71 21.1,240.41 45.02,331 20.43,77.39 64.04,108.86 79.49,95.18l0.02 0.01c-35.97,86.86 -84.88,175.4 -150.07,262.92 -378.66,508.3 -1145.17,576.16 -1618.89,112.51zm1802.62 -507.17c21.77,-228.17 -7.23,-652.02 14.67,-581.85 40.08,128.42 64.15,344.33 -3.69,584.95 -3.69,-1.7 -7.37,-2.77 -10.98,-3.1z"/>
  <path class="fil2" d="M4774.1 326.97c0,0 429.91,-213.29 725.48,-139.39 295.56,73.89 552.08,487.73 547.47,728.84 -4.49,233.34 204.12,210.92 156,-35.38 -66.47,-340.32 232.37,-7.32 264.89,351.54 16.01,176.54 23.48,417.66 123.45,203.56 86.91,-186.08 85.07,-616.14 -198.4,-996.66 -378.66,-508.29 -1145.17,-576.16 -1618.89,-112.51z"/>
  <path class="fil2" d="M4098.47 1931.2c0,0 -429.93,213.29 -725.49,139.39 -295.56,-73.89 -470.22,-487.01 -416.48,-722.12 54.87,-240.06 -138.71,-213.67 -119.06,52.16 32.74,443.02 -107.21,100.07 -166.96,-62.61 -31.46,-85.67 -57.75,-275.55 -44.74,-405.63 9.85,-98.42 43.38,-171.04 5.03,-153.67 -34.06,15.42 -121.41,163.8 -176.74,350.85 -26.83,90.71 -21.08,240.41 -45,331 -20.45,77.39 -64.04,108.86 -79.51,95.18l0 0.01c35.95,86.86 84.85,175.4 150.05,262.92 378.67,508.3 1145.16,576.16 1618.91,112.51zm-1802.62 -507.17c-21.77,-228.17 7.2,-652.02 -14.68,-581.85 -40.07,128.42 -64.15,344.33 3.68,584.95 3.69,-1.7 7.38,-2.77 11,-3.1z"/>
  <path class="fil1" d="M4098.47 311.36c0,0 -429.93,-213.29 -725.49,-139.39 -295.56,73.89 -552.09,487.73 -547.46,728.84 4.47,233.33 -204.12,210.92 -156.02,-35.38 66.47,-340.32 -232.37,-7.32 -264.9,351.54 -15.98,176.53 -23.45,417.66 -123.43,203.56 -86.9,-186.08 -85.08,-616.14 198.39,-996.66 378.67,-508.29 1145.16,-576.16 1618.91,-112.51z"/>
  <path class="fil3" d="M2033.47 2205.5l-529.01 0 -975.45 -1249.13 0 1249.13 -529.01 0 0 -2039.58 529.01 0 975.45 1247.61 0 -1247.61 529.01 0 0 2039.58zm6522.91 0l-657.43 0 -504.56 -779.75 0 779.75 -529.02 0 0 -2039.58 823.59 0c241.06,0 418.91,72.37 534.61,217.11 93.27,116.7 140.16,253.79 140.16,411.28 0,180.92 -53.52,325.14 -161.04,432.67 -68.81,68.81 -163.59,116.71 -283.88,143.72l637.57 834.79zm-743.06 -1381.64c0,-72.88 -26.51,-134.02 -79.5,-183.98 -49.44,-46.88 -129.96,-70.33 -240.55,-70.33l-98.88 0 0 510.66 98.88 0c111.59,0 192.13,-23.44 240.55,-70.34 53,-50.96 79.5,-113.13 79.5,-186.02z"/>
  <polygon class="fil3" points="206.55,4342.99 206.55,4076.48 9.31,3760.24 89.19,3760.24 241.6,4012.9 393.2,3760.24 473.06,3760.24 275.83,4076.48 275.83,4342.99 "/>
  <path class="fil3" d="M538.47 4162.05c0,38.31 13.04,70.91 38.3,97.8 26.09,26.9 57.06,39.94 93.74,39.94 36.68,0 67.64,-13.04 92.91,-39.94 25.26,-26.89 38.3,-59.49 38.3,-97.8 0,-38.3 -13.04,-70.91 -38.3,-97.8 -25.27,-26.9 -56.24,-39.94 -92.91,-39.94 -36.68,0 -67.65,13.04 -93.74,39.94 -25.26,26.89 -38.3,59.5 -38.3,97.8zm-66.01 0c0,-26.9 4.89,-52.16 14.66,-75.8 9.79,-23.64 24.45,-44.83 43.2,-63.57 18.75,-18.74 39.94,-32.6 64.39,-42.38 23.64,-9.78 48.9,-14.67 75.8,-14.67 26.89,0 52.16,4.9 75.8,14.67 23.63,9.78 44.83,24.45 64.38,43.2 18.75,17.93 33.42,39.11 43.2,62.75 9.79,23.64 14.67,48.9 14.67,75.8 0,26.09 -4.89,51.35 -14.67,74.99 -9.78,23.64 -24.45,44.01 -43.2,62.75 -19.55,18.75 -40.75,33.42 -65.2,44.01 -23.64,9.79 -48.9,14.67 -74.98,14.67 -26.9,0 -52.16,-4.89 -75.8,-14.67 -24.45,-10.59 -45.64,-24.45 -64.39,-43.2 -18.75,-18.74 -33.41,-39.93 -43.2,-63.56 -9.78,-23.64 -14.66,-48.09 -14.66,-74.99z"/>
  <path class="fil3" d="M1077.29 3978.67l0 179.3c0,52.16 8.15,88.84 23.64,110.03 15.49,20.38 41.57,30.97 78.25,30.97 36.68,0 62.75,-10.6 78.24,-30.97 15.49,-20.38 22.82,-57.05 22.82,-110.03l0 -179.3 63.57 0 0 212.71c0,54.61 -13.86,96.17 -42.39,124.7 -27.71,28.53 -69.28,42.39 -123.89,42.39 -53.79,0 -95.35,-13.86 -123.06,-42.39 -28.53,-28.53 -42.39,-70.09 -42.39,-124.7l0 -212.71 65.2 0z"/>
  <path class="fil3" d="M1518.29 4342.99l0 -364.31 55.42 0 0 75.79c17.11,-31.79 35.04,-53.79 53.79,-67.64 18.75,-13.86 41.56,-20.39 68.46,-20.39 7.34,0 14.67,0.82 22.01,1.64 6.51,1.63 13.85,3.26 20.38,5.7l-20.38 56.24c-7.34,-2.44 -13.86,-4.08 -20.38,-5.7 -6.52,-0.81 -13.05,-1.64 -18.75,-1.64 -32.6,0 -57.05,12.23 -74.17,35.86 -16.3,23.64 -24.45,59.5 -24.45,106.77l0 177.67 -61.94 0z"/>
  <polygon class="fil3" points="2027.91,3760.24 2102.89,3760.24 2250.41,4188.95 2404.45,3737.43 2560.12,4188.95 2708.46,3760.24 2783.43,3760.24 2557.67,4365.81 2405.26,3915.1 2253.67,4365.81 "/>
  <path class="fil3" d="M2883.22 3803.44c0,-13.04 4.89,-23.64 13.04,-32.6 8.96,-8.96 20.38,-13.04 32.6,-13.04 13.05,0 23.64,4.08 32.6,13.85 8.97,8.96 13.05,19.56 13.05,32.6 0,12.23 -4.08,22.82 -13.05,31.79 -8.96,8.96 -19.55,13.04 -32.6,13.04 -12.23,0 -23.64,-4.08 -32.6,-13.04 -8.15,-8.96 -13.04,-19.56 -13.04,-32.6zm14.67 539.55l0 -364.31 62.75 0 0 364.31 -62.75 0z"/>
  <path class="fil3" d="M3145.19 4342.99l0 -364.31 61.13 0 0 56.23c15.49,-23.63 34.23,-40.75 56.24,-52.15 22,-11.41 48.09,-17.12 76.61,-17.12 43.2,0 76.61,11.41 101.06,34.24 23.64,22.81 35.86,54.6 35.86,95.35l0 247.77 -63.57 0 0 -214.35c0,-37.5 -7.34,-64.39 -22.81,-82.32 -16.31,-17.93 -39.94,-26.89 -72.55,-26.89 -17.93,0 -35.04,3.25 -50.53,9.78 -15.49,7.34 -27.71,16.3 -38.31,29.34 -7.33,8.97 -13.04,20.38 -16.3,32.6 -3.25,12.23 -4.89,33.42 -4.89,63.57l0 188.27 -61.94 0z"/>
  <polygon class="fil3" points="3645.15,4130.26 3830.97,4130.26 3830.97,4193.02 3645.15,4193.02 "/>
  <polygon class="fil3" points="3890.27,3760.24 3965.25,3760.24 4112.77,4188.95 4266.81,3737.43 4422.48,4188.95 4570.82,3760.24 4645.79,3760.24 4420.03,4365.81 4267.62,3915.1 4116.03,4365.81 "/>
  <path class="fil3" d="M4745.58 3803.44c0,-13.04 4.89,-23.64 13.04,-32.6 8.96,-8.96 20.38,-13.04 32.6,-13.04 13.05,0 23.64,4.08 32.6,13.85 8.97,8.96 13.05,19.56 13.05,32.6 0,12.23 -4.08,22.82 -13.05,31.79 -8.96,8.96 -19.55,13.04 -32.6,13.04 -12.23,0 -23.64,-4.08 -32.6,-13.04 -8.15,-8.96 -13.04,-19.56 -13.04,-32.6zm14.67 539.55l0 -364.31 62.75 0 0 364.31 -62.75 0z"/>
  <path class="fil3" d="M5007.55 4342.99l0 -364.31 61.13 0 0 56.23c15.49,-23.63 34.23,-40.75 56.24,-52.15 22,-11.41 48.09,-17.12 76.61,-17.12 43.2,0 76.61,11.41 101.06,34.24 23.64,22.81 35.86,54.6 35.86,95.35l0 247.77 -63.57 0 0 -214.35c0,-37.5 -7.34,-64.39 -22.81,-82.32 -16.31,-17.93 -39.94,-26.89 -72.55,-26.89 -17.93,0 -35.04,3.25 -50.53,9.78 -15.49,7.34 -27.71,16.3 -38.31,29.34 -7.33,8.97 -13.04,20.38 -16.3,32.6 -3.25,12.23 -4.89,33.42 -4.89,63.57l0 188.27 -61.94 0z"/>
  <path class="fil3" d="M5829.45 4081.36l0 261.62 -67.65 0 0 -582.75 122.26 0c42.38,0 74.16,2.45 94.54,6.52 20.38,4.89 37.5,12.23 52.16,22.82 18.75,13.04 33.41,30.96 44.01,53.79 10.6,23.64 15.49,48.9 15.49,77.43 0,27.71 -4.89,53.8 -15.49,76.61 -10.6,22.82 -25.26,41.57 -44.01,54.61 -14.66,10.59 -31.79,17.93 -52.16,22.81 -20.38,4.08 -51.35,6.52 -94.54,6.52l-19.56 0 -35.05 0zm0 -62.76l35.05 0c59.5,0 99.44,-7.33 119.81,-21.19 20.38,-13.85 30.96,-38.3 30.96,-72.54 0,-37.49 -10.59,-63.57 -31.79,-78.24 -21.19,-15.49 -60.31,-22.82 -118.99,-22.82l-35.05 0 0 194.79z"/>
  <path class="fil3" d="M6456.55 4164.5c0,-41.57 -11.41,-74.17 -33.41,-99.44 -22.82,-25.26 -52.16,-37.49 -88.02,-37.49 -37.49,0 -66.84,11.41 -87.21,34.23 -21.19,23.64 -31.79,55.42 -31.79,96.99 0,44.01 10.6,78.25 31.79,101.89 21.19,23.63 51.35,35.85 89.65,35.85 37.5,0 66.02,-11.4 87.21,-35.04 21.19,-22.82 31.79,-55.42 31.79,-96.99zm60.31 -185.82l0 364.31 -60.31 0 0 -66.01c-14.67,26.08 -33.41,46.45 -56.24,60.31 -22,14.66 -48.09,21.19 -75.8,21.19 -52.16,0 -94.54,-17.94 -126.33,-53.8 -31.79,-35.85 -48.09,-83.94 -48.09,-142.63 0,-60.31 15.49,-107.59 46.45,-143.45 30.97,-35.04 72.54,-52.98 124.7,-52.98 30.16,0 57.06,6.52 79.06,20.38 22.82,13.86 40.75,34.24 54.61,61.14l0 -68.46 61.94 0z"/>
  <path class="fil3" d="M6695.43 4342.99l0 -364.31 55.42 0 0 75.79c17.11,-31.79 35.04,-53.79 53.79,-67.64 18.75,-13.86 41.56,-20.39 68.46,-20.39 7.34,0 14.67,0.82 22.01,1.64 6.51,1.63 13.85,3.26 20.38,5.7l-20.38 56.24c-7.34,-2.44 -13.86,-4.08 -20.38,-5.7 -6.52,-0.81 -13.05,-1.64 -18.75,-1.64 -32.6,0 -57.05,12.23 -74.17,35.86 -16.3,23.64 -24.45,59.5 -24.45,106.77l0 177.67 -61.94 0z"/>
  <polygon class="fil3" points="7043.66,4030.01 6976.84,4030.01 6976.84,3978.67 7043.66,3978.67 7043.66,3831.96 7107.24,3831.96 7107.24,3978.67 7174.07,3978.67 7174.07,4030.01 7107.24,4030.01 7107.24,4342.99 7043.66,4342.99 "/>
  <path class="fil3" d="M7298.02 4342.99l0 -364.31 61.13 0 0 56.23c15.49,-23.63 34.23,-40.75 56.24,-52.15 22,-11.41 48.09,-17.12 76.61,-17.12 43.2,0 76.61,11.41 101.06,34.24 23.64,22.81 35.86,54.6 35.86,95.35l0 247.77 -63.57 0 0 -214.35c0,-37.5 -7.34,-64.39 -22.81,-82.32 -16.31,-17.93 -39.94,-26.89 -72.55,-26.89 -17.93,0 -35.04,3.25 -50.53,9.78 -15.49,7.34 -27.71,16.3 -38.31,29.34 -7.33,8.97 -13.04,20.38 -16.3,32.6 -3.25,12.23 -4.89,33.42 -4.89,63.57l0 188.27 -61.94 0z"/>
  <path class="fil3" d="M8063.68 4119.67c-2.45,-31.79 -13.04,-57.06 -31.79,-74.17 -19.56,-17.11 -45.64,-26.08 -79.06,-26.08 -30.15,0 -55.41,8.96 -75.79,26.89 -20.38,18.75 -31.79,42.39 -35.05,73.36l221.69 0zm66.84 50.53l-288.52 0 0 5.71c0,39.11 11.41,70.09 33.41,94.54 22.01,23.64 51.35,35.86 87.21,35.86 24.45,0 46.45,-6.52 66.01,-19.56 19.56,-13.04 37.5,-33.41 52.16,-59.5l47.27 31.79c-17.94,32.6 -41.56,57.87 -70.09,74.17 -28.54,17.11 -61.14,25.26 -98.62,25.26 -55.42,0 -100.25,-18.75 -134.48,-54.61 -34.24,-36.68 -51.35,-84.76 -51.35,-144.26 0,-57.05 17.11,-104.31 51.35,-140.18 33.41,-36.68 77.43,-54.61 130.4,-54.61 53.79,0 96.99,17.11 127.96,51.35 31.79,35.05 47.27,82.31 47.27,141.81l0 12.23z"/>
  <path class="fil3" d="M8278.37 4342.99l0 -364.31 55.42 0 0 75.79c17.11,-31.79 35.04,-53.79 53.79,-67.64 18.75,-13.86 41.56,-20.39 68.46,-20.39 7.34,0 14.67,0.82 22.01,1.64 6.51,1.63 13.85,3.26 20.38,5.7l-20.38 56.24c-7.34,-2.44 -13.86,-4.08 -20.38,-5.7 -6.52,-0.81 -13.05,-1.64 -18.75,-1.64 -32.6,0 -57.05,12.23 -74.17,35.86 -16.3,23.64 -24.45,59.5 -24.45,106.77l0 177.67 -61.94 0z"/>
 </g>
</svg>
