<svg width="252" height="50" viewBox="0 0 252 50" fill="none" xmlns="http://www.w3.org/2000/svg">
<path d="M1.26172 1.26562H24.0979L30.6225 8.4427H8.43878V41.0658H41.0619V20.8394L48.239 28.0165V48.2429H1.26172V1.26562Z" fill="white"/>
<path d="M39.105 7.13778L20.1836 26.7117L23.446 29.9739L43.0198 10.4001V15.6198L48.2395 20.8394V1.26562H29.9706L35.1903 7.13778H39.105Z" fill="#E43625"/>
<path d="M55.7534 22.3125V1.43267H62.8943C64.6483 1.43267 66.1609 1.72035 67.4322 2.29573C68.7128 2.86183 69.6965 3.6738 70.3833 4.73174C71.07 5.78028 71.4133 7.03312 71.4133 8.49005C71.4133 9.94697 71.07 11.2091 70.3833 12.2763C69.6965 13.3342 68.7176 14.1508 67.4461 14.7262C66.1841 15.3015 64.6807 15.5892 62.9361 15.5892H60.0407V22.3125H55.7534ZM60.0407 11.8309H62.4906C63.9476 11.8309 65.0659 11.5431 65.8454 10.9678C66.6342 10.3831 67.0285 9.55728 67.0285 8.49005C67.0285 7.4414 66.6342 6.62943 65.8454 6.05404C65.0659 5.46945 63.9476 5.1771 62.4906 5.1771H60.0407V11.8309ZM78.429 22.3125H74.4339V8.3926H77.914L78.0531 10.8008C78.5172 9.95627 79.1482 9.29742 79.9463 8.82417C80.7444 8.35092 81.6584 8.11425 82.6884 8.11425C82.9855 8.11425 83.2824 8.13743 83.5794 8.18381C83.8856 8.22099 84.1964 8.28126 84.512 8.36482L84.0108 11.9561C83.3984 11.7798 82.8184 11.6917 82.2709 11.6917C81.5007 11.6917 80.8232 11.868 80.2385 12.2206C79.6633 12.564 79.2178 13.0465 78.9023 13.6683C78.5867 14.2808 78.429 15 78.429 15.8259V22.3125ZM99.1697 20.7535C97.4436 21.9785 95.5551 22.591 93.5042 22.591C91.9823 22.591 90.6135 22.2661 89.3979 21.6166C88.1915 20.9576 87.2356 20.0668 86.5304 18.9439C85.8344 17.8211 85.4864 16.5544 85.4864 15.1438C85.4864 13.7982 85.8019 12.5965 86.433 11.5385C87.0732 10.4806 87.941 9.64544 89.036 9.03296C90.131 8.42049 91.3745 8.11425 92.7665 8.11425C94.2049 8.11425 95.4716 8.45297 96.5667 9.13041C97.6617 9.79855 98.5155 10.7359 99.1279 11.9422C99.7404 13.1393 100.047 14.5266 100.047 16.1043V16.5497H89.7877C89.9547 17.0972 90.2285 17.5798 90.609 17.9974C90.9893 18.4057 91.4627 18.7305 92.0288 18.9718C92.5948 19.2131 93.2445 19.3337 93.9776 19.3337C95.3974 19.3337 96.7198 18.8743 97.9448 17.9556L99.1697 20.7535ZM89.6067 14.5174H96.3578C96.2836 13.9142 96.0933 13.3853 95.7871 12.9305C95.4902 12.4665 95.0958 12.1046 94.6039 11.8448C94.1214 11.5849 93.5785 11.455 92.9753 11.455C92.3628 11.455 91.8153 11.5896 91.3328 11.8587C90.8595 12.1278 90.4743 12.4897 90.1774 12.9445C89.8804 13.3991 89.6902 13.9235 89.6067 14.5174ZM125.227 22.3125H121.233V15.3247C121.233 14.1647 121.006 13.2692 120.55 12.6383C120.096 12.0072 119.451 11.6917 118.616 11.6917C117.762 11.6917 117.094 12.0118 116.611 12.6521C116.138 13.2924 115.901 14.1833 115.901 15.3247V22.3125H111.906V15.3247C111.906 14.1647 111.679 13.2692 111.224 12.6383C110.77 12.0072 110.12 11.6917 109.276 11.6917C108.431 11.6917 107.768 12.0118 107.285 12.6521C106.812 13.2924 106.575 14.1833 106.575 15.3247V22.3125H102.58V8.3926H105.768L105.907 10.6894C106.371 9.84493 106.993 9.20467 107.772 8.7685C108.561 8.33233 109.475 8.11425 110.514 8.11425C111.6 8.11425 112.537 8.34163 113.327 8.79628C114.115 9.25104 114.723 9.9053 115.15 10.759C115.623 9.896 116.249 9.24175 117.029 8.79628C117.818 8.34163 118.751 8.11425 119.826 8.11425C121.525 8.11425 122.848 8.65716 123.794 9.74289C124.75 10.8193 125.227 12.3273 125.227 14.2669V22.3125ZM130.379 5.06576C129.849 5.06576 129.404 4.88016 129.042 4.50896C128.68 4.13775 128.499 3.68769 128.499 3.15877C128.499 2.62975 128.68 2.18439 129.042 1.82243C129.404 1.45123 129.849 1.26562 130.379 1.26562C130.917 1.26562 131.367 1.45123 131.728 1.82243C132.1 2.18439 132.285 2.62975 132.285 3.15877C132.285 3.68769 132.1 4.13775 131.728 4.50896C131.367 4.88016 130.917 5.06576 130.379 5.06576ZM132.383 22.3125H128.388V8.3926H132.383V22.3125ZM149.435 22.3125H146.191L146.052 20.0854C145.56 20.902 144.906 21.5237 144.089 21.9506C143.282 22.3775 142.336 22.591 141.249 22.591C139.468 22.591 138.071 22.0435 137.06 20.9484C136.048 19.8533 135.542 18.35 135.542 16.4383V8.3926H139.538V15.5196C139.538 16.6053 139.792 17.4591 140.303 18.0809C140.822 18.6933 141.528 18.9996 142.419 18.9996C143.347 18.9996 144.08 18.6795 144.618 18.0392C145.166 17.3895 145.44 16.5126 145.44 15.4083V8.3926H149.435V22.3125ZM175.479 22.3125H171.484V15.3247C171.484 14.1647 171.256 13.2692 170.802 12.6383C170.347 12.0072 169.702 11.6917 168.867 11.6917C168.013 11.6917 167.344 12.0118 166.862 12.6521C166.389 13.2924 166.153 14.1833 166.153 15.3247V22.3125H162.158V15.3247C162.158 14.1647 161.93 13.2692 161.476 12.6383C161.02 12.0072 160.37 11.6917 159.527 11.6917C158.682 11.6917 158.018 12.0118 157.536 12.6521C157.063 13.2924 156.826 14.1833 156.826 15.3247V22.3125H152.832V8.3926H156.018L156.158 10.6894C156.622 9.84493 157.243 9.20467 158.024 8.7685C158.812 8.33233 159.726 8.11425 160.765 8.11425C161.852 8.11425 162.788 8.34163 163.577 8.79628C164.366 9.25104 164.973 9.9053 165.401 10.759C165.874 9.896 166.5 9.24175 167.28 8.79628C168.068 8.34163 169.001 8.11425 170.078 8.11425C171.776 8.11425 173.098 8.65716 174.045 9.74289C175 10.8193 175.479 12.3273 175.479 14.2669V22.3125Z" fill="white"/>
<path d="M187.631 22.3125H183.343V5.1771H177.19V1.43266H193.797V5.1771H187.631V22.3125ZM199.783 22.3125H195.788V8.39259H199.267L199.407 10.8008C199.871 9.95626 200.502 9.29742 201.3 8.82417C202.098 8.35092 203.012 8.11424 204.043 8.11424C204.339 8.11424 204.636 8.13743 204.934 8.1838C205.24 8.22099 205.55 8.28125 205.866 8.36481L205.365 11.9561C204.752 11.7798 204.172 11.6916 203.625 11.6916C202.854 11.6916 202.177 11.868 201.592 12.2206C201.017 12.564 200.572 13.0465 200.256 13.6683C199.941 14.2808 199.783 15 199.783 15.8259V22.3125ZM221.317 22.3125H218.074L217.934 20.0854C217.442 20.902 216.788 21.5237 215.971 21.9506C215.164 22.3775 214.218 22.591 213.132 22.591C211.35 22.591 209.953 22.0435 208.942 20.9484C207.93 19.8533 207.425 18.35 207.425 16.4383V8.39259H211.42V15.5196C211.42 16.6053 211.675 17.4591 212.185 18.0809C212.705 18.6933 213.41 18.9996 214.301 18.9996C215.229 18.9996 215.962 18.6794 216.501 18.0392C217.048 17.3895 217.322 16.5126 217.322 15.4083V8.39259H221.317V22.3125ZM223.739 21.1155L224.616 17.719C224.894 18.0252 225.265 18.3082 225.73 18.5681C226.203 18.828 226.709 19.0368 227.247 19.1945C227.794 19.343 228.31 19.4173 228.792 19.4173C229.367 19.4173 229.817 19.3105 230.142 19.097C230.467 18.8743 230.63 18.5774 230.63 18.2062C230.63 17.9 230.518 17.6447 230.295 17.4406C230.082 17.2271 229.79 17.0415 229.418 16.8838C229.057 16.7168 228.652 16.5544 228.207 16.3966C227.604 16.1646 226.982 15.8954 226.342 15.5892C225.711 15.2829 225.177 14.8654 224.741 14.3364C224.305 13.8075 224.087 13.1068 224.087 12.2346C224.087 11.3993 224.305 10.6755 224.741 10.063C225.177 9.44124 225.795 8.96339 226.593 8.62927C227.391 8.28595 228.318 8.11424 229.376 8.11424C231.093 8.11424 232.805 8.54571 234.513 9.40876L233.386 12.5686C233.088 12.3366 232.717 12.1231 232.271 11.9283C231.827 11.7241 231.367 11.5617 230.894 11.4411C230.43 11.3204 230.012 11.2602 229.641 11.2602C229.186 11.2602 228.829 11.3529 228.569 11.5385C228.318 11.7241 228.194 11.9793 228.194 12.3041C228.194 12.5454 228.282 12.7635 228.458 12.9584C228.635 13.144 228.894 13.3249 229.237 13.5013C229.59 13.6683 230.022 13.8492 230.532 14.0441C231.163 14.2761 231.798 14.5545 232.439 14.8794C233.088 15.1948 233.631 15.6217 234.068 16.16C234.513 16.6889 234.735 17.3942 234.735 18.2758C234.735 19.1388 234.499 19.8951 234.026 20.5448C233.561 21.1943 232.903 21.7 232.049 22.0619C231.205 22.4147 230.212 22.591 229.07 22.591C227.168 22.591 225.39 22.0991 223.739 21.1155ZM246.749 21.9506C245.681 22.3775 244.646 22.591 243.645 22.591C242.605 22.591 241.686 22.3729 240.888 21.9367C240.1 21.4913 239.482 20.8742 239.036 20.0854C238.592 19.2873 238.369 18.3686 238.369 17.3293V11.9561H235.933V8.39259H238.578V4.91264H242.364V8.39259H246.219V11.9561H242.364V16.6053C242.364 17.3663 242.573 17.9602 242.99 18.3871C243.408 18.8048 243.928 19.0136 244.549 19.0136C245.115 19.0136 245.668 18.8373 246.206 18.4845L246.749 21.9506Z" fill="#E43625"/>
<path d="M55.7534 47.9623V26.9175H63.54C65.8035 26.9175 67.5572 27.3992 68.8012 28.3626C70.0545 29.3167 70.6812 30.6589 70.6812 32.3893C70.6812 33.4461 70.4333 34.3814 69.9376 35.1952C69.4419 35.9996 68.7731 36.6122 67.9313 37.0331C69.1285 37.3885 70.0592 38.0012 70.7233 38.8711C71.3967 39.7315 71.7335 40.7884 71.7335 42.0417C71.7335 43.239 71.4388 44.2819 70.8496 45.1705C70.2696 46.0496 69.4466 46.737 68.3803 47.2328C67.3233 47.7191 66.0793 47.9623 64.6484 47.9623H55.7534ZM60.0747 35.7283H63.3015C64.2649 35.7283 65.0272 35.4992 65.5884 35.0408C66.1496 34.5825 66.4302 33.9605 66.4302 33.1748C66.4302 32.408 66.1449 31.8047 65.5744 31.3651C65.0132 30.9161 64.2321 30.6916 63.2313 30.6916H60.0747V35.7283ZM60.0747 44.1882H63.5681C64.335 44.1882 64.9991 44.0808 65.5603 43.8657C66.1214 43.6412 66.5518 43.3278 66.851 42.9256C67.1598 42.5141 67.314 42.0371 67.314 41.4946C67.314 40.9521 67.1737 40.4891 66.8931 40.1056C66.6218 39.7221 66.2243 39.4323 65.7006 39.2357C65.1768 39.0301 64.5548 38.9272 63.8346 38.9272H60.0747V44.1882ZM86.8716 47.9623H83.3642L83.1537 46.2928C82.6393 46.9101 82.0033 47.3918 81.2456 47.7379C80.488 48.0746 79.6556 48.2429 78.7483 48.2429C77.7663 48.2429 76.8917 48.0559 76.1248 47.6817C75.3578 47.2982 74.7545 46.7745 74.3149 46.1104C73.8753 45.4369 73.6555 44.6746 73.6555 43.8236C73.6555 42.9256 73.894 42.1353 74.371 41.4525C74.848 40.7697 75.5028 40.2365 76.3352 39.8531C77.177 39.4602 78.1311 39.2638 79.1972 39.2638C79.8239 39.2638 80.4506 39.3339 81.0773 39.4742C81.7133 39.6145 82.3026 39.811 82.8451 40.0635V39.6987C82.8451 39.1375 82.6861 38.6558 82.368 38.2536C82.0594 37.8422 81.6291 37.5242 81.0773 37.2997C80.5348 37.0752 79.9268 36.963 79.2535 36.963C78.6081 36.963 77.9674 37.0659 77.3313 37.2716C76.7047 37.4774 76.1248 37.7861 75.5916 38.1976L74.4973 35.125C75.442 34.6387 76.396 34.2739 77.3594 34.0307C78.3322 33.7781 79.2721 33.6519 80.1794 33.6519C81.5449 33.6519 82.7281 33.9231 83.729 34.4656C84.7298 34.9988 85.5013 35.7564 86.0438 36.7385C86.5957 37.7111 86.8716 38.8664 86.8716 40.2038V47.9623ZM79.6322 45.1423C80.1653 45.1423 80.6751 45.0255 81.1615 44.7915C81.6478 44.5577 82.0407 44.2398 82.34 43.8376C82.6486 43.4354 82.8123 42.9911 82.831 42.5047V42.4065C82.4195 42.1259 81.9612 41.9108 81.4561 41.7611C80.9604 41.6021 80.4553 41.5226 79.9408 41.5226C79.174 41.5226 78.5473 41.691 78.0609 42.0277C77.5744 42.3644 77.3313 42.7994 77.3313 43.3325C77.3313 43.6786 77.4296 43.9919 77.626 44.2724C77.8318 44.5438 78.1077 44.7588 78.4538 44.9178C78.7997 45.0676 79.1927 45.1423 79.6322 45.1423ZM104.016 47.9623H99.9895V40.779C99.9895 39.6847 99.7276 38.829 99.2038 38.2115C98.6894 37.585 97.9832 37.2716 97.0854 37.2716C96.1499 37.2716 95.4064 37.599 94.8546 38.2536C94.3121 38.899 94.0409 39.7782 94.0409 40.8913V47.9623H90.0143V33.9325H93.2692L93.4095 36.1773C93.9146 35.3542 94.574 34.7275 95.3877 34.2973C96.2015 33.867 97.1601 33.6519 98.2638 33.6519C100.05 33.6519 101.453 34.2037 102.473 35.3074C103.502 36.4018 104.016 37.917 104.016 39.8531V47.9623ZM111.185 47.9623H107.159V26.9175H111.185V39.8531L112.56 38.1976L116.601 33.9325H121.638L115.703 40.1758L122.339 47.9623H117.134L112.939 42.7012L111.185 44.3006V47.9623Z" fill="white"/>
</svg>
