<svg xmlns="http://www.w3.org/2000/svg" viewBox="0 0 198.5 198.5">
  <g fill="#073042">
    <path d="M130.54 83.61H54.98c-10.11 0-18.31-8.2-18.31-18.31V54.99c0-10.11 8.2-18.31 18.31-18.31h57.25c10.11 0 18.31 8.2 18.31 18.31v28.62Z"/>
    <path d="M143.52 161.83H86.27c-10.11 0-18.31-8.2-18.31-18.31V114.9h75.56c10.11 0 18.31 8.2 18.31 18.31v10.31c0 10.11-8.2 18.31-18.31 18.31Z"/>
    <path d="M161.83 0H37.05C16.62 0 0 16.62 0 37.05v124.78c0 2.97 2.41 5.38 5.38 5.38s5.38-2.41 5.38-5.38V40.29c0-16.28 13.25-29.53 29.53-29.53h121.54c2.97 0 5.38-2.41 5.38-5.38S164.8 0 161.83 0Z"/>
    <path d="M193.12 31.29c-2.97 0-5.38 2.41-5.38 5.38V158.2c0 16.28-13.25 29.53-29.53 29.53H36.67c-2.97 0-5.38 2.41-5.38 5.38s2.41 5.38 5.38 5.38h124.78c20.43 0 37.05-16.62 37.05-37.05V36.67c0-2.97-2.41-5.38-5.38-5.38Z"/>
  </g>
</svg>
